G04*
G04 #@! TF.GenerationSoftware,Altium Limited,Altium Designer,22.6.1 (34)*
G04*
G04 Layer_Color=32768*
%FSLAX44Y44*%
%MOMM*%
G71*
G04*
G04 #@! TF.SameCoordinates,44C52635-D950-46A4-BE53-1BE2AF9ACA8F*
G04*
G04*
G04 #@! TF.FilePolarity,Positive*
G04*
G01*
G75*
%ADD11C,0.5000*%
%ADD12C,0.2540*%
%ADD66C,0.1000*%
%ADD69C,0.0500*%
D11*
X896000Y902500D02*
Y1022500D01*
X786000D02*
X896000D01*
X786000Y902500D02*
Y1022500D01*
Y902500D02*
X896000D01*
X896500Y795750D02*
Y915750D01*
X786500D02*
X896500D01*
X786500Y795750D02*
Y915750D01*
Y795750D02*
X896500D01*
D12*
X866483Y742860D02*
G03*
X866483Y742860I-1133J0D01*
G01*
Y625110D02*
G03*
X866483Y625110I-1133J0D01*
G01*
D66*
X1154750Y485000D02*
Y495000D01*
X1149750Y490000D02*
X1159750D01*
X1285000Y547500D02*
Y557500D01*
X1280000Y552500D02*
X1290000D01*
X1278000Y619000D02*
X1288000D01*
X1283000Y614000D02*
Y624000D01*
X1149750Y630000D02*
X1159750D01*
X1154750Y625000D02*
Y635000D01*
X1285000Y765000D02*
Y775000D01*
X1280000Y770000D02*
X1290000D01*
X1154750Y766750D02*
Y776750D01*
X1149750Y771750D02*
X1159750D01*
X1088750Y915750D02*
X1098750D01*
X1093750Y910750D02*
Y920750D01*
X1088750Y771750D02*
X1098750D01*
X1093750Y766750D02*
Y776750D01*
X953750Y485750D02*
X963750D01*
X958750Y480750D02*
Y490750D01*
X1251250Y1070000D02*
Y1080000D01*
X1246250Y1075000D02*
X1256250D01*
X1246250Y1040000D02*
X1256250D01*
X1251250Y1035000D02*
Y1045000D01*
X805000Y695000D02*
X815000D01*
X810000Y690000D02*
Y700000D01*
X950000Y980000D02*
X960000D01*
X955000Y975000D02*
Y985000D01*
X953750Y914750D02*
X963750D01*
X958750Y909750D02*
Y919750D01*
X1015000Y975750D02*
X1025000D01*
X1020000Y970750D02*
Y980750D01*
X1048750Y930000D02*
Y940000D01*
X1043750Y935000D02*
X1053750D01*
X953750Y770750D02*
X963750D01*
X958750Y765750D02*
Y775750D01*
X953750Y694750D02*
X963750D01*
X958750Y689750D02*
Y699750D01*
Y624750D02*
Y634750D01*
X953750Y629750D02*
X963750D01*
X1020000Y687500D02*
Y697500D01*
X1015000Y692500D02*
X1025000D01*
X1088750Y630000D02*
X1098750D01*
X1093750Y625000D02*
Y635000D01*
X1043750Y660750D02*
X1053750D01*
X1048750Y655750D02*
Y665750D01*
X1230000Y687500D02*
Y697500D01*
X1225000Y692500D02*
X1235000D01*
X1230000Y764500D02*
Y774500D01*
X1225000Y769500D02*
X1235000D01*
X1230000Y830000D02*
Y840000D01*
X1225000Y835000D02*
X1235000D01*
X1020000Y910410D02*
Y920410D01*
X1015000Y915410D02*
X1025000D01*
X1015000Y630410D02*
X1025000D01*
X1020000Y625410D02*
Y635410D01*
Y767500D02*
Y777500D01*
X1015000Y772500D02*
X1025000D01*
X805000Y510000D02*
Y520000D01*
X800000Y515000D02*
X810000D01*
X742750Y666250D02*
Y732250D01*
X693250Y666250D02*
X742750D01*
X676750Y682750D02*
X693250Y666250D01*
X676750Y682750D02*
Y715750D01*
X693250Y732250D01*
X742750D01*
X767000Y990250D02*
X777000D01*
X772000Y985250D02*
Y995250D01*
X1088750Y490000D02*
X1098750D01*
X1093750Y485000D02*
Y495000D01*
X772500Y830750D02*
Y840750D01*
X767500Y835750D02*
X777500D01*
X1383250Y920167D02*
Y930167D01*
X1378250Y925167D02*
X1388250D01*
X1383250Y958500D02*
Y968500D01*
X1378250Y963500D02*
X1388250D01*
X1383250Y999000D02*
Y1009000D01*
X1378250Y1004000D02*
X1388250D01*
X1377500Y1042500D02*
X1387500D01*
X1382500Y1037500D02*
Y1047500D01*
X1187500Y802500D02*
X1197500D01*
X1192500Y797500D02*
Y807500D01*
Y652500D02*
Y662500D01*
X1187500Y657500D02*
X1197500D01*
Y510000D02*
Y520000D01*
X1192500Y515000D02*
X1202500D01*
X1280000Y420000D02*
X1290000D01*
X1285000Y415000D02*
Y425000D01*
X1020000Y475750D02*
Y485750D01*
X1015000Y480750D02*
X1025000D01*
X1376830Y495833D02*
X1386830D01*
X1381830Y490833D02*
Y500833D01*
X1382500Y412500D02*
Y422500D01*
X1377500Y417500D02*
X1387500D01*
X1381830Y451667D02*
Y461667D01*
X1376830Y456667D02*
X1386830D01*
X1382500Y530000D02*
Y540000D01*
X1377500Y535000D02*
X1387500D01*
X712000Y869000D02*
Y879000D01*
X707000Y874000D02*
X717000D01*
X712500Y741250D02*
Y751250D01*
X707500Y746250D02*
X717500D01*
X707500Y708417D02*
X717500D01*
X712500Y703417D02*
Y713417D01*
X810000Y727500D02*
Y737500D01*
X805000Y732500D02*
X815000D01*
X810000Y765000D02*
Y775000D01*
X805000Y770000D02*
X815000D01*
X768150Y905500D02*
X778150D01*
X773150Y900500D02*
Y910500D01*
X824750Y905750D02*
X834750D01*
X829750Y900750D02*
Y910750D01*
X716750Y797250D02*
X726750D01*
X721750Y792250D02*
Y802250D01*
X1072500Y407500D02*
Y417500D01*
X1067500Y412500D02*
X1077500D01*
X907250Y412250D02*
Y422250D01*
X902250Y417250D02*
X912250D01*
X707500Y670583D02*
X717500D01*
X712500Y665583D02*
Y675583D01*
Y627750D02*
Y637750D01*
X707500Y632750D02*
X717500D01*
X1015000Y837500D02*
X1025000D01*
X1020000Y832500D02*
Y842500D01*
X1015000Y550750D02*
X1025000D01*
X1020000Y545750D02*
Y555750D01*
X1277500Y685750D02*
X1287500D01*
X1282500Y680750D02*
Y690750D01*
X1225000Y629500D02*
X1235000D01*
X1230000Y624500D02*
Y634500D01*
X1149750Y915750D02*
X1159750D01*
X1154750Y910750D02*
Y920750D01*
X1149750Y552179D02*
X1159750D01*
X1154750Y547179D02*
Y557179D01*
X1149750Y979000D02*
X1159750D01*
X1154750Y974000D02*
Y984000D01*
X1155000Y687500D02*
Y697500D01*
X1150000Y692500D02*
X1160000D01*
X1149750Y836500D02*
X1159750D01*
X1154750Y831500D02*
Y841500D01*
X1192500Y942500D02*
Y952500D01*
X1187500Y947500D02*
X1197500D01*
X1230000Y980000D02*
Y990000D01*
X1225000Y985000D02*
X1235000D01*
X1227500Y912500D02*
Y922500D01*
X1222500Y917500D02*
X1232500D01*
X1285000Y910000D02*
Y920000D01*
X1280000Y915000D02*
X1290000D01*
X1285000Y980000D02*
Y990000D01*
X1280000Y985000D02*
X1290000D01*
X1280000Y481750D02*
X1290000D01*
X1285000Y476750D02*
Y486750D01*
X1280000Y835000D02*
X1290000D01*
X1285000Y830000D02*
Y840000D01*
X1225000Y552500D02*
X1235000D01*
X1230000Y547500D02*
Y557500D01*
X1225000Y483000D02*
X1235000D01*
X1230000Y478000D02*
Y488000D01*
X1093750Y974000D02*
Y984000D01*
X1088750Y979000D02*
X1098750D01*
X1043750Y805750D02*
X1053750D01*
X1048750Y800750D02*
Y810750D01*
Y505750D02*
Y515750D01*
X1043750Y510750D02*
X1053750D01*
X958750Y831500D02*
Y841500D01*
X953750Y836500D02*
X963750D01*
X1093750Y831500D02*
Y841500D01*
X1088750Y836500D02*
X1098750D01*
X1093750Y690750D02*
Y700750D01*
X1088750Y695750D02*
X1098750D01*
X958750Y546179D02*
Y556179D01*
X953750Y551179D02*
X963750D01*
X1093750Y547179D02*
Y557179D01*
X1088750Y552179D02*
X1098750D01*
X723750Y830000D02*
Y840000D01*
X718750Y835000D02*
X728750D01*
X1231250Y400000D02*
Y410000D01*
X1226250Y405000D02*
X1236250D01*
X1226250Y437500D02*
X1236250D01*
X1231250Y432500D02*
Y442500D01*
X1297500Y1060000D02*
X1307500D01*
X1302500Y1055000D02*
Y1065000D01*
X700000Y750000D02*
Y760000D01*
X695000Y755000D02*
X705000D01*
X690000Y536000D02*
X739500D01*
X673500Y519500D02*
X690000Y536000D01*
X673500Y486500D02*
Y519500D01*
Y486500D02*
X690000Y470000D01*
X739500D01*
Y536000D01*
D69*
X1143750Y467500D02*
X1165750D01*
X1143750Y512500D02*
X1165750D01*
Y467500D02*
Y512500D01*
X1143750Y467500D02*
Y512500D01*
X1270000Y528500D02*
X1300000D01*
X1270000Y576500D02*
X1300000D01*
Y528500D02*
Y576500D01*
X1270000Y528500D02*
Y576500D01*
X1298000Y595000D02*
Y643000D01*
X1268000Y595000D02*
Y643000D01*
Y595000D02*
X1298000D01*
X1268000Y643000D02*
X1298000D01*
X1143750Y607500D02*
Y652500D01*
X1165750Y607500D02*
Y652500D01*
X1143750D02*
X1165750D01*
X1143750Y607500D02*
X1165750D01*
X1270000Y794000D02*
X1300000D01*
X1270000Y746000D02*
X1300000D01*
X1270000D02*
Y794000D01*
X1300000Y746000D02*
Y794000D01*
X1143750Y749250D02*
X1165750D01*
X1143750Y794250D02*
X1165750D01*
Y749250D02*
Y794250D01*
X1143750Y749250D02*
Y794250D01*
X1082750Y893250D02*
Y938250D01*
X1104750Y893250D02*
Y938250D01*
X1082750D02*
X1104750D01*
X1082750Y893250D02*
X1104750D01*
X1082750Y749250D02*
Y794250D01*
X1104750Y749250D02*
Y794250D01*
X1082750D02*
X1104750D01*
X1082750Y749250D02*
X1104750D01*
X973750Y461750D02*
Y509750D01*
X943750Y461750D02*
Y509750D01*
Y461750D02*
X973750D01*
X943750Y509750D02*
X973750D01*
X1234250Y1084500D02*
X1268250D01*
X1234250Y1065500D02*
X1268250D01*
X1234250D02*
Y1084500D01*
X1268250Y1065500D02*
Y1084500D01*
X1234250Y1030500D02*
Y1049500D01*
X1268250Y1030500D02*
Y1049500D01*
X1234250D02*
X1268250D01*
X1234250Y1030500D02*
X1268250D01*
X787000Y679000D02*
Y711000D01*
X833000Y679000D02*
Y711000D01*
X787000D02*
X833000D01*
X787000Y679000D02*
X833000D01*
X970000Y956000D02*
Y1004000D01*
X940000Y956000D02*
Y1004000D01*
Y956000D02*
X970000D01*
X940000Y1004000D02*
X970000D01*
X973750Y890750D02*
Y938750D01*
X943750Y890750D02*
Y938750D01*
Y890750D02*
X973750D01*
X943750Y938750D02*
X973750D01*
X1037000Y958750D02*
Y992750D01*
X1003000Y958750D02*
Y992750D01*
X1037000D01*
X1003000Y958750D02*
X1037000D01*
X1031750Y918000D02*
X1065750D01*
X1031750Y952000D02*
X1065750D01*
X1031750Y918000D02*
Y952000D01*
X1065750Y918000D02*
Y952000D01*
X973750Y746750D02*
Y794750D01*
X943750Y746750D02*
Y794750D01*
Y746750D02*
X973750D01*
X943750Y794750D02*
X973750D01*
Y670750D02*
Y718750D01*
X943750Y670750D02*
Y718750D01*
Y670750D02*
X973750D01*
X943750Y718750D02*
X973750D01*
X943750Y653750D02*
X973750D01*
X943750Y605750D02*
X973750D01*
X943750D02*
Y653750D01*
X973750Y605750D02*
Y653750D01*
X1003000Y675500D02*
X1037000D01*
X1003000Y709500D02*
X1037000D01*
X1003000Y675500D02*
Y709500D01*
X1037000Y675500D02*
Y709500D01*
X1082750Y607500D02*
Y652500D01*
X1104750Y607500D02*
Y652500D01*
X1082750D02*
X1104750D01*
X1082750Y607500D02*
X1104750D01*
X1065750Y643750D02*
Y677750D01*
X1031750Y643750D02*
Y677750D01*
X1065750D01*
X1031750Y643750D02*
X1065750D01*
X1213000Y709500D02*
X1247000D01*
X1213000Y675500D02*
X1247000D01*
Y709500D01*
X1213000Y675500D02*
Y709500D01*
Y752000D02*
X1247000D01*
X1213000Y787000D02*
X1247000D01*
X1213000Y752000D02*
Y787000D01*
X1247000Y752000D02*
Y787000D01*
X1213000Y852000D02*
X1247000D01*
X1213000Y818000D02*
X1247000D01*
Y852000D01*
X1213000Y818000D02*
Y852000D01*
X1003000Y932910D02*
X1037000D01*
X1003000Y897910D02*
X1037000D01*
Y932910D01*
X1003000Y897910D02*
Y932910D01*
Y612910D02*
Y647910D01*
X1037000Y612910D02*
Y647910D01*
X1003000Y612910D02*
X1037000D01*
X1003000Y647910D02*
X1037000D01*
X1003000Y790000D02*
X1037000D01*
X1003000Y755000D02*
X1037000D01*
Y790000D01*
X1003000Y755000D02*
Y790000D01*
X782000Y531000D02*
X828000D01*
X782000Y499000D02*
X828000D01*
X782000D02*
Y531000D01*
X828000Y499000D02*
Y531000D01*
X788000Y967250D02*
Y1013250D01*
X756000Y967250D02*
Y1013250D01*
Y967250D02*
X788000D01*
X756000Y1013250D02*
X788000D01*
X1082750Y467500D02*
Y512500D01*
X1104750Y467500D02*
Y512500D01*
X1082750D02*
X1104750D01*
X1082750Y467500D02*
X1104750D01*
X756500Y812750D02*
X788500D01*
X756500Y858750D02*
X788500D01*
Y812750D02*
Y858750D01*
X756500Y812750D02*
Y858750D01*
X1347690Y907667D02*
X1418810D01*
X1347690Y942667D02*
X1418810D01*
Y907667D02*
Y942667D01*
X1347690Y907667D02*
Y942667D01*
X1347690Y981000D02*
X1418810D01*
X1347690Y946000D02*
X1418810D01*
X1347690D02*
Y981000D01*
X1418810Y946000D02*
Y981000D01*
X1347690Y1021500D02*
X1418810D01*
X1347690Y986500D02*
X1418810D01*
X1347690D02*
Y1021500D01*
X1418810Y986500D02*
Y1021500D01*
X1346940Y1025000D02*
Y1060000D01*
X1418060Y1025000D02*
Y1060000D01*
X1346940D02*
X1418060D01*
X1346940Y1025000D02*
X1418060D01*
X1175500Y785500D02*
Y819500D01*
X1209500Y785500D02*
Y819500D01*
X1175500Y785500D02*
X1209500D01*
X1175500Y819500D02*
X1209500D01*
X1175500Y674500D02*
X1209500D01*
X1175500Y640500D02*
X1209500D01*
Y674500D01*
X1175500Y640500D02*
Y674500D01*
X1180500Y532000D02*
X1214500D01*
X1180500Y498000D02*
X1214500D01*
Y532000D01*
X1180500Y498000D02*
Y532000D01*
X1300000Y396000D02*
Y444000D01*
X1270000Y396000D02*
Y444000D01*
X1300000D01*
X1270000Y396000D02*
X1300000D01*
X1003000Y498250D02*
X1037000D01*
X1003000Y463250D02*
X1037000D01*
Y498250D01*
X1003000Y463250D02*
Y498250D01*
X1346270Y478333D02*
Y513333D01*
X1417390Y478333D02*
Y513333D01*
X1346270D02*
X1417390D01*
X1346270Y478333D02*
X1417390D01*
X1346940Y435000D02*
X1418060D01*
X1346940Y400000D02*
X1418060D01*
X1346940D02*
Y435000D01*
X1418060Y400000D02*
Y435000D01*
X1346270Y439167D02*
X1417390D01*
X1346270Y474167D02*
X1417390D01*
Y439167D02*
Y474167D01*
X1346270Y439167D02*
Y474167D01*
X1346940Y552500D02*
X1418060D01*
X1346940Y517500D02*
X1418060D01*
X1346940D02*
Y552500D01*
X1418060Y517500D02*
Y552500D01*
X686500Y863750D02*
X737500D01*
X686500Y884250D02*
X737500D01*
Y863750D02*
Y884250D01*
X686500Y863750D02*
Y884250D01*
X688500Y761250D02*
X736500D01*
X688500Y731250D02*
X736500D01*
Y761250D01*
X688500Y731250D02*
Y761250D01*
Y693417D02*
Y723417D01*
X736500Y693417D02*
Y723417D01*
X688500Y693417D02*
X736500D01*
X688500Y723417D02*
X736500D01*
X787000Y716500D02*
X833000D01*
X787000Y748500D02*
X833000D01*
Y716500D02*
Y748500D01*
X787000Y716500D02*
Y748500D01*
Y754000D02*
X833000D01*
X787000Y786000D02*
X833000D01*
Y754000D02*
Y786000D01*
X787000Y754000D02*
Y786000D01*
X800650Y868500D02*
Y942500D01*
X745650Y868500D02*
Y942500D01*
Y868500D02*
X800650D01*
X745650Y942500D02*
X800650D01*
X840750Y883250D02*
Y928250D01*
X818750Y883250D02*
Y928250D01*
Y883250D02*
X840750D01*
X818750Y928250D02*
X840750D01*
X745750Y782250D02*
Y812250D01*
X697750Y782250D02*
Y812250D01*
Y782250D02*
X745750D01*
X697750Y812250D02*
X745750D01*
X1055000Y376940D02*
X1090000D01*
X1055000Y448060D02*
X1090000D01*
X1055000Y376940D02*
Y448060D01*
X1090000Y376940D02*
Y448060D01*
X889750Y381690D02*
X924750D01*
X889750Y452810D02*
X924750D01*
X889750Y381690D02*
Y452810D01*
X924750Y381690D02*
Y452810D01*
X688500Y655583D02*
Y685583D01*
X736500Y655583D02*
Y685583D01*
X688500Y655583D02*
X736500D01*
X688500Y685583D02*
X736500D01*
X688500Y647750D02*
X736500D01*
X688500Y617750D02*
X736500D01*
Y647750D01*
X688500Y617750D02*
Y647750D01*
X1037000Y820500D02*
Y854500D01*
X1003000Y820500D02*
Y854500D01*
X1037000D01*
X1003000Y820500D02*
X1037000D01*
Y533750D02*
Y567750D01*
X1003000Y533750D02*
Y567750D01*
X1037000D01*
X1003000Y533750D02*
X1037000D01*
X1297500Y661750D02*
Y709750D01*
X1267500Y661750D02*
Y709750D01*
Y661750D02*
X1297500D01*
X1267500Y709750D02*
X1297500D01*
X1247000Y612000D02*
Y647000D01*
X1213000Y612000D02*
Y647000D01*
X1247000D01*
X1213000Y612000D02*
X1247000D01*
X1143750Y893250D02*
Y938250D01*
X1165750Y893250D02*
Y938250D01*
X1143750D02*
X1165750D01*
X1143750Y893250D02*
X1165750D01*
X1143750Y529679D02*
Y574679D01*
X1165750Y529679D02*
Y574679D01*
X1143750D02*
X1165750D01*
X1143750Y529679D02*
X1165750D01*
Y956500D02*
Y1001500D01*
X1143750Y956500D02*
Y1001500D01*
Y956500D02*
X1165750D01*
X1143750Y1001500D02*
X1165750D01*
X1144000Y715000D02*
X1166000D01*
X1144000Y670000D02*
X1166000D01*
X1144000D02*
Y715000D01*
X1166000Y670000D02*
Y715000D01*
X1143750Y814000D02*
Y859000D01*
X1165750Y814000D02*
Y859000D01*
X1143750D02*
X1165750D01*
X1143750Y814000D02*
X1165750D01*
X1175500Y964500D02*
X1209500D01*
X1175500Y930500D02*
X1209500D01*
Y964500D01*
X1175500Y930500D02*
Y964500D01*
X1213000Y1002000D02*
X1247000D01*
X1213000Y968000D02*
X1247000D01*
Y1002000D01*
X1213000Y968000D02*
Y1002000D01*
X1210500Y900000D02*
X1244500D01*
X1210500Y935000D02*
X1244500D01*
X1210500Y900000D02*
Y935000D01*
X1244500Y900000D02*
Y935000D01*
X1270000Y939000D02*
X1300000D01*
X1270000Y891000D02*
X1300000D01*
X1270000D02*
Y939000D01*
X1300000Y891000D02*
Y939000D01*
X1270000Y1009000D02*
X1300000D01*
X1270000Y961000D02*
X1300000D01*
X1270000D02*
Y1009000D01*
X1300000Y961000D02*
Y1009000D01*
Y457750D02*
Y505750D01*
X1270000Y457750D02*
Y505750D01*
Y457750D02*
X1300000D01*
X1270000Y505750D02*
X1300000D01*
X1270000Y811000D02*
Y859000D01*
X1300000Y811000D02*
Y859000D01*
X1270000D02*
X1300000D01*
X1270000Y811000D02*
X1300000D01*
X1213000Y535500D02*
Y569500D01*
X1247000Y535500D02*
Y569500D01*
X1213000Y535500D02*
X1247000D01*
X1213000Y569500D02*
X1247000D01*
Y465500D02*
Y500500D01*
X1213000Y465500D02*
Y500500D01*
X1247000D01*
X1213000Y465500D02*
X1247000D01*
X1082750Y1001500D02*
X1104750D01*
X1082750Y956500D02*
X1104750D01*
X1082750D02*
Y1001500D01*
X1104750Y956500D02*
Y1001500D01*
X1065750Y788750D02*
Y822750D01*
X1031750Y788750D02*
Y822750D01*
X1065750D01*
X1031750Y788750D02*
X1065750D01*
X1031750Y493750D02*
X1065750D01*
X1031750Y527750D02*
X1065750D01*
X1031750Y493750D02*
Y527750D01*
X1065750Y493750D02*
Y527750D01*
X943750Y812500D02*
X973750D01*
X943750Y860500D02*
X973750D01*
Y812500D02*
Y860500D01*
X943750Y812500D02*
Y860500D01*
X1082750Y814000D02*
X1104750D01*
X1082750Y859000D02*
X1104750D01*
Y814000D02*
Y859000D01*
X1082750Y814000D02*
Y859000D01*
Y718250D02*
X1104750D01*
X1082750Y673250D02*
X1104750D01*
X1082750D02*
Y718250D01*
X1104750Y673250D02*
Y718250D01*
X943750Y527179D02*
X973750D01*
X943750Y575179D02*
X973750D01*
Y527179D02*
Y575179D01*
X943750Y527179D02*
Y575179D01*
X1082750Y529679D02*
X1104750D01*
X1082750Y574679D02*
X1104750D01*
Y529679D02*
Y574679D01*
X1082750Y529679D02*
Y574679D01*
X706750Y825500D02*
X740750D01*
X706750Y844500D02*
X740750D01*
Y825500D02*
Y844500D01*
X706750Y825500D02*
Y844500D01*
X1214250Y395500D02*
X1248250D01*
X1214250Y414500D02*
X1248250D01*
Y395500D02*
Y414500D01*
X1214250Y395500D02*
Y414500D01*
X1248250Y428000D02*
Y447000D01*
X1214250Y428000D02*
Y447000D01*
Y428000D02*
X1248250D01*
X1214250Y447000D02*
X1248250D01*
X1317500Y1036000D02*
Y1084000D01*
X1287500Y1036000D02*
Y1084000D01*
X1317500D01*
X1287500Y1036000D02*
X1317500D01*
X664440Y737500D02*
X735560D01*
X664440Y772500D02*
X735560D01*
Y737500D02*
Y772500D01*
X664440Y737500D02*
Y772500D01*
M02*
