G04*
G04 #@! TF.GenerationSoftware,Altium Limited,Altium Designer,22.6.1 (34)*
G04*
G04 Layer_Physical_Order=4*
G04 Layer_Color=16711680*
%FSLAX44Y44*%
%MOMM*%
G71*
G04*
G04 #@! TF.SameCoordinates,44C52635-D950-46A4-BE53-1BE2AF9ACA8F*
G04*
G04*
G04 #@! TF.FilePolarity,Positive*
G04*
G01*
G75*
%ADD12C,0.2540*%
%ADD23R,2.5000X1.1500*%
%ADD25R,1.1500X2.5000*%
%ADD43C,0.6000*%
%ADD44C,0.8000*%
%ADD45C,0.4000*%
%ADD46C,4.5000*%
%ADD47C,2.0000*%
%ADD48C,1.8000*%
%ADD49C,1.3000*%
%ADD50C,0.6000*%
%ADD52R,1.6500X1.2000*%
%ADD53O,0.6000X1.8000*%
%ADD54R,0.6000X1.8000*%
%ADD55R,0.9000X0.8000*%
%ADD56R,2.7000X1.3000*%
%ADD57O,0.6500X1.7500*%
G36*
X989262Y1042681D02*
X989300Y1042619D01*
X989363Y1042534D01*
X989566Y1042298D01*
X990277Y1041553D01*
X990518Y1041310D01*
X987690Y1038482D01*
X986280Y1039750D01*
X989250Y1042720D01*
X989262Y1042681D01*
D02*
G37*
G36*
X994061Y1029781D02*
X989861D01*
X989880Y1029818D01*
X989897Y1029888D01*
X989912Y1029993D01*
X989936Y1030304D01*
X989960Y1031333D01*
X989961Y1031675D01*
X993961D01*
X994061Y1029781D01*
D02*
G37*
G36*
X912081Y1027821D02*
X912064Y1027750D01*
X912049Y1027646D01*
X912025Y1027335D01*
X912001Y1026306D01*
X912000Y1025964D01*
X908000D01*
X907900Y1027858D01*
X912100D01*
X912081Y1027821D01*
D02*
G37*
G36*
X793005Y1020618D02*
X792357Y1020976D01*
X791096Y1021578D01*
X790483Y1021823D01*
X789290Y1022199D01*
X788711Y1022331D01*
X788143Y1022425D01*
X787586Y1022481D01*
X787041Y1022500D01*
X785855Y1026500D01*
X786462Y1026529D01*
X787039Y1026615D01*
X787586Y1026759D01*
X788102Y1026961D01*
X788587Y1027221D01*
X789042Y1027538D01*
X789466Y1027912D01*
X789859Y1028345D01*
X790222Y1028835D01*
X790555Y1029382D01*
X793005Y1020618D01*
D02*
G37*
G36*
X1193268Y1015440D02*
X1192000Y1014030D01*
X1189030Y1017000D01*
X1189069Y1017012D01*
X1189131Y1017050D01*
X1189216Y1017113D01*
X1189453Y1017316D01*
X1190197Y1018027D01*
X1190440Y1018268D01*
X1193268Y1015440D01*
D02*
G37*
G36*
X774020Y1013960D02*
X774080Y1013279D01*
X774180Y1012680D01*
X774320Y1012160D01*
X774500Y1011720D01*
X774720Y1011359D01*
X774980Y1011079D01*
X775280Y1010880D01*
X775620Y1010760D01*
X776000Y1010720D01*
X768000D01*
X768380Y1010760D01*
X768720Y1010880D01*
X769020Y1011079D01*
X769280Y1011359D01*
X769500Y1011720D01*
X769680Y1012160D01*
X769820Y1012680D01*
X769920Y1013279D01*
X769980Y1013960D01*
X770000Y1014719D01*
X774000D01*
X774020Y1013960D01*
D02*
G37*
G36*
X758531Y997781D02*
X758491Y997775D01*
X758371Y997769D01*
X754530Y997750D01*
Y1001750D01*
X755294Y1001770D01*
X755978Y1001830D01*
X756582Y1001930D01*
X757105Y1002070D01*
X757548Y1002250D01*
X757911Y1002470D01*
X758194Y1002730D01*
X758397Y1003030D01*
X758519Y1003370D01*
X758561Y1003750D01*
X758531Y997781D01*
D02*
G37*
G36*
X1272531Y996750D02*
X1272490Y997130D01*
X1272371Y997470D01*
X1272170Y997770D01*
X1271890Y998030D01*
X1271531Y998250D01*
X1271090Y998430D01*
X1270571Y998570D01*
X1269970Y998670D01*
X1269290Y998730D01*
X1268531Y998750D01*
Y1002750D01*
X1269290Y1002770D01*
X1269970Y1002830D01*
X1270571Y1002930D01*
X1271090Y1003070D01*
X1271531Y1003250D01*
X1271890Y1003470D01*
X1272170Y1003730D01*
X1272371Y1004030D01*
X1272490Y1004370D01*
X1272531Y1004750D01*
Y996750D01*
D02*
G37*
G36*
X1224510Y998190D02*
X1224630Y997941D01*
X1224829Y997720D01*
X1225109Y997529D01*
X1225470Y997367D01*
X1225910Y997235D01*
X1226430Y997132D01*
X1227029Y997059D01*
X1227710Y997015D01*
X1228469Y997000D01*
Y993000D01*
X1227705Y992980D01*
X1227021Y992920D01*
X1226417Y992820D01*
X1225894Y992680D01*
X1225500Y992520D01*
X1225821Y992119D01*
X1227298Y990530D01*
X1224470Y987702D01*
X1223646Y988497D01*
X1222172Y989748D01*
X1221521Y990203D01*
X1220926Y990546D01*
X1220389Y990775D01*
X1219909Y990891D01*
X1219487Y990894D01*
X1219121Y990784D01*
X1218813Y990561D01*
X1224439Y996187D01*
X1224216Y995879D01*
X1224106Y995513D01*
X1224109Y995091D01*
X1224225Y994611D01*
X1224452Y994080D01*
X1224470Y998469D01*
X1224510Y998190D01*
D02*
G37*
G36*
X967479Y999370D02*
X967600Y999030D01*
X967802Y998730D01*
X968084Y998470D01*
X968447Y998250D01*
X968890Y998070D01*
X969414Y997930D01*
X970018Y997830D01*
X970704Y997770D01*
X971469Y997750D01*
Y993750D01*
X970704Y993730D01*
X970018Y993670D01*
X969414Y993570D01*
X968890Y993430D01*
X968447Y993250D01*
X968084Y993030D01*
X967802Y992770D01*
X967600Y992470D01*
X967479Y992130D01*
X967439Y991750D01*
Y999750D01*
X967479Y999370D01*
D02*
G37*
G36*
X1085561Y989000D02*
X1085521Y989380D01*
X1085400Y989720D01*
X1085198Y990020D01*
X1084916Y990280D01*
X1084553Y990500D01*
X1084110Y990680D01*
X1083586Y990820D01*
X1082981Y990920D01*
X1082296Y990980D01*
X1081531Y991000D01*
Y995000D01*
X1082296Y995020D01*
X1082981Y995080D01*
X1083586Y995180D01*
X1084110Y995320D01*
X1084553Y995500D01*
X1084916Y995720D01*
X1085198Y995980D01*
X1085400Y996280D01*
X1085521Y996620D01*
X1085561Y997000D01*
Y989000D01*
D02*
G37*
G36*
X939813Y976942D02*
X939998Y976801D01*
X940198Y976677D01*
X940413Y976569D01*
X940643Y976478D01*
X940888Y976403D01*
X941148Y976345D01*
X941423Y976303D01*
X941713Y976278D01*
X942018Y976270D01*
Y973730D01*
X941713Y973722D01*
X941423Y973697D01*
X941148Y973655D01*
X940888Y973597D01*
X940643Y973522D01*
X940413Y973431D01*
X940198Y973323D01*
X939998Y973199D01*
X939813Y973058D01*
X939642Y972900D01*
Y977100D01*
X939813Y976942D01*
D02*
G37*
G36*
X948209Y971869D02*
X948241Y971464D01*
X948295Y971107D01*
X948371Y970797D01*
X948468Y970535D01*
X948588Y970320D01*
X948728Y970154D01*
X948891Y970034D01*
X949075Y969963D01*
X949280Y969939D01*
X944575D01*
X944781Y969963D01*
X944965Y970034D01*
X945127Y970154D01*
X945268Y970320D01*
X945387Y970535D01*
X945485Y970797D01*
X945560Y971107D01*
X945614Y971464D01*
X945647Y971869D01*
X945658Y972322D01*
X948198D01*
X948209Y971869D01*
D02*
G37*
G36*
X1223620Y971521D02*
X1223280Y971400D01*
X1222980Y971198D01*
X1222720Y970916D01*
X1222500Y970553D01*
X1222320Y970110D01*
X1222180Y969586D01*
X1222080Y968981D01*
X1222020Y968296D01*
X1222000Y967531D01*
X1218000D01*
X1217980Y968296D01*
X1217920Y968981D01*
X1217820Y969586D01*
X1217680Y970110D01*
X1217500Y970553D01*
X1217280Y970916D01*
X1217020Y971198D01*
X1216720Y971400D01*
X1216380Y971521D01*
X1216000Y971561D01*
X1224000D01*
X1223620Y971521D01*
D02*
G37*
G36*
X772370Y969771D02*
X772030Y969650D01*
X771730Y969448D01*
X771470Y969166D01*
X771250Y968803D01*
X771070Y968360D01*
X770930Y967836D01*
X770830Y967232D01*
X770770Y966546D01*
X770750Y965780D01*
X766750D01*
X766730Y966546D01*
X766670Y967232D01*
X766570Y967836D01*
X766430Y968360D01*
X766250Y968803D01*
X766030Y969166D01*
X765770Y969448D01*
X765470Y969650D01*
X765130Y969771D01*
X764750Y969811D01*
X772750D01*
X772370Y969771D01*
D02*
G37*
G36*
X1025530Y970219D02*
X1025561Y964470D01*
X1025521Y964808D01*
X1025406Y965110D01*
X1025214Y965378D01*
X1024947Y965609D01*
X1024604Y965805D01*
X1024184Y965965D01*
X1023690Y966090D01*
X1023119Y966179D01*
X1022472Y966232D01*
X1021750Y966250D01*
Y970250D01*
X1025530Y970219D01*
D02*
G37*
G36*
X1297481Y971120D02*
X1297603Y970780D01*
X1297805Y970480D01*
X1298088Y970220D01*
X1298450Y970000D01*
X1298894Y969820D01*
X1299417Y969680D01*
X1300021Y969580D01*
X1300705Y969520D01*
X1301470Y969500D01*
Y965500D01*
X1300710Y965480D01*
X1300029Y965421D01*
X1299429Y965323D01*
X1298909Y965185D01*
X1298470Y965008D01*
X1298109Y964791D01*
X1297829Y964535D01*
X1297630Y964240D01*
X1297509Y963905D01*
X1297469Y963531D01*
X1297439Y971500D01*
X1297481Y971120D01*
D02*
G37*
G36*
X1158370Y959021D02*
X1158030Y958900D01*
X1157730Y958698D01*
X1157470Y958416D01*
X1157250Y958053D01*
X1157070Y957610D01*
X1156930Y957086D01*
X1156830Y956481D01*
X1156770Y955796D01*
X1156750Y955031D01*
X1152750D01*
X1152730Y955796D01*
X1152670Y956481D01*
X1152570Y957086D01*
X1152430Y957610D01*
X1152250Y958053D01*
X1152030Y958416D01*
X1151770Y958698D01*
X1151470Y958900D01*
X1151130Y959021D01*
X1150750Y959061D01*
X1158750D01*
X1158370Y959021D01*
D02*
G37*
G36*
X1097370D02*
X1097030Y958900D01*
X1096730Y958698D01*
X1096470Y958416D01*
X1096250Y958053D01*
X1096070Y957610D01*
X1095930Y957086D01*
X1095830Y956481D01*
X1095770Y955796D01*
X1095750Y955031D01*
X1091750D01*
X1091730Y955796D01*
X1091670Y956481D01*
X1091570Y957086D01*
X1091430Y957610D01*
X1091250Y958053D01*
X1091030Y958416D01*
X1090770Y958698D01*
X1090470Y958900D01*
X1090130Y959021D01*
X1089750Y959061D01*
X1097750D01*
X1097370Y959021D01*
D02*
G37*
G36*
X1187010Y960595D02*
X1187130Y960260D01*
X1187329Y959965D01*
X1187609Y959709D01*
X1187970Y959492D01*
X1188410Y959315D01*
X1188930Y959177D01*
X1189529Y959079D01*
X1190210Y959020D01*
X1190969Y959000D01*
Y955000D01*
X1190210Y954980D01*
X1189529Y954921D01*
X1188930Y954823D01*
X1188410Y954685D01*
X1187970Y954508D01*
X1187609Y954291D01*
X1187329Y954035D01*
X1187130Y953739D01*
X1187010Y953405D01*
X1186970Y953030D01*
Y960969D01*
X1187010Y960595D01*
D02*
G37*
G36*
X1222257Y951929D02*
X1221836Y951467D01*
X1221543Y951055D01*
X1221379Y950690D01*
X1221343Y950374D01*
X1221436Y950107D01*
X1221657Y949889D01*
X1222007Y949719D01*
X1222486Y949597D01*
X1223093Y949524D01*
X1223828Y949500D01*
X1215000Y945500D01*
X1210969Y948839D01*
Y945500D01*
X1210210Y945480D01*
X1209529Y945421D01*
X1208930Y945323D01*
X1208410Y945185D01*
X1207970Y945008D01*
X1207609Y944791D01*
X1207329Y944535D01*
X1207130Y944240D01*
X1207010Y943905D01*
X1206970Y943531D01*
Y951469D01*
X1207010Y951095D01*
X1207130Y950760D01*
X1207329Y950465D01*
X1207609Y950209D01*
X1207970Y949992D01*
X1208410Y949815D01*
X1208930Y949677D01*
X1209529Y949579D01*
X1210210Y949520D01*
X1210506Y949512D01*
X1210960Y949528D01*
X1211725Y949613D01*
X1212466Y949755D01*
X1213184Y949953D01*
X1213879Y950207D01*
X1214550Y950518D01*
X1215198Y950886D01*
X1215822Y951310D01*
X1216423Y951791D01*
X1217000Y952328D01*
X1222257Y951929D01*
D02*
G37*
G36*
X1063260Y948190D02*
X1063380Y947941D01*
X1063579Y947720D01*
X1063859Y947529D01*
X1064220Y947367D01*
X1064660Y947235D01*
X1065180Y947132D01*
X1065779Y947059D01*
X1066460Y947015D01*
X1067219Y947000D01*
Y943000D01*
X1066460Y942980D01*
X1065779Y942920D01*
X1065180Y942820D01*
X1064660Y942680D01*
X1064220Y942500D01*
X1063859Y942280D01*
X1063579Y942020D01*
X1063380Y941720D01*
X1063260Y941380D01*
X1063220Y941000D01*
Y948469D01*
X1063260Y948190D01*
D02*
G37*
G36*
X974048Y936219D02*
X973253Y935396D01*
X972002Y933922D01*
X971547Y933271D01*
X971204Y932676D01*
X970975Y932139D01*
X970859Y931659D01*
X970856Y931237D01*
X970966Y930871D01*
X971189Y930563D01*
X965563Y936189D01*
X965871Y935966D01*
X966237Y935856D01*
X966659Y935859D01*
X967139Y935975D01*
X967676Y936204D01*
X968271Y936547D01*
X968922Y937002D01*
X969631Y937571D01*
X971219Y939048D01*
X974048Y936219D01*
D02*
G37*
G36*
X1156770Y938954D02*
X1156830Y938269D01*
X1156930Y937664D01*
X1157070Y937140D01*
X1157250Y936697D01*
X1157470Y936334D01*
X1157730Y936052D01*
X1158030Y935850D01*
X1158370Y935729D01*
X1158750Y935689D01*
X1150750D01*
X1151130Y935729D01*
X1151470Y935850D01*
X1151770Y936052D01*
X1152030Y936334D01*
X1152250Y936697D01*
X1152430Y937140D01*
X1152570Y937664D01*
X1152670Y938269D01*
X1152730Y938954D01*
X1152750Y939719D01*
X1156750D01*
X1156770Y938954D01*
D02*
G37*
G36*
X1095770D02*
X1095830Y938269D01*
X1095930Y937664D01*
X1096070Y937140D01*
X1096250Y936697D01*
X1096470Y936334D01*
X1096730Y936052D01*
X1097030Y935850D01*
X1097370Y935729D01*
X1097750Y935689D01*
X1089750D01*
X1090130Y935729D01*
X1090470Y935850D01*
X1090770Y936052D01*
X1091030Y936334D01*
X1091250Y936697D01*
X1091430Y937140D01*
X1091570Y937664D01*
X1091670Y938269D01*
X1091730Y938954D01*
X1091750Y939719D01*
X1095750D01*
X1095770Y938954D01*
D02*
G37*
G36*
X795457Y937370D02*
X795578Y937030D01*
X795780Y936730D01*
X796062Y936470D01*
X796424Y936250D01*
X796868Y936070D01*
X797392Y935930D01*
X797996Y935830D01*
X798681Y935770D01*
X799447Y935750D01*
Y931750D01*
X798681Y931730D01*
X797996Y931670D01*
X797392Y931570D01*
X796868Y931430D01*
X796424Y931250D01*
X796062Y931030D01*
X795780Y930770D01*
X795578Y930470D01*
X795457Y930130D01*
X795417Y929750D01*
Y937750D01*
X795457Y937370D01*
D02*
G37*
G36*
X1012020Y932114D02*
X1012080Y931429D01*
X1012180Y930824D01*
X1012320Y930300D01*
X1012500Y929857D01*
X1012720Y929494D01*
X1012980Y929212D01*
X1013280Y929010D01*
X1013620Y928889D01*
X1014000Y928849D01*
X1006000D01*
X1006380Y928889D01*
X1006720Y929010D01*
X1007020Y929212D01*
X1007280Y929494D01*
X1007500Y929857D01*
X1007680Y930300D01*
X1007820Y930824D01*
X1007920Y931429D01*
X1007980Y932114D01*
X1008000Y932879D01*
X1012000D01*
X1012020Y932114D01*
D02*
G37*
G36*
X1038477Y931038D02*
X1038429Y930968D01*
X1038387Y930852D01*
X1038351Y930690D01*
X1038320Y930482D01*
X1038275Y929928D01*
X1038250Y928750D01*
X1034250D01*
X1034280Y931031D01*
X1038531Y931061D01*
X1038477Y931038D01*
D02*
G37*
G36*
X1272531Y926750D02*
X1272490Y927130D01*
X1272371Y927470D01*
X1272170Y927770D01*
X1271890Y928030D01*
X1271531Y928250D01*
X1271090Y928430D01*
X1270571Y928570D01*
X1269970Y928670D01*
X1269290Y928730D01*
X1268531Y928750D01*
Y932750D01*
X1269290Y932770D01*
X1269970Y932830D01*
X1270571Y932930D01*
X1271090Y933070D01*
X1271531Y933250D01*
X1271890Y933470D01*
X1272170Y933730D01*
X1272371Y934030D01*
X1272490Y934370D01*
X1272531Y934750D01*
Y926750D01*
D02*
G37*
G36*
X1162979Y933370D02*
X1163100Y933030D01*
X1163302Y932730D01*
X1163584Y932470D01*
X1163947Y932250D01*
X1164390Y932070D01*
X1164914Y931930D01*
X1165518Y931830D01*
X1166204Y931770D01*
X1166970Y931750D01*
Y927750D01*
X1166204Y927730D01*
X1165518Y927670D01*
X1164914Y927570D01*
X1164390Y927430D01*
X1163947Y927250D01*
X1163584Y927030D01*
X1163302Y926770D01*
X1163100Y926470D01*
X1162979Y926130D01*
X1162939Y925750D01*
Y933750D01*
X1162979Y933370D01*
D02*
G37*
G36*
X1085561Y925750D02*
X1085521Y926130D01*
X1085400Y926470D01*
X1085198Y926770D01*
X1084916Y927030D01*
X1084553Y927250D01*
X1084110Y927430D01*
X1083586Y927570D01*
X1082981Y927670D01*
X1082296Y927730D01*
X1081531Y927750D01*
Y931750D01*
X1082296Y931770D01*
X1082981Y931830D01*
X1083586Y931930D01*
X1084110Y932070D01*
X1084553Y932250D01*
X1084916Y932470D01*
X1085198Y932730D01*
X1085400Y933030D01*
X1085521Y933370D01*
X1085561Y933750D01*
Y925750D01*
D02*
G37*
G36*
X831770Y928960D02*
X831830Y928279D01*
X831930Y927680D01*
X832070Y927160D01*
X832250Y926720D01*
X832470Y926359D01*
X832730Y926079D01*
X833030Y925880D01*
X833370Y925760D01*
X833750Y925720D01*
X825750D01*
X826130Y925760D01*
X826470Y925880D01*
X826770Y926079D01*
X827030Y926359D01*
X827250Y926720D01*
X827430Y927160D01*
X827570Y927680D01*
X827670Y928279D01*
X827730Y928960D01*
X827750Y929719D01*
X831750D01*
X831770Y928960D01*
D02*
G37*
G36*
X950076Y924781D02*
X949951Y924839D01*
X949770Y924822D01*
X949531Y924729D01*
X949237Y924560D01*
X948885Y924315D01*
X948477Y923994D01*
X947492Y923125D01*
X946281Y921952D01*
X943452Y924781D01*
X944077Y925415D01*
X945815Y927385D01*
X946060Y927737D01*
X946229Y928031D01*
X946322Y928270D01*
X946339Y928451D01*
X946281Y928576D01*
X950076Y924781D01*
D02*
G37*
G36*
X1054311Y923220D02*
X1054288Y923273D01*
X1054219Y923320D01*
X1054103Y923363D01*
X1053941Y923399D01*
X1053733Y923430D01*
X1053179Y923475D01*
X1052000Y923500D01*
Y927500D01*
X1052439Y927503D01*
X1053941Y927601D01*
X1054103Y927637D01*
X1054219Y927680D01*
X1054288Y927727D01*
X1054311Y927781D01*
Y923220D01*
D02*
G37*
G36*
X1238687Y923061D02*
X1238379Y923284D01*
X1238013Y923394D01*
X1237591Y923391D01*
X1237111Y923275D01*
X1236574Y923046D01*
X1235979Y922703D01*
X1235328Y922248D01*
X1234619Y921679D01*
X1233030Y920202D01*
X1230202Y923030D01*
X1230997Y923854D01*
X1232248Y925328D01*
X1232703Y925979D01*
X1233046Y926574D01*
X1233275Y927111D01*
X1233391Y927591D01*
X1233394Y928013D01*
X1233284Y928379D01*
X1233061Y928687D01*
X1238687Y923061D01*
D02*
G37*
G36*
X1293620Y925021D02*
X1293280Y924900D01*
X1292980Y924698D01*
X1292720Y924416D01*
X1292500Y924053D01*
X1292320Y923610D01*
X1292180Y923086D01*
X1292080Y922482D01*
X1292020Y921796D01*
X1292000Y921031D01*
X1288000D01*
X1287980Y921796D01*
X1287920Y922482D01*
X1287820Y923086D01*
X1287680Y923610D01*
X1287500Y924053D01*
X1287280Y924416D01*
X1287020Y924698D01*
X1286720Y924900D01*
X1286380Y925021D01*
X1286000Y925061D01*
X1294000D01*
X1293620Y925021D01*
D02*
G37*
G36*
X1196577Y921291D02*
X1197178Y920810D01*
X1197803Y920386D01*
X1198450Y920018D01*
X1199121Y919707D01*
X1199816Y919453D01*
X1200534Y919255D01*
X1201275Y919113D01*
X1202040Y919028D01*
X1202828Y919000D01*
X1198000Y915000D01*
X1192000Y919000D01*
X1192409Y919013D01*
X1192568Y919029D01*
X1192698Y919052D01*
X1192797Y919082D01*
X1192866Y919118D01*
X1192906Y919160D01*
X1192915Y919209D01*
X1192895Y919265D01*
X1192844Y919327D01*
X1196000Y921828D01*
X1196577Y921291D01*
D02*
G37*
G36*
X1213030Y913531D02*
X1212990Y913810D01*
X1212870Y914060D01*
X1212671Y914280D01*
X1212391Y914471D01*
X1212030Y914633D01*
X1211590Y914765D01*
X1211070Y914868D01*
X1210471Y914941D01*
X1209790Y914985D01*
X1209031Y915000D01*
Y919000D01*
X1209795Y919020D01*
X1210479Y919080D01*
X1211083Y919180D01*
X1211606Y919320D01*
X1212049Y919500D01*
X1212412Y919720D01*
X1212695Y919980D01*
X1212897Y920280D01*
X1213019Y920620D01*
X1213061Y921000D01*
X1213030Y913531D01*
D02*
G37*
G36*
X1034510Y919005D02*
X1034630Y918671D01*
X1034829Y918375D01*
X1035109Y918119D01*
X1035470Y917902D01*
X1035910Y917725D01*
X1036430Y917587D01*
X1037029Y917489D01*
X1037710Y917430D01*
X1038469Y917410D01*
Y913410D01*
X1037710Y913390D01*
X1037029Y913331D01*
X1036430Y913233D01*
X1035910Y913095D01*
X1035470Y912918D01*
X1035109Y912701D01*
X1034829Y912445D01*
X1034630Y912150D01*
X1034510Y911815D01*
X1034470Y911441D01*
Y919380D01*
X1034510Y919005D01*
D02*
G37*
G36*
X1017298Y909880D02*
X1016503Y909056D01*
X1015252Y907582D01*
X1014797Y906931D01*
X1014454Y906336D01*
X1014225Y905799D01*
X1014109Y905319D01*
X1014106Y904897D01*
X1014216Y904531D01*
X1014439Y904223D01*
X1008813Y909849D01*
X1009121Y909626D01*
X1009487Y909516D01*
X1009909Y909519D01*
X1010389Y909635D01*
X1010926Y909864D01*
X1011521Y910207D01*
X1012172Y910662D01*
X1012881Y911231D01*
X1014470Y912708D01*
X1017298Y909880D01*
D02*
G37*
G36*
X1013620Y901931D02*
X1013280Y901810D01*
X1012980Y901608D01*
X1012720Y901326D01*
X1012500Y900963D01*
X1012320Y900520D01*
X1012180Y899996D01*
X1012080Y899391D01*
X1012020Y898706D01*
X1012000Y897941D01*
X1008000D01*
X1007980Y898706D01*
X1007920Y899391D01*
X1007820Y899996D01*
X1007680Y900520D01*
X1007500Y900963D01*
X1007280Y901326D01*
X1007020Y901608D01*
X1006720Y901810D01*
X1006380Y901931D01*
X1006000Y901971D01*
X1014000D01*
X1013620Y901931D01*
D02*
G37*
G36*
X1162979Y905370D02*
X1163100Y905030D01*
X1163302Y904730D01*
X1163584Y904470D01*
X1163947Y904250D01*
X1164390Y904070D01*
X1164914Y903930D01*
X1165518Y903830D01*
X1166204Y903770D01*
X1166970Y903750D01*
Y899750D01*
X1166204Y899730D01*
X1165518Y899670D01*
X1164914Y899570D01*
X1164390Y899430D01*
X1163947Y899250D01*
X1163584Y899030D01*
X1163302Y898770D01*
X1163100Y898470D01*
X1162979Y898130D01*
X1162939Y897750D01*
Y905750D01*
X1162979Y905370D01*
D02*
G37*
G36*
X1146561Y897750D02*
X1146521Y898130D01*
X1146400Y898470D01*
X1146198Y898770D01*
X1145916Y899030D01*
X1145553Y899250D01*
X1145110Y899430D01*
X1144586Y899570D01*
X1143981Y899670D01*
X1143296Y899730D01*
X1142531Y899750D01*
Y903750D01*
X1143296Y903770D01*
X1143981Y903830D01*
X1144586Y903930D01*
X1145110Y904070D01*
X1145553Y904250D01*
X1145916Y904470D01*
X1146198Y904730D01*
X1146400Y905030D01*
X1146521Y905370D01*
X1146561Y905750D01*
Y897750D01*
D02*
G37*
G36*
X1101979Y905370D02*
X1102100Y905030D01*
X1102302Y904730D01*
X1102584Y904470D01*
X1102947Y904250D01*
X1103390Y904070D01*
X1103914Y903930D01*
X1104519Y903830D01*
X1105204Y903770D01*
X1105969Y903750D01*
Y899750D01*
X1105204Y899730D01*
X1104519Y899670D01*
X1103914Y899570D01*
X1103390Y899430D01*
X1102947Y899250D01*
X1102584Y899030D01*
X1102302Y898770D01*
X1102100Y898470D01*
X1101979Y898130D01*
X1101939Y897750D01*
Y905750D01*
X1101979Y905370D01*
D02*
G37*
G36*
X1085561Y897750D02*
X1085521Y898130D01*
X1085400Y898470D01*
X1085198Y898770D01*
X1084916Y899030D01*
X1084553Y899250D01*
X1084110Y899430D01*
X1083586Y899570D01*
X1082981Y899670D01*
X1082296Y899730D01*
X1081531Y899750D01*
Y903750D01*
X1082296Y903770D01*
X1082981Y903830D01*
X1083586Y903930D01*
X1084110Y904070D01*
X1084553Y904250D01*
X1084916Y904470D01*
X1085198Y904730D01*
X1085400Y905030D01*
X1085521Y905370D01*
X1085561Y905750D01*
Y897750D01*
D02*
G37*
G36*
X1272531Y895250D02*
X1272490Y895630D01*
X1272371Y895970D01*
X1272170Y896270D01*
X1271890Y896530D01*
X1271531Y896750D01*
X1271090Y896930D01*
X1270571Y897070D01*
X1269970Y897170D01*
X1269290Y897230D01*
X1268531Y897250D01*
Y901250D01*
X1269290Y901270D01*
X1269970Y901330D01*
X1270571Y901430D01*
X1271090Y901570D01*
X1271531Y901750D01*
X1271890Y901970D01*
X1272170Y902230D01*
X1272371Y902530D01*
X1272490Y902870D01*
X1272531Y903250D01*
Y895250D01*
D02*
G37*
G36*
X822241Y899855D02*
X824034Y898322D01*
X824518Y897993D01*
X824946Y897756D01*
X825317Y897610D01*
X825632Y897555D01*
X825890Y897592D01*
X826091Y897719D01*
X821531Y893159D01*
X821658Y893360D01*
X821694Y893618D01*
X821640Y893933D01*
X821494Y894304D01*
X821256Y894732D01*
X820928Y895216D01*
X820508Y895757D01*
X819395Y897009D01*
X818702Y897719D01*
X821531Y900548D01*
X822241Y899855D01*
D02*
G37*
G36*
X965793Y893271D02*
X965453Y893150D01*
X965153Y892948D01*
X964893Y892666D01*
X964673Y892303D01*
X964493Y891860D01*
X964353Y891336D01*
X964253Y890731D01*
X964193Y890046D01*
X964173Y889280D01*
X960173D01*
X960153Y890046D01*
X960093Y890731D01*
X959993Y891336D01*
X959853Y891860D01*
X959673Y892303D01*
X959453Y892666D01*
X959193Y892948D01*
X958893Y893150D01*
X958553Y893271D01*
X958173Y893311D01*
X966173D01*
X965793Y893271D01*
D02*
G37*
G36*
X1122100Y889142D02*
X1117900D01*
X1117919Y889179D01*
X1117936Y889249D01*
X1117951Y889354D01*
X1117975Y889665D01*
X1117999Y890694D01*
X1118000Y891036D01*
X1122000D01*
X1122100Y889142D01*
D02*
G37*
G36*
X1307100Y882142D02*
X1302900D01*
X1302919Y882179D01*
X1302936Y882250D01*
X1302951Y882354D01*
X1302975Y882665D01*
X1302999Y883694D01*
X1303000Y884036D01*
X1307000D01*
X1307100Y882142D01*
D02*
G37*
G36*
X1184179Y880081D02*
X1184249Y880064D01*
X1184354Y880049D01*
X1184665Y880025D01*
X1185694Y880001D01*
X1186036Y880000D01*
Y876000D01*
X1184142Y875900D01*
Y880100D01*
X1184179Y880081D01*
D02*
G37*
G36*
X794858Y870137D02*
X794720Y869842D01*
X794598Y869491D01*
X794492Y869084D01*
X794403Y868622D01*
X794273Y867531D01*
X794232Y866902D01*
X794200Y865477D01*
X790200D01*
X790192Y866217D01*
X790070Y868104D01*
X789997Y868622D01*
X789802Y869491D01*
X789680Y869842D01*
X789542Y870137D01*
X789388Y870376D01*
X795012D01*
X794858Y870137D01*
D02*
G37*
G36*
X913194Y864820D02*
X909234Y866220D01*
X909285Y866261D01*
X909330Y866336D01*
X909370Y866444D01*
X909404Y866585D01*
X909434Y866759D01*
X909476Y867207D01*
X909497Y867788D01*
X909500Y868128D01*
X913500D01*
X913194Y864820D01*
D02*
G37*
G36*
X1156770Y859704D02*
X1156830Y859019D01*
X1156930Y858414D01*
X1157070Y857890D01*
X1157250Y857447D01*
X1157470Y857084D01*
X1157730Y856802D01*
X1158030Y856600D01*
X1158370Y856479D01*
X1158750Y856439D01*
X1150750D01*
X1151130Y856479D01*
X1151470Y856600D01*
X1151770Y856802D01*
X1152030Y857084D01*
X1152250Y857447D01*
X1152430Y857890D01*
X1152570Y858414D01*
X1152670Y859019D01*
X1152730Y859704D01*
X1152750Y860470D01*
X1156750D01*
X1156770Y859704D01*
D02*
G37*
G36*
X1095770D02*
X1095830Y859019D01*
X1095930Y858414D01*
X1096070Y857890D01*
X1096250Y857447D01*
X1096470Y857084D01*
X1096730Y856802D01*
X1097030Y856600D01*
X1097370Y856479D01*
X1097750Y856439D01*
X1089750D01*
X1090130Y856479D01*
X1090470Y856600D01*
X1090770Y856802D01*
X1091030Y857084D01*
X1091250Y857447D01*
X1091430Y857890D01*
X1091570Y858414D01*
X1091670Y859019D01*
X1091730Y859704D01*
X1091750Y860470D01*
X1095750D01*
X1095770Y859704D01*
D02*
G37*
G36*
X1272561Y846750D02*
X1272521Y847130D01*
X1272400Y847470D01*
X1272198Y847770D01*
X1271916Y848030D01*
X1271553Y848250D01*
X1271110Y848430D01*
X1270586Y848570D01*
X1269982Y848670D01*
X1269296Y848730D01*
X1268531Y848750D01*
Y852750D01*
X1269296Y852770D01*
X1269982Y852830D01*
X1270586Y852930D01*
X1271110Y853070D01*
X1271553Y853250D01*
X1271916Y853470D01*
X1272198Y853730D01*
X1272400Y854030D01*
X1272521Y854370D01*
X1272561Y854750D01*
Y846750D01*
D02*
G37*
G36*
X785978Y853279D02*
X786096Y852958D01*
X786292Y852675D01*
X786566Y852429D01*
X786918Y852222D01*
X787349Y852052D01*
X787859Y851920D01*
X788447Y851825D01*
X789112Y851769D01*
X789857Y851750D01*
Y847750D01*
X789112Y847731D01*
X788447Y847674D01*
X787859Y847580D01*
X787349Y847448D01*
X786918Y847278D01*
X786566Y847070D01*
X786292Y846825D01*
X786096Y846542D01*
X785978Y846221D01*
X785939Y845863D01*
Y853637D01*
X785978Y853279D01*
D02*
G37*
G36*
X1224510Y848095D02*
X1224630Y847760D01*
X1224829Y847465D01*
X1225109Y847209D01*
X1225470Y846992D01*
X1225910Y846815D01*
X1226430Y846677D01*
X1227029Y846579D01*
X1227710Y846520D01*
X1228469Y846500D01*
Y842500D01*
X1227710Y842480D01*
X1227029Y842421D01*
X1226430Y842323D01*
X1225910Y842185D01*
X1225803Y842142D01*
X1225821Y842119D01*
X1227298Y840530D01*
X1224470Y837702D01*
X1223646Y838497D01*
X1222172Y839748D01*
X1221521Y840203D01*
X1220926Y840546D01*
X1220389Y840775D01*
X1219909Y840891D01*
X1219487Y840894D01*
X1219121Y840784D01*
X1218813Y840561D01*
X1224439Y846187D01*
X1224216Y845879D01*
X1224106Y845513D01*
X1224109Y845091D01*
X1224225Y844611D01*
X1224454Y844074D01*
X1224470Y844047D01*
Y848469D01*
X1224510Y848095D01*
D02*
G37*
G36*
X836628Y833000D02*
X836288Y832997D01*
X835259Y832934D01*
X835085Y832904D01*
X834944Y832870D01*
X834836Y832830D01*
X834761Y832785D01*
X834720Y832734D01*
X833320Y836694D01*
X836628Y837000D01*
Y833000D01*
D02*
G37*
G36*
X951890Y829705D02*
X951951Y829021D01*
X952050Y828417D01*
X952190Y827894D01*
X952371Y827451D01*
X952590Y827088D01*
X952850Y826805D01*
X953150Y826603D01*
X953491Y826481D01*
X953870Y826439D01*
X946281Y826469D01*
X946583Y826509D01*
X946853Y826629D01*
X947091Y826830D01*
X947298Y827110D01*
X947473Y827469D01*
X947616Y827909D01*
X947727Y828429D01*
X947807Y829029D01*
X947855Y829709D01*
X947870Y830470D01*
X951870D01*
X951890Y829705D01*
D02*
G37*
G36*
X1025561Y825843D02*
X1025519Y826223D01*
X1025397Y826563D01*
X1025194Y826863D01*
X1024911Y827123D01*
X1024548Y827343D01*
X1024105Y827523D01*
X1023582Y827663D01*
X1022978Y827763D01*
X1022294Y827823D01*
X1021531Y827843D01*
Y831843D01*
X1025530Y831970D01*
X1025561Y825843D01*
D02*
G37*
G36*
X1085561Y818000D02*
X1085521Y818380D01*
X1085400Y818720D01*
X1085198Y819020D01*
X1084916Y819280D01*
X1084553Y819500D01*
X1084110Y819680D01*
X1083586Y819820D01*
X1082981Y819920D01*
X1082296Y819980D01*
X1081531Y820000D01*
Y824000D01*
X1082296Y824020D01*
X1082981Y824080D01*
X1083586Y824180D01*
X1084110Y824320D01*
X1084553Y824500D01*
X1084916Y824720D01*
X1085198Y824980D01*
X1085400Y825280D01*
X1085521Y825620D01*
X1085561Y826000D01*
Y818000D01*
D02*
G37*
G36*
X1297497Y821882D02*
X1297581Y821749D01*
X1297720Y821632D01*
X1297914Y821531D01*
X1298165Y821445D01*
X1298470Y821375D01*
X1298832Y821320D01*
X1299249Y821281D01*
X1300250Y821250D01*
Y817250D01*
X1299722Y817242D01*
X1298832Y817180D01*
X1298470Y817125D01*
X1298165Y817055D01*
X1297914Y816969D01*
X1297720Y816868D01*
X1297581Y816750D01*
X1297497Y816618D01*
X1297469Y816469D01*
Y822030D01*
X1297497Y821882D01*
D02*
G37*
G36*
X1158370Y816490D02*
X1158030Y816370D01*
X1157730Y816171D01*
X1157470Y815891D01*
X1157250Y815530D01*
X1157070Y815090D01*
X1156930Y814570D01*
X1156830Y813970D01*
X1156770Y813290D01*
X1156750Y812531D01*
X1152750D01*
X1152730Y813290D01*
X1152670Y813970D01*
X1152570Y814570D01*
X1152430Y815090D01*
X1152250Y815530D01*
X1152030Y815891D01*
X1151770Y816171D01*
X1151470Y816370D01*
X1151130Y816490D01*
X1150750Y816531D01*
X1158750D01*
X1158370Y816490D01*
D02*
G37*
G36*
X1097370D02*
X1097030Y816370D01*
X1096730Y816171D01*
X1096470Y815891D01*
X1096250Y815530D01*
X1096070Y815090D01*
X1095930Y814570D01*
X1095830Y813970D01*
X1095770Y813290D01*
X1095750Y812531D01*
X1091750D01*
X1091730Y813290D01*
X1091670Y813970D01*
X1091570Y814570D01*
X1091430Y815090D01*
X1091250Y815530D01*
X1091030Y815891D01*
X1090770Y816171D01*
X1090470Y816370D01*
X1090130Y816490D01*
X1089750Y816531D01*
X1097750D01*
X1097370Y816490D01*
D02*
G37*
G36*
X1063260Y818845D02*
X1063380Y818511D01*
X1063579Y818215D01*
X1063859Y817959D01*
X1064220Y817742D01*
X1064660Y817565D01*
X1065180Y817427D01*
X1065779Y817329D01*
X1066460Y817270D01*
X1067219Y817250D01*
Y813250D01*
X1066460Y813230D01*
X1065779Y813171D01*
X1065180Y813073D01*
X1064660Y812935D01*
X1064220Y812758D01*
X1063859Y812541D01*
X1063579Y812285D01*
X1063380Y811990D01*
X1063260Y811655D01*
X1063220Y811281D01*
Y819220D01*
X1063260Y818845D01*
D02*
G37*
G36*
X1186972Y813633D02*
X1187070Y813431D01*
X1187231Y813253D01*
X1187457Y813099D01*
X1187747Y812968D01*
X1188100Y812861D01*
X1188518Y812778D01*
X1189000Y812719D01*
X1189547Y812683D01*
X1190157Y812672D01*
Y808671D01*
X1189551Y808665D01*
X1188117Y808569D01*
X1187766Y808511D01*
X1187479Y808441D01*
X1187256Y808357D01*
X1187097Y808261D01*
X1187001Y808152D01*
X1186970Y808030D01*
X1186939Y813859D01*
X1186972Y813633D01*
D02*
G37*
G36*
X1221414Y804836D02*
X1221390Y804772D01*
X1221453Y804715D01*
X1221603Y804665D01*
X1224322Y804503D01*
X1225078Y804500D01*
X1216250Y800500D01*
X1211422Y804500D01*
X1212210Y804528D01*
X1212975Y804613D01*
X1213716Y804754D01*
X1214434Y804952D01*
X1215129Y805207D01*
X1215800Y805518D01*
X1216448Y805886D01*
X1217072Y806310D01*
X1217673Y806791D01*
X1218250Y807328D01*
X1221414Y804836D01*
D02*
G37*
G36*
X1207010Y806095D02*
X1207130Y805760D01*
X1207329Y805465D01*
X1207609Y805209D01*
X1207970Y804992D01*
X1208410Y804815D01*
X1208930Y804677D01*
X1209529Y804579D01*
X1210210Y804520D01*
X1210969Y804500D01*
Y800500D01*
X1210210Y800480D01*
X1209529Y800421D01*
X1208930Y800323D01*
X1208410Y800185D01*
X1207970Y800008D01*
X1207609Y799791D01*
X1207329Y799535D01*
X1207130Y799240D01*
X1207010Y798905D01*
X1206970Y798531D01*
Y806469D01*
X1207010Y806095D01*
D02*
G37*
G36*
X964520Y795454D02*
X964580Y794769D01*
X964680Y794164D01*
X964820Y793640D01*
X965000Y793197D01*
X965220Y792834D01*
X965480Y792552D01*
X965780Y792350D01*
X966120Y792229D01*
X966500Y792189D01*
X958500D01*
X958880Y792229D01*
X959220Y792350D01*
X959520Y792552D01*
X959780Y792834D01*
X960000Y793197D01*
X960180Y793640D01*
X960320Y794164D01*
X960420Y794769D01*
X960480Y795454D01*
X960500Y796219D01*
X964500D01*
X964520Y795454D01*
D02*
G37*
G36*
X1156770Y794954D02*
X1156830Y794268D01*
X1156930Y793664D01*
X1157070Y793140D01*
X1157250Y792697D01*
X1157470Y792334D01*
X1157730Y792052D01*
X1158030Y791850D01*
X1158370Y791729D01*
X1158750Y791689D01*
X1150750D01*
X1151130Y791729D01*
X1151470Y791850D01*
X1151770Y792052D01*
X1152030Y792334D01*
X1152250Y792697D01*
X1152430Y793140D01*
X1152570Y793664D01*
X1152670Y794268D01*
X1152730Y794954D01*
X1152750Y795720D01*
X1156750D01*
X1156770Y794954D01*
D02*
G37*
G36*
X1095770D02*
X1095830Y794268D01*
X1095930Y793664D01*
X1096070Y793140D01*
X1096250Y792697D01*
X1096470Y792334D01*
X1096730Y792052D01*
X1097030Y791850D01*
X1097370Y791729D01*
X1097750Y791689D01*
X1089750D01*
X1090130Y791729D01*
X1090470Y791850D01*
X1090770Y792052D01*
X1091030Y792334D01*
X1091250Y792697D01*
X1091430Y793140D01*
X1091570Y793664D01*
X1091670Y794268D01*
X1091730Y794954D01*
X1091750Y795720D01*
X1095750D01*
X1095770Y794954D01*
D02*
G37*
G36*
X816550Y790640D02*
X812550Y790604D01*
X812547Y790945D01*
X812483Y791973D01*
X812454Y792147D01*
X812419Y792287D01*
X812379Y792394D01*
X812334Y792468D01*
X812283Y792508D01*
X816217Y793978D01*
X816550Y790640D01*
D02*
G37*
G36*
X1178030Y789031D02*
X1177990Y789405D01*
X1177870Y789740D01*
X1177671Y790035D01*
X1177391Y790291D01*
X1177030Y790508D01*
X1176590Y790685D01*
X1176070Y790823D01*
X1175471Y790921D01*
X1174790Y790980D01*
X1174031Y791000D01*
Y795000D01*
X1174790Y795020D01*
X1175471Y795079D01*
X1176070Y795177D01*
X1176590Y795315D01*
X1177030Y795492D01*
X1177391Y795709D01*
X1177671Y795965D01*
X1177870Y796261D01*
X1177990Y796595D01*
X1178030Y796970D01*
Y789031D01*
D02*
G37*
G36*
X1061120Y792269D02*
X1060780Y792147D01*
X1060480Y791945D01*
X1060220Y791662D01*
X1060000Y791299D01*
X1059820Y790856D01*
X1059680Y790332D01*
X1059580Y789729D01*
X1059520Y789045D01*
X1059500Y788280D01*
X1055500D01*
X1055488Y789041D01*
X1055390Y790321D01*
X1055305Y790841D01*
X1055195Y791281D01*
X1055061Y791640D01*
X1054902Y791920D01*
X1054719Y792121D01*
X1054512Y792241D01*
X1054280Y792281D01*
X1061500Y792311D01*
X1061120Y792269D01*
D02*
G37*
G36*
X1012020Y789204D02*
X1012080Y788519D01*
X1012180Y787914D01*
X1012320Y787390D01*
X1012500Y786947D01*
X1012720Y786584D01*
X1012980Y786302D01*
X1013280Y786100D01*
X1013620Y785979D01*
X1014000Y785939D01*
X1006000D01*
X1006380Y785979D01*
X1006720Y786100D01*
X1007020Y786302D01*
X1007280Y786584D01*
X1007500Y786947D01*
X1007680Y787390D01*
X1007820Y787914D01*
X1007920Y788519D01*
X1007980Y789204D01*
X1008000Y789969D01*
X1012000D01*
X1012020Y789204D01*
D02*
G37*
G36*
X949679Y789581D02*
X949750Y789564D01*
X949854Y789549D01*
X950165Y789525D01*
X951194Y789501D01*
X951536Y789500D01*
Y785500D01*
X949642Y785400D01*
Y789600D01*
X949679Y789581D01*
D02*
G37*
G36*
X1162976Y790023D02*
X1163088Y789737D01*
X1163274Y789484D01*
X1163534Y789264D01*
X1163868Y789079D01*
X1164277Y788927D01*
X1164761Y788809D01*
X1165318Y788724D01*
X1165950Y788674D01*
X1166657Y788657D01*
Y784657D01*
X1165950Y784640D01*
X1165318Y784589D01*
X1164761Y784505D01*
X1164277Y784387D01*
X1163868Y784235D01*
X1163534Y784049D01*
X1163274Y783830D01*
X1163088Y783577D01*
X1162976Y783290D01*
X1162939Y782970D01*
Y790344D01*
X1162976Y790023D01*
D02*
G37*
G36*
X1272531Y781750D02*
X1272490Y782130D01*
X1272371Y782470D01*
X1272170Y782770D01*
X1271890Y783030D01*
X1271531Y783250D01*
X1271090Y783430D01*
X1270571Y783570D01*
X1269970Y783670D01*
X1269290Y783730D01*
X1268531Y783750D01*
Y787750D01*
X1269290Y787770D01*
X1269970Y787830D01*
X1270571Y787930D01*
X1271090Y788070D01*
X1271531Y788250D01*
X1271890Y788470D01*
X1272170Y788730D01*
X1272371Y789030D01*
X1272490Y789370D01*
X1272531Y789750D01*
Y781750D01*
D02*
G37*
G36*
X816556Y785453D02*
X816764Y782623D01*
X816841Y782247D01*
X816930Y781934D01*
X817031Y781684D01*
X817144Y781498D01*
X811956D01*
X812069Y781684D01*
X812170Y781934D01*
X812259Y782247D01*
X812336Y782623D01*
X812402Y783062D01*
X812497Y784131D01*
X812544Y785453D01*
X812550Y786208D01*
X816550D01*
X816556Y785453D01*
D02*
G37*
G36*
X1288620Y780021D02*
X1288280Y779900D01*
X1287980Y779698D01*
X1287720Y779416D01*
X1287500Y779053D01*
X1287320Y778610D01*
X1287180Y778086D01*
X1287080Y777482D01*
X1287020Y776796D01*
X1287000Y776031D01*
X1283000D01*
X1282980Y776796D01*
X1282920Y777482D01*
X1282820Y778086D01*
X1282680Y778610D01*
X1282500Y779053D01*
X1282280Y779416D01*
X1282020Y779698D01*
X1281720Y779900D01*
X1281380Y780021D01*
X1281000Y780061D01*
X1289000D01*
X1288620Y780021D01*
D02*
G37*
G36*
X1235530Y775031D02*
X1235495Y775025D01*
X1235389Y775020D01*
X1232000Y775000D01*
Y779000D01*
X1232675Y779015D01*
X1233279Y779061D01*
X1233812Y779138D01*
X1234275Y779245D01*
X1234667Y779383D01*
X1234987Y779551D01*
X1235237Y779750D01*
X1235416Y779979D01*
X1235524Y780240D01*
X1235561Y780530D01*
X1235530Y775031D01*
D02*
G37*
G36*
X1059528Y781540D02*
X1059613Y780775D01*
X1059754Y780034D01*
X1059952Y779316D01*
X1060207Y778621D01*
X1060518Y777950D01*
X1060886Y777302D01*
X1061310Y776678D01*
X1061791Y776077D01*
X1062328Y775500D01*
X1060328Y771843D01*
X1059763Y772352D01*
X1059197Y772748D01*
X1058631Y773031D01*
X1058066Y773201D01*
X1057500Y773257D01*
X1056934Y773201D01*
X1056369Y773031D01*
X1055803Y772748D01*
X1055237Y772352D01*
X1054672Y771843D01*
X1052672Y775500D01*
X1053209Y776077D01*
X1053690Y776678D01*
X1054114Y777302D01*
X1054482Y777950D01*
X1054793Y778621D01*
X1055047Y779316D01*
X1055245Y780034D01*
X1055387Y780775D01*
X1055472Y781540D01*
X1055500Y782328D01*
X1059500D01*
X1059528Y781540D01*
D02*
G37*
G36*
X868355Y777620D02*
X868476Y777280D01*
X868677Y776980D01*
X868960Y776720D01*
X869322Y776500D01*
X869766Y776320D01*
X870290Y776180D01*
X870894Y776080D01*
X871579Y776020D01*
X872345Y776000D01*
Y772000D01*
X871579Y771980D01*
X870894Y771920D01*
X870290Y771820D01*
X869766Y771680D01*
X869322Y771500D01*
X868960Y771280D01*
X868677Y771020D01*
X868476Y770720D01*
X868355Y770380D01*
X868315Y770000D01*
Y778000D01*
X868355Y777620D01*
D02*
G37*
G36*
X1034510Y776095D02*
X1034630Y775760D01*
X1034829Y775465D01*
X1035109Y775209D01*
X1035470Y774992D01*
X1035910Y774815D01*
X1036430Y774677D01*
X1037029Y774579D01*
X1037710Y774520D01*
X1038469Y774500D01*
Y770500D01*
X1037710Y770480D01*
X1037029Y770421D01*
X1036430Y770323D01*
X1035910Y770185D01*
X1035470Y770008D01*
X1035109Y769791D01*
X1034829Y769535D01*
X1034630Y769240D01*
X1034510Y768905D01*
X1034470Y768531D01*
Y776469D01*
X1034510Y776095D01*
D02*
G37*
G36*
X1199077Y773791D02*
X1199678Y773310D01*
X1200303Y772886D01*
X1200950Y772518D01*
X1201621Y772207D01*
X1202316Y771953D01*
X1203034Y771755D01*
X1203775Y771613D01*
X1204540Y771528D01*
X1205328Y771500D01*
X1200500Y767500D01*
X1192000Y771500D01*
X1192669Y771528D01*
X1193209Y771613D01*
X1193618Y771755D01*
X1193897Y771953D01*
X1194047Y772207D01*
X1194066Y772518D01*
X1193955Y772886D01*
X1193715Y773310D01*
X1193344Y773791D01*
X1192843Y774328D01*
X1198500D01*
X1199077Y773791D01*
D02*
G37*
G36*
X1215530Y765530D02*
X1215490Y765905D01*
X1215370Y766239D01*
X1215171Y766535D01*
X1214891Y766791D01*
X1214530Y767008D01*
X1214090Y767185D01*
X1213570Y767323D01*
X1212971Y767421D01*
X1212290Y767480D01*
X1211531Y767500D01*
Y771500D01*
X1212290Y771520D01*
X1212971Y771579D01*
X1213570Y771677D01*
X1214090Y771815D01*
X1214530Y771992D01*
X1214891Y772209D01*
X1215171Y772465D01*
X1215370Y772760D01*
X1215490Y773095D01*
X1215530Y773469D01*
Y765530D01*
D02*
G37*
G36*
X896556Y766004D02*
X897657Y765037D01*
X897729Y765002D01*
X897779Y764992D01*
X895004Y761839D01*
X894991Y761863D01*
X894952Y761912D01*
X894799Y762082D01*
X893729Y763172D01*
X896314Y766244D01*
X896556Y766004D01*
D02*
G37*
G36*
X1014471Y765462D02*
X1014568Y765260D01*
X1014729Y765082D01*
X1014954Y764928D01*
X1015244Y764797D01*
X1015597Y764690D01*
X1016016Y764607D01*
X1016498Y764548D01*
X1017046Y764512D01*
X1017657Y764500D01*
Y760500D01*
X1017046Y760488D01*
X1016016Y760393D01*
X1015597Y760310D01*
X1015244Y760203D01*
X1014954Y760072D01*
X1014729Y759918D01*
X1014568Y759740D01*
X1014471Y759538D01*
X1014439Y759313D01*
Y765687D01*
X1014471Y765462D01*
D02*
G37*
G36*
X1247500Y760000D02*
X1246924Y759990D01*
X1245955Y759907D01*
X1245561Y759835D01*
X1245227Y759742D01*
X1244954Y759629D01*
X1244742Y759495D01*
X1244591Y759341D01*
X1244500Y759165D01*
X1244470Y758970D01*
Y763969D01*
X1244500Y763975D01*
X1244591Y763980D01*
X1247500Y764000D01*
Y760000D01*
D02*
G37*
G36*
X910581Y757071D02*
X910564Y757001D01*
X910549Y756896D01*
X910525Y756585D01*
X910501Y755556D01*
X910500Y755214D01*
X906500D01*
X906400Y757108D01*
X910600D01*
X910581Y757071D01*
D02*
G37*
G36*
X1146561Y753750D02*
X1146521Y754130D01*
X1146400Y754470D01*
X1146198Y754770D01*
X1145916Y755030D01*
X1145553Y755250D01*
X1145110Y755430D01*
X1144586Y755570D01*
X1143981Y755670D01*
X1143296Y755730D01*
X1142531Y755750D01*
Y759750D01*
X1143296Y759770D01*
X1143981Y759830D01*
X1144586Y759930D01*
X1145110Y760070D01*
X1145553Y760250D01*
X1145916Y760470D01*
X1146198Y760730D01*
X1146400Y761030D01*
X1146521Y761370D01*
X1146561Y761750D01*
Y753750D01*
D02*
G37*
G36*
X1101979Y761370D02*
X1102100Y761030D01*
X1102302Y760730D01*
X1102584Y760470D01*
X1102947Y760250D01*
X1103390Y760070D01*
X1103914Y759930D01*
X1104519Y759830D01*
X1105204Y759770D01*
X1105969Y759750D01*
Y755750D01*
X1105204Y755730D01*
X1104519Y755670D01*
X1103914Y755570D01*
X1103390Y755430D01*
X1102947Y755250D01*
X1102584Y755030D01*
X1102302Y754770D01*
X1102100Y754470D01*
X1101979Y754130D01*
X1101939Y753750D01*
Y761750D01*
X1101979Y761370D01*
D02*
G37*
G36*
X1085561Y753750D02*
X1085521Y754130D01*
X1085400Y754470D01*
X1085198Y754770D01*
X1084916Y755030D01*
X1084553Y755250D01*
X1084110Y755430D01*
X1083586Y755570D01*
X1082981Y755670D01*
X1082296Y755730D01*
X1081531Y755750D01*
Y759750D01*
X1082296Y759770D01*
X1082981Y759830D01*
X1083586Y759930D01*
X1084110Y760070D01*
X1084553Y760250D01*
X1084916Y760470D01*
X1085198Y760730D01*
X1085400Y761030D01*
X1085521Y761370D01*
X1085561Y761750D01*
Y753750D01*
D02*
G37*
G36*
X1162979Y761120D02*
X1163100Y760780D01*
X1163302Y760480D01*
X1163584Y760220D01*
X1163947Y760000D01*
X1164390Y759820D01*
X1164914Y759680D01*
X1165518Y759580D01*
X1166204Y759520D01*
X1166970Y759500D01*
Y755500D01*
X1166204Y755480D01*
X1165518Y755420D01*
X1164914Y755320D01*
X1164390Y755180D01*
X1163947Y755000D01*
X1163584Y754780D01*
X1163302Y754520D01*
X1163100Y754220D01*
X1162979Y753880D01*
X1162939Y753500D01*
Y761500D01*
X1162979Y761120D01*
D02*
G37*
G36*
X1272531Y750250D02*
X1272490Y750630D01*
X1272371Y750970D01*
X1272170Y751270D01*
X1271890Y751530D01*
X1271531Y751750D01*
X1271090Y751930D01*
X1270571Y752070D01*
X1269970Y752170D01*
X1269290Y752230D01*
X1268531Y752250D01*
Y756250D01*
X1269290Y756270D01*
X1269970Y756330D01*
X1270571Y756430D01*
X1271090Y756570D01*
X1271531Y756750D01*
X1271890Y756970D01*
X1272170Y757230D01*
X1272371Y757530D01*
X1272490Y757870D01*
X1272531Y758250D01*
Y750250D01*
D02*
G37*
G36*
X971229Y756963D02*
X971350Y756623D01*
X971552Y756323D01*
X971834Y756063D01*
X972197Y755843D01*
X972640Y755663D01*
X973164Y755523D01*
X973769Y755423D01*
X974454Y755363D01*
X975219Y755343D01*
Y751343D01*
X974454Y751323D01*
X973769Y751263D01*
X973164Y751163D01*
X972640Y751023D01*
X972197Y750843D01*
X971834Y750623D01*
X971552Y750363D01*
X971350Y750063D01*
X971229Y749723D01*
X971189Y749343D01*
Y757343D01*
X971229Y756963D01*
D02*
G37*
G36*
X1122100Y747142D02*
X1117900D01*
X1117919Y747179D01*
X1117936Y747250D01*
X1117951Y747354D01*
X1117975Y747665D01*
X1117999Y748694D01*
X1118000Y749036D01*
X1122000D01*
X1122100Y747142D01*
D02*
G37*
G36*
X895858Y745080D02*
X895821Y745099D01*
X895751Y745116D01*
X895646Y745131D01*
X895335Y745155D01*
X894306Y745179D01*
X893964Y745180D01*
Y749180D01*
X895858Y749280D01*
Y745080D01*
D02*
G37*
G36*
X1194679Y732081D02*
X1194750Y732064D01*
X1194854Y732049D01*
X1195165Y732025D01*
X1196194Y732001D01*
X1196536Y732000D01*
Y728000D01*
X1194642Y727900D01*
Y732100D01*
X1194679Y732081D01*
D02*
G37*
G36*
X897970Y716000D02*
X895000Y713030D01*
X894988Y713069D01*
X894950Y713131D01*
X894887Y713216D01*
X894684Y713452D01*
X893973Y714197D01*
X893732Y714440D01*
X896560Y717268D01*
X897970Y716000D01*
D02*
G37*
G36*
X817031Y712316D02*
X816930Y712066D01*
X816841Y711753D01*
X816764Y711377D01*
X816699Y710938D01*
X816603Y709869D01*
X816556Y708547D01*
X816550Y707792D01*
X812550D01*
X812544Y708547D01*
X812336Y711377D01*
X812259Y711753D01*
X812170Y712066D01*
X812069Y712316D01*
X811956Y712502D01*
X817144D01*
X817031Y712316D01*
D02*
G37*
G36*
X971229Y714120D02*
X971350Y713780D01*
X971552Y713480D01*
X971834Y713220D01*
X972197Y713000D01*
X972640Y712820D01*
X973164Y712680D01*
X973769Y712580D01*
X974454Y712520D01*
X975219Y712500D01*
Y708500D01*
X974454Y708480D01*
X973769Y708420D01*
X973164Y708320D01*
X972640Y708180D01*
X972197Y708000D01*
X971834Y707780D01*
X971552Y707520D01*
X971350Y707220D01*
X971229Y706880D01*
X971189Y706500D01*
Y714500D01*
X971229Y714120D01*
D02*
G37*
G36*
X1085561Y706000D02*
X1085521Y706380D01*
X1085400Y706720D01*
X1085198Y707020D01*
X1084916Y707280D01*
X1084553Y707500D01*
X1084110Y707680D01*
X1083586Y707820D01*
X1082981Y707920D01*
X1082296Y707980D01*
X1081531Y708000D01*
Y712000D01*
X1082296Y712020D01*
X1082981Y712080D01*
X1083586Y712180D01*
X1084110Y712320D01*
X1084553Y712500D01*
X1084916Y712720D01*
X1085198Y712980D01*
X1085400Y713280D01*
X1085521Y713620D01*
X1085561Y714000D01*
Y706000D01*
D02*
G37*
G36*
X932100Y705340D02*
X930832Y703930D01*
X927862Y706900D01*
X927902Y706912D01*
X927963Y706950D01*
X928048Y707013D01*
X928285Y707216D01*
X929029Y707927D01*
X929272Y708168D01*
X932100Y705340D01*
D02*
G37*
G36*
X1146811Y702500D02*
X1146771Y702880D01*
X1146650Y703220D01*
X1146448Y703520D01*
X1146166Y703780D01*
X1145803Y704000D01*
X1145360Y704180D01*
X1144836Y704320D01*
X1144231Y704420D01*
X1143546Y704480D01*
X1142781Y704500D01*
Y708500D01*
X1143546Y708520D01*
X1144231Y708580D01*
X1144836Y708680D01*
X1145360Y708820D01*
X1145803Y709000D01*
X1146166Y709220D01*
X1146448Y709480D01*
X1146650Y709780D01*
X1146771Y710120D01*
X1146811Y710500D01*
Y702500D01*
D02*
G37*
G36*
X1224510Y705595D02*
X1224630Y705260D01*
X1224829Y704965D01*
X1225109Y704709D01*
X1225470Y704492D01*
X1225910Y704315D01*
X1226430Y704177D01*
X1227029Y704079D01*
X1227710Y704020D01*
X1228469Y704000D01*
Y700000D01*
X1227710Y699980D01*
X1227029Y699921D01*
X1226430Y699823D01*
X1225910Y699685D01*
X1225803Y699642D01*
X1225821Y699619D01*
X1227298Y698030D01*
X1224470Y695202D01*
X1223646Y695997D01*
X1222172Y697248D01*
X1221521Y697703D01*
X1220926Y698046D01*
X1220389Y698275D01*
X1219909Y698391D01*
X1219487Y698394D01*
X1219121Y698284D01*
X1218813Y698061D01*
X1224439Y703687D01*
X1224216Y703379D01*
X1224106Y703013D01*
X1224109Y702591D01*
X1224225Y702111D01*
X1224454Y701574D01*
X1224470Y701547D01*
Y705969D01*
X1224510Y705595D01*
D02*
G37*
G36*
X811827Y698383D02*
X809958Y698279D01*
X809442Y702286D01*
X811123Y702383D01*
X811827Y698383D01*
D02*
G37*
G36*
X1270031Y698000D02*
X1269990Y698380D01*
X1269871Y698720D01*
X1269670Y699020D01*
X1269390Y699280D01*
X1269031Y699500D01*
X1268590Y699680D01*
X1268071Y699820D01*
X1267470Y699920D01*
X1266790Y699980D01*
X1266031Y700000D01*
Y704000D01*
X1266790Y704020D01*
X1267470Y704080D01*
X1268071Y704180D01*
X1268590Y704320D01*
X1269031Y704500D01*
X1269390Y704720D01*
X1269670Y704980D01*
X1269871Y705280D01*
X1269990Y705620D01*
X1270031Y706000D01*
Y698000D01*
D02*
G37*
G36*
X1034243Y703376D02*
X1034130Y703008D01*
Y702584D01*
X1034243Y702103D01*
X1034470Y701566D01*
X1034809Y700972D01*
X1035262Y700322D01*
X1035827Y699614D01*
X1037298Y698030D01*
X1034470Y695202D01*
X1033649Y695994D01*
X1032178Y697239D01*
X1031528Y697691D01*
X1030934Y698030D01*
X1030397Y698257D01*
X1029916Y698370D01*
X1029492D01*
X1029124Y698257D01*
X1028813Y698030D01*
X1034470Y703687D01*
X1034243Y703376D01*
D02*
G37*
G36*
X900081Y694821D02*
X900064Y694751D01*
X900049Y694646D01*
X900025Y694335D01*
X900001Y693306D01*
X900000Y692964D01*
X896000D01*
X895900Y694858D01*
X900100D01*
X900081Y694821D01*
D02*
G37*
G36*
X787512Y689009D02*
X787550Y688947D01*
X787613Y688863D01*
X787816Y688626D01*
X788527Y687881D01*
X788768Y687639D01*
X785940Y684810D01*
X784530Y686078D01*
X787500Y689048D01*
X787512Y689009D01*
D02*
G37*
G36*
X928012Y687431D02*
X928050Y687369D01*
X928113Y687284D01*
X928316Y687048D01*
X929027Y686303D01*
X929268Y686060D01*
X926440Y683232D01*
X925030Y684500D01*
X928000Y687470D01*
X928012Y687431D01*
D02*
G37*
G36*
X698770Y686287D02*
X698830Y685602D01*
X698930Y684997D01*
X699070Y684473D01*
X699250Y684030D01*
X699470Y683667D01*
X699730Y683385D01*
X700030Y683184D01*
X700370Y683063D01*
X700750Y683022D01*
X692750D01*
X693130Y683063D01*
X693470Y683184D01*
X693770Y683385D01*
X694030Y683667D01*
X694250Y684030D01*
X694430Y684473D01*
X694570Y684997D01*
X694670Y685602D01*
X694730Y686287D01*
X694750Y687053D01*
X698750D01*
X698770Y686287D01*
D02*
G37*
G36*
X1025530Y686970D02*
X1025561Y681000D01*
X1025519Y681380D01*
X1025396Y681720D01*
X1025194Y682020D01*
X1024911Y682280D01*
X1024548Y682500D01*
X1024105Y682680D01*
X1023582Y682820D01*
X1022978Y682920D01*
X1022294Y682980D01*
X1021531Y683000D01*
Y687000D01*
X1025530Y686970D01*
D02*
G37*
G36*
X1085561Y677970D02*
X1085523Y678308D01*
X1085408Y678611D01*
X1085218Y678878D01*
X1084951Y679109D01*
X1084608Y679305D01*
X1084189Y679465D01*
X1083694Y679590D01*
X1083122Y679679D01*
X1082474Y679732D01*
X1081750Y679750D01*
Y683750D01*
X1082474Y683768D01*
X1083122Y683821D01*
X1083694Y683910D01*
X1084189Y684035D01*
X1084608Y684195D01*
X1084951Y684391D01*
X1085218Y684622D01*
X1085408Y684890D01*
X1085523Y685192D01*
X1085561Y685530D01*
Y677970D01*
D02*
G37*
G36*
X1223620Y679021D02*
X1223280Y678900D01*
X1222980Y678698D01*
X1222720Y678416D01*
X1222500Y678053D01*
X1222320Y677610D01*
X1222180Y677086D01*
X1222080Y676481D01*
X1222020Y675796D01*
X1222000Y675031D01*
X1218000D01*
X1217980Y675796D01*
X1217920Y676481D01*
X1217820Y677086D01*
X1217680Y677610D01*
X1217500Y678053D01*
X1217280Y678416D01*
X1217020Y678698D01*
X1216720Y678900D01*
X1216380Y679021D01*
X1216000Y679061D01*
X1224000D01*
X1223620Y679021D01*
D02*
G37*
G36*
X946281Y675000D02*
X946240Y675380D01*
X946121Y675720D01*
X945920Y676020D01*
X945640Y676280D01*
X945281Y676500D01*
X944840Y676680D01*
X944321Y676820D01*
X943720Y676920D01*
X943040Y676980D01*
X942281Y677000D01*
Y681000D01*
X943040Y681020D01*
X943720Y681080D01*
X944321Y681180D01*
X944840Y681320D01*
X945281Y681500D01*
X945640Y681720D01*
X945920Y681980D01*
X946121Y682280D01*
X946240Y682620D01*
X946281Y683000D01*
Y675000D01*
D02*
G37*
G36*
X1097370Y675771D02*
X1097030Y675650D01*
X1096730Y675448D01*
X1096470Y675166D01*
X1096250Y674803D01*
X1096070Y674360D01*
X1095930Y673836D01*
X1095830Y673232D01*
X1095770Y672546D01*
X1095750Y671780D01*
X1091750D01*
X1091730Y672546D01*
X1091670Y673232D01*
X1091570Y673836D01*
X1091430Y674360D01*
X1091250Y674803D01*
X1091030Y675166D01*
X1090770Y675448D01*
X1090470Y675650D01*
X1090130Y675771D01*
X1089750Y675811D01*
X1097750D01*
X1097370Y675771D01*
D02*
G37*
G36*
X1158370Y672521D02*
X1158030Y672400D01*
X1157730Y672198D01*
X1157470Y671916D01*
X1157250Y671553D01*
X1157070Y671110D01*
X1156930Y670586D01*
X1156830Y669982D01*
X1156770Y669296D01*
X1156750Y668531D01*
X1152750D01*
X1152730Y669296D01*
X1152670Y669982D01*
X1152570Y670586D01*
X1152430Y671110D01*
X1152250Y671553D01*
X1152030Y671916D01*
X1151770Y672198D01*
X1151470Y672400D01*
X1151130Y672521D01*
X1150750Y672561D01*
X1158750D01*
X1158370Y672521D01*
D02*
G37*
G36*
X1063260Y673845D02*
X1063380Y673511D01*
X1063579Y673215D01*
X1063859Y672959D01*
X1064220Y672742D01*
X1064660Y672565D01*
X1065180Y672427D01*
X1065779Y672329D01*
X1066460Y672270D01*
X1067219Y672250D01*
Y668250D01*
X1066460Y668230D01*
X1065779Y668171D01*
X1065180Y668073D01*
X1064660Y667935D01*
X1064220Y667758D01*
X1063859Y667541D01*
X1063579Y667285D01*
X1063380Y666990D01*
X1063260Y666655D01*
X1063220Y666281D01*
Y674220D01*
X1063260Y673845D01*
D02*
G37*
G36*
X1294979Y673620D02*
X1295100Y673280D01*
X1295302Y672980D01*
X1295584Y672720D01*
X1295947Y672500D01*
X1296390Y672320D01*
X1296914Y672180D01*
X1297518Y672080D01*
X1298204Y672020D01*
X1298970Y672000D01*
Y668000D01*
X1298204Y667980D01*
X1297518Y667920D01*
X1296914Y667820D01*
X1296390Y667680D01*
X1295947Y667500D01*
X1295584Y667280D01*
X1295302Y667020D01*
X1295100Y666720D01*
X1294979Y666380D01*
X1294939Y666000D01*
Y674000D01*
X1294979Y673620D01*
D02*
G37*
G36*
X1186973Y667962D02*
X1187070Y667760D01*
X1187232Y667582D01*
X1187457Y667427D01*
X1187747Y667297D01*
X1188101Y667190D01*
X1188519Y667107D01*
X1189001Y667048D01*
X1189547Y667012D01*
X1190157Y667000D01*
Y663000D01*
X1186970Y663030D01*
X1186939Y668187D01*
X1186973Y667962D01*
D02*
G37*
G36*
X1219660Y661791D02*
X1219299Y661310D01*
X1219074Y660886D01*
X1218987Y660518D01*
X1219035Y660207D01*
X1219221Y659953D01*
X1219543Y659755D01*
X1220002Y659613D01*
X1220597Y659528D01*
X1221328Y659500D01*
X1212500Y655500D01*
X1210969Y656768D01*
Y655500D01*
X1210210Y655480D01*
X1209529Y655421D01*
X1208930Y655323D01*
X1208410Y655185D01*
X1207970Y655008D01*
X1207609Y654791D01*
X1207329Y654535D01*
X1207130Y654240D01*
X1207010Y653905D01*
X1206970Y653531D01*
Y661469D01*
X1207010Y661095D01*
X1207130Y660760D01*
X1207329Y660465D01*
X1207609Y660209D01*
X1207970Y659992D01*
X1208410Y659815D01*
X1208930Y659677D01*
X1209269Y659622D01*
X1209966Y659755D01*
X1210684Y659953D01*
X1211379Y660207D01*
X1212050Y660518D01*
X1212698Y660886D01*
X1213322Y661310D01*
X1213923Y661791D01*
X1214500Y662328D01*
X1220157D01*
X1219660Y661791D01*
D02*
G37*
G36*
X730186Y661772D02*
X732250Y663836D01*
X732305Y663557D01*
X732471Y663192D01*
X732747Y662740D01*
X732827Y662628D01*
X733969Y663771D01*
X733743Y663459D01*
X733630Y663092D01*
Y662668D01*
X733743Y662187D01*
X733969Y661649D01*
X734309Y661055D01*
X734762Y660405D01*
X735327Y659698D01*
X735745Y659248D01*
X736722Y658202D01*
X737771Y657141D01*
X734942Y654313D01*
X733882Y655361D01*
X731508Y657441D01*
X731028Y657774D01*
X730434Y658114D01*
X730018Y658289D01*
X729602Y658114D01*
X728414Y657435D01*
X727113Y656530D01*
X725698Y655398D01*
X722531Y652457D01*
X716874Y658114D01*
X718457Y659754D01*
X720947Y662696D01*
X721852Y663997D01*
X722531Y665185D01*
X722983Y666260D01*
X723209Y667221D01*
Y668070D01*
X722983Y668805D01*
X722531Y669427D01*
X730186Y661772D01*
D02*
G37*
G36*
X700370Y658074D02*
X700030Y657954D01*
X699730Y657754D01*
X699470Y657474D01*
X699250Y657114D01*
X699070Y656674D01*
X698930Y656154D01*
X698830Y655554D01*
X698770Y654874D01*
X698750Y654114D01*
X694750D01*
X694730Y654874D01*
X694670Y655554D01*
X694570Y656154D01*
X694430Y656674D01*
X694250Y657114D01*
X694030Y657474D01*
X693770Y657754D01*
X693470Y657954D01*
X693130Y658074D01*
X692750Y658114D01*
X700750D01*
X700370Y658074D01*
D02*
G37*
G36*
X1156770Y653204D02*
X1156830Y652518D01*
X1156930Y651914D01*
X1157070Y651390D01*
X1157250Y650947D01*
X1157470Y650584D01*
X1157730Y650302D01*
X1158030Y650100D01*
X1158370Y649979D01*
X1158750Y649939D01*
X1150750D01*
X1151130Y649979D01*
X1151470Y650100D01*
X1151770Y650302D01*
X1152030Y650584D01*
X1152250Y650947D01*
X1152430Y651390D01*
X1152570Y651914D01*
X1152670Y652518D01*
X1152730Y653204D01*
X1152750Y653969D01*
X1156750D01*
X1156770Y653204D01*
D02*
G37*
G36*
X1095770D02*
X1095830Y652518D01*
X1095930Y651914D01*
X1096070Y651390D01*
X1096250Y650947D01*
X1096470Y650584D01*
X1096730Y650302D01*
X1097030Y650100D01*
X1097370Y649979D01*
X1097750Y649939D01*
X1089750D01*
X1090130Y649979D01*
X1090470Y650100D01*
X1090770Y650302D01*
X1091030Y650584D01*
X1091250Y650947D01*
X1091430Y651390D01*
X1091570Y651914D01*
X1091670Y652518D01*
X1091730Y653204D01*
X1091750Y653969D01*
X1095750D01*
X1095770Y653204D01*
D02*
G37*
G36*
X1063260Y654845D02*
X1063380Y654510D01*
X1063579Y654215D01*
X1063859Y653959D01*
X1064220Y653742D01*
X1064660Y653565D01*
X1065180Y653427D01*
X1065779Y653329D01*
X1066460Y653270D01*
X1067219Y653250D01*
Y649250D01*
X1066460Y649230D01*
X1065779Y649171D01*
X1065180Y649073D01*
X1064660Y648935D01*
X1064220Y648758D01*
X1063859Y648541D01*
X1063579Y648285D01*
X1063380Y647990D01*
X1063260Y647655D01*
X1063220Y647281D01*
Y655219D01*
X1063260Y654845D01*
D02*
G37*
G36*
X698770Y648454D02*
X698830Y647768D01*
X698930Y647164D01*
X699070Y646640D01*
X699250Y646197D01*
X699470Y645834D01*
X699730Y645552D01*
X700030Y645350D01*
X700370Y645229D01*
X700750Y645189D01*
X692750D01*
X693130Y645229D01*
X693470Y645350D01*
X693770Y645552D01*
X694030Y645834D01*
X694250Y646197D01*
X694430Y646640D01*
X694570Y647164D01*
X694670Y647768D01*
X694730Y648454D01*
X694750Y649220D01*
X698750D01*
X698770Y648454D01*
D02*
G37*
G36*
X1178030Y644031D02*
X1177990Y644025D01*
X1177870Y644019D01*
X1174031Y644000D01*
Y648000D01*
X1174790Y648020D01*
X1175471Y648080D01*
X1176070Y648180D01*
X1176590Y648320D01*
X1177030Y648500D01*
X1177391Y648720D01*
X1177671Y648980D01*
X1177870Y649280D01*
X1177990Y649620D01*
X1178030Y650000D01*
Y644031D01*
D02*
G37*
G36*
X867860Y648603D02*
X867784Y648384D01*
X867718Y648097D01*
X867660Y647742D01*
X867571Y646826D01*
X867504Y644940D01*
X867500Y644174D01*
X863500Y643927D01*
X863493Y644669D01*
X863314Y647061D01*
X863232Y647515D01*
X863136Y647911D01*
X863024Y648249D01*
X862897Y648530D01*
X862756Y648752D01*
X867944D01*
X867860Y648603D01*
D02*
G37*
G36*
X1012020Y647114D02*
X1012080Y646429D01*
X1012180Y645824D01*
X1012320Y645300D01*
X1012500Y644857D01*
X1012720Y644494D01*
X1012980Y644212D01*
X1013280Y644010D01*
X1013620Y643889D01*
X1014000Y643849D01*
X1006000D01*
X1006380Y643889D01*
X1006720Y644010D01*
X1007020Y644212D01*
X1007280Y644494D01*
X1007500Y644857D01*
X1007680Y645300D01*
X1007820Y645824D01*
X1007920Y646429D01*
X1007980Y647114D01*
X1008000Y647879D01*
X1012000D01*
X1012020Y647114D01*
D02*
G37*
G36*
X1063220Y647281D02*
X1062900Y647241D01*
X1062613Y647121D01*
X1062361Y646920D01*
X1062142Y646640D01*
X1061957Y646281D01*
X1061805Y645841D01*
X1061687Y645321D01*
X1061603Y644721D01*
X1061552Y644041D01*
X1061535Y643280D01*
X1057536D01*
X1057516Y644045D01*
X1057456Y644729D01*
X1057355Y645333D01*
X1057216Y645856D01*
X1057036Y646299D01*
X1056816Y646662D01*
X1056555Y646945D01*
X1056255Y647147D01*
X1055916Y647269D01*
X1055536Y647311D01*
X1063220Y647281D01*
D02*
G37*
G36*
X1242020Y646204D02*
X1242080Y645518D01*
X1242180Y644914D01*
X1242320Y644390D01*
X1242500Y643947D01*
X1242720Y643584D01*
X1242980Y643302D01*
X1243280Y643100D01*
X1243620Y642979D01*
X1244000Y642939D01*
X1236000D01*
X1236380Y642979D01*
X1236720Y643100D01*
X1237020Y643302D01*
X1237280Y643584D01*
X1237500Y643947D01*
X1237680Y644390D01*
X1237820Y644914D01*
X1237920Y645518D01*
X1237980Y646204D01*
X1238000Y646970D01*
X1242000D01*
X1242020Y646204D01*
D02*
G37*
G36*
X946281Y641500D02*
X946240Y641880D01*
X946121Y642220D01*
X945920Y642520D01*
X945640Y642780D01*
X945281Y643000D01*
X944840Y643180D01*
X944321Y643320D01*
X943720Y643420D01*
X943040Y643480D01*
X942281Y643500D01*
Y647500D01*
X943040Y647520D01*
X943720Y647580D01*
X944321Y647680D01*
X944840Y647820D01*
X945281Y648000D01*
X945640Y648220D01*
X945920Y648480D01*
X946121Y648780D01*
X946240Y649120D01*
X946281Y649500D01*
Y641500D01*
D02*
G37*
G36*
X971229Y648569D02*
X971348Y648240D01*
X971546Y647949D01*
X971824Y647697D01*
X972181Y647484D01*
X972617Y647310D01*
X973133Y647174D01*
X973728Y647077D01*
X974403Y647019D01*
X975157Y647000D01*
Y643000D01*
X974403Y642981D01*
X973728Y642923D01*
X973133Y642826D01*
X972617Y642690D01*
X972181Y642516D01*
X971824Y642303D01*
X971546Y642051D01*
X971348Y641760D01*
X971229Y641431D01*
X971189Y641063D01*
Y648937D01*
X971229Y648569D01*
D02*
G37*
G36*
X1274502Y642236D02*
X1274620Y640528D01*
X1274652Y640462D01*
X1274687Y640439D01*
X1270530Y640470D01*
X1270500Y642657D01*
X1274500D01*
X1274502Y642236D01*
D02*
G37*
G36*
X933746Y640477D02*
X932479Y639247D01*
X929912Y642571D01*
X929970Y642578D01*
X930049Y642610D01*
X930148Y642668D01*
X930268Y642753D01*
X930408Y642863D01*
X930951Y643349D01*
X931416Y643803D01*
X933746Y640477D01*
D02*
G37*
G36*
X1162979Y646120D02*
X1163100Y645780D01*
X1163302Y645480D01*
X1163584Y645220D01*
X1163947Y645000D01*
X1164390Y644820D01*
X1164914Y644680D01*
X1165518Y644580D01*
X1166204Y644520D01*
X1166970Y644500D01*
Y640500D01*
X1166204Y640480D01*
X1165518Y640420D01*
X1164914Y640320D01*
X1164390Y640180D01*
X1163947Y640000D01*
X1163584Y639780D01*
X1163302Y639520D01*
X1163100Y639220D01*
X1162979Y638880D01*
X1162939Y638500D01*
Y646500D01*
X1162979Y646120D01*
D02*
G37*
G36*
X1199077Y633791D02*
X1199678Y633310D01*
X1200303Y632886D01*
X1200950Y632518D01*
X1201621Y632207D01*
X1202316Y631953D01*
X1203034Y631754D01*
X1203775Y631613D01*
X1204540Y631528D01*
X1205328Y631500D01*
X1200500Y627500D01*
X1192000Y631500D01*
X1192669Y631528D01*
X1193209Y631613D01*
X1193618Y631754D01*
X1193897Y631953D01*
X1194047Y632207D01*
X1194066Y632518D01*
X1193955Y632886D01*
X1193715Y633310D01*
X1193344Y633791D01*
X1192843Y634328D01*
X1198500D01*
X1199077Y633791D01*
D02*
G37*
G36*
X733979Y634870D02*
X734100Y634530D01*
X734302Y634230D01*
X734584Y633970D01*
X734947Y633750D01*
X735390Y633570D01*
X735914Y633430D01*
X736518Y633330D01*
X737204Y633270D01*
X737970Y633250D01*
Y629250D01*
X737204Y629230D01*
X736518Y629170D01*
X735914Y629070D01*
X735390Y628930D01*
X734947Y628750D01*
X734584Y628530D01*
X734302Y628270D01*
X734100Y627970D01*
X733979Y627630D01*
X733939Y627250D01*
Y635250D01*
X733979Y634870D01*
D02*
G37*
G36*
X1034510Y634005D02*
X1034630Y633671D01*
X1034829Y633375D01*
X1035109Y633119D01*
X1035470Y632902D01*
X1035910Y632725D01*
X1036430Y632587D01*
X1037029Y632489D01*
X1037710Y632430D01*
X1038469Y632410D01*
Y628410D01*
X1037710Y628390D01*
X1037029Y628331D01*
X1036430Y628233D01*
X1035910Y628095D01*
X1035470Y627918D01*
X1035109Y627701D01*
X1034829Y627445D01*
X1034630Y627150D01*
X1034510Y626815D01*
X1034470Y626441D01*
Y634380D01*
X1034510Y634005D01*
D02*
G37*
G36*
X1215530Y625531D02*
X1215490Y625905D01*
X1215370Y626240D01*
X1215171Y626535D01*
X1214891Y626791D01*
X1214530Y627008D01*
X1214090Y627185D01*
X1213570Y627323D01*
X1212971Y627421D01*
X1212290Y627480D01*
X1211531Y627500D01*
Y631500D01*
X1212290Y631520D01*
X1212971Y631579D01*
X1213570Y631677D01*
X1214090Y631815D01*
X1214530Y631992D01*
X1214891Y632209D01*
X1215171Y632465D01*
X1215370Y632761D01*
X1215490Y633095D01*
X1215530Y633470D01*
Y625531D01*
D02*
G37*
G36*
X1286620Y629021D02*
X1286280Y628900D01*
X1285980Y628698D01*
X1285720Y628416D01*
X1285500Y628053D01*
X1285320Y627610D01*
X1285180Y627086D01*
X1285080Y626482D01*
X1285020Y625796D01*
X1285000Y625031D01*
X1281000D01*
X1280980Y625796D01*
X1280920Y626482D01*
X1280820Y627086D01*
X1280680Y627610D01*
X1280500Y628053D01*
X1280280Y628416D01*
X1280020Y628698D01*
X1279720Y628900D01*
X1279380Y629021D01*
X1279000Y629061D01*
X1287000D01*
X1286620Y629021D01*
D02*
G37*
G36*
X1018469Y620910D02*
X1017706Y620890D01*
X1017022Y620830D01*
X1016418Y620730D01*
X1015895Y620590D01*
X1015452Y620410D01*
X1015089Y620190D01*
X1014806Y619930D01*
X1014604Y619630D01*
X1014481Y619290D01*
X1014439Y618910D01*
X1014470Y624879D01*
X1014510Y624885D01*
X1014630Y624891D01*
X1018469Y624910D01*
Y620910D01*
D02*
G37*
G36*
X1122500Y612500D02*
X1121086Y611086D01*
X1118257Y613914D01*
X1120414Y617414D01*
X1120831Y617039D01*
X1121248Y616747D01*
X1121666Y616538D01*
X1122083Y616413D01*
X1122500Y616371D01*
X1122917Y616413D01*
X1123334Y616538D01*
X1123751Y616747D01*
X1124169Y617039D01*
X1124586Y617414D01*
X1122500Y612500D01*
D02*
G37*
G36*
X700370Y620241D02*
X700030Y620121D01*
X699730Y619921D01*
X699470Y619641D01*
X699250Y619281D01*
X699070Y618840D01*
X698930Y618321D01*
X698830Y617720D01*
X698770Y617040D01*
X698750Y616281D01*
X694750D01*
X694730Y617040D01*
X694670Y617720D01*
X694570Y618321D01*
X694430Y618840D01*
X694250Y619281D01*
X694030Y619641D01*
X693770Y619921D01*
X693470Y620121D01*
X693130Y620241D01*
X692750Y620280D01*
X700750D01*
X700370Y620241D01*
D02*
G37*
G36*
X1244510Y623595D02*
X1244630Y623260D01*
X1244829Y622965D01*
X1245109Y622709D01*
X1245470Y622492D01*
X1245910Y622315D01*
X1246430Y622177D01*
X1247029Y622079D01*
X1247710Y622020D01*
X1248469Y622000D01*
Y618000D01*
X1247710Y617980D01*
X1247029Y617921D01*
X1246430Y617823D01*
X1245910Y617685D01*
X1245470Y617508D01*
X1245109Y617291D01*
X1244829Y617035D01*
X1244630Y616740D01*
X1244510Y616405D01*
X1244470Y616031D01*
Y623969D01*
X1244510Y623595D01*
D02*
G37*
G36*
X1013620Y616931D02*
X1013280Y616810D01*
X1012980Y616608D01*
X1012720Y616326D01*
X1012500Y615963D01*
X1012320Y615520D01*
X1012180Y614996D01*
X1012080Y614392D01*
X1012020Y613706D01*
X1012000Y612940D01*
X1008000D01*
X1007980Y613706D01*
X1007920Y614392D01*
X1007820Y614996D01*
X1007680Y615520D01*
X1007500Y615963D01*
X1007280Y616326D01*
X1007020Y616608D01*
X1006720Y616810D01*
X1006380Y616931D01*
X1006000Y616971D01*
X1014000D01*
X1013620Y616931D01*
D02*
G37*
G36*
X1162979Y619620D02*
X1163100Y619280D01*
X1163302Y618980D01*
X1163584Y618720D01*
X1163947Y618500D01*
X1164390Y618320D01*
X1164914Y618180D01*
X1165518Y618080D01*
X1166204Y618020D01*
X1166970Y618000D01*
Y614000D01*
X1166204Y613980D01*
X1165518Y613920D01*
X1164914Y613820D01*
X1164390Y613680D01*
X1163947Y613500D01*
X1163584Y613280D01*
X1163302Y613020D01*
X1163100Y612720D01*
X1162979Y612380D01*
X1162939Y612000D01*
Y620000D01*
X1162979Y619620D01*
D02*
G37*
G36*
X1146561Y612000D02*
X1146521Y612380D01*
X1146400Y612720D01*
X1146198Y613020D01*
X1145916Y613280D01*
X1145553Y613500D01*
X1145110Y613680D01*
X1144586Y613820D01*
X1143981Y613920D01*
X1143296Y613980D01*
X1142531Y614000D01*
Y618000D01*
X1143296Y618020D01*
X1143981Y618080D01*
X1144586Y618180D01*
X1145110Y618320D01*
X1145553Y618500D01*
X1145916Y618720D01*
X1146198Y618980D01*
X1146400Y619280D01*
X1146521Y619620D01*
X1146561Y620000D01*
Y612000D01*
D02*
G37*
G36*
X1101979Y619620D02*
X1102100Y619280D01*
X1102302Y618980D01*
X1102584Y618720D01*
X1102947Y618500D01*
X1103390Y618320D01*
X1103914Y618180D01*
X1104519Y618080D01*
X1105204Y618020D01*
X1105969Y618000D01*
Y614000D01*
X1105204Y613980D01*
X1104519Y613920D01*
X1103914Y613820D01*
X1103390Y613680D01*
X1102947Y613500D01*
X1102584Y613280D01*
X1102302Y613020D01*
X1102100Y612720D01*
X1101979Y612380D01*
X1101939Y612000D01*
Y620000D01*
X1101979Y619620D01*
D02*
G37*
G36*
X1085561Y611000D02*
X1085521Y611380D01*
X1085400Y611720D01*
X1085198Y612020D01*
X1084916Y612280D01*
X1084553Y612500D01*
X1084110Y612680D01*
X1083586Y612820D01*
X1082981Y612920D01*
X1082296Y612980D01*
X1081531Y613000D01*
Y617000D01*
X1082296Y617020D01*
X1082981Y617080D01*
X1083586Y617180D01*
X1084110Y617320D01*
X1084553Y617500D01*
X1084916Y617720D01*
X1085198Y617980D01*
X1085400Y618280D01*
X1085521Y618620D01*
X1085561Y619000D01*
Y611000D01*
D02*
G37*
G36*
X971231Y613870D02*
X971354Y613530D01*
X971556Y613230D01*
X971839Y612970D01*
X972202Y612750D01*
X972645Y612570D01*
X973168Y612430D01*
X973772Y612330D01*
X974456Y612270D01*
X975219Y612250D01*
Y608250D01*
X971219Y608280D01*
X971189Y614250D01*
X971231Y613870D01*
D02*
G37*
G36*
X697203Y608916D02*
X696963Y608673D01*
X696068Y607648D01*
X696010Y607549D01*
X695978Y607470D01*
X695972Y607412D01*
X692647Y609979D01*
X693877Y611247D01*
X697203Y608916D01*
D02*
G37*
G36*
X1125100Y604142D02*
X1120900D01*
X1120919Y604179D01*
X1120936Y604249D01*
X1120951Y604354D01*
X1120975Y604665D01*
X1120999Y605694D01*
X1121000Y606036D01*
X1125000D01*
X1125100Y604142D01*
D02*
G37*
G36*
X909012Y607931D02*
X909050Y607869D01*
X909113Y607784D01*
X909316Y607548D01*
X910027Y606803D01*
X910268Y606560D01*
X907440Y603732D01*
X906030Y605000D01*
X909000Y607970D01*
X909012Y607931D01*
D02*
G37*
G36*
X1270530Y599250D02*
X1270490Y599630D01*
X1270370Y599970D01*
X1270171Y600270D01*
X1269891Y600530D01*
X1269530Y600750D01*
X1269090Y600930D01*
X1268570Y601070D01*
X1267971Y601170D01*
X1267290Y601230D01*
X1266531Y601250D01*
Y605250D01*
X1267290Y605270D01*
X1267971Y605330D01*
X1268570Y605430D01*
X1269090Y605570D01*
X1269530Y605750D01*
X1269891Y605970D01*
X1270171Y606230D01*
X1270370Y606530D01*
X1270490Y606870D01*
X1270530Y607250D01*
Y599250D01*
D02*
G37*
G36*
X786185Y598250D02*
X786145Y598630D01*
X786024Y598970D01*
X785823Y599270D01*
X785540Y599530D01*
X785178Y599750D01*
X784734Y599930D01*
X784210Y600070D01*
X783606Y600170D01*
X782921Y600230D01*
X782155Y600250D01*
Y604250D01*
X782921Y604270D01*
X783606Y604330D01*
X784210Y604430D01*
X784734Y604570D01*
X785178Y604750D01*
X785540Y604970D01*
X785823Y605230D01*
X786024Y605530D01*
X786145Y605870D01*
X786185Y606250D01*
Y598250D01*
D02*
G37*
G36*
X1312100Y597142D02*
X1307900D01*
X1307919Y597179D01*
X1307936Y597249D01*
X1307951Y597354D01*
X1307975Y597665D01*
X1307999Y598694D01*
X1308000Y599036D01*
X1312000D01*
X1312100Y597142D01*
D02*
G37*
G36*
X719619Y593985D02*
X719712Y592628D01*
X719740Y592517D01*
X719773Y592438D01*
X719810Y592393D01*
X715644Y591857D01*
X715617Y593623D01*
X719617Y594327D01*
X719619Y593985D01*
D02*
G37*
G36*
X1186012Y593931D02*
X1186050Y593869D01*
X1186113Y593784D01*
X1186316Y593548D01*
X1187027Y592803D01*
X1187268Y592560D01*
X1184440Y589732D01*
X1183030Y591000D01*
X1186000Y593970D01*
X1186012Y593931D01*
D02*
G37*
G36*
X1095770Y575382D02*
X1095830Y574697D01*
X1095930Y574092D01*
X1096070Y573569D01*
X1096250Y573125D01*
X1096470Y572762D01*
X1096730Y572480D01*
X1097030Y572279D01*
X1097370Y572158D01*
X1097750Y572118D01*
X1089750D01*
X1090130Y572158D01*
X1090470Y572279D01*
X1090770Y572480D01*
X1091030Y572762D01*
X1091250Y573125D01*
X1091430Y573569D01*
X1091570Y574092D01*
X1091670Y574697D01*
X1091730Y575382D01*
X1091750Y576148D01*
X1095750D01*
X1095770Y575382D01*
D02*
G37*
G36*
X1272561Y564250D02*
X1272521Y564630D01*
X1272400Y564970D01*
X1272198Y565270D01*
X1271916Y565530D01*
X1271553Y565750D01*
X1271110Y565930D01*
X1270586Y566070D01*
X1269982Y566170D01*
X1269296Y566230D01*
X1268531Y566250D01*
Y570250D01*
X1269296Y570270D01*
X1269982Y570330D01*
X1270586Y570430D01*
X1271110Y570570D01*
X1271553Y570750D01*
X1271916Y570970D01*
X1272198Y571230D01*
X1272400Y571530D01*
X1272521Y571870D01*
X1272561Y572250D01*
Y564250D01*
D02*
G37*
G36*
X971260Y570549D02*
X971379Y570209D01*
X971580Y569909D01*
X971860Y569649D01*
X972219Y569429D01*
X972660Y569249D01*
X973179Y569109D01*
X973780Y569009D01*
X974460Y568949D01*
X975219Y568929D01*
Y564929D01*
X974460Y564909D01*
X973780Y564849D01*
X973179Y564749D01*
X972660Y564609D01*
X972219Y564429D01*
X971860Y564209D01*
X971580Y563949D01*
X971379Y563649D01*
X971260Y563309D01*
X971219Y562929D01*
Y570929D01*
X971260Y570549D01*
D02*
G37*
G36*
X1146561Y562179D02*
X1146521Y562559D01*
X1146400Y562899D01*
X1146198Y563199D01*
X1145916Y563459D01*
X1145553Y563679D01*
X1145110Y563859D01*
X1144586Y563999D01*
X1143981Y564099D01*
X1143296Y564159D01*
X1142531Y564179D01*
Y568179D01*
X1143296Y568199D01*
X1143981Y568259D01*
X1144586Y568359D01*
X1145110Y568499D01*
X1145553Y568679D01*
X1145916Y568899D01*
X1146198Y569159D01*
X1146400Y569459D01*
X1146521Y569799D01*
X1146561Y570179D01*
Y562179D01*
D02*
G37*
G36*
X1224510Y565595D02*
X1224630Y565261D01*
X1224829Y564965D01*
X1225109Y564709D01*
X1225470Y564492D01*
X1225910Y564315D01*
X1226430Y564177D01*
X1227029Y564079D01*
X1227710Y564020D01*
X1228469Y564000D01*
Y560000D01*
X1227710Y559980D01*
X1227029Y559921D01*
X1226430Y559823D01*
X1225910Y559685D01*
X1225470Y559508D01*
X1225109Y559291D01*
X1224829Y559035D01*
X1224630Y558740D01*
X1224510Y558405D01*
X1224470Y558031D01*
Y565970D01*
X1224510Y565595D01*
D02*
G37*
G36*
X1034501Y563212D02*
X1034597Y563010D01*
X1034756Y562832D01*
X1034979Y562677D01*
X1035266Y562547D01*
X1035617Y562440D01*
X1036031Y562357D01*
X1036509Y562298D01*
X1037051Y562262D01*
X1037657Y562250D01*
Y558250D01*
X1037051Y558238D01*
X1036031Y558143D01*
X1035617Y558060D01*
X1035266Y557953D01*
X1034979Y557823D01*
X1034756Y557668D01*
X1034597Y557490D01*
X1034501Y557288D01*
X1034470Y557063D01*
Y563437D01*
X1034501Y563212D01*
D02*
G37*
G36*
X927363Y553221D02*
X927346Y553150D01*
X927331Y553046D01*
X927307Y552735D01*
X927283Y551706D01*
X927282Y551364D01*
X923282D01*
X923182Y553258D01*
X927382D01*
X927363Y553221D01*
D02*
G37*
G36*
X1244510Y556095D02*
X1244630Y555760D01*
X1244829Y555465D01*
X1245109Y555209D01*
X1245470Y554992D01*
X1245910Y554815D01*
X1246430Y554677D01*
X1247029Y554579D01*
X1247710Y554520D01*
X1248469Y554500D01*
Y550500D01*
X1247710Y550480D01*
X1247029Y550421D01*
X1246430Y550323D01*
X1245910Y550185D01*
X1245470Y550008D01*
X1245109Y549791D01*
X1244829Y549535D01*
X1244630Y549240D01*
X1244510Y548905D01*
X1244470Y548531D01*
Y556469D01*
X1244510Y556095D01*
D02*
G37*
G36*
X1005530Y546781D02*
X1005490Y547155D01*
X1005370Y547490D01*
X1005171Y547785D01*
X1004891Y548041D01*
X1004530Y548258D01*
X1004090Y548435D01*
X1003570Y548573D01*
X1002971Y548671D01*
X1002290Y548730D01*
X1001531Y548750D01*
Y552750D01*
X1002290Y552770D01*
X1002971Y552829D01*
X1003570Y552927D01*
X1004090Y553065D01*
X1004530Y553242D01*
X1004891Y553459D01*
X1005171Y553715D01*
X1005370Y554011D01*
X1005490Y554345D01*
X1005530Y554720D01*
Y546781D01*
D02*
G37*
G36*
X1025530Y545219D02*
X1025561Y539469D01*
X1025521Y539808D01*
X1025406Y540111D01*
X1025214Y540378D01*
X1024947Y540609D01*
X1024604Y540805D01*
X1024184Y540965D01*
X1023690Y541090D01*
X1023119Y541179D01*
X1022472Y541232D01*
X1021750Y541250D01*
Y545250D01*
X1025530Y545219D01*
D02*
G37*
G36*
X1223620Y539021D02*
X1223280Y538900D01*
X1222980Y538698D01*
X1222720Y538416D01*
X1222500Y538053D01*
X1222320Y537610D01*
X1222180Y537086D01*
X1222080Y536482D01*
X1222020Y535796D01*
X1222000Y535031D01*
X1218000D01*
X1217980Y535796D01*
X1217920Y536482D01*
X1217820Y537086D01*
X1217680Y537610D01*
X1217500Y538053D01*
X1217280Y538416D01*
X1217020Y538698D01*
X1216720Y538900D01*
X1216380Y539021D01*
X1216000Y539061D01*
X1224000D01*
X1223620Y539021D01*
D02*
G37*
G36*
X1085561Y534179D02*
X1085521Y534559D01*
X1085400Y534899D01*
X1085198Y535199D01*
X1084916Y535459D01*
X1084553Y535679D01*
X1084110Y535859D01*
X1083586Y535999D01*
X1082981Y536099D01*
X1082296Y536159D01*
X1081531Y536179D01*
Y540179D01*
X1082296Y540199D01*
X1082981Y540259D01*
X1083586Y540359D01*
X1084110Y540499D01*
X1084553Y540679D01*
X1084916Y540899D01*
X1085198Y541159D01*
X1085400Y541459D01*
X1085521Y541799D01*
X1085561Y542179D01*
Y534179D01*
D02*
G37*
G36*
X1297509Y540370D02*
X1297630Y540030D01*
X1297829Y539730D01*
X1298109Y539470D01*
X1298470Y539250D01*
X1298909Y539070D01*
X1299429Y538930D01*
X1300029Y538830D01*
X1300710Y538770D01*
X1301470Y538750D01*
Y534750D01*
X1300710Y534730D01*
X1300029Y534670D01*
X1299429Y534570D01*
X1298909Y534430D01*
X1298470Y534250D01*
X1298109Y534030D01*
X1297829Y533770D01*
X1297630Y533470D01*
X1297509Y533130D01*
X1297469Y532750D01*
Y540750D01*
X1297509Y540370D01*
D02*
G37*
G36*
X946311Y531429D02*
X946271Y531809D01*
X946150Y532149D01*
X945948Y532449D01*
X945666Y532709D01*
X945303Y532929D01*
X944860Y533109D01*
X944336Y533249D01*
X943732Y533349D01*
X943046Y533409D01*
X942281Y533429D01*
Y537429D01*
X943046Y537449D01*
X943732Y537509D01*
X944336Y537609D01*
X944860Y537749D01*
X945303Y537929D01*
X945666Y538149D01*
X945948Y538409D01*
X946150Y538709D01*
X946271Y539049D01*
X946311Y539429D01*
Y531429D01*
D02*
G37*
G36*
X1158370Y532169D02*
X1158030Y532049D01*
X1157730Y531849D01*
X1157470Y531569D01*
X1157250Y531209D01*
X1157070Y530769D01*
X1156930Y530249D01*
X1156830Y529649D01*
X1156770Y528969D01*
X1156750Y528209D01*
X1152750D01*
X1152730Y528969D01*
X1152670Y529649D01*
X1152570Y530249D01*
X1152430Y530769D01*
X1152250Y531209D01*
X1152030Y531569D01*
X1151770Y531849D01*
X1151470Y532049D01*
X1151130Y532169D01*
X1150750Y532209D01*
X1158750D01*
X1158370Y532169D01*
D02*
G37*
G36*
X1097370D02*
X1097030Y532049D01*
X1096730Y531849D01*
X1096470Y531569D01*
X1096250Y531209D01*
X1096070Y530769D01*
X1095930Y530249D01*
X1095830Y529649D01*
X1095770Y528969D01*
X1095750Y528209D01*
X1091750D01*
X1091730Y528969D01*
X1091670Y529649D01*
X1091570Y530249D01*
X1091430Y530769D01*
X1091250Y531209D01*
X1091030Y531569D01*
X1090770Y531849D01*
X1090470Y532049D01*
X1090130Y532169D01*
X1089750Y532209D01*
X1097750D01*
X1097370Y532169D01*
D02*
G37*
G36*
X1191716Y525879D02*
X1191606Y525513D01*
X1191609Y525091D01*
X1191725Y524611D01*
X1191954Y524074D01*
X1192297Y523479D01*
X1192752Y522828D01*
X1193321Y522119D01*
X1194798Y520531D01*
X1191970Y517702D01*
X1191146Y518497D01*
X1189672Y519748D01*
X1189021Y520203D01*
X1188426Y520546D01*
X1187889Y520775D01*
X1187409Y520891D01*
X1186987Y520894D01*
X1186621Y520784D01*
X1186313Y520561D01*
X1191939Y526187D01*
X1191716Y525879D01*
D02*
G37*
G36*
X1063260Y523620D02*
X1063380Y523280D01*
X1063579Y522980D01*
X1063859Y522720D01*
X1064220Y522500D01*
X1064660Y522320D01*
X1065180Y522180D01*
X1065779Y522080D01*
X1066460Y522020D01*
X1067219Y522000D01*
Y518000D01*
X1066460Y517983D01*
X1065779Y517931D01*
X1065180Y517845D01*
X1064660Y517725D01*
X1064220Y517570D01*
X1063859Y517381D01*
X1063579Y517157D01*
X1063380Y516899D01*
X1063260Y516607D01*
X1063220Y516281D01*
Y524000D01*
X1063260Y523620D01*
D02*
G37*
G36*
X1217000Y517000D02*
Y515000D01*
X1215969Y515854D01*
Y515000D01*
X1215206Y514980D01*
X1214522Y514920D01*
X1213918Y514820D01*
X1213395Y514680D01*
X1212952Y514500D01*
X1212589Y514280D01*
X1212306Y514020D01*
X1212104Y513720D01*
X1211981Y513380D01*
X1211939Y513000D01*
X1211970Y518969D01*
X1212010Y518975D01*
X1212130Y518980D01*
X1212195Y518981D01*
X1212172Y519000D01*
X1212956Y519024D01*
X1213708Y519097D01*
X1214429Y519217D01*
X1215118Y519386D01*
X1215775Y519604D01*
X1216401Y519869D01*
X1216994Y520183D01*
X1217557Y520545D01*
X1218087Y520956D01*
X1218586Y521414D01*
X1217000Y517000D01*
D02*
G37*
G36*
X1156770Y513204D02*
X1156830Y512519D01*
X1156930Y511914D01*
X1157070Y511390D01*
X1157250Y510947D01*
X1157470Y510584D01*
X1157730Y510302D01*
X1158030Y510100D01*
X1158370Y509979D01*
X1158750Y509939D01*
X1150750D01*
X1151130Y509979D01*
X1151470Y510100D01*
X1151770Y510302D01*
X1152030Y510584D01*
X1152250Y510947D01*
X1152430Y511390D01*
X1152570Y511914D01*
X1152670Y512519D01*
X1152730Y513204D01*
X1152750Y513969D01*
X1156750D01*
X1156770Y513204D01*
D02*
G37*
G36*
X1095770D02*
X1095830Y512519D01*
X1095930Y511914D01*
X1096070Y511390D01*
X1096250Y510947D01*
X1096470Y510584D01*
X1096730Y510302D01*
X1097030Y510100D01*
X1097370Y509979D01*
X1097750Y509939D01*
X1089750D01*
X1090130Y509979D01*
X1090470Y510100D01*
X1090770Y510302D01*
X1091030Y510584D01*
X1091250Y510947D01*
X1091430Y511390D01*
X1091570Y511914D01*
X1091670Y512519D01*
X1091730Y513204D01*
X1091750Y513969D01*
X1095750D01*
X1095770Y513204D01*
D02*
G37*
G36*
X1041120Y506769D02*
X1040780Y506647D01*
X1040480Y506445D01*
X1040220Y506162D01*
X1040000Y505799D01*
X1039820Y505356D01*
X1039680Y504832D01*
X1039580Y504229D01*
X1039520Y503545D01*
X1039500Y502780D01*
X1035500D01*
X1035488Y503540D01*
X1035390Y504821D01*
X1035305Y505340D01*
X1035195Y505780D01*
X1035061Y506141D01*
X1034902Y506421D01*
X1034719Y506620D01*
X1034512Y506740D01*
X1034280Y506781D01*
X1041500Y506811D01*
X1041120Y506769D01*
D02*
G37*
G36*
X1183030Y501530D02*
X1182990Y501905D01*
X1182870Y502239D01*
X1182671Y502535D01*
X1182391Y502791D01*
X1182030Y503008D01*
X1181590Y503185D01*
X1181070Y503323D01*
X1180471Y503421D01*
X1179790Y503480D01*
X1179031Y503500D01*
Y507500D01*
X1179790Y507520D01*
X1180471Y507579D01*
X1181070Y507677D01*
X1181590Y507815D01*
X1182030Y507992D01*
X1182391Y508209D01*
X1182671Y508465D01*
X1182870Y508760D01*
X1182990Y509095D01*
X1183030Y509469D01*
Y501530D01*
D02*
G37*
G36*
X1162979Y509120D02*
X1163100Y508780D01*
X1163302Y508480D01*
X1163584Y508220D01*
X1163947Y508000D01*
X1164390Y507820D01*
X1164914Y507680D01*
X1165518Y507580D01*
X1166204Y507520D01*
X1166970Y507500D01*
Y503500D01*
X1166204Y503480D01*
X1165518Y503420D01*
X1164914Y503320D01*
X1164390Y503180D01*
X1163947Y503000D01*
X1163584Y502780D01*
X1163302Y502520D01*
X1163100Y502220D01*
X1162979Y501880D01*
X1162939Y501500D01*
Y509500D01*
X1162979Y509120D01*
D02*
G37*
G36*
X929758Y499500D02*
X929417Y499498D01*
X928232Y499411D01*
X928099Y499379D01*
X928000Y499342D01*
X927935Y499300D01*
X927905Y499253D01*
X925935Y502851D01*
X929398Y503500D01*
X929758Y499500D01*
D02*
G37*
G36*
X971229Y505120D02*
X971350Y504780D01*
X971552Y504480D01*
X971834Y504220D01*
X972197Y504000D01*
X972640Y503820D01*
X973164Y503680D01*
X973769Y503580D01*
X974454Y503520D01*
X975219Y503500D01*
Y499500D01*
X974454Y499480D01*
X973769Y499420D01*
X973164Y499320D01*
X972640Y499180D01*
X972197Y499000D01*
X971834Y498780D01*
X971552Y498520D01*
X971350Y498220D01*
X971229Y497880D01*
X971189Y497500D01*
Y505500D01*
X971229Y505120D01*
D02*
G37*
G36*
X946281Y497500D02*
X946240Y497880D01*
X946121Y498220D01*
X945920Y498520D01*
X945640Y498780D01*
X945281Y499000D01*
X944840Y499180D01*
X944321Y499320D01*
X943720Y499420D01*
X943040Y499480D01*
X942281Y499500D01*
Y503500D01*
X943040Y503520D01*
X943720Y503580D01*
X944321Y503680D01*
X944840Y503820D01*
X945281Y504000D01*
X945640Y504220D01*
X945920Y504480D01*
X946121Y504780D01*
X946240Y505120D01*
X946281Y505500D01*
Y497500D01*
D02*
G37*
G36*
X1063260Y504845D02*
X1063380Y504510D01*
X1063579Y504215D01*
X1063859Y503959D01*
X1064220Y503742D01*
X1064660Y503565D01*
X1065180Y503427D01*
X1065779Y503329D01*
X1066460Y503270D01*
X1067219Y503250D01*
Y499250D01*
X1066460Y499230D01*
X1065779Y499171D01*
X1065180Y499073D01*
X1064660Y498935D01*
X1064220Y498758D01*
X1063859Y498541D01*
X1063579Y498285D01*
X1063380Y497990D01*
X1063260Y497655D01*
X1063220Y497281D01*
Y505219D01*
X1063260Y504845D01*
D02*
G37*
G36*
X1242020Y499704D02*
X1242080Y499019D01*
X1242180Y498414D01*
X1242320Y497890D01*
X1242500Y497447D01*
X1242720Y497084D01*
X1242980Y496802D01*
X1243280Y496600D01*
X1243620Y496479D01*
X1244000Y496439D01*
X1236000D01*
X1236380Y496479D01*
X1236720Y496600D01*
X1237020Y496802D01*
X1237280Y497084D01*
X1237500Y497447D01*
X1237680Y497890D01*
X1237820Y498414D01*
X1237920Y499019D01*
X1237980Y499704D01*
X1238000Y500470D01*
X1242000D01*
X1242020Y499704D01*
D02*
G37*
G36*
X1272531Y493500D02*
X1272490Y493880D01*
X1272371Y494220D01*
X1272170Y494520D01*
X1271890Y494780D01*
X1271531Y495000D01*
X1271090Y495180D01*
X1270571Y495320D01*
X1269970Y495420D01*
X1269290Y495480D01*
X1268531Y495500D01*
Y499500D01*
X1269290Y499520D01*
X1269970Y499580D01*
X1270571Y499680D01*
X1271090Y499820D01*
X1271531Y500000D01*
X1271890Y500220D01*
X1272170Y500480D01*
X1272371Y500780D01*
X1272490Y501120D01*
X1272531Y501500D01*
Y493500D01*
D02*
G37*
G36*
X1059870Y497269D02*
X1059530Y497146D01*
X1059230Y496944D01*
X1058970Y496661D01*
X1058750Y496298D01*
X1058570Y495855D01*
X1058430Y495332D01*
X1058330Y494728D01*
X1058270Y494044D01*
X1058250Y493280D01*
X1054250D01*
X1054280Y497281D01*
X1060250Y497311D01*
X1059870Y497269D01*
D02*
G37*
G36*
X1288620Y491771D02*
X1288280Y491650D01*
X1287980Y491448D01*
X1287720Y491166D01*
X1287500Y490803D01*
X1287320Y490360D01*
X1287180Y489836D01*
X1287080Y489231D01*
X1287020Y488546D01*
X1287000Y487780D01*
X1283000D01*
X1282980Y488546D01*
X1282920Y489231D01*
X1282820Y489836D01*
X1282680Y490360D01*
X1282500Y490803D01*
X1282280Y491166D01*
X1282020Y491448D01*
X1281720Y491650D01*
X1281380Y491771D01*
X1281000Y491811D01*
X1289000D01*
X1288620Y491771D01*
D02*
G37*
G36*
X1203077Y487291D02*
X1203678Y486810D01*
X1204303Y486386D01*
X1204950Y486018D01*
X1205621Y485707D01*
X1206316Y485452D01*
X1207034Y485255D01*
X1207775Y485113D01*
X1208540Y485028D01*
X1209328Y485000D01*
X1204500Y481000D01*
Y483000D01*
X1202500Y487828D01*
X1203077Y487291D01*
D02*
G37*
G36*
X1215530Y479030D02*
X1215490Y479405D01*
X1215370Y479739D01*
X1215171Y480035D01*
X1214891Y480291D01*
X1214530Y480508D01*
X1214090Y480685D01*
X1213570Y480823D01*
X1212971Y480921D01*
X1212290Y480980D01*
X1211531Y481000D01*
Y485000D01*
X1212290Y485020D01*
X1212971Y485079D01*
X1213570Y485177D01*
X1214090Y485315D01*
X1214530Y485492D01*
X1214891Y485709D01*
X1215171Y485965D01*
X1215370Y486260D01*
X1215490Y486595D01*
X1215530Y486969D01*
Y479030D01*
D02*
G37*
G36*
X1034510Y484345D02*
X1034630Y484011D01*
X1034829Y483715D01*
X1035109Y483459D01*
X1035470Y483242D01*
X1035910Y483065D01*
X1036430Y482927D01*
X1037029Y482829D01*
X1037710Y482770D01*
X1038469Y482750D01*
Y478750D01*
X1037710Y478730D01*
X1037029Y478671D01*
X1036430Y478573D01*
X1035910Y478435D01*
X1035470Y478258D01*
X1035109Y478041D01*
X1034829Y477785D01*
X1034630Y477490D01*
X1034510Y477155D01*
X1034470Y476781D01*
Y484720D01*
X1034510Y484345D01*
D02*
G37*
G36*
X1124828Y472000D02*
X1124291Y471423D01*
X1123810Y470822D01*
X1123386Y470197D01*
X1123018Y469550D01*
X1122707Y468879D01*
X1122452Y468184D01*
X1122255Y467466D01*
X1122113Y466725D01*
X1122028Y465960D01*
X1122000Y465172D01*
X1118000D01*
X1117972Y465960D01*
X1117887Y466725D01*
X1117745Y467466D01*
X1117547Y468184D01*
X1117293Y468879D01*
X1116982Y469550D01*
X1116614Y470197D01*
X1116190Y470822D01*
X1115709Y471423D01*
X1115172Y472000D01*
X1117172Y475657D01*
X1117737Y475148D01*
X1118303Y474752D01*
X1118869Y474469D01*
X1119434Y474299D01*
X1120000Y474243D01*
X1120566Y474299D01*
X1121131Y474469D01*
X1121697Y474752D01*
X1122263Y475148D01*
X1122828Y475657D01*
X1124828Y472000D01*
D02*
G37*
G36*
X1162979Y479620D02*
X1163100Y479280D01*
X1163302Y478980D01*
X1163584Y478720D01*
X1163947Y478500D01*
X1164390Y478320D01*
X1164914Y478180D01*
X1165518Y478080D01*
X1166204Y478020D01*
X1166970Y478000D01*
Y474000D01*
X1166204Y473980D01*
X1165518Y473920D01*
X1164914Y473820D01*
X1164390Y473680D01*
X1163947Y473500D01*
X1163584Y473280D01*
X1163302Y473020D01*
X1163100Y472720D01*
X1162979Y472380D01*
X1162939Y472000D01*
Y480000D01*
X1162979Y479620D01*
D02*
G37*
G36*
X1146561Y472000D02*
X1146521Y472380D01*
X1146400Y472720D01*
X1146198Y473020D01*
X1145916Y473280D01*
X1145553Y473500D01*
X1145110Y473680D01*
X1144586Y473820D01*
X1143981Y473920D01*
X1143296Y473980D01*
X1142531Y474000D01*
Y478000D01*
X1143296Y478020D01*
X1143981Y478080D01*
X1144586Y478180D01*
X1145110Y478320D01*
X1145553Y478500D01*
X1145916Y478720D01*
X1146198Y478980D01*
X1146400Y479280D01*
X1146521Y479620D01*
X1146561Y480000D01*
Y472000D01*
D02*
G37*
G36*
X1101979Y479620D02*
X1102100Y479280D01*
X1102302Y478980D01*
X1102584Y478720D01*
X1102947Y478500D01*
X1103390Y478320D01*
X1103914Y478180D01*
X1104519Y478080D01*
X1105204Y478020D01*
X1105969Y478000D01*
Y474000D01*
X1105204Y473980D01*
X1104519Y473920D01*
X1103914Y473820D01*
X1103390Y473680D01*
X1102947Y473500D01*
X1102584Y473280D01*
X1102302Y473020D01*
X1102100Y472720D01*
X1101979Y472380D01*
X1101939Y472000D01*
Y480000D01*
X1101979Y479620D01*
D02*
G37*
G36*
X1085561Y472000D02*
X1085521Y472380D01*
X1085400Y472720D01*
X1085198Y473020D01*
X1084916Y473280D01*
X1084553Y473500D01*
X1084110Y473680D01*
X1083586Y473820D01*
X1082981Y473920D01*
X1082296Y473980D01*
X1081531Y474000D01*
Y478000D01*
X1082296Y478020D01*
X1082981Y478080D01*
X1083586Y478180D01*
X1084110Y478320D01*
X1084553Y478500D01*
X1084916Y478720D01*
X1085198Y478980D01*
X1085400Y479280D01*
X1085521Y479620D01*
X1085561Y480000D01*
Y472000D01*
D02*
G37*
G36*
X1014471Y474212D02*
X1014568Y474010D01*
X1014729Y473832D01*
X1014954Y473677D01*
X1015244Y473547D01*
X1015597Y473440D01*
X1016016Y473357D01*
X1016498Y473298D01*
X1017046Y473262D01*
X1017657Y473250D01*
Y469250D01*
X1017046Y469238D01*
X1016016Y469143D01*
X1015597Y469060D01*
X1015244Y468953D01*
X1014954Y468823D01*
X1014729Y468668D01*
X1014568Y468490D01*
X1014471Y468288D01*
X1014439Y468063D01*
Y474437D01*
X1014471Y474212D01*
D02*
G37*
G36*
X1005530Y467281D02*
X1005490Y467536D01*
X1005370Y467765D01*
X1005171Y467966D01*
X1004891Y468141D01*
X1004530Y468289D01*
X1004090Y468410D01*
X1003570Y468504D01*
X1002971Y468571D01*
X1001531Y468625D01*
Y472625D01*
X1002290Y472645D01*
X1002971Y472705D01*
X1003570Y472805D01*
X1004090Y472945D01*
X1004530Y473125D01*
X1004891Y473345D01*
X1005171Y473605D01*
X1005370Y473905D01*
X1005490Y474245D01*
X1005530Y474625D01*
Y467281D01*
D02*
G37*
G36*
X971229Y474245D02*
X971350Y473905D01*
X971552Y473605D01*
X971834Y473345D01*
X972197Y473125D01*
X972640Y472945D01*
X973164Y472805D01*
X973769Y472705D01*
X974454Y472645D01*
X975219Y472625D01*
Y468625D01*
X974454Y468605D01*
X973769Y468545D01*
X973164Y468445D01*
X972640Y468305D01*
X972197Y468125D01*
X971834Y467905D01*
X971552Y467645D01*
X971350Y467345D01*
X971229Y467005D01*
X971189Y466625D01*
Y474625D01*
X971229Y474245D01*
D02*
G37*
G36*
X1122100Y462142D02*
X1117900D01*
X1117919Y462179D01*
X1117936Y462249D01*
X1117951Y462354D01*
X1117975Y462665D01*
X1117999Y463694D01*
X1118000Y464036D01*
X1122000D01*
X1122100Y462142D01*
D02*
G37*
G36*
X1272531Y460280D02*
X1272490Y460322D01*
X1272371Y460359D01*
X1272170Y460392D01*
X1271890Y460421D01*
X1270571Y460480D01*
X1268531Y460500D01*
Y464500D01*
X1269290Y464520D01*
X1269970Y464580D01*
X1270571Y464680D01*
X1271090Y464820D01*
X1271531Y465000D01*
X1271890Y465220D01*
X1272170Y465480D01*
X1272371Y465780D01*
X1272490Y466120D01*
X1272531Y466500D01*
Y460280D01*
D02*
G37*
G36*
X1317100Y457142D02*
X1312900D01*
X1312919Y457179D01*
X1312936Y457249D01*
X1312951Y457354D01*
X1312975Y457665D01*
X1312999Y458694D01*
X1313000Y459036D01*
X1317000D01*
X1317100Y457142D01*
D02*
G37*
G36*
X576444Y466512D02*
X577187Y465918D01*
X577933Y465420D01*
X578683Y465017D01*
X579436Y464711D01*
X580193Y464500D01*
X580952Y464385D01*
X581716Y464366D01*
X582482Y464442D01*
X583252Y464615D01*
X576332Y452445D01*
X576104Y453208D01*
X575826Y453965D01*
X575497Y454716D01*
X575117Y455462D01*
X574687Y456202D01*
X574206Y456937D01*
X573091Y458389D01*
X572458Y459107D01*
X571774Y459819D01*
X575704Y467203D01*
X576444Y466512D01*
D02*
G37*
D12*
X937500Y975000D02*
X944250D01*
X951408Y964250D02*
X955000D01*
X946928Y968730D02*
X951408Y964250D01*
X946928Y968730D02*
Y972322D01*
X944250Y975000D02*
X946928Y972322D01*
D23*
X1285000Y536750D02*
D03*
Y568250D02*
D03*
X1283000Y603250D02*
D03*
Y634750D02*
D03*
X1285000Y785750D02*
D03*
Y754250D02*
D03*
X958750Y470000D02*
D03*
Y501500D02*
D03*
X955000Y964250D02*
D03*
Y995750D02*
D03*
X958750Y899000D02*
D03*
Y930500D02*
D03*
X958750Y755000D02*
D03*
Y786500D02*
D03*
Y679000D02*
D03*
Y710500D02*
D03*
Y645500D02*
D03*
Y614000D02*
D03*
X1282500Y670000D02*
D03*
Y701500D02*
D03*
X1285000Y930750D02*
D03*
Y899250D02*
D03*
Y1000750D02*
D03*
Y969250D02*
D03*
Y466000D02*
D03*
Y497500D02*
D03*
Y850750D02*
D03*
Y819250D02*
D03*
X958750Y820750D02*
D03*
Y852250D02*
D03*
Y535429D02*
D03*
Y566929D02*
D03*
D25*
X728250Y746250D02*
D03*
X696750D02*
D03*
Y708417D02*
D03*
X728250D02*
D03*
X696750Y670583D02*
D03*
X728250D02*
D03*
Y632750D02*
D03*
X696750D02*
D03*
D43*
X679500Y1051212D02*
X684750Y1045962D01*
X657500Y922500D02*
X684750Y949750D01*
X679500Y1051212D02*
Y1055000D01*
X684750Y949750D02*
Y1045962D01*
X575165Y906000D02*
X575505D01*
X535900Y697956D02*
X550720Y683136D01*
X534679Y912940D02*
X535900Y911719D01*
X534679Y917912D02*
X535633Y918867D01*
X575505Y906000D02*
X585000Y896505D01*
X535633Y921030D02*
X560135D01*
X532000Y922500D02*
X535633Y918867D01*
X539440Y455000D02*
X550720Y466280D01*
Y683136D01*
X560135Y921030D02*
X575165Y906000D01*
X534679Y912940D02*
Y917912D01*
X536000Y455000D02*
X539440D01*
X535900Y697956D02*
Y911719D01*
X632713Y524287D02*
X658142D01*
X664000Y518429D01*
Y434000D02*
X682000Y416000D01*
X664000Y434000D02*
Y518429D01*
X632500Y451500D02*
X636000Y455000D01*
X717500Y763750D02*
Y895142D01*
X711642Y901000D02*
X717500Y895142D01*
X610000Y911858D02*
X620858Y901000D01*
X711642D01*
X525000Y430000D02*
X592500D01*
X515000Y440000D02*
X525000Y430000D01*
X632500Y400000D02*
X640000Y392500D01*
X632500Y400000D02*
Y451500D01*
X592500Y430000D02*
X602500Y420000D01*
X615000Y374500D02*
X800000D01*
X602500Y387000D02*
Y420000D01*
X640000Y392500D02*
X727314D01*
X533322Y508322D02*
Y523678D01*
X532000Y525000D02*
X533322Y523678D01*
X515000Y490000D02*
X533322Y508322D01*
X515000Y440000D02*
Y490000D01*
X602500Y387000D02*
X615000Y374500D01*
X531964Y991964D02*
X555000Y1015000D01*
X600000D01*
X632500Y992750D02*
Y1072500D01*
X717500Y763750D02*
X728250Y753000D01*
X746564Y572500D02*
X797100D01*
X732000Y557936D02*
X746564Y572500D01*
X797100D02*
X813750Y589150D01*
X749617Y767117D02*
X750000Y767500D01*
X728250Y746250D02*
Y753000D01*
X742367Y767117D01*
X749617D01*
X728250Y746250D02*
X729117Y747117D01*
X610000Y911858D02*
Y984979D01*
X604142Y990837D02*
X610000Y984979D01*
X584663Y990837D02*
X604142D01*
X632000Y922500D02*
X657500D01*
X632000Y525000D02*
X632713Y524287D01*
X732000Y397186D02*
Y416000D01*
X727314Y392500D02*
X732000Y397186D01*
X600000Y1015000D02*
X610000Y1025000D01*
Y1089642D02*
X615858Y1095500D01*
X610000Y1025000D02*
Y1089642D01*
X615858Y1095500D02*
X805300D01*
X632500Y1072500D02*
X642500Y1082500D01*
X723642D01*
X729500Y1055000D02*
Y1076642D01*
X723642Y1082500D02*
X729500Y1076642D01*
X805300Y1095500D02*
X821650Y1079150D01*
Y1026250D02*
Y1079150D01*
X582750Y992750D02*
X584663Y990837D01*
X800000Y374500D02*
X822750Y397250D01*
Y444500D01*
D44*
X582556Y539556D02*
X591250Y548250D01*
X722314D02*
X732000Y557936D01*
X591250Y548250D02*
X722314D01*
X575750Y569500D02*
X672500D01*
X562750Y474500D02*
X584125Y453125D01*
X711250Y646833D02*
X728250Y663833D01*
X672500Y569500D02*
X711250Y608250D01*
Y646833D01*
X562750Y474500D02*
Y556500D01*
X575750Y569500D01*
X728250Y663833D02*
Y670583D01*
X726750Y621250D02*
Y628000D01*
X582000Y525000D02*
X582556Y525556D01*
Y539556D01*
D45*
X1158371Y505500D02*
G03*
X1154750Y504000I0J-5121D01*
G01*
X837000Y740000D02*
X880751D01*
X890751Y730000D01*
X900000D01*
X918500Y737309D02*
Y791500D01*
X905750Y804250D02*
X918500Y791500D01*
X865500Y633707D02*
Y656956D01*
X756100Y906111D02*
Y906652D01*
Y897111D02*
Y906111D01*
X832500Y618250D02*
Y618791D01*
X837922Y624213D02*
Y624422D01*
X840750Y627250D01*
X818337Y621750D02*
X827633Y612454D01*
X832500Y618791D02*
X837922Y624213D01*
X770333Y621750D02*
X818337D01*
X827633Y586343D02*
Y612454D01*
X583221Y921280D02*
X595407D01*
X597750Y896483D02*
Y918936D01*
Y896483D02*
X604233Y890000D01*
X582000Y922500D02*
X583221Y921280D01*
X595407D02*
X597750Y918936D01*
X827633Y586343D02*
X829976Y584000D01*
X814167Y589567D02*
X827485Y576250D01*
X829976Y584000D02*
X862907D01*
X840750Y627250D02*
X859043D01*
X862907Y584000D02*
X865250Y586343D01*
X728250Y663833D02*
X770333Y621750D01*
X865250Y586343D02*
Y602143D01*
X754100Y877500D02*
Y895111D01*
X756100Y906652D02*
X756483Y907035D01*
X731250Y924250D02*
X741849Y913651D01*
X754100Y895111D02*
X756100Y897111D01*
X741849Y913651D02*
X775268D01*
X785533Y909994D02*
Y921332D01*
X756599Y907651D02*
X783189D01*
X785533Y909994D01*
X775268Y913651D02*
X779500Y917883D01*
Y933500D01*
X907500Y746468D02*
X908500Y747468D01*
Y759250D01*
X907500Y735228D02*
Y746468D01*
Y735228D02*
X911991Y730736D01*
X765750Y719694D02*
X785694Y699750D01*
X794250D01*
X765750Y719694D02*
Y733880D01*
X745000Y820000D02*
X745541D01*
X747291Y821750D01*
X772500D01*
X807964Y732557D02*
Y733000D01*
X801850Y726443D02*
X807964Y732557D01*
X801850Y720000D02*
Y726443D01*
X814460Y657109D02*
Y679540D01*
X794250Y699750D02*
X814460Y679540D01*
X814550Y702726D02*
Y720000D01*
X812207Y700383D02*
X814550Y702726D01*
X807883Y700383D02*
X812207D01*
X1120000Y887000D02*
Y899407D01*
X1182000Y878000D02*
X1237849D01*
X1238849Y877000D01*
X1189000Y1014000D02*
X1192500Y1017500D01*
X1302657D01*
X1238849Y877000D02*
X1293157D01*
X827633Y720383D02*
Y730633D01*
X802250Y664064D02*
Y674250D01*
X827250Y720000D02*
X827633Y720383D01*
X776870Y745000D02*
X831250D01*
X827633Y730633D02*
X837000Y740000D01*
X765750Y733880D02*
X776870Y745000D01*
X802233Y653685D02*
Y664047D01*
X802250Y664064D01*
X831250Y745000D02*
X839950Y753700D01*
Y774000D01*
X795027Y681473D02*
X802250Y674250D01*
X807500Y700000D02*
X807883Y700383D01*
X789150Y660000D02*
Y672458D01*
X784329Y677279D02*
X789150Y672458D01*
X792105Y681473D02*
X795027D01*
X784500Y689078D02*
X792105Y681473D01*
X827250Y757564D02*
Y774000D01*
X752250Y737350D02*
X771899Y757000D01*
X758250Y696851D02*
Y734865D01*
X790850Y757000D02*
X801850Y768000D01*
X820686Y751000D02*
X827250Y757564D01*
X801850Y768000D02*
Y774000D01*
X758250Y734865D02*
X774385Y751000D01*
X820686D01*
X752250Y671250D02*
Y737350D01*
X771899Y757000D02*
X790850D01*
X693000Y607000D02*
Y607541D01*
X696750Y611291D01*
Y670583D01*
X717617Y590383D02*
X718000Y590000D01*
X717617Y590383D02*
Y598383D01*
X717500Y598500D02*
Y602500D01*
Y598500D02*
X717617Y598383D01*
X717500Y602500D02*
X725000Y610000D01*
X727306Y599886D02*
X731028Y603608D01*
X741000D01*
X726765Y599886D02*
X727306D01*
X897617Y614345D02*
Y616617D01*
X894750Y611478D02*
X897617Y614345D01*
Y616617D02*
X898000Y617000D01*
X894750Y588750D02*
Y611478D01*
X914278Y600722D02*
X930500Y584500D01*
X913278Y600722D02*
X914278D01*
X906000Y608000D02*
X913278Y600722D01*
X833383Y834383D02*
X834000Y835000D01*
X832383Y834383D02*
X833383D01*
X834000Y835000D02*
X900000D01*
X832000Y834000D02*
X832383Y834383D01*
X831383Y671133D02*
X836233D01*
X838000Y672900D02*
X842000D01*
X852650Y662250D01*
X836233Y671133D02*
X838000Y672900D01*
X831000Y670750D02*
X831383Y671133D01*
X822673Y667368D02*
Y668617D01*
Y667368D02*
X827250Y662791D01*
X822290Y669000D02*
X822673Y668617D01*
X827250Y658354D02*
Y662791D01*
X900000Y835000D02*
X918617Y816383D01*
Y808383D02*
Y816383D01*
Y808383D02*
X919000Y808000D01*
X885730Y774000D02*
X897729Y762000D01*
X898000D01*
X853303Y767347D02*
Y773347D01*
X873470Y747180D02*
X898000D01*
X853303Y767347D02*
X873470Y747180D01*
X852650Y774000D02*
X853303Y773347D01*
X888983Y719539D02*
X891461D01*
X875522Y733000D02*
X888983Y719539D01*
X891461D02*
X898000Y713000D01*
X895000Y658341D02*
Y675900D01*
X898000Y678900D01*
Y697000D01*
X1293157Y877000D02*
X1302500Y867657D01*
X1122500Y612500D02*
X1123000Y612000D01*
Y602000D02*
Y612000D01*
X1189500Y587500D02*
X1300000D01*
X1183000Y594000D02*
X1189500Y587500D01*
X1300000D02*
X1305000Y582500D01*
X1046000Y1014000D02*
X1067000Y993000D01*
X945100Y1014000D02*
X1046000D01*
X927500Y996400D02*
X945100Y1014000D01*
X942034Y722250D02*
X1028750D01*
X1056000Y695000D02*
X1120000D01*
X1028750Y722250D02*
X1056000Y695000D01*
X1220843Y953343D02*
Y961157D01*
X1220000Y962000D02*
X1220843Y961157D01*
X1220000Y962000D02*
Y975500D01*
X1215000Y947500D02*
X1220843Y953343D01*
X1215000Y947500D02*
X1231657D01*
X1038750Y805750D02*
Y842657D01*
X1058750Y925500D02*
X1064500D01*
X1052000D02*
X1058750D01*
X775750Y1024500D02*
X796250D01*
X1058750Y501250D02*
X1068750D01*
X1058250D02*
X1058750D01*
X921374Y723933D02*
X924977D01*
X927500Y726456D02*
Y996400D01*
X911991Y719822D02*
Y730736D01*
X924977Y723933D02*
X927500Y726456D01*
X920991Y723550D02*
X921374Y723933D01*
X920000Y1035000D02*
X940000Y1055000D01*
X920000Y885000D02*
Y1035000D01*
X911500Y876500D02*
X920000Y885000D01*
X910000Y957250D02*
X914000Y953250D01*
X910000Y957250D02*
Y1030000D01*
X604233Y890000D02*
X706157D01*
X708500Y887657D01*
X936750Y881902D02*
X943576Y888728D01*
X936750Y873905D02*
Y881902D01*
X1010000Y905000D02*
Y905410D01*
X1020078Y915488D01*
X962173Y886593D02*
Y895577D01*
Y886593D02*
X964516Y884250D01*
X958750Y899000D02*
X962173Y895577D01*
X945655Y865000D02*
X981515D01*
X1020078Y915488D02*
Y925078D01*
X964516Y884250D02*
X1002250D01*
X936750Y873905D02*
X945655Y865000D01*
X981515D02*
X985515Y869000D01*
X1044750D01*
X954228Y878500D02*
X955853Y876875D01*
X947159Y878500D02*
X954228D01*
X998625Y876875D02*
X1000250Y875250D01*
X945750Y877633D02*
X946291D01*
X947159Y878500D01*
X955853Y876875D02*
X998625D01*
X785933Y661215D02*
X786433Y660714D01*
X788436D02*
X789150Y660000D01*
X786433Y660714D02*
X788436D01*
X1305000Y765000D02*
X1307500Y762500D01*
X1310000Y735000D02*
Y735541D01*
X1307500Y738041D02*
Y762500D01*
Y738041D02*
X1310000Y735541D01*
X1135000Y1055000D02*
X1150000Y1040000D01*
X940000Y1055000D02*
X1135000D01*
X708500Y737575D02*
Y887657D01*
Y737575D02*
X719075Y727000D01*
X914159Y655997D02*
X916503Y653654D01*
X897343Y655997D02*
X914159D01*
X916503Y618498D02*
X940500Y594500D01*
X916503Y618498D02*
Y653654D01*
X1300000Y480000D02*
X1315000Y465000D01*
Y455000D02*
Y465000D01*
X1287343Y480000D02*
X1300000D01*
X1305000Y539093D02*
Y582500D01*
X1005657Y694500D02*
X1008000D01*
X1005157Y695000D02*
X1005657Y694500D01*
X977500Y687657D02*
X984843Y695000D01*
X1008000Y694500D02*
X1010000Y692500D01*
X984843Y695000D02*
X1005157D01*
X957709Y787500D02*
X958729Y786479D01*
X947500Y787500D02*
X957709D01*
X944383Y834617D02*
X947855D01*
X949871Y824500D02*
Y832602D01*
Y824500D02*
X953621Y820750D01*
X947855Y834617D02*
X949871Y832602D01*
X953621Y820750D02*
X958750D01*
X944000Y835000D02*
X944383Y834617D01*
X917263Y714550D02*
X925849D01*
X911991Y719822D02*
X917263Y714550D01*
X925849D02*
X939549Y728250D01*
X846950Y733000D02*
X875522D01*
X935125Y715340D02*
X942034Y722250D01*
X935125Y711192D02*
Y715340D01*
X927832Y703900D02*
X935125Y711192D01*
X852650Y656250D02*
Y662250D01*
X758250Y696851D02*
X777821Y677279D01*
X784329D01*
X1154750Y476000D02*
X1196000D01*
X1282000Y702000D02*
X1282500Y701500D01*
X1220500Y702000D02*
X1282000D01*
X777500Y720000D02*
X789150D01*
X801467Y594453D02*
Y602184D01*
X755358Y589250D02*
X798854D01*
X801467Y602184D02*
X801750Y602467D01*
X801197Y594183D02*
X801467Y594453D01*
X798854Y589250D02*
X801197Y591593D01*
Y594183D01*
X741000Y603608D02*
X755358Y589250D01*
X751515Y610000D02*
X759265Y602250D01*
X789150D01*
X725000Y610000D02*
X751515D01*
X794750Y535000D02*
X828750Y569000D01*
X794750Y451343D02*
Y535000D01*
X828750Y569000D02*
X875000D01*
X819250Y900000D02*
X827500Y891750D01*
X770000Y900000D02*
X819250D01*
X785574Y892500D02*
X808250D01*
X781429Y890250D02*
X783324D01*
X808250Y892500D02*
X824500Y876250D01*
X783324Y890250D02*
X785574Y892500D01*
X766800Y890000D02*
Y896800D01*
Y877500D02*
Y890000D01*
Y896800D02*
X770000Y900000D01*
X779978Y888799D02*
X781429Y890250D01*
X779500Y877500D02*
X779978Y877978D01*
Y888799D01*
X824500Y876250D02*
X843750D01*
X827500Y891750D02*
X829750D01*
X765571Y921191D02*
Y921313D01*
X766322Y922063D01*
Y933022D02*
X766800Y933500D01*
X792200Y928000D02*
Y933500D01*
X766322Y922063D02*
Y933022D01*
X785533Y921332D02*
X792200Y928000D01*
X752250Y671250D02*
X773788Y649712D01*
X800250Y804250D02*
X905750D01*
X789150Y793150D02*
X800250Y804250D01*
X789150Y774000D02*
Y793150D01*
X865350Y774000D02*
X885730D01*
X958729Y786479D02*
X962500Y790250D01*
X1305000Y880000D02*
Y905000D01*
X1295000Y910000D02*
X1300000D01*
X1305000Y905000D01*
X1290000Y915000D02*
X1295000Y910000D01*
X1290000Y915000D02*
Y927000D01*
X1286250Y930750D02*
X1290000Y927000D01*
X1285000Y930750D02*
X1286250D01*
X1290000Y765000D02*
X1305000D01*
X1285000Y770000D02*
X1290000Y765000D01*
X1285000Y770000D02*
Y785750D01*
X1310000Y595000D02*
Y605000D01*
X1300000Y615000D02*
X1310000Y605000D01*
X1290000Y615000D02*
X1300000D01*
X1283000Y622000D02*
Y634750D01*
Y622000D02*
X1290000Y615000D01*
X1285000Y482343D02*
Y497500D01*
Y482343D02*
X1287343Y480000D01*
X1126000Y476000D02*
X1154750D01*
X1120000Y470000D02*
X1126000Y476000D01*
X1120000Y460000D02*
Y470000D01*
X1093750Y476000D02*
X1114000D01*
X1120000Y470000D01*
X1077343Y476000D02*
X1093750D01*
X1122500Y612500D02*
X1126000Y616000D01*
X1119000D02*
X1122500Y612500D01*
X1093750Y616000D02*
X1119000D01*
X1126000D02*
X1154750D01*
X1178500D01*
X1120000Y899407D02*
X1122343Y901750D01*
X1154750D01*
X1117657D02*
X1120000Y899407D01*
X1093750Y901750D02*
X1117657D01*
X1122750Y757750D02*
X1154750D01*
X1120000Y755000D02*
X1122750Y757750D01*
X1120000Y745000D02*
Y755000D01*
X1117250Y757750D02*
X1120000Y755000D01*
X1093750Y757750D02*
X1117250D01*
X1093750Y616000D02*
X1093750D01*
X807050Y615750D02*
X814550Y608250D01*
X754250Y615750D02*
X807050D01*
X738750Y631250D02*
X754250Y615750D01*
X1258500Y647343D02*
Y686500D01*
X1276250Y634750D02*
X1283000D01*
X1258500Y647343D02*
X1260843Y645000D01*
X1270157D02*
X1272500Y642657D01*
Y638500D02*
X1276250Y634750D01*
X1260843Y645000D02*
X1270157D01*
X1272500Y638500D02*
Y642657D01*
X813500Y794709D02*
X814550Y793659D01*
X813500Y794709D02*
Y795250D01*
X814550Y774000D02*
Y793659D01*
X719075Y727000D02*
X737750D01*
X742250Y722500D01*
Y713000D02*
Y722500D01*
X728250Y708417D02*
X737667D01*
X742250Y713000D01*
X910500Y863500D02*
X910536Y863536D01*
X911500D02*
Y876500D01*
X910536Y863536D02*
X911500D01*
X1230000Y610000D02*
X1236750Y603250D01*
X1283000D01*
X1302657Y536750D02*
X1305000Y539093D01*
X1285000Y536750D02*
X1302657D01*
X1192500Y730000D02*
X1297500D01*
X1302500Y725000D01*
Y672500D02*
Y725000D01*
X1282500Y670000D02*
X1300000D01*
X1302500Y672500D01*
Y825000D02*
Y867657D01*
X1252000Y844500D02*
X1258250Y850750D01*
X1220500Y844500D02*
X1252000D01*
X1258250Y850750D02*
X1285000D01*
X1300250Y819250D02*
X1302593Y821593D01*
X1285000Y819250D02*
X1300250D01*
X1302593Y821593D02*
Y824907D01*
X1302500Y825000D02*
X1302593Y824907D01*
X1302657Y1017500D02*
X1305000Y1015157D01*
Y970000D02*
Y1015157D01*
X1302500Y967500D02*
X1305000Y970000D01*
X1286750Y967500D02*
X1302500D01*
X1285000Y969250D02*
X1286750Y967500D01*
X944383Y922883D02*
X948250Y926750D01*
X940000Y922500D02*
X940383Y922883D01*
X948250Y926750D02*
X955000D01*
X940383Y922883D02*
X944383D01*
X958750Y930500D02*
X965500D01*
X955000Y926750D02*
X958750Y930500D01*
X925541Y500000D02*
X927041Y501500D01*
X925000Y500000D02*
X925541D01*
X927041Y501500D02*
X976814D01*
X925282Y542760D02*
Y555400D01*
Y542760D02*
X932613Y535429D01*
X958750D01*
X935941Y645500D02*
X958750D01*
X929500Y639600D02*
X930041D01*
X935941Y645500D01*
X951250Y679000D02*
X955000Y675250D01*
X933500Y679000D02*
X951250D01*
X925000Y687500D02*
X933500Y679000D01*
X955000Y675250D02*
X958750Y679000D01*
X991961Y1027639D02*
X992100Y1027500D01*
X986250Y1042750D02*
X991961Y1037039D01*
Y1027639D02*
Y1037039D01*
X914000Y935750D02*
Y953250D01*
X893250Y915000D02*
X914000Y935750D01*
X863250Y915000D02*
X893250D01*
X851750Y903500D02*
X863250Y915000D01*
X851750Y884250D02*
Y903500D01*
X843750Y876250D02*
X851750Y884250D01*
X696750Y708417D02*
Y746250D01*
Y670583D02*
Y708417D01*
X675500Y918000D02*
X675883Y918383D01*
X679883D01*
X685750Y924250D02*
X731250D01*
X679883Y918383D02*
X685750Y924250D01*
X772000Y1004250D02*
Y1020750D01*
X775750Y1024500D01*
X750500Y999750D02*
X767500D01*
X745000Y994250D02*
X750500Y999750D01*
X767500D02*
X772000Y1004250D01*
X745000Y955250D02*
Y994250D01*
Y955250D02*
X754100Y946150D01*
Y933500D02*
Y946150D01*
X768750Y973000D02*
X772000Y976250D01*
X768750Y954000D02*
Y973000D01*
X766800Y933500D02*
Y952050D01*
X768750Y954000D01*
X792200Y933500D02*
X792450Y933750D01*
X827407D02*
X829750Y931407D01*
Y919750D02*
Y931407D01*
X792450Y933750D02*
X827407D01*
X792200Y852093D02*
Y877500D01*
X789857Y849750D02*
X792200Y852093D01*
X772500Y849750D02*
X789857D01*
X731323Y705343D02*
X737907D01*
X939549Y728250D02*
X1044250D01*
X782000Y641500D02*
X818500D01*
X744000Y668250D02*
X776750Y635500D01*
X824500D02*
X838250Y649250D01*
X818500Y641500D02*
X826597Y649597D01*
X773789Y649712D02*
X782000Y641500D01*
X776750Y635500D02*
X824500D01*
X826597Y649597D02*
Y657701D01*
X827250Y658354D01*
X773788Y649712D02*
X773789D01*
X744000Y668250D02*
Y699250D01*
X737907Y705343D02*
X744000Y699250D01*
X729750Y631250D02*
X738750D01*
X728250Y632750D02*
X729750Y631250D01*
X838250Y649250D02*
X838409D01*
X839750Y650591D01*
Y656328D01*
X814550Y602250D02*
Y608250D01*
X795628Y446222D02*
X797350Y444500D01*
X795628Y446222D02*
Y450465D01*
X794750Y451343D02*
X795628Y450465D01*
X728250Y708417D02*
X731323Y705343D01*
X887503Y589988D02*
Y677998D01*
X855993Y615250D02*
X868750D01*
X881503Y628003D02*
Y672747D01*
X877750Y687750D02*
X887503Y677998D01*
X868750Y615250D02*
X881503Y628003D01*
X873765Y576250D02*
X887503Y589988D01*
X874250Y680000D02*
X881503Y672747D01*
X864500Y621250D02*
X875502Y632253D01*
X871000Y674000D02*
X875502Y669498D01*
Y632253D02*
Y669498D01*
X850200Y621250D02*
X864500D01*
X827485Y576250D02*
X873765D01*
X875000Y569000D02*
X894750Y588750D01*
X852650Y602250D02*
Y608791D01*
X853650Y609791D02*
Y612907D01*
X852650Y608791D02*
X853650Y609791D01*
Y612907D02*
X855993Y615250D01*
X840333Y602250D02*
Y611383D01*
X850200Y621250D01*
X813750Y589150D02*
Y594036D01*
X814167Y601867D02*
X814550Y602250D01*
X814167Y594453D02*
Y601867D01*
X813750Y594036D02*
X814167Y594453D01*
X839950Y687535D02*
X853485Y674000D01*
X871000D01*
X839950Y687535D02*
Y720000D01*
X859043Y627250D02*
X865500Y633707D01*
X895000Y658341D02*
X897343Y655997D01*
X1044250Y728250D02*
X1062500Y710000D01*
X839950Y720000D02*
Y726000D01*
X846950Y733000D01*
X1000250Y875250D02*
X1149750D01*
X1044750Y869000D02*
X1045000Y869250D01*
X1149750Y875250D02*
X1154750Y870250D01*
X1045000Y869250D02*
X1085250D01*
X1093750Y860750D01*
Y850500D02*
Y860750D01*
X1002250Y884250D02*
X1010000Y892000D01*
Y905910D01*
X1067500Y904093D02*
X1069843Y901750D01*
X1067500Y904093D02*
Y922500D01*
X1069843Y901750D02*
X1093750D01*
X940500Y594500D02*
X1080500D01*
X868865Y687750D02*
X877750D01*
X865350Y691265D02*
X868865Y687750D01*
X865350Y691265D02*
Y720000D01*
X859000Y680000D02*
X874250D01*
X857255Y681745D02*
X859000Y680000D01*
X852650Y686350D02*
X857255Y681745D01*
X852650Y686350D02*
Y720000D01*
X1093750Y566179D02*
Y581250D01*
X1080500Y594500D02*
X1093750Y581250D01*
X965500Y930500D02*
X977500Y942500D01*
Y977500D02*
X980000Y980000D01*
X977500Y942500D02*
Y977500D01*
X1030000Y945000D02*
Y966250D01*
X1025000Y940000D02*
X1030000Y945000D01*
X1010000Y935000D02*
X1015000Y940000D01*
X1025000D01*
X1010000Y924910D02*
Y935000D01*
X1047090Y915410D02*
X1047500Y915000D01*
X1030000Y915410D02*
X1047090D01*
X1059250Y945000D02*
X1067657D01*
X1058750Y944500D02*
X1059250Y945000D01*
X1038250Y935000D02*
Y960343D01*
X1035907Y983250D02*
X1038500Y980657D01*
Y960593D02*
Y980657D01*
X1038250Y960343D02*
X1038500Y960593D01*
X1032000Y983250D02*
X1035907D01*
X1030000Y985250D02*
X1032000Y983250D01*
X1036250Y928750D02*
Y933000D01*
X1035000Y927500D02*
X1036250Y928750D01*
Y933000D02*
X1038250Y935000D01*
X1023343Y928343D02*
X1026657D01*
X1027500Y927500D01*
X1020078Y925078D02*
X1023343Y928343D01*
X1027500Y927500D02*
X1035000D01*
X1028000Y968250D02*
X1030000Y966250D01*
X1021750Y968250D02*
X1028000D01*
X1020000Y970000D02*
X1021750Y968250D01*
X1011750Y995750D02*
X1020000Y987500D01*
Y970000D02*
Y987500D01*
X955000Y995750D02*
X1011750D01*
X1005250Y980000D02*
X1009500Y975750D01*
X980000Y980000D02*
X1005250D01*
X1009500Y975750D02*
X1010000D01*
X1002500Y602500D02*
X1010000Y610000D01*
Y620910D01*
X985000Y602500D02*
X1002500D01*
X962500Y610250D02*
X977250D01*
X985000Y602500D01*
X958750Y614000D02*
X962500Y610250D01*
X959375Y470625D02*
X1009375D01*
X1010000Y471250D01*
X958750Y470000D02*
X959375Y470625D01*
X1030000Y517343D02*
Y541250D01*
X1020000Y515000D02*
X1027657D01*
X1030000Y517343D01*
X1010000Y505000D02*
X1020000Y515000D01*
X1010000Y490250D02*
Y505000D01*
X1037500Y509500D02*
X1038750Y510750D01*
X1037500Y502343D02*
Y509500D01*
X1025000Y500000D02*
X1035157D01*
X1037500Y502343D01*
X1020000Y495000D02*
X1025000Y500000D01*
X1017657Y471250D02*
X1020000Y473593D01*
Y495000D01*
X1010000Y471250D02*
X1017657D01*
X1030000Y480750D02*
X1053907D01*
X1038750Y510750D02*
X1040000Y512000D01*
Y557907D01*
X1037657Y560250D02*
X1040000Y557907D01*
X1030000Y560250D02*
X1037657D01*
X1021750Y543250D02*
X1028000D01*
X1020000Y545000D02*
X1021750Y543250D01*
X1028000D02*
X1030000Y541250D01*
X1020000Y545000D02*
Y562500D01*
X1015571Y566929D02*
X1017495Y565005D01*
X1020000Y562500D01*
X958750Y566929D02*
X1015571D01*
X981500Y550750D02*
X1010000D01*
X1030000Y660000D02*
Y683000D01*
X1025000Y655000D02*
X1030000Y660000D01*
X1010000Y652500D02*
X1012500Y655000D01*
X1025000D01*
X1010000Y639910D02*
Y652500D01*
X1054822Y630410D02*
X1054860Y630372D01*
X1030000Y630410D02*
X1054822D01*
X1010000Y620910D02*
X1012000Y622910D01*
X1020000Y623253D02*
Y640157D01*
X1012000Y622910D02*
X1019657D01*
X1020000Y623253D01*
Y640157D02*
X1022343Y642500D01*
X1032500D01*
X1037500Y647500D01*
Y659500D01*
X1038750Y660750D01*
X1040157Y662157D01*
X1040000Y692500D02*
X1040157D01*
Y662157D02*
Y692500D01*
X1030000Y702000D02*
X1030500D01*
X1040000Y692500D01*
X1028000Y685000D02*
X1030000Y683000D01*
X1020000Y685343D02*
X1020343Y685000D01*
X1020000Y685343D02*
Y700000D01*
X1020343Y685000D02*
X1028000D01*
X1009500Y710500D02*
X1020000Y700000D01*
X958750Y710500D02*
X1009500D01*
X1028157Y829843D02*
X1030000Y828000D01*
X1020000Y829843D02*
X1028157D01*
X1020000D02*
Y855000D01*
X1015000Y860000D02*
X1020000Y855000D01*
X985000Y860000D02*
X1015000D01*
X958750Y852250D02*
X977250D01*
X985000Y860000D01*
X982343Y847500D02*
X1005000D01*
X980000Y845157D02*
X982343Y847500D01*
X980000Y809843D02*
Y845157D01*
X1005000Y847500D02*
X1010000Y842500D01*
Y837500D02*
Y842500D01*
X977657Y807500D02*
X980000Y809843D01*
X965000Y807500D02*
X977657D01*
X962500Y805000D02*
X965000Y807500D01*
X962500Y790250D02*
Y805000D01*
X1027500Y797500D02*
X1030000Y800000D01*
Y828000D01*
X1010000Y792500D02*
X1015000Y797500D01*
X1027500D01*
X1010000Y782000D02*
Y792500D01*
X1069750Y757750D02*
X1093750D01*
X1062500Y765000D02*
X1069750Y757750D01*
X1062500Y765000D02*
Y772500D01*
X1057500Y777500D02*
X1062500Y772500D01*
X1057500Y795000D02*
X1058750Y796250D01*
X1057500Y777500D02*
Y795000D01*
X1052500Y772500D02*
X1057500Y777500D01*
X1030000Y772500D02*
X1052500D01*
X1032000Y845000D02*
X1036407D01*
X1030000Y847000D02*
X1032000Y845000D01*
X1036407D02*
X1038750Y842657D01*
Y793750D02*
Y805750D01*
X1035000Y790000D02*
X1038750Y793750D01*
X1030000Y790000D02*
X1035000D01*
X1020000Y780000D02*
X1030000Y790000D01*
X1020000Y764843D02*
Y780000D01*
X1010500Y762500D02*
X1017657D01*
X1020000Y764843D01*
X1010000Y763000D02*
X1010500Y762500D01*
X960407Y753343D02*
X1003343D01*
X1007500Y757500D01*
Y761000D01*
X1007657D01*
X958750Y755000D02*
X960407Y753343D01*
X1009657Y763000D02*
X1010000D01*
X1007657Y761000D02*
X1009657Y763000D01*
X930500Y584500D02*
X1067814D01*
X1072500Y562500D02*
Y579814D01*
X1067814Y584500D02*
X1072500Y579814D01*
X959250Y645000D02*
X975157D01*
X977500Y647343D02*
Y687657D01*
X975157Y645000D02*
X977500Y647343D01*
X979157Y548407D02*
X981500Y550750D01*
X979157Y503843D02*
Y548407D01*
X976814Y501500D02*
X979157Y503843D01*
X1050000Y923500D02*
X1052000Y925500D01*
X1050000Y917500D02*
Y923500D01*
X1047500Y915000D02*
X1050000Y917500D01*
X1064500Y925500D02*
X1067500Y922500D01*
X1070000Y935000D02*
Y942657D01*
X1067657Y945000D02*
X1070000Y942657D01*
Y935000D02*
X1075250Y929750D01*
X1093750D01*
Y965000D01*
X1072500Y562500D02*
X1082500Y552500D01*
X1117500D01*
X1131179Y566179D01*
X1154750D01*
X1062500Y710000D02*
X1093500D01*
X1093750Y709750D01*
X1131500Y706500D02*
X1155000D01*
X1120000Y695000D02*
X1131500Y706500D01*
X1154750Y850500D02*
Y870250D01*
X1150000Y997750D02*
Y1040000D01*
X1067000Y993000D02*
X1093750D01*
X1150000Y997750D02*
X1151500Y996250D01*
X1152500Y993000D02*
X1154750D01*
X1151500Y994000D02*
X1152500Y993000D01*
X1151500Y994000D02*
Y996250D01*
X1237500Y908000D02*
X1238829Y909329D01*
X1245157D02*
X1247500Y911672D01*
X1243000Y977000D02*
X1247500Y972500D01*
X1238829Y909329D02*
X1245157D01*
X1247500Y911672D02*
Y972500D01*
X1230843Y977000D02*
X1243000D01*
X1228500Y979343D02*
Y986500D01*
X1220500Y994500D02*
X1228500Y986500D01*
Y979343D02*
X1230843Y977000D01*
X1242500Y820000D02*
X1249843Y812657D01*
X1220500Y844500D02*
X1230000Y835000D01*
Y822343D02*
Y835000D01*
Y822343D02*
X1232343Y820000D01*
X1242500D01*
X1249843Y764343D02*
Y812657D01*
X1230843Y682500D02*
X1245000D01*
X1220500Y702000D02*
X1228500Y694000D01*
Y684843D02*
Y694000D01*
Y684843D02*
X1230843Y682500D01*
X1252500Y622500D02*
Y675000D01*
X1245000Y682500D02*
X1252500Y675000D01*
X1220000Y702000D02*
X1220500D01*
X1230000Y657500D02*
X1231250Y656250D01*
X1231250D02*
X1240000Y647500D01*
X1231250Y656250D02*
X1231250D01*
X1212500Y657500D02*
X1230000D01*
X1240000Y639000D02*
Y647500D01*
X1232343Y634843D02*
X1235343D01*
X1239500Y639000D01*
X1230000Y610000D02*
Y632500D01*
X1232343Y634843D01*
X1252500Y692500D02*
X1258500Y686500D01*
X1240000Y620000D02*
X1250000D01*
X1252500Y622500D01*
X1220000Y844500D02*
X1220500D01*
X1220000Y806250D02*
Y825500D01*
X1216250Y802500D02*
X1220000Y806250D01*
X1230000Y802500D02*
X1240000Y792500D01*
X1247500Y762000D02*
X1249843Y764343D01*
X1240000Y779000D02*
Y792500D01*
X1242000Y762000D02*
X1247500D01*
X1240000Y760000D02*
X1242000Y762000D01*
X1231657Y947500D02*
X1237500Y941657D01*
Y927000D02*
Y941657D01*
X1257500Y935000D02*
Y982500D01*
X1260005Y932495D02*
X1261750Y930750D01*
X1257500Y935000D02*
X1260005Y932495D01*
X1255000Y985000D02*
X1257500Y982500D01*
X1261750Y930750D02*
X1285000D01*
X1231750Y899250D02*
X1285000D01*
X1227500Y903500D02*
X1231750Y899250D01*
X1240000Y985000D02*
X1255000D01*
X1220000Y994500D02*
X1220500Y995000D01*
X1250000D01*
X1255750Y1000750D01*
X1285000D01*
X1202500Y947500D02*
X1215000D01*
X1237000Y927000D02*
X1237500D01*
X1227500Y917500D02*
X1237000Y927000D01*
X1227500Y903500D02*
Y917500D01*
X1154750Y929750D02*
Y965000D01*
Y929750D02*
X1177657D01*
X1180000Y932093D02*
Y936000D01*
X1177657Y929750D02*
X1180000Y932093D01*
Y936000D02*
X1182000Y938000D01*
X1182500D01*
X1176750Y901750D02*
X1192000Y917000D01*
X1154750Y901750D02*
X1176750D01*
X1192000Y917000D02*
X1198000D01*
X1194259Y920741D02*
X1198000Y917000D01*
X1217000D01*
X1217500Y917500D01*
X1194259Y920741D02*
Y941584D01*
X1194000Y941843D02*
Y954657D01*
X1191657Y957000D02*
X1194000Y954657D01*
Y941843D02*
X1194259Y941584D01*
X1182500Y957000D02*
X1191657D01*
X1240000Y835000D02*
X1255157D01*
X1257500Y790000D02*
Y832657D01*
X1255157Y835000D02*
X1257500Y832657D01*
X1260005Y787495D02*
X1261750Y785750D01*
X1257500Y790000D02*
X1260005Y787495D01*
X1261750Y785750D02*
X1285000D01*
X1216250Y802500D02*
X1230000D01*
X1202500D02*
X1216250D01*
X1232000Y777000D02*
X1238000D01*
X1240000Y779000D01*
X1230000Y775000D02*
X1232000Y777000D01*
X1230000Y752500D02*
Y775000D01*
Y752500D02*
X1235000Y747500D01*
X1259375Y754250D02*
X1285000D01*
X1252625Y747500D02*
X1259375Y754250D01*
X1235000Y747500D02*
X1252625D01*
X1154750Y785750D02*
X1155657Y786657D01*
X1166657D01*
X1173000Y793000D01*
X1182500D01*
X1154750Y785750D02*
Y822500D01*
Y757750D02*
X1155000Y757500D01*
X1180000D01*
X1192000Y769500D02*
X1200500D01*
X1180000Y757500D02*
X1192000Y769500D01*
X1192500Y777500D02*
Y808328D01*
Y777500D02*
X1200500Y769500D01*
X1190157Y810671D02*
X1192500Y808328D01*
X1182500Y812000D02*
X1183828Y810671D01*
X1190157D01*
X1200500Y769500D02*
X1220000D01*
X1240000Y692500D02*
X1252500D01*
X1212500Y657500D02*
X1220000Y665000D01*
Y683000D01*
X1202500Y657500D02*
X1212500D01*
X1239500Y639000D02*
X1240000D01*
X1154750Y678250D02*
X1155000Y678500D01*
X1154750Y644000D02*
Y678250D01*
Y644000D02*
X1156250Y642500D01*
X1170000D01*
X1173500Y646000D02*
X1180500D01*
X1170000Y642500D02*
X1173500Y646000D01*
X1180500D02*
X1182500Y648000D01*
X1192500Y647500D02*
X1192500Y647500D01*
Y637500D02*
Y647500D01*
X1192500Y647500D02*
Y662657D01*
X1192500Y637500D02*
X1200500Y629500D01*
X1178500Y616000D02*
X1192000Y629500D01*
X1200500D01*
X1182500Y667000D02*
X1184500Y665000D01*
X1190157D01*
X1192500Y662657D01*
X1200500Y629500D02*
X1220000D01*
X1235407Y568250D02*
X1285000D01*
X1229157Y562000D02*
X1235407Y568250D01*
X1231500Y546843D02*
X1232274Y546069D01*
X1231500Y546843D02*
Y559657D01*
X1229157Y562000D02*
X1231500Y559657D01*
X1220000Y562000D02*
X1229157D01*
X1232274Y545225D02*
Y546069D01*
Y545225D02*
X1237500Y540000D01*
X1245000D01*
X1252500Y475843D02*
Y532500D01*
X1245000Y540000D02*
X1252500Y532500D01*
X1240000Y473500D02*
X1250157D01*
X1252500Y475843D01*
X1240000Y552500D02*
X1255000D01*
X1260000Y547500D01*
Y502500D02*
X1265000Y497500D01*
X1260000Y502500D02*
Y547500D01*
X1265000Y497500D02*
X1285000D01*
X1281500Y462500D02*
X1285000Y466000D01*
X1232343Y462500D02*
X1281500D01*
X1230000Y479157D02*
X1232343Y481500D01*
X1230000Y464843D02*
X1232343Y462500D01*
X1230000Y464843D02*
Y479157D01*
X1232343Y481500D02*
X1237657D01*
X1240000Y483843D02*
Y492500D01*
X1237657Y481500D02*
X1240000Y483843D01*
X1217000Y517000D02*
X1228000D01*
X1209500D02*
X1217000D01*
X1240000Y492500D02*
Y505000D01*
X1228000Y517000D02*
X1240000Y505000D01*
X1220000Y520000D02*
Y543000D01*
X1217000Y517000D02*
X1220000Y520000D01*
X1207500Y515000D02*
X1209500Y517000D01*
X1203000Y483000D02*
X1204500D01*
X1196000Y476000D02*
X1203000Y483000D01*
X1188000Y524500D02*
X1197500Y515000D01*
Y490000D02*
Y515000D01*
X1187500Y524500D02*
X1188000D01*
X1204500Y483000D02*
X1220000D01*
X1197500Y490000D02*
X1204500Y483000D01*
X1154750Y504000D02*
Y538179D01*
X1158371Y505500D02*
X1187500D01*
X1093750Y785750D02*
Y822000D01*
X1070250Y815250D02*
X1077000Y822000D01*
X1093750D01*
X1058750Y815250D02*
X1070250D01*
X1093750Y644000D02*
Y681750D01*
X1070250Y670250D02*
X1081750Y681750D01*
X1093750D01*
X1058750Y670250D02*
X1070250D01*
X1058750Y651250D02*
X1068750D01*
X1069995Y650005D02*
X1075000Y645000D01*
X1068750Y651250D02*
X1069995Y650005D01*
X1077343Y615000D02*
X1092750D01*
X1075000Y617343D02*
Y645000D01*
Y617343D02*
X1077343Y615000D01*
X1092750D02*
X1093750Y616000D01*
X1058750Y651250D02*
X1059536Y650464D01*
X1057192Y632705D02*
X1059536Y635048D01*
Y650464D01*
X1054860Y630372D02*
X1057192Y632705D01*
X1057192D01*
X958750Y645500D02*
X959250Y645000D01*
X1093750Y504000D02*
Y538179D01*
X1078179D02*
X1093750D01*
X1075000Y535000D02*
X1078179Y538179D01*
X1059000Y520000D02*
X1072657D01*
X1058750Y520250D02*
X1059000Y520000D01*
X1075000Y522343D02*
Y535000D01*
X1072657Y520000D02*
X1075000Y522343D01*
X1069995Y500005D02*
X1075000Y495000D01*
X1068750Y501250D02*
X1069995Y500005D01*
X1075000Y478343D02*
X1077343Y476000D01*
X1075000Y478343D02*
Y495000D01*
X1056250Y499250D02*
X1058250Y501250D01*
X1053907Y480750D02*
X1056250Y483093D01*
Y499250D01*
D46*
X1390000Y609050D02*
D03*
Y685250D02*
D03*
Y761450D02*
D03*
Y837650D02*
D03*
X580500Y609050D02*
D03*
Y685250D02*
D03*
Y761450D02*
D03*
Y837650D02*
D03*
D47*
X582500Y455250D02*
D03*
X532500D02*
D03*
X632500D02*
D03*
X632000Y525000D02*
D03*
X532000D02*
D03*
X582000D02*
D03*
Y922500D02*
D03*
X532000D02*
D03*
X632000D02*
D03*
X582750Y992750D02*
D03*
X532750D02*
D03*
X632750D02*
D03*
X733000Y416000D02*
D03*
X683000D02*
D03*
X729500Y1055000D02*
D03*
X679500D02*
D03*
D48*
X816000Y962500D02*
D03*
X866000D02*
D03*
X816500Y855750D02*
D03*
X866500D02*
D03*
D49*
X797350Y444500D02*
D03*
X848150D02*
D03*
X822750D02*
D03*
X821650Y1026250D02*
D03*
X796250D02*
D03*
X847050D02*
D03*
X967500Y442500D02*
D03*
X1018300D02*
D03*
X992900D02*
D03*
D50*
X832500Y618250D02*
D03*
X756100Y906111D02*
D03*
X908500Y759250D02*
D03*
X771980Y702801D02*
D03*
X745000Y820000D02*
D03*
X742500Y857500D02*
D03*
Y870000D02*
D03*
Y885000D02*
D03*
Y895000D02*
D03*
X807964Y733000D02*
D03*
X1120000Y887000D02*
D03*
X1182000Y878000D02*
D03*
X807500Y700000D02*
D03*
X693000Y607000D02*
D03*
X718000Y590000D02*
D03*
X726765Y599886D02*
D03*
X898000Y617000D02*
D03*
X906000Y608000D02*
D03*
X831000Y517000D02*
D03*
X832000Y834000D02*
D03*
X831000Y670750D02*
D03*
X822290Y669000D02*
D03*
X919000Y808000D02*
D03*
X898000Y762000D02*
D03*
Y747180D02*
D03*
Y713000D02*
D03*
Y697000D02*
D03*
X1189000Y1014000D02*
D03*
X1123000Y602000D02*
D03*
X1183000Y594000D02*
D03*
X918500Y737309D02*
D03*
X937500Y975000D02*
D03*
X910000Y1030000D02*
D03*
X677500Y859250D02*
D03*
X665000Y879250D02*
D03*
Y869250D02*
D03*
X665000Y850000D02*
D03*
X677500Y869250D02*
D03*
X665000Y859250D02*
D03*
X677500Y879250D02*
D03*
X677500Y850000D02*
D03*
X585000Y896505D02*
D03*
X943576Y888728D02*
D03*
X945750Y877633D02*
D03*
X785933Y661215D02*
D03*
X1316038Y765346D02*
D03*
X732500Y895000D02*
D03*
Y857500D02*
D03*
Y885000D02*
D03*
Y870000D02*
D03*
X1315000Y480000D02*
D03*
X947500Y787500D02*
D03*
X944000Y835000D02*
D03*
X900000Y730000D02*
D03*
X920991Y723550D02*
D03*
X927832Y703900D02*
D03*
X784500Y689078D02*
D03*
X777500Y720000D02*
D03*
X735000Y487500D02*
D03*
X782783Y890250D02*
D03*
X765571Y921191D02*
D03*
X766800Y890000D02*
D03*
X655000Y720000D02*
D03*
X1305000Y880000D02*
D03*
X1315000Y900000D02*
D03*
Y907500D02*
D03*
X1310000Y735000D02*
D03*
Y595000D02*
D03*
X1315000Y615000D02*
D03*
Y622500D02*
D03*
Y630000D02*
D03*
Y637500D02*
D03*
Y645000D02*
D03*
Y455000D02*
D03*
X1120000Y460000D02*
D03*
Y745000D02*
D03*
X1362500Y1062500D02*
D03*
Y985000D02*
D03*
Y477500D02*
D03*
X1372500Y552500D02*
D03*
X813500Y795250D02*
D03*
X750000Y767500D02*
D03*
X910500Y863500D02*
D03*
X1315000Y487500D02*
D03*
Y532500D02*
D03*
Y525000D02*
D03*
Y495000D02*
D03*
Y577500D02*
D03*
Y517500D02*
D03*
Y570000D02*
D03*
Y510000D02*
D03*
Y562500D02*
D03*
Y555000D02*
D03*
Y547500D02*
D03*
Y502500D02*
D03*
X1192500Y730000D02*
D03*
X1315000Y997500D02*
D03*
Y990000D02*
D03*
Y982500D02*
D03*
Y975000D02*
D03*
X940000Y922500D02*
D03*
X925000Y500000D02*
D03*
X925282Y555400D02*
D03*
X929500Y639600D02*
D03*
X925000Y687500D02*
D03*
X991961Y1027639D02*
D03*
X986250Y1042750D02*
D03*
X850000Y505000D02*
D03*
X870000D02*
D03*
X860000D02*
D03*
X880000D02*
D03*
Y495000D02*
D03*
X860000D02*
D03*
X870000D02*
D03*
X850000D02*
D03*
X880000Y485000D02*
D03*
X860000D02*
D03*
X870000D02*
D03*
X850000D02*
D03*
X675500Y918000D02*
D03*
X990000Y900000D02*
D03*
Y930000D02*
D03*
Y920000D02*
D03*
Y910000D02*
D03*
Y940000D02*
D03*
Y950000D02*
D03*
Y960000D02*
D03*
Y970000D02*
D03*
X1000000D02*
D03*
Y960000D02*
D03*
Y950000D02*
D03*
Y940000D02*
D03*
X990000Y615000D02*
D03*
Y625000D02*
D03*
Y655000D02*
D03*
Y675000D02*
D03*
Y685000D02*
D03*
X1000000D02*
D03*
Y675000D02*
D03*
Y665000D02*
D03*
Y655000D02*
D03*
X990000Y645000D02*
D03*
Y665000D02*
D03*
Y635000D02*
D03*
X1000000Y805000D02*
D03*
Y815000D02*
D03*
Y835000D02*
D03*
X990000D02*
D03*
X1000000Y825000D02*
D03*
X990000Y775000D02*
D03*
Y805000D02*
D03*
Y815000D02*
D03*
Y825000D02*
D03*
Y795000D02*
D03*
Y785000D02*
D03*
Y765000D02*
D03*
Y480000D02*
D03*
Y490000D02*
D03*
Y500000D02*
D03*
X1000000Y510000D02*
D03*
Y520000D02*
D03*
Y530000D02*
D03*
Y540000D02*
D03*
X990000D02*
D03*
Y530000D02*
D03*
Y520000D02*
D03*
Y510000D02*
D03*
X1000000Y500000D02*
D03*
X1315000Y915000D02*
D03*
Y922500D02*
D03*
Y930000D02*
D03*
Y937500D02*
D03*
Y945000D02*
D03*
Y952500D02*
D03*
Y960000D02*
D03*
Y967500D02*
D03*
Y652500D02*
D03*
Y660000D02*
D03*
Y667500D02*
D03*
Y675000D02*
D03*
Y682500D02*
D03*
Y690000D02*
D03*
Y697500D02*
D03*
Y705000D02*
D03*
Y712500D02*
D03*
Y862500D02*
D03*
Y855000D02*
D03*
Y847500D02*
D03*
Y840000D02*
D03*
Y832500D02*
D03*
Y825000D02*
D03*
Y817500D02*
D03*
Y810000D02*
D03*
Y802500D02*
D03*
Y795000D02*
D03*
Y787500D02*
D03*
Y780000D02*
D03*
Y772500D02*
D03*
X1104750Y432250D02*
D03*
Y422250D02*
D03*
Y412250D02*
D03*
X1114750Y432250D02*
D03*
Y422250D02*
D03*
Y412250D02*
D03*
X1124750Y432250D02*
D03*
Y422250D02*
D03*
Y412250D02*
D03*
X1135000Y412000D02*
D03*
Y422000D02*
D03*
Y432000D02*
D03*
D52*
X1154750Y476000D02*
D03*
Y504000D02*
D03*
Y644000D02*
D03*
Y616000D02*
D03*
Y757750D02*
D03*
Y785750D02*
D03*
X1093750Y929750D02*
D03*
Y901750D02*
D03*
Y785750D02*
D03*
Y757750D02*
D03*
Y644000D02*
D03*
Y616000D02*
D03*
Y504000D02*
D03*
Y476000D02*
D03*
X829750Y919750D02*
D03*
Y891750D02*
D03*
X1154750Y929750D02*
D03*
Y901750D02*
D03*
Y566179D02*
D03*
Y538179D02*
D03*
Y965000D02*
D03*
Y993000D02*
D03*
X1155000Y706500D02*
D03*
Y678500D02*
D03*
X1154750Y850500D02*
D03*
Y822500D02*
D03*
X1093750Y993000D02*
D03*
Y965000D02*
D03*
Y822500D02*
D03*
Y850500D02*
D03*
Y709750D02*
D03*
Y681750D02*
D03*
Y538179D02*
D03*
Y566179D02*
D03*
D53*
X865350Y774000D02*
D03*
X852650D02*
D03*
X839950D02*
D03*
X827250D02*
D03*
X814550D02*
D03*
X801850D02*
D03*
X789150D02*
D03*
Y720000D02*
D03*
X801850D02*
D03*
X814550D02*
D03*
X827250D02*
D03*
X839950D02*
D03*
X852650D02*
D03*
X789150Y656250D02*
D03*
X801850D02*
D03*
X814550D02*
D03*
X827250D02*
D03*
X839950D02*
D03*
X852650D02*
D03*
X865350D02*
D03*
X789150Y602250D02*
D03*
X801850D02*
D03*
X814550D02*
D03*
X827250D02*
D03*
X839950D02*
D03*
X852650D02*
D03*
D54*
X865350Y720000D02*
D03*
Y602250D02*
D03*
D55*
X1030000Y985250D02*
D03*
Y966250D02*
D03*
X1010000Y975750D02*
D03*
X1038750Y935000D02*
D03*
X1058750Y925500D02*
D03*
Y944500D02*
D03*
X1010000Y692500D02*
D03*
X1030000Y683000D02*
D03*
Y702000D02*
D03*
X1058750Y670250D02*
D03*
Y651250D02*
D03*
X1038750Y660750D02*
D03*
X1240000Y692500D02*
D03*
X1220000Y702000D02*
D03*
Y683000D02*
D03*
Y769500D02*
D03*
X1240000Y760000D02*
D03*
Y779000D02*
D03*
Y835000D02*
D03*
X1220000Y844500D02*
D03*
Y825500D02*
D03*
X1030000Y915410D02*
D03*
X1010000Y924910D02*
D03*
Y905910D02*
D03*
Y620910D02*
D03*
Y639910D02*
D03*
X1030000Y630410D02*
D03*
Y772500D02*
D03*
X1010000Y782000D02*
D03*
Y763000D02*
D03*
X1182500Y793000D02*
D03*
Y812000D02*
D03*
X1202500Y802500D02*
D03*
Y657500D02*
D03*
X1182500Y667000D02*
D03*
Y648000D02*
D03*
X1207500Y515000D02*
D03*
X1187500Y524500D02*
D03*
Y505500D02*
D03*
X1030000Y480750D02*
D03*
X1010000Y490250D02*
D03*
Y471250D02*
D03*
X1030000Y847000D02*
D03*
Y828000D02*
D03*
X1010000Y837500D02*
D03*
X1030000Y560250D02*
D03*
Y541250D02*
D03*
X1010000Y550750D02*
D03*
X1240000Y639000D02*
D03*
Y620000D02*
D03*
X1220000Y629500D02*
D03*
X1202500Y947500D02*
D03*
X1182500Y957000D02*
D03*
Y938000D02*
D03*
X1240000Y985000D02*
D03*
X1220000Y994500D02*
D03*
Y975500D02*
D03*
X1217500Y917500D02*
D03*
X1237500Y908000D02*
D03*
Y927000D02*
D03*
X1220000Y543000D02*
D03*
Y562000D02*
D03*
X1240000Y552500D02*
D03*
Y492500D02*
D03*
Y473500D02*
D03*
X1220000Y483000D02*
D03*
X1058750Y815250D02*
D03*
Y796250D02*
D03*
X1038750Y805750D02*
D03*
Y510750D02*
D03*
X1058750Y501250D02*
D03*
Y520250D02*
D03*
D56*
X772000Y1004250D02*
D03*
Y976250D02*
D03*
X772500Y849750D02*
D03*
Y821750D02*
D03*
D57*
X754100Y933500D02*
D03*
X766800D02*
D03*
X779500D02*
D03*
X792200D02*
D03*
Y877500D02*
D03*
X779500D02*
D03*
X766800D02*
D03*
X754100D02*
D03*
M02*
