G04*
G04 #@! TF.GenerationSoftware,Altium Limited,Altium Designer,22.6.1 (34)*
G04*
G04 Layer_Color=16711935*
%FSLAX44Y44*%
%MOMM*%
G71*
G04*
G04 #@! TF.SameCoordinates,44C52635-D950-46A4-BE53-1BE2AF9ACA8F*
G04*
G04*
G04 #@! TF.FilePolarity,Positive*
G04*
G01*
G75*
%ADD66C,0.1000*%
%ADD67R,0.6187X0.2000*%
%ADD68R,0.2000X0.6187*%
D66*
X762150Y916500D02*
G03*
X762150Y916500I-5000J0D01*
G01*
X1146500Y473750D02*
X1163000D01*
X1146500Y506250D02*
X1163000D01*
Y473750D02*
Y506250D01*
X1146500Y473750D02*
Y506250D01*
X1272000Y536250D02*
X1298000D01*
X1272000Y568750D02*
X1298000D01*
Y536250D02*
Y568750D01*
X1272000Y536250D02*
Y568750D01*
X1296000Y602750D02*
Y635250D01*
X1270000Y602750D02*
Y635250D01*
Y602750D02*
X1296000D01*
X1270000Y635250D02*
X1296000D01*
X1146500Y613750D02*
Y646250D01*
X1163000Y613750D02*
Y646250D01*
X1146500D02*
X1163000D01*
X1146500Y613750D02*
X1163000D01*
X1272000Y786250D02*
X1298000D01*
X1272000Y753750D02*
X1298000D01*
X1272000D02*
Y786250D01*
X1298000Y753750D02*
Y786250D01*
X1146500Y755500D02*
X1163000D01*
X1146500Y788000D02*
X1163000D01*
Y755500D02*
Y788000D01*
X1146500Y755500D02*
Y788000D01*
X1085500Y899500D02*
Y932000D01*
X1102000Y899500D02*
Y932000D01*
X1085500D02*
X1102000D01*
X1085500Y899500D02*
X1102000D01*
X1085500Y755500D02*
Y788000D01*
X1102000Y755500D02*
Y788000D01*
X1085500D02*
X1102000D01*
X1085500Y755500D02*
X1102000D01*
X971750Y469500D02*
Y502000D01*
X945750Y469500D02*
Y502000D01*
Y469500D02*
X971750D01*
X945750Y502000D02*
X971750D01*
X1240250Y1081750D02*
X1262250D01*
X1240250Y1068250D02*
X1262250D01*
X1240250D02*
Y1081750D01*
X1262250Y1068250D02*
Y1081750D01*
X1240250Y1033250D02*
Y1046750D01*
X1262250Y1033250D02*
Y1046750D01*
X1240250D02*
X1262250D01*
X1240250Y1033250D02*
X1262250D01*
X793000Y681500D02*
Y708500D01*
X827000Y681500D02*
Y708500D01*
X793000D02*
X827000D01*
X793000Y681500D02*
X827000D01*
X968000Y963750D02*
Y996250D01*
X942000Y963750D02*
Y996250D01*
Y963750D02*
X968000D01*
X942000Y996250D02*
X968000D01*
X971750Y898500D02*
Y931000D01*
X945750Y898500D02*
Y931000D01*
Y898500D02*
X971750D01*
X945750Y931000D02*
X971750D01*
X1027000Y961750D02*
Y989750D01*
X1013000Y961750D02*
Y989750D01*
X1027000D01*
X1013000Y961750D02*
X1027000D01*
X1041750Y921000D02*
X1055750D01*
X1041750Y949000D02*
X1055750D01*
X1041750Y921000D02*
Y949000D01*
X1055750Y921000D02*
Y949000D01*
X971750Y754500D02*
Y787000D01*
X945750Y754500D02*
Y787000D01*
Y754500D02*
X971750D01*
X945750Y787000D02*
X971750D01*
Y678500D02*
Y711000D01*
X945750Y678500D02*
Y711000D01*
Y678500D02*
X971750D01*
X945750Y711000D02*
X971750D01*
X945750Y646000D02*
X971750D01*
X945750Y613500D02*
X971750D01*
X945750D02*
Y646000D01*
X971750Y613500D02*
Y646000D01*
X1013000Y678500D02*
X1027000D01*
X1013000Y706500D02*
X1027000D01*
X1013000Y678500D02*
Y706500D01*
X1027000Y678500D02*
Y706500D01*
X1085500Y613750D02*
Y646250D01*
X1102000Y613750D02*
Y646250D01*
X1085500D02*
X1102000D01*
X1085500Y613750D02*
X1102000D01*
X1055750Y646750D02*
Y674750D01*
X1041750Y646750D02*
Y674750D01*
X1055750D01*
X1041750Y646750D02*
X1055750D01*
X1223000Y706500D02*
X1237000D01*
X1223000Y678500D02*
X1237000D01*
Y706500D01*
X1223000Y678500D02*
Y706500D01*
X1223000Y784500D02*
X1237000D01*
Y754500D02*
Y784500D01*
X1223000Y754500D02*
Y784500D01*
Y754500D02*
X1237000D01*
X1223000Y849000D02*
X1237000D01*
X1223000Y821000D02*
X1237000D01*
Y849000D01*
X1223000Y821000D02*
Y849000D01*
X1013000Y900410D02*
X1027000D01*
X1013000D02*
Y930410D01*
X1027000Y900410D02*
Y930410D01*
X1013000D02*
X1027000D01*
X1013000Y645410D02*
X1027000D01*
Y615410D02*
Y645410D01*
X1013000Y615410D02*
Y645410D01*
Y615410D02*
X1027000D01*
X1013000Y757500D02*
X1027000D01*
X1013000D02*
Y787500D01*
X1027000Y757500D02*
Y787500D01*
X1013000D02*
X1027000D01*
X788000Y528500D02*
X822000D01*
X788000Y501500D02*
X822000D01*
X788000D02*
Y528500D01*
X822000Y501500D02*
Y528500D01*
X785500Y973250D02*
Y1007250D01*
X758500Y973250D02*
Y1007250D01*
Y973250D02*
X785500D01*
X758500Y1007250D02*
X785500D01*
X1085500Y473750D02*
Y506250D01*
X1102000Y473750D02*
Y506250D01*
X1085500D02*
X1102000D01*
X1085500Y473750D02*
X1102000D01*
X759000Y818750D02*
X786000D01*
X759000Y852750D02*
X786000D01*
Y818750D02*
Y852750D01*
X759000Y818750D02*
Y852750D01*
X1360250Y910567D02*
X1406250D01*
X1360250Y939767D02*
X1406250D01*
Y910567D02*
Y939767D01*
X1360250Y910567D02*
Y939767D01*
X1360250Y978100D02*
X1406250D01*
X1360250Y948900D02*
X1406250D01*
X1360250D02*
Y978100D01*
X1406250Y948900D02*
Y978100D01*
X1360250Y1018600D02*
X1406250D01*
X1360250Y989400D02*
X1406250D01*
X1360250D02*
Y1018600D01*
X1406250Y989400D02*
Y1018600D01*
X1359500Y1027900D02*
Y1057100D01*
X1405500Y1027900D02*
Y1057100D01*
X1359500D02*
X1405500D01*
X1359500Y1027900D02*
X1405500D01*
X1185500Y788500D02*
Y816500D01*
X1199500Y788500D02*
Y816500D01*
X1185500Y788500D02*
X1199500D01*
X1185500Y816500D02*
X1199500D01*
X1185500Y671500D02*
X1199500D01*
X1185500Y643500D02*
X1199500D01*
Y671500D01*
X1185500Y643500D02*
Y671500D01*
X1190500Y529000D02*
X1204500D01*
X1190500Y501000D02*
X1204500D01*
Y529000D01*
X1190500Y501000D02*
Y529000D01*
X1298000Y403750D02*
Y436250D01*
X1272000Y403750D02*
Y436250D01*
X1298000D01*
X1272000Y403750D02*
X1298000D01*
X1013000Y465750D02*
X1027000D01*
X1013000D02*
Y495750D01*
X1027000Y465750D02*
Y495750D01*
X1013000D02*
X1027000D01*
X1358830Y481233D02*
Y510433D01*
X1404830Y481233D02*
Y510433D01*
X1358830D02*
X1404830D01*
X1358830Y481233D02*
X1404830D01*
X1359500Y432100D02*
X1405500D01*
X1359500Y402900D02*
X1405500D01*
X1359500D02*
Y432100D01*
X1405500Y402900D02*
Y432100D01*
X1358830Y442067D02*
X1404830D01*
X1358830Y471267D02*
X1404830D01*
Y442067D02*
Y471267D01*
X1358830Y442067D02*
Y471267D01*
X1359500Y549600D02*
X1405500D01*
X1359500Y520400D02*
X1405500D01*
X1359500D02*
Y549600D01*
X1405500Y520400D02*
Y549600D01*
X696500Y866250D02*
X727500D01*
X696500Y881750D02*
X727500D01*
Y866250D02*
Y881750D01*
X696500Y866250D02*
Y881750D01*
X696250Y759250D02*
X728750D01*
X696250Y733250D02*
X728750D01*
Y759250D01*
X696250Y733250D02*
Y759250D01*
Y695417D02*
Y721417D01*
X728750Y695417D02*
Y721417D01*
X696250Y695417D02*
X728750D01*
X696250Y721417D02*
X728750D01*
X793000Y719000D02*
X827000D01*
X793000Y746000D02*
X827000D01*
Y719000D02*
Y746000D01*
X793000Y719000D02*
Y746000D01*
Y756500D02*
X827000D01*
X793000Y783500D02*
X827000D01*
Y756500D02*
Y783500D01*
X793000Y756500D02*
Y783500D01*
X798150Y885500D02*
Y925500D01*
X748150Y885500D02*
Y925500D01*
Y885500D02*
X798150D01*
X748150Y925500D02*
X798150D01*
X838000Y889500D02*
Y922000D01*
X821500Y889500D02*
Y922000D01*
Y889500D02*
X838000D01*
X821500Y922000D02*
X838000D01*
X738000Y784250D02*
Y810250D01*
X705500Y784250D02*
Y810250D01*
Y784250D02*
X738000D01*
X705500Y810250D02*
X738000D01*
X1057900Y389500D02*
X1087100D01*
X1057900Y435500D02*
X1087100D01*
X1057900Y389500D02*
Y435500D01*
X1087100Y389500D02*
Y435500D01*
X892650Y394250D02*
X921850D01*
X892650Y440250D02*
X921850D01*
X892650Y394250D02*
Y440250D01*
X921850Y394250D02*
Y440250D01*
X696250Y657583D02*
Y683583D01*
X728750Y657583D02*
Y683583D01*
X696250Y657583D02*
X728750D01*
X696250Y683583D02*
X728750D01*
X696250Y645750D02*
X728750D01*
X696250Y619750D02*
X728750D01*
Y645750D01*
X696250Y619750D02*
Y645750D01*
X1027000Y823500D02*
Y851500D01*
X1013000Y823500D02*
Y851500D01*
X1027000D01*
X1013000Y823500D02*
X1027000D01*
Y536750D02*
Y564750D01*
X1013000Y536750D02*
Y564750D01*
X1027000D01*
X1013000Y536750D02*
X1027000D01*
X1295500Y669500D02*
Y702000D01*
X1269500Y669500D02*
Y702000D01*
Y669500D02*
X1295500D01*
X1269500Y702000D02*
X1295500D01*
X1223000Y614500D02*
X1237000D01*
X1223000D02*
Y644500D01*
X1237000Y614500D02*
Y644500D01*
X1223000D02*
X1237000D01*
X1146500Y899500D02*
Y932000D01*
X1163000Y899500D02*
Y932000D01*
X1146500D02*
X1163000D01*
X1146500Y899500D02*
X1163000D01*
X1146500Y535929D02*
Y568429D01*
X1163000Y535929D02*
Y568429D01*
X1146500D02*
X1163000D01*
X1146500Y535929D02*
X1163000D01*
Y962750D02*
Y995250D01*
X1146500Y962750D02*
Y995250D01*
Y962750D02*
X1163000D01*
X1146500Y995250D02*
X1163000D01*
X1146750Y708750D02*
X1163250D01*
X1146750Y676250D02*
X1163250D01*
X1146750D02*
Y708750D01*
X1163250Y676250D02*
Y708750D01*
X1146500Y820250D02*
Y852750D01*
X1163000Y820250D02*
Y852750D01*
X1146500D02*
X1163000D01*
X1146500Y820250D02*
X1163000D01*
X1185500Y961500D02*
X1199500D01*
X1185500Y933500D02*
X1199500D01*
Y961500D01*
X1185500Y933500D02*
Y961500D01*
X1223000Y999000D02*
X1237000D01*
X1223000Y971000D02*
X1237000D01*
Y999000D01*
X1223000Y971000D02*
Y999000D01*
X1220500Y932500D02*
X1234500D01*
Y902500D02*
Y932500D01*
X1220500Y902500D02*
Y932500D01*
Y902500D02*
X1234500D01*
X1272000Y931250D02*
X1298000D01*
X1272000Y898750D02*
X1298000D01*
X1272000D02*
Y931250D01*
X1298000Y898750D02*
Y931250D01*
X1272000Y1001250D02*
X1298000D01*
X1272000Y968750D02*
X1298000D01*
X1272000D02*
Y1001250D01*
X1298000Y968750D02*
Y1001250D01*
Y465500D02*
Y498000D01*
X1272000Y465500D02*
Y498000D01*
Y465500D02*
X1298000D01*
X1272000Y498000D02*
X1298000D01*
X1272000Y818750D02*
Y851250D01*
X1298000Y818750D02*
Y851250D01*
X1272000D02*
X1298000D01*
X1272000Y818750D02*
X1298000D01*
X1223000Y538500D02*
Y566500D01*
X1237000Y538500D02*
Y566500D01*
X1223000Y538500D02*
X1237000D01*
X1223000Y566500D02*
X1237000D01*
X1223000Y468000D02*
X1237000D01*
X1223000D02*
Y498000D01*
X1237000Y468000D02*
Y498000D01*
X1223000D02*
X1237000D01*
X1085500Y995250D02*
X1102000D01*
X1085500Y962750D02*
X1102000D01*
X1085500D02*
Y995250D01*
X1102000Y962750D02*
Y995250D01*
X1055750Y791750D02*
Y819750D01*
X1041750Y791750D02*
Y819750D01*
X1055750D01*
X1041750Y791750D02*
X1055750D01*
X1041750Y496750D02*
X1055750D01*
X1041750Y524750D02*
X1055750D01*
X1041750Y496750D02*
Y524750D01*
X1055750Y496750D02*
Y524750D01*
X945750Y820250D02*
X971750D01*
X945750Y852750D02*
X971750D01*
Y820250D02*
Y852750D01*
X945750Y820250D02*
Y852750D01*
X1085500Y820250D02*
X1102000D01*
X1085500Y852750D02*
X1102000D01*
Y820250D02*
Y852750D01*
X1085500Y820250D02*
Y852750D01*
Y712000D02*
X1102000D01*
X1085500Y679500D02*
X1102000D01*
X1085500D02*
Y712000D01*
X1102000Y679500D02*
Y712000D01*
X945750Y534929D02*
X971750D01*
X945750Y567429D02*
X971750D01*
Y534929D02*
Y567429D01*
X945750Y534929D02*
Y567429D01*
X1085500Y535929D02*
X1102000D01*
X1085500Y568429D02*
X1102000D01*
Y535929D02*
Y568429D01*
X1085500Y535929D02*
Y568429D01*
X712750Y828250D02*
X734750D01*
X712750Y841750D02*
X734750D01*
Y828250D02*
Y841750D01*
X712750Y828250D02*
Y841750D01*
X1220250Y398250D02*
X1242250D01*
X1220250Y411750D02*
X1242250D01*
Y398250D02*
Y411750D01*
X1220250Y398250D02*
Y411750D01*
X1242250Y430750D02*
Y444250D01*
X1220250Y430750D02*
Y444250D01*
Y430750D02*
X1242250D01*
X1220250Y444250D02*
X1242250D01*
X1315500Y1043750D02*
Y1076250D01*
X1289500Y1043750D02*
Y1076250D01*
X1315500D01*
X1289500Y1043750D02*
X1315500D01*
X677000Y740400D02*
X723000D01*
X677000Y769600D02*
X723000D01*
Y740400D02*
Y769600D01*
X677000Y740400D02*
Y769600D01*
D67*
X1389554Y925167D02*
D03*
X1376946Y963500D02*
D03*
X1376946Y1004000D02*
D03*
X1388804Y1042500D02*
D03*
X1388134Y495833D02*
D03*
X1376198Y417499D02*
D03*
X1388134Y456666D02*
D03*
X1376199Y534999D02*
D03*
X706310Y754996D02*
D03*
D68*
X1086100Y432406D02*
D03*
X920853Y437158D02*
D03*
M02*
