G04*
G04 #@! TF.GenerationSoftware,Altium Limited,Altium Designer,22.6.1 (34)*
G04*
G04 Layer_Physical_Order=1*
G04 Layer_Color=153*
%FSLAX44Y44*%
%MOMM*%
G71*
G04*
G04 #@! TF.SameCoordinates,44C52635-D950-46A4-BE53-1BE2AF9ACA8F*
G04*
G04*
G04 #@! TF.FilePolarity,Positive*
G04*
G01*
G75*
%ADD11C,0.5000*%
%ADD16R,1.1500X1.3500*%
%ADD17R,3.3000X1.7000*%
%ADD18R,9.0000X11.0000*%
G04:AMPARAMS|DCode=19|XSize=2.5mm|YSize=5mm|CornerRadius=0.625mm|HoleSize=0mm|Usage=FLASHONLY|Rotation=0.000|XOffset=0mm|YOffset=0mm|HoleType=Round|Shape=RoundedRectangle|*
%AMROUNDEDRECTD19*
21,1,2.5000,3.7500,0,0,0.0*
21,1,1.2500,5.0000,0,0,0.0*
1,1,1.2500,0.6250,-1.8750*
1,1,1.2500,-0.6250,-1.8750*
1,1,1.2500,-0.6250,1.8750*
1,1,1.2500,0.6250,1.8750*
%
%ADD19ROUNDEDRECTD19*%
%ADD20R,1.3000X2.7000*%
%ADD21R,3.0000X1.6000*%
%ADD22R,2.5000X1.7000*%
%ADD23R,2.5000X1.1500*%
%ADD24R,1.2500X1.6500*%
%ADD25R,1.1500X2.5000*%
%ADD26R,1.7000X2.5000*%
%ADD27C,1.0000*%
%ADD43C,0.6000*%
%ADD44C,0.8000*%
%ADD45C,0.4000*%
%ADD46C,4.5000*%
%ADD47C,2.0000*%
%ADD48C,1.8000*%
%ADD49C,1.3000*%
%ADD50C,0.6000*%
G36*
X1315009Y1075620D02*
X1315130Y1075280D01*
X1315329Y1074980D01*
X1315609Y1074720D01*
X1315970Y1074500D01*
X1316409Y1074320D01*
X1316929Y1074180D01*
X1317529Y1074080D01*
X1318210Y1074020D01*
X1318970Y1074000D01*
Y1070000D01*
X1314969Y1070031D01*
Y1076000D01*
X1315009Y1075620D01*
D02*
G37*
G36*
X1263620Y1068271D02*
X1263280Y1068150D01*
X1262980Y1067948D01*
X1262720Y1067666D01*
X1262500Y1067303D01*
X1262320Y1066860D01*
X1262180Y1066336D01*
X1262080Y1065732D01*
X1262020Y1065046D01*
X1262000Y1064280D01*
X1258000D01*
X1257980Y1065046D01*
X1257920Y1065732D01*
X1257820Y1066336D01*
X1257680Y1066860D01*
X1257500Y1067303D01*
X1257280Y1067666D01*
X1257020Y1067948D01*
X1256720Y1068150D01*
X1256380Y1068271D01*
X1256000Y1068311D01*
X1264000D01*
X1263620Y1068271D01*
D02*
G37*
G36*
X1246120D02*
X1245780Y1068150D01*
X1245480Y1067948D01*
X1245220Y1067666D01*
X1245000Y1067303D01*
X1244820Y1066860D01*
X1244680Y1066336D01*
X1244580Y1065732D01*
X1244520Y1065046D01*
X1244500Y1064280D01*
X1240500D01*
X1240480Y1065046D01*
X1240420Y1065732D01*
X1240320Y1066336D01*
X1240180Y1066860D01*
X1240000Y1067303D01*
X1239780Y1067666D01*
X1239520Y1067948D01*
X1239220Y1068150D01*
X1238880Y1068271D01*
X1238500Y1068311D01*
X1246500D01*
X1246120Y1068271D01*
D02*
G37*
G36*
X1262020Y1049954D02*
X1262080Y1049268D01*
X1262180Y1048664D01*
X1262320Y1048140D01*
X1262500Y1047697D01*
X1262720Y1047334D01*
X1262980Y1047052D01*
X1263280Y1046850D01*
X1263620Y1046729D01*
X1264000Y1046689D01*
X1256000D01*
X1256380Y1046729D01*
X1256720Y1046850D01*
X1257020Y1047052D01*
X1257280Y1047334D01*
X1257500Y1047697D01*
X1257680Y1048140D01*
X1257820Y1048664D01*
X1257920Y1049268D01*
X1257980Y1049954D01*
X1258000Y1050719D01*
X1262000D01*
X1262020Y1049954D01*
D02*
G37*
G36*
X1244520D02*
X1244580Y1049268D01*
X1244680Y1048664D01*
X1244820Y1048140D01*
X1245000Y1047697D01*
X1245220Y1047334D01*
X1245480Y1047052D01*
X1245780Y1046850D01*
X1246120Y1046729D01*
X1246500Y1046689D01*
X1238500D01*
X1238880Y1046729D01*
X1239220Y1046850D01*
X1239520Y1047052D01*
X1239780Y1047334D01*
X1240000Y1047697D01*
X1240180Y1048140D01*
X1240320Y1048664D01*
X1240420Y1049268D01*
X1240480Y1049954D01*
X1240500Y1050719D01*
X1244500D01*
X1244520Y1049954D01*
D02*
G37*
G36*
X1365525Y1056012D02*
X1365541Y1055693D01*
X1365620Y1054799D01*
X1365770Y1053894D01*
X1365980Y1053110D01*
X1366250Y1052447D01*
X1366580Y1051904D01*
X1366970Y1051482D01*
X1367420Y1051180D01*
X1367930Y1050999D01*
X1368500Y1050939D01*
X1365786D01*
X1366038Y1046033D01*
X1358962D01*
X1359064Y1046235D01*
X1359156Y1046624D01*
X1359236Y1047202D01*
X1359366Y1048919D01*
X1359401Y1050939D01*
X1356500D01*
X1357070Y1050999D01*
X1357580Y1051180D01*
X1358030Y1051482D01*
X1358420Y1051904D01*
X1358750Y1052447D01*
X1359020Y1053110D01*
X1359230Y1053894D01*
X1359380Y1054799D01*
X1359470Y1055824D01*
X1359500Y1056970D01*
X1365500D01*
X1365525Y1056012D01*
D02*
G37*
G36*
X1290061Y1041000D02*
X1290021Y1041380D01*
X1289900Y1041720D01*
X1289698Y1042020D01*
X1289416Y1042280D01*
X1289053Y1042500D01*
X1288610Y1042680D01*
X1288086Y1042820D01*
X1287482Y1042920D01*
X1286796Y1042980D01*
X1286030Y1043000D01*
Y1047000D01*
X1286796Y1047020D01*
X1287482Y1047080D01*
X1288086Y1047180D01*
X1288610Y1047320D01*
X1289053Y1047500D01*
X1289416Y1047720D01*
X1289698Y1047980D01*
X1289900Y1048280D01*
X1290021Y1048620D01*
X1290061Y1049000D01*
Y1041000D01*
D02*
G37*
G36*
X1265760Y1043620D02*
X1265880Y1043280D01*
X1266079Y1042980D01*
X1266359Y1042720D01*
X1266720Y1042500D01*
X1267160Y1042320D01*
X1267680Y1042180D01*
X1268279Y1042080D01*
X1268960Y1042020D01*
X1269719Y1042000D01*
Y1038000D01*
X1268960Y1037980D01*
X1268279Y1037920D01*
X1267680Y1037820D01*
X1267160Y1037680D01*
X1266720Y1037500D01*
X1266359Y1037280D01*
X1266079Y1037020D01*
X1265880Y1036720D01*
X1265760Y1036380D01*
X1265720Y1036000D01*
Y1044000D01*
X1265760Y1043620D01*
D02*
G37*
G36*
X1350031Y1034031D02*
X1349964Y1034025D01*
X1349764Y1034019D01*
X1343358Y1034000D01*
Y1044000D01*
X1344631Y1044017D01*
X1347646Y1044268D01*
X1348383Y1044418D01*
X1348986Y1044602D01*
X1349456Y1044820D01*
X1349791Y1045070D01*
X1349993Y1045355D01*
X1350061Y1045673D01*
X1350031Y1034031D01*
D02*
G37*
G36*
X1246120Y1033271D02*
X1245780Y1033150D01*
X1245480Y1032948D01*
X1245220Y1032666D01*
X1245000Y1032303D01*
X1244820Y1031860D01*
X1244680Y1031336D01*
X1244580Y1030731D01*
X1244520Y1030046D01*
X1244500Y1029280D01*
X1240500D01*
X1240480Y1030046D01*
X1240420Y1030731D01*
X1240320Y1031336D01*
X1240180Y1031860D01*
X1240000Y1032303D01*
X1239780Y1032666D01*
X1239520Y1032948D01*
X1239220Y1033150D01*
X1238880Y1033271D01*
X1238500Y1033311D01*
X1246500D01*
X1246120Y1033271D01*
D02*
G37*
G36*
X1409740Y1033981D02*
X1409060Y1033740D01*
X1408460Y1033338D01*
X1407940Y1032776D01*
X1407500Y1032053D01*
X1407140Y1031170D01*
X1406860Y1030126D01*
X1406660Y1028922D01*
X1406540Y1027556D01*
X1406500Y1026031D01*
X1398500D01*
X1398460Y1027556D01*
X1398340Y1028922D01*
X1398140Y1030126D01*
X1397860Y1031170D01*
X1397500Y1032053D01*
X1397060Y1032776D01*
X1396540Y1033338D01*
X1395940Y1033740D01*
X1395260Y1033981D01*
X1394500Y1034061D01*
X1410500D01*
X1409740Y1033981D01*
D02*
G37*
G36*
X1406540Y1018944D02*
X1406660Y1017579D01*
X1406860Y1016374D01*
X1407140Y1015330D01*
X1407500Y1014447D01*
X1407940Y1013724D01*
X1408460Y1013162D01*
X1409060Y1012760D01*
X1409740Y1012519D01*
X1410500Y1012439D01*
X1394500D01*
X1395260Y1012519D01*
X1395940Y1012760D01*
X1396540Y1013162D01*
X1397060Y1013724D01*
X1397500Y1014447D01*
X1397860Y1015330D01*
X1398140Y1016374D01*
X1398340Y1017579D01*
X1398460Y1018944D01*
X1398500Y1020470D01*
X1406500D01*
X1406540Y1018944D01*
D02*
G37*
G36*
X1190810Y1011607D02*
X1190773Y1011562D01*
X1190740Y1011483D01*
X1190712Y1011372D01*
X1190686Y1011228D01*
X1190665Y1011051D01*
X1190625Y1010323D01*
X1190617Y1009673D01*
X1186617Y1010377D01*
X1186644Y1012143D01*
X1190810Y1011607D01*
D02*
G37*
G36*
X1282020Y1008210D02*
X1282080Y1007530D01*
X1282180Y1006929D01*
X1282320Y1006410D01*
X1282500Y1005969D01*
X1282720Y1005610D01*
X1282980Y1005330D01*
X1283280Y1005129D01*
X1283620Y1005010D01*
X1284000Y1004969D01*
X1276000D01*
X1276380Y1005010D01*
X1276720Y1005129D01*
X1277020Y1005330D01*
X1277280Y1005610D01*
X1277500Y1005969D01*
X1277680Y1006410D01*
X1277820Y1006929D01*
X1277920Y1007530D01*
X1277980Y1008210D01*
X1278000Y1008969D01*
X1282000D01*
X1282020Y1008210D01*
D02*
G37*
G36*
X1415767Y1011062D02*
X1416001Y1010419D01*
X1416392Y1009853D01*
X1416939Y1009361D01*
X1417642Y1008945D01*
X1418501Y1008605D01*
X1419516Y1008340D01*
X1420688Y1008151D01*
X1422016Y1008038D01*
X1423500Y1008000D01*
Y1000000D01*
X1422016Y999962D01*
X1420688Y999849D01*
X1419516Y999660D01*
X1418501Y999395D01*
X1417642Y999055D01*
X1416939Y998639D01*
X1416392Y998148D01*
X1416001Y997580D01*
X1415767Y996938D01*
X1415689Y996219D01*
Y1011780D01*
X1415767Y1011062D01*
D02*
G37*
G36*
X877042Y999072D02*
X881436Y997252D01*
X885390Y994610D01*
X887071Y992929D01*
X890000Y990000D01*
Y943333D01*
X900000Y940000D01*
X935000Y940000D01*
X935985Y940000D01*
X937917Y939616D01*
X939737Y938862D01*
X941375Y937767D01*
X942767Y936375D01*
X943862Y934737D01*
X944616Y932917D01*
X945000Y930985D01*
X945000Y930000D01*
X945000Y930000D01*
X945000Y915000D01*
X945000Y914005D01*
X944239Y912168D01*
X942832Y910761D01*
X940995Y910000D01*
X940000Y910000D01*
X940000Y910000D01*
X900000D01*
X890000Y906667D01*
Y801667D01*
X895000Y800000D01*
X930000Y800000D01*
X930985Y800000D01*
X932917Y799616D01*
X934737Y798862D01*
X936375Y797767D01*
X937767Y796375D01*
X938862Y794737D01*
X939616Y792917D01*
X940000Y790985D01*
X940000Y790000D01*
X940000Y790000D01*
X940000Y775000D01*
X940000Y774005D01*
X939239Y772168D01*
X937832Y770761D01*
X935994Y770000D01*
X935000Y770000D01*
X935000Y770000D01*
X895000D01*
X890000Y768333D01*
Y661667D01*
X902500Y657500D01*
X937500Y657500D01*
X938485Y657500D01*
X940417Y657116D01*
X942237Y656362D01*
X943875Y655267D01*
X945267Y653875D01*
X946362Y652237D01*
X947116Y650417D01*
X947500Y648485D01*
X947500Y647500D01*
X947500Y647500D01*
X947500Y632500D01*
X947500Y631505D01*
X946739Y629668D01*
X945332Y628261D01*
X943494Y627500D01*
X942500Y627500D01*
X942500Y627500D01*
X902500D01*
X890000Y623333D01*
Y525000D01*
X905000Y520000D01*
X940000Y520000D01*
X940985Y520000D01*
X942917Y519616D01*
X944737Y518862D01*
X946375Y517767D01*
X947767Y516375D01*
X948862Y514737D01*
X949616Y512917D01*
X950000Y510985D01*
X950000Y510000D01*
X950000Y510000D01*
X950000Y495000D01*
X950000Y494005D01*
X949239Y492168D01*
X947832Y490761D01*
X945995Y490000D01*
X945000Y490000D01*
X945000Y490000D01*
X905000D01*
X890000Y485000D01*
Y480000D01*
X887439Y477439D01*
X887439D01*
X885670Y475671D01*
X881510Y472891D01*
X876888Y470976D01*
X871981Y470000D01*
X858019D01*
X853112Y470976D01*
X848490Y472891D01*
X844330Y475671D01*
X842561Y477439D01*
X840000Y480000D01*
Y676250D01*
X837500Y678750D01*
X819406D01*
X818240Y678982D01*
X817141Y679437D01*
X816153Y680097D01*
X815732Y680518D01*
X815000Y681250D01*
Y708750D01*
X815000Y708750D01*
X815000Y708750D01*
Y708750D01*
X815594Y709344D01*
X816992Y710279D01*
X818546Y710922D01*
X820195Y711250D01*
X821036Y711250D01*
X837500Y711250D01*
X840000Y713750D01*
Y713964D01*
X836464Y717500D01*
X818370D01*
X817204Y717732D01*
X816106Y718187D01*
X815117Y718848D01*
X814697Y719268D01*
X813964Y720000D01*
Y747500D01*
X813964Y747500D01*
X813964Y747500D01*
Y747500D01*
X814559Y748094D01*
X815957Y749029D01*
X817510Y749672D01*
X819159Y750000D01*
X820000Y750000D01*
X836464Y750000D01*
X838857Y752393D01*
X837500Y753750D01*
X819406D01*
X818240Y753982D01*
X817141Y754437D01*
X816152Y755097D01*
X815732Y755518D01*
X815000Y756250D01*
Y783750D01*
X815000Y783750D01*
X815000Y783750D01*
Y783750D01*
X815594Y784344D01*
X816992Y785279D01*
X818546Y785922D01*
X820195Y786250D01*
X821036Y786250D01*
X837500Y786250D01*
X840000Y788750D01*
Y990000D01*
X842561Y992561D01*
Y992561D01*
X844330Y994330D01*
X848490Y997109D01*
X853112Y999024D01*
X858019Y1000000D01*
X872378D01*
X877042Y999072D01*
D02*
G37*
G36*
X1372300Y995461D02*
X1371450Y995160D01*
X1370700Y994658D01*
X1370050Y993956D01*
X1369500Y993053D01*
X1369050Y991950D01*
X1368700Y990646D01*
X1368450Y989141D01*
X1368300Y987436D01*
X1368250Y985530D01*
X1358250D01*
X1358200Y987436D01*
X1358050Y989141D01*
X1357800Y990646D01*
X1357450Y991950D01*
X1357000Y993053D01*
X1356450Y993956D01*
X1355800Y994658D01*
X1355050Y995160D01*
X1354200Y995461D01*
X1353250Y995561D01*
X1373250D01*
X1372300Y995461D01*
D02*
G37*
G36*
X1186751Y983869D02*
X1180782D01*
X1181162Y983910D01*
X1181502Y984029D01*
X1181802Y984230D01*
X1182062Y984510D01*
X1182282Y984870D01*
X1182462Y985310D01*
X1182602Y985829D01*
X1182702Y986430D01*
X1182762Y987110D01*
X1182782Y987869D01*
X1186782D01*
X1186751Y983869D01*
D02*
G37*
G36*
X1368300Y980064D02*
X1368450Y978359D01*
X1368700Y976854D01*
X1369050Y975550D01*
X1369500Y974447D01*
X1370050Y973544D01*
X1370700Y972842D01*
X1371450Y972340D01*
X1372300Y972039D01*
X1373250Y971939D01*
X1353250D01*
X1354200Y972039D01*
X1355050Y972340D01*
X1355800Y972842D01*
X1356450Y973544D01*
X1357000Y974447D01*
X1357450Y975550D01*
X1357800Y976854D01*
X1358050Y978359D01*
X1358200Y980064D01*
X1358250Y981970D01*
X1368250D01*
X1368300Y980064D01*
D02*
G37*
G36*
X1408680Y955001D02*
X1408170Y954820D01*
X1407720Y954518D01*
X1407330Y954096D01*
X1407000Y953553D01*
X1406730Y952890D01*
X1406520Y952106D01*
X1406370Y951201D01*
X1406280Y950176D01*
X1406250Y949031D01*
X1400250D01*
X1400220Y950176D01*
X1400130Y951201D01*
X1399980Y952106D01*
X1399770Y952890D01*
X1399500Y953553D01*
X1399170Y954096D01*
X1398780Y954518D01*
X1398330Y954820D01*
X1397820Y955001D01*
X1397250Y955061D01*
X1409250D01*
X1408680Y955001D01*
D02*
G37*
G36*
X1406280Y938490D02*
X1406370Y937465D01*
X1406520Y936561D01*
X1406730Y935777D01*
X1407000Y935113D01*
X1407330Y934570D01*
X1407720Y934148D01*
X1408170Y933847D01*
X1408680Y933666D01*
X1409250Y933606D01*
X1397250D01*
X1397820Y933666D01*
X1398330Y933847D01*
X1398780Y934148D01*
X1399170Y934570D01*
X1399500Y935113D01*
X1399770Y935777D01*
X1399980Y936561D01*
X1400130Y937465D01*
X1400220Y938490D01*
X1400250Y939636D01*
X1406250D01*
X1406280Y938490D01*
D02*
G37*
G36*
X1350780Y933636D02*
X1350811Y921244D01*
X1350735Y921704D01*
X1350511Y922116D01*
X1350138Y922480D01*
X1349616Y922794D01*
X1348945Y923061D01*
X1348125Y923279D01*
X1347156Y923449D01*
X1346039Y923570D01*
X1343358Y923667D01*
Y933667D01*
X1350780Y933636D01*
D02*
G37*
G36*
X1407930Y916667D02*
X1407420Y916486D01*
X1406970Y916185D01*
X1406580Y915763D01*
X1406250Y915220D01*
X1405980Y914557D01*
X1405770Y913773D01*
X1405620Y912868D01*
X1405530Y911843D01*
X1405500Y910697D01*
X1399500D01*
X1399470Y911843D01*
X1399380Y912868D01*
X1399230Y913773D01*
X1399020Y914557D01*
X1398750Y915220D01*
X1398420Y915763D01*
X1398030Y916185D01*
X1397580Y916486D01*
X1397070Y916667D01*
X1396500Y916728D01*
X1408500D01*
X1407930Y916667D01*
D02*
G37*
G36*
X1105000Y1075000D02*
X1135000Y1075000D01*
X1135000Y1075000D01*
X1135985Y1075000D01*
X1137917Y1074616D01*
X1139737Y1073862D01*
X1141375Y1072768D01*
X1142767Y1071375D01*
X1143862Y1069737D01*
X1144616Y1067917D01*
X1145000Y1065985D01*
X1145000Y1065000D01*
X1145000Y943333D01*
X1155000Y940000D01*
X1190000Y940000D01*
X1190985Y940000D01*
X1192917Y939616D01*
X1194737Y938862D01*
X1196375Y937767D01*
X1197767Y936375D01*
X1198862Y934737D01*
X1199616Y932917D01*
X1200000Y930985D01*
X1200000Y930000D01*
X1200000Y930000D01*
X1200000Y915000D01*
X1200000Y914005D01*
X1199239Y912168D01*
X1197832Y910761D01*
X1195994Y910000D01*
X1195000Y910000D01*
X1195000Y910000D01*
X1155000D01*
X1145000Y906667D01*
Y803333D01*
X1155000Y800000D01*
X1190000Y800000D01*
X1190985Y800000D01*
X1192917Y799616D01*
X1194737Y798862D01*
X1196375Y797767D01*
X1197767Y796375D01*
X1198862Y794737D01*
X1199616Y792917D01*
X1200000Y790985D01*
X1200000Y790000D01*
X1200000Y790000D01*
X1200000Y775000D01*
X1200000Y774005D01*
X1199239Y772168D01*
X1197832Y770761D01*
X1195994Y770000D01*
X1195000Y770000D01*
X1195000Y770000D01*
X1155000D01*
X1145000Y766667D01*
X1145000Y658333D01*
X1155000Y655000D01*
X1190000Y655000D01*
X1190985Y655000D01*
X1192917Y654616D01*
X1194737Y653862D01*
X1196375Y652767D01*
X1197767Y651375D01*
X1198862Y649737D01*
X1199616Y647917D01*
X1200000Y645985D01*
X1200000Y645000D01*
X1200000Y645000D01*
X1200000Y630000D01*
X1200000Y629005D01*
X1199239Y627168D01*
X1197832Y625761D01*
X1195994Y625000D01*
X1195000Y625000D01*
X1195000Y625000D01*
X1155000D01*
X1145000Y621667D01*
Y523333D01*
X1155000Y520000D01*
X1190000Y520000D01*
X1190985Y520000D01*
X1192917Y519616D01*
X1194737Y518862D01*
X1196375Y517767D01*
X1197767Y516375D01*
X1198862Y514737D01*
X1199616Y512917D01*
X1200000Y510985D01*
X1200000Y510000D01*
X1200000Y510000D01*
X1200000Y495000D01*
X1200000Y494005D01*
X1199239Y492168D01*
X1197832Y490761D01*
X1195994Y490000D01*
X1195000Y490000D01*
X1195000Y490000D01*
X1155000D01*
X1145000Y486667D01*
Y405000D01*
X1145000Y405000D01*
X1145000Y404104D01*
X1144314Y402449D01*
X1143048Y401183D01*
X1141393Y400497D01*
X1140497D01*
Y399404D01*
X1139660Y397383D01*
X1138114Y395837D01*
X1136094Y395000D01*
X1135000D01*
X1105000Y395000D01*
X1104015D01*
X1102083Y395384D01*
X1100263Y396138D01*
X1098625Y397233D01*
X1097233Y398625D01*
X1096138Y400263D01*
X1095384Y402083D01*
X1095000Y404015D01*
Y405000D01*
Y940000D01*
Y1065000D01*
X1095000Y1065985D01*
X1095384Y1067917D01*
X1096138Y1069737D01*
X1097232Y1071375D01*
X1098625Y1072768D01*
X1100263Y1073862D01*
X1102083Y1074616D01*
X1104015Y1075000D01*
X1105000Y1075000D01*
D02*
G37*
G36*
X678172Y897500D02*
X678239D01*
D01*
X685000Y897500D01*
X687216Y897500D01*
X691563Y896635D01*
X695658Y894939D01*
X699343Y892477D01*
X702477Y889343D01*
X704939Y885658D01*
X706635Y881563D01*
X707500Y877216D01*
X707500Y875000D01*
X707500Y875000D01*
X707500Y857500D01*
X707500Y855238D01*
X706617Y850800D01*
X704886Y846620D01*
X702372Y842858D01*
X699173Y839659D01*
X695411Y837145D01*
X691231Y835414D01*
X686793Y834531D01*
X685000Y834531D01*
X655000Y832500D01*
X653530Y832428D01*
X650646Y831854D01*
X647929Y830729D01*
X645484Y829095D01*
X643405Y827016D01*
X641771Y824571D01*
X640646Y821854D01*
X640072Y818970D01*
X640000Y817500D01*
Y800000D01*
Y799261D01*
X639712Y797812D01*
X639146Y796447D01*
X638326Y795219D01*
X637281Y794174D01*
X636053Y793354D01*
X634688Y792788D01*
X633239Y792500D01*
X562500D01*
X561515Y792500D01*
X559583Y792884D01*
X557763Y793638D01*
X556125Y794733D01*
X554733Y796125D01*
X553638Y797763D01*
X552884Y799583D01*
X552500Y801515D01*
X552500Y802500D01*
X552500Y802500D01*
Y860000D01*
X552500Y860985D01*
X552884Y862917D01*
X553638Y864737D01*
X554733Y866375D01*
X556125Y867767D01*
X557763Y868862D01*
X559583Y869616D01*
X561515Y870000D01*
X562500Y870000D01*
X562500Y870000D01*
X642997D01*
X643916Y869619D01*
X644619Y868916D01*
X645000Y867997D01*
Y867500D01*
X645735Y867536D01*
X647177Y867823D01*
X648536Y868386D01*
X649758Y869202D01*
X650798Y870242D01*
X651614Y871464D01*
X652177Y872823D01*
X652464Y874265D01*
X652500Y875000D01*
Y887500D01*
X652500Y888485D01*
X652884Y890417D01*
X653638Y892237D01*
X654733Y893875D01*
X656125Y895267D01*
X657763Y896362D01*
X659583Y897116D01*
X661515Y897500D01*
X662500Y897500D01*
X662500Y897500D01*
X670000Y897500D01*
Y897500D01*
X678172Y897500D01*
D02*
G37*
G36*
X1181970Y875000D02*
X1181931Y874988D01*
X1181869Y874950D01*
X1181784Y874887D01*
X1181547Y874684D01*
X1180803Y873973D01*
X1180560Y873732D01*
X1177732Y876560D01*
X1179000Y877970D01*
X1181970Y875000D01*
D02*
G37*
G36*
X1404621Y858582D02*
X1404225Y858165D01*
X1403895Y857773D01*
X1403631Y857406D01*
X1403434Y857064D01*
X1403304Y856747D01*
X1403239Y856456D01*
X1403242Y856189D01*
X1403310Y855947D01*
X1403445Y855731D01*
X1403647Y855539D01*
X1395414Y859489D01*
X1395698Y859464D01*
X1396030Y859519D01*
X1396409Y859653D01*
X1396835Y859867D01*
X1397308Y860161D01*
X1397828Y860535D01*
X1399009Y861520D01*
X1400379Y862825D01*
X1404621Y858582D01*
D02*
G37*
G36*
X1172302Y852110D02*
X1172362Y851430D01*
X1172462Y850829D01*
X1172602Y850310D01*
X1172782Y849870D01*
X1173002Y849510D01*
X1173262Y849230D01*
X1173562Y849029D01*
X1173902Y848910D01*
X1174282Y848869D01*
X1166282D01*
X1166662Y848910D01*
X1167002Y849029D01*
X1167302Y849230D01*
X1167562Y849510D01*
X1167782Y849870D01*
X1167962Y850310D01*
X1168102Y850829D01*
X1168202Y851430D01*
X1168262Y852110D01*
X1168282Y852869D01*
X1172282D01*
X1172302Y852110D01*
D02*
G37*
G36*
X941858Y832900D02*
X941821Y832919D01*
X941750Y832936D01*
X941646Y832951D01*
X941335Y832975D01*
X940306Y832999D01*
X939964Y833000D01*
Y837000D01*
X941858Y837100D01*
Y832900D01*
D02*
G37*
G36*
X931761Y838620D02*
X931882Y838280D01*
X932084Y837980D01*
X932366Y837720D01*
X932728Y837500D01*
X933172Y837320D01*
X933696Y837180D01*
X934300Y837080D01*
X934986Y837020D01*
X935751Y837000D01*
Y833000D01*
X934986Y832980D01*
X934300Y832920D01*
X933696Y832820D01*
X933172Y832680D01*
X932728Y832500D01*
X932366Y832280D01*
X932084Y832020D01*
X931882Y831720D01*
X931761Y831380D01*
X931721Y831000D01*
Y839000D01*
X931761Y838620D01*
D02*
G37*
G36*
X1319454Y823601D02*
X1319113Y823598D01*
X1317900Y823518D01*
X1317756Y823488D01*
X1317644Y823454D01*
X1317565Y823415D01*
X1317520Y823371D01*
X1316679Y827486D01*
X1318296Y827601D01*
X1319454Y823601D01*
D02*
G37*
G36*
X1313321Y827486D02*
X1312481Y823371D01*
X1312435Y823415D01*
X1312356Y823454D01*
X1312244Y823488D01*
X1312100Y823518D01*
X1310887Y823598D01*
X1310546Y823601D01*
X1311704Y827601D01*
X1313321Y827486D01*
D02*
G37*
G36*
X1319971Y828517D02*
X1320065Y828324D01*
X1320224Y828155D01*
X1320445Y828008D01*
X1320729Y827883D01*
X1321077Y827782D01*
X1321488Y827702D01*
X1321962Y827646D01*
X1322500Y827612D01*
X1323101Y827601D01*
Y823601D01*
X1322500Y823589D01*
X1321488Y823499D01*
X1321077Y823420D01*
X1320729Y823318D01*
X1320445Y823193D01*
X1320224Y823046D01*
X1320065Y822877D01*
X1319971Y822684D01*
X1319939Y822470D01*
Y828732D01*
X1319971Y828517D01*
D02*
G37*
G36*
X743220Y809719D02*
X734719D01*
X734820Y809765D01*
X734911Y809901D01*
X734990Y810127D01*
X735059Y810444D01*
X735117Y810852D01*
X735202Y811939D01*
X735250Y814250D01*
X743250D01*
X743220Y809719D01*
D02*
G37*
G36*
X718791Y809320D02*
X716884Y807343D01*
X713869Y803765D01*
X712760Y802163D01*
X711917Y800686D01*
X711339Y799334D01*
X711028Y798108D01*
X710983Y797006D01*
X711203Y796029D01*
X711689Y795178D01*
X700281Y809719D01*
X701257Y809790D01*
X702280Y810002D01*
X703348Y810356D01*
X704463Y810851D01*
X705624Y811487D01*
X706831Y812265D01*
X708084Y813184D01*
X710728Y815447D01*
X712119Y816791D01*
X718791Y809320D01*
D02*
G37*
G36*
X683030Y768324D02*
X683120Y767299D01*
X683270Y766394D01*
X683480Y765610D01*
X683750Y764947D01*
X684080Y764404D01*
X684470Y763982D01*
X684920Y763680D01*
X685430Y763499D01*
X686000Y763439D01*
X674000D01*
X674570Y763499D01*
X675080Y763680D01*
X675530Y763982D01*
X675920Y764404D01*
X676250Y764947D01*
X676520Y765610D01*
X676730Y766394D01*
X676880Y767299D01*
X676970Y768324D01*
X677000Y769470D01*
X683000D01*
X683030Y768324D01*
D02*
G37*
G36*
X789561Y762000D02*
X789481Y762760D01*
X789240Y763440D01*
X788838Y764040D01*
X788276Y764560D01*
X787553Y765000D01*
X786670Y765360D01*
X785626Y765640D01*
X784421Y765840D01*
X783056Y765960D01*
X781531Y766000D01*
Y774000D01*
X783056Y774040D01*
X784421Y774160D01*
X785626Y774360D01*
X786670Y774640D01*
X787553Y775000D01*
X788276Y775440D01*
X788838Y775960D01*
X789240Y776560D01*
X789481Y777240D01*
X789561Y778000D01*
Y762000D01*
D02*
G37*
G36*
X667561Y749000D02*
X667501Y749570D01*
X667320Y750080D01*
X667018Y750530D01*
X666596Y750920D01*
X666053Y751250D01*
X665390Y751520D01*
X664606Y751730D01*
X663701Y751880D01*
X662676Y751970D01*
X661531Y752000D01*
Y758000D01*
X662676Y758030D01*
X663701Y758120D01*
X664606Y758270D01*
X665390Y758480D01*
X666053Y758750D01*
X666596Y759080D01*
X667018Y759470D01*
X667320Y759920D01*
X667501Y760430D01*
X667561Y761000D01*
Y749000D01*
D02*
G37*
G36*
X1409507Y773030D02*
X1410949Y771439D01*
X1412431Y770036D01*
X1413955Y768819D01*
X1415519Y767790D01*
X1417124Y766947D01*
X1418769Y766292D01*
X1420455Y765824D01*
X1422182Y765544D01*
X1423950Y765450D01*
Y757450D01*
X1422182Y757356D01*
X1420455Y757076D01*
X1418769Y756608D01*
X1417124Y755953D01*
X1415519Y755110D01*
X1413955Y754081D01*
X1412431Y752864D01*
X1410949Y751461D01*
X1409507Y749870D01*
X1408105Y748092D01*
Y774808D01*
X1409507Y773030D01*
D02*
G37*
G36*
X802000Y756451D02*
X801581Y756210D01*
X801210Y755810D01*
X800889Y755250D01*
X800617Y754530D01*
X800395Y753651D01*
X800222Y752610D01*
X800102Y751444D01*
X800222Y749890D01*
X800395Y748849D01*
X800617Y747970D01*
X800889Y747250D01*
X801210Y746690D01*
X801581Y746290D01*
X802000Y746049D01*
X802469Y745969D01*
X789530D01*
X790000Y746049D01*
X790419Y746290D01*
X790790Y746690D01*
X791111Y747250D01*
X791383Y747970D01*
X791605Y748849D01*
X791778Y749890D01*
X791898Y751056D01*
X791778Y752610D01*
X791605Y753651D01*
X791383Y754530D01*
X791111Y755250D01*
X790790Y755810D01*
X790419Y756210D01*
X790000Y756451D01*
X789530Y756531D01*
X802469D01*
X802000Y756451D01*
D02*
G37*
G36*
X726304Y746492D02*
X725820Y746286D01*
X725394Y745942D01*
X725024Y745461D01*
X724711Y744842D01*
X724455Y744086D01*
X724256Y743192D01*
X724114Y742161D01*
X724028Y740993D01*
X724000Y739686D01*
X716000D01*
X715972Y740993D01*
X715744Y743192D01*
X715545Y744086D01*
X715289Y744842D01*
X714976Y745461D01*
X714606Y745942D01*
X714180Y746286D01*
X713696Y746492D01*
X713156Y746561D01*
X726844D01*
X726304Y746492D01*
D02*
G37*
G36*
X1192470Y727000D02*
X1192431Y726988D01*
X1192369Y726950D01*
X1192284Y726887D01*
X1192048Y726684D01*
X1191303Y725973D01*
X1191060Y725732D01*
X1188232Y728560D01*
X1189500Y729970D01*
X1192470Y727000D01*
D02*
G37*
G36*
X802000Y718951D02*
X801581Y718710D01*
X801210Y718310D01*
X800889Y717750D01*
X800617Y717030D01*
X800395Y716151D01*
X800222Y715110D01*
X800102Y713944D01*
X800222Y712390D01*
X800395Y711349D01*
X800617Y710470D01*
X800889Y709750D01*
X801210Y709190D01*
X801581Y708790D01*
X802000Y708549D01*
X802469Y708469D01*
X789530D01*
X790000Y708549D01*
X790419Y708790D01*
X790790Y709190D01*
X791111Y709750D01*
X791383Y710470D01*
X791605Y711349D01*
X791778Y712390D01*
X791898Y713556D01*
X791778Y715110D01*
X791605Y716151D01*
X791383Y717030D01*
X791111Y717750D01*
X790790Y718310D01*
X790419Y718710D01*
X790000Y718951D01*
X789530Y719031D01*
X802469D01*
X802000Y718951D01*
D02*
G37*
G36*
X694022Y713699D02*
X694200Y711140D01*
X694355Y710099D01*
X694555Y709220D01*
X694799Y708500D01*
X695088Y707940D01*
X695421Y707540D01*
X695798Y707299D01*
X696219Y707219D01*
X682000Y707189D01*
X682760Y707271D01*
X683440Y707513D01*
X684040Y707915D01*
X684560Y708478D01*
X685000Y709201D01*
X685360Y710084D01*
X685640Y711128D01*
X685840Y712331D01*
X685960Y713695D01*
X686000Y715219D01*
X694000D01*
X694022Y713699D01*
D02*
G37*
G36*
X1177020Y702110D02*
X1177080Y701430D01*
X1177180Y700829D01*
X1177320Y700310D01*
X1177500Y699870D01*
X1177720Y699510D01*
X1177980Y699230D01*
X1178280Y699029D01*
X1178620Y698910D01*
X1179000Y698869D01*
X1171000D01*
X1171380Y698910D01*
X1171720Y699029D01*
X1172020Y699230D01*
X1172280Y699510D01*
X1172500Y699870D01*
X1172680Y700310D01*
X1172820Y700829D01*
X1172920Y701430D01*
X1172980Y702110D01*
X1173000Y702869D01*
X1177000D01*
X1177020Y702110D01*
D02*
G37*
G36*
X666311Y692656D02*
X666245Y693149D01*
X666046Y693590D01*
X665715Y693979D01*
X665251Y694316D01*
X664655Y694602D01*
X663926Y694835D01*
X663065Y695016D01*
X662071Y695146D01*
X660945Y695224D01*
X659686Y695250D01*
Y703250D01*
X660945Y703276D01*
X663065Y703484D01*
X663926Y703665D01*
X664655Y703899D01*
X665251Y704184D01*
X665715Y704521D01*
X666046Y704910D01*
X666245Y705351D01*
X666311Y705844D01*
Y692656D01*
D02*
G37*
G36*
X665941Y692238D02*
X666063Y692170D01*
X666158Y692040D01*
X666226Y691849D01*
X666267Y691596D01*
X666281Y691281D01*
X675124D01*
X675212Y691228D01*
X675179Y691069D01*
X675026Y690805D01*
X674752Y690435D01*
X674358Y689959D01*
X672452Y687897D01*
X670578Y685994D01*
X664922Y691651D01*
X665180Y691892D01*
X665411Y692071D01*
X665615Y692188D01*
X665791Y692244D01*
X665941Y692238D01*
D02*
G37*
G36*
X1409075Y697586D02*
X1410781Y695837D01*
X1412496Y694293D01*
X1414220Y692955D01*
X1415953Y691823D01*
X1417695Y690897D01*
X1419445Y690176D01*
X1421205Y689662D01*
X1422973Y689353D01*
X1424750Y689250D01*
Y681250D01*
X1422973Y681147D01*
X1421205Y680838D01*
X1419445Y680324D01*
X1417695Y679603D01*
X1415953Y678677D01*
X1414220Y677545D01*
X1412496Y676207D01*
X1410781Y674663D01*
X1409075Y672914D01*
X1407378Y670958D01*
Y699542D01*
X1409075Y697586D01*
D02*
G37*
G36*
X1230061Y645156D02*
X1230024Y645476D01*
X1229912Y645763D01*
X1229726Y646016D01*
X1229466Y646236D01*
X1229131Y646421D01*
X1228723Y646573D01*
X1228239Y646691D01*
X1227682Y646776D01*
X1227049Y646826D01*
X1226343Y646843D01*
Y650843D01*
X1227049Y650860D01*
X1227682Y650911D01*
X1228239Y650995D01*
X1228723Y651113D01*
X1229131Y651265D01*
X1229466Y651451D01*
X1229726Y651670D01*
X1229912Y651923D01*
X1230024Y652210D01*
X1230061Y652530D01*
Y645156D01*
D02*
G37*
G36*
X679322Y640350D02*
X679442Y638989D01*
X679642Y637789D01*
X679922Y636749D01*
X680282Y635869D01*
X680722Y635149D01*
X681242Y634590D01*
X681842Y634189D01*
X682522Y633950D01*
X683282Y633870D01*
X667282D01*
X668042Y633950D01*
X668722Y634189D01*
X669322Y634590D01*
X669842Y635149D01*
X670282Y635869D01*
X670642Y636749D01*
X670922Y637789D01*
X671122Y638989D01*
X671242Y640350D01*
X671282Y641870D01*
X679282D01*
X679322Y640350D01*
D02*
G37*
G36*
X1312858Y620400D02*
X1312821Y620419D01*
X1312751Y620436D01*
X1312646Y620451D01*
X1312335Y620475D01*
X1311306Y620499D01*
X1310964Y620500D01*
Y624500D01*
X1312858Y624600D01*
Y620400D01*
D02*
G37*
G36*
X1182970Y591000D02*
X1182931Y590988D01*
X1182869Y590950D01*
X1182784Y590887D01*
X1182548Y590684D01*
X1181803Y589973D01*
X1181560Y589732D01*
X1178732Y592560D01*
X1180000Y593970D01*
X1182970Y591000D01*
D02*
G37*
G36*
X599015Y622378D02*
X603593Y618298D01*
X605724Y616640D01*
X607750Y615238D01*
X609670Y614090D01*
X611485Y613198D01*
X613195Y612560D01*
X614800Y612178D01*
X616299Y612050D01*
Y606050D01*
X614800Y605923D01*
X613195Y605540D01*
X611485Y604902D01*
X609670Y604010D01*
X607750Y602863D01*
X605724Y601460D01*
X603593Y599803D01*
X603349Y599585D01*
X603368Y599260D01*
X603703Y596581D01*
X604144Y594157D01*
X604690Y591987D01*
X605343Y590073D01*
X606101Y588413D01*
X606965Y587008D01*
X607935Y585858D01*
X603693Y581615D01*
X602542Y582585D01*
X601137Y583449D01*
X599477Y584207D01*
X597563Y584860D01*
X595393Y585406D01*
X592969Y585847D01*
X590290Y586182D01*
X584168Y586534D01*
X580725Y586551D01*
X596568Y602394D01*
Y624800D01*
X599015Y622378D01*
D02*
G37*
G36*
X658843Y568600D02*
X658782Y569170D01*
X658602Y569680D01*
X658300Y570130D01*
X657878Y570520D01*
X657335Y570850D01*
X656672Y571120D01*
X655888Y571330D01*
X654983Y571480D01*
X653958Y571570D01*
X652812Y571600D01*
Y577600D01*
X653958Y577630D01*
X654983Y577720D01*
X655888Y577870D01*
X656672Y578080D01*
X657335Y578350D01*
X657878Y578680D01*
X658300Y579070D01*
X658602Y579520D01*
X658782Y580030D01*
X658843Y580600D01*
Y568600D01*
D02*
G37*
G36*
X1172302Y567109D02*
X1172362Y566429D01*
X1172462Y565830D01*
X1172602Y565309D01*
X1172782Y564869D01*
X1173002Y564510D01*
X1173262Y564230D01*
X1173562Y564030D01*
X1173902Y563909D01*
X1174282Y563870D01*
X1166282D01*
X1166662Y563909D01*
X1167002Y564030D01*
X1167302Y564230D01*
X1167562Y564510D01*
X1167782Y564869D01*
X1167962Y565309D01*
X1168102Y565830D01*
X1168202Y566429D01*
X1168262Y567109D01*
X1168282Y567869D01*
X1172282D01*
X1172302Y567109D01*
D02*
G37*
G36*
X685430Y566101D02*
X684920Y565920D01*
X684470Y565618D01*
X684080Y565196D01*
X683750Y564653D01*
X683480Y563990D01*
X683270Y563206D01*
X683120Y562301D01*
X683030Y561276D01*
X683000Y560131D01*
X677000D01*
X676970Y561276D01*
X676880Y562301D01*
X676730Y563206D01*
X676520Y563990D01*
X676250Y564653D01*
X675920Y565196D01*
X675530Y565618D01*
X675080Y565920D01*
X674570Y566101D01*
X674000Y566161D01*
X686000D01*
X685430Y566101D01*
D02*
G37*
G36*
X1407550Y551564D02*
X1407700Y549859D01*
X1407950Y548354D01*
X1408300Y547050D01*
X1408750Y545947D01*
X1409300Y545044D01*
X1409950Y544342D01*
X1410700Y543840D01*
X1411550Y543539D01*
X1412500Y543439D01*
X1392500D01*
X1393450Y543539D01*
X1394300Y543840D01*
X1395050Y544342D01*
X1395700Y545044D01*
X1396250Y545947D01*
X1396700Y547050D01*
X1397050Y548354D01*
X1397300Y549859D01*
X1397450Y551564D01*
X1397500Y553470D01*
X1407500D01*
X1407550Y551564D01*
D02*
G37*
G36*
X1374969Y543469D02*
X1363469Y543439D01*
X1363760Y543505D01*
X1364020Y543703D01*
X1364250Y544031D01*
X1364449Y544491D01*
X1364617Y545081D01*
X1364755Y545803D01*
X1364862Y546656D01*
X1364985Y548754D01*
X1365000Y550000D01*
X1375000D01*
X1374969Y543469D01*
D02*
G37*
G36*
X824969Y545031D02*
X824595Y544950D01*
X824260Y544711D01*
X823965Y544310D01*
X823709Y543750D01*
X823492Y543031D01*
X823315Y542150D01*
X823177Y541110D01*
X823020Y538550D01*
X823000Y537030D01*
X815000D01*
X814960Y538555D01*
X814840Y539919D01*
X814640Y541122D01*
X814360Y542166D01*
X814000Y543049D01*
X813560Y543772D01*
X813040Y544334D01*
X812440Y544737D01*
X811760Y544979D01*
X811000Y545061D01*
X824969Y545031D01*
D02*
G37*
G36*
X823025Y534949D02*
X823222Y532389D01*
X823395Y531349D01*
X823617Y530470D01*
X823889Y529749D01*
X824210Y529189D01*
X824581Y528789D01*
X825000Y528549D01*
X825470Y528470D01*
X812531D01*
X813000Y528549D01*
X813419Y528789D01*
X813790Y529189D01*
X814111Y529749D01*
X814383Y530470D01*
X814605Y531349D01*
X814778Y532389D01*
X814901Y533590D01*
X815000Y536469D01*
X823000D01*
X823025Y534949D01*
D02*
G37*
G36*
X1350031Y526530D02*
X1349967Y526538D01*
X1349778Y526544D01*
X1343717Y526569D01*
Y536569D01*
X1344917Y536582D01*
X1347758Y536780D01*
X1348452Y536898D01*
X1349020Y537042D01*
X1349462Y537213D01*
X1349778Y537410D01*
X1349967Y537633D01*
X1350031Y537882D01*
Y526530D01*
D02*
G37*
G36*
X1411550Y526461D02*
X1410700Y526160D01*
X1409950Y525658D01*
X1409300Y524956D01*
X1408750Y524053D01*
X1408300Y522950D01*
X1407950Y521646D01*
X1407700Y520141D01*
X1407550Y518436D01*
X1407500Y516530D01*
X1397500D01*
X1397450Y518436D01*
X1397300Y520141D01*
X1397050Y521646D01*
X1396700Y522950D01*
X1396250Y524053D01*
X1395700Y524956D01*
X1395050Y525658D01*
X1394300Y526160D01*
X1393450Y526461D01*
X1392500Y526561D01*
X1412500D01*
X1411550Y526461D01*
D02*
G37*
G36*
X825495Y522240D02*
X825661Y521980D01*
X825939Y521750D01*
X826329Y521551D01*
X826829Y521383D01*
X827441Y521245D01*
X828164Y521138D01*
X828998Y521061D01*
X831000Y521000D01*
Y513000D01*
X829943Y512985D01*
X828164Y512862D01*
X827441Y512755D01*
X826829Y512617D01*
X826329Y512449D01*
X825939Y512250D01*
X825661Y512020D01*
X825495Y511760D01*
X825439Y511469D01*
Y522531D01*
X825495Y522240D01*
D02*
G37*
G36*
X739040Y517444D02*
X739160Y516078D01*
X739360Y514874D01*
X739640Y513830D01*
X740000Y512947D01*
X740440Y512224D01*
X740960Y511662D01*
X741560Y511260D01*
X742240Y511019D01*
X743000Y510939D01*
X727000D01*
X727760Y511019D01*
X728440Y511260D01*
X729040Y511662D01*
X729560Y512224D01*
X730000Y512947D01*
X730360Y513830D01*
X730640Y514874D01*
X730840Y516078D01*
X730960Y517444D01*
X731000Y518969D01*
X739000D01*
X739040Y517444D01*
D02*
G37*
G36*
X683030Y515824D02*
X683120Y514799D01*
X683270Y513894D01*
X683480Y513110D01*
X683750Y512447D01*
X684080Y511904D01*
X684470Y511482D01*
X684920Y511180D01*
X685430Y510999D01*
X686000Y510939D01*
X674000D01*
X674570Y510999D01*
X675080Y511180D01*
X675530Y511482D01*
X675920Y511904D01*
X676250Y512447D01*
X676520Y513110D01*
X676730Y513894D01*
X676880Y514799D01*
X676970Y515824D01*
X677000Y516969D01*
X683000D01*
X683030Y515824D01*
D02*
G37*
G36*
X1407550Y512397D02*
X1407700Y510692D01*
X1407950Y509187D01*
X1408300Y507883D01*
X1408750Y506780D01*
X1409300Y505877D01*
X1409950Y505175D01*
X1410700Y504674D01*
X1411550Y504373D01*
X1412500Y504272D01*
X1392500D01*
X1393450Y504373D01*
X1394300Y504674D01*
X1395050Y505175D01*
X1395700Y505877D01*
X1396250Y506780D01*
X1396700Y507883D01*
X1397050Y509187D01*
X1397300Y510692D01*
X1397450Y512397D01*
X1397500Y514303D01*
X1407500D01*
X1407550Y512397D01*
D02*
G37*
G36*
X792985Y501561D02*
X797000D01*
X796430Y501501D01*
X795920Y501320D01*
X795470Y501018D01*
X795080Y500596D01*
X794750Y500053D01*
X794480Y499390D01*
X794270Y498606D01*
X794120Y497701D01*
X794030Y496676D01*
X794000Y495531D01*
X788000D01*
X787970Y496676D01*
X787880Y497701D01*
X787730Y498606D01*
X787520Y499390D01*
X787337Y499839D01*
X786906Y499494D01*
X784530Y497288D01*
X780288Y501530D01*
X781476Y502761D01*
X783343Y504967D01*
X784021Y505943D01*
X784530Y506834D01*
X784870Y507640D01*
X785040Y508361D01*
Y508997D01*
X784870Y509549D01*
X784530Y510016D01*
X792985Y501561D01*
D02*
G37*
G36*
X825000Y501451D02*
X824581Y501211D01*
X824210Y500811D01*
X823889Y500251D01*
X823617Y499530D01*
X823395Y498651D01*
X823222Y497611D01*
X823099Y496410D01*
X823000Y493531D01*
X815000D01*
X814975Y495051D01*
X814778Y497611D01*
X814605Y498651D01*
X814383Y499530D01*
X814111Y500251D01*
X813790Y500811D01*
X813419Y501211D01*
X813000Y501451D01*
X812531Y501530D01*
X825470D01*
X825000Y501451D01*
D02*
G37*
G36*
X683430Y494971D02*
X682920Y494790D01*
X682470Y494491D01*
X682080Y494071D01*
X681750Y493531D01*
X681480Y492870D01*
X681270Y492090D01*
X681120Y491190D01*
X681030Y490171D01*
X681000Y489030D01*
X675000D01*
X674970Y490171D01*
X674880Y491190D01*
X674730Y492090D01*
X674520Y492870D01*
X674250Y493531D01*
X673920Y494071D01*
X673530Y494491D01*
X673080Y494790D01*
X672570Y494971D01*
X672000Y495031D01*
X684000D01*
X683430Y494971D01*
D02*
G37*
G36*
X741860Y494955D02*
X741260Y494729D01*
X740730Y494353D01*
X740271Y493826D01*
X739883Y493148D01*
X739565Y492319D01*
X739318Y491340D01*
X739141Y490211D01*
X739035Y488931D01*
X739000Y487500D01*
X731000D01*
X730965Y488931D01*
X730859Y490211D01*
X730682Y491340D01*
X730435Y492319D01*
X730117Y493148D01*
X729729Y493826D01*
X729270Y494353D01*
X728740Y494729D01*
X728140Y494955D01*
X727469Y495031D01*
X742531D01*
X741860Y494955D01*
D02*
G37*
G36*
X1312858Y477900D02*
X1312821Y477919D01*
X1312751Y477936D01*
X1312646Y477951D01*
X1312335Y477975D01*
X1311306Y477999D01*
X1310964Y478000D01*
Y482000D01*
X1312858Y482100D01*
Y477900D01*
D02*
G37*
G36*
X1370880Y487294D02*
X1370030Y486993D01*
X1369280Y486492D01*
X1368630Y485789D01*
X1368080Y484887D01*
X1367630Y483783D01*
X1367280Y482479D01*
X1367030Y480975D01*
X1366880Y479270D01*
X1366830Y477364D01*
X1356830D01*
X1356780Y479270D01*
X1356630Y480975D01*
X1356380Y482479D01*
X1356030Y483783D01*
X1355580Y484887D01*
X1355030Y485789D01*
X1354380Y486492D01*
X1353630Y486993D01*
X1352780Y487294D01*
X1351830Y487394D01*
X1371830D01*
X1370880Y487294D01*
D02*
G37*
G36*
X1288620Y475021D02*
X1288280Y474900D01*
X1287980Y474698D01*
X1287720Y474416D01*
X1287500Y474053D01*
X1287320Y473610D01*
X1287180Y473086D01*
X1287080Y472481D01*
X1287020Y471796D01*
X1287000Y471031D01*
X1283000D01*
X1282980Y471796D01*
X1282920Y472481D01*
X1282820Y473086D01*
X1282680Y473610D01*
X1282500Y474053D01*
X1282280Y474416D01*
X1282020Y474698D01*
X1281720Y474900D01*
X1281380Y475021D01*
X1281000Y475061D01*
X1289000D01*
X1288620Y475021D01*
D02*
G37*
G36*
X1366880Y473230D02*
X1367030Y471525D01*
X1367280Y470021D01*
X1367630Y468717D01*
X1368080Y467613D01*
X1368630Y466711D01*
X1369280Y466008D01*
X1370030Y465507D01*
X1370880Y465206D01*
X1371830Y465106D01*
X1351830D01*
X1352780Y465206D01*
X1353630Y465507D01*
X1354380Y466008D01*
X1355030Y466711D01*
X1355580Y467613D01*
X1356030Y468717D01*
X1356380Y470021D01*
X1356630Y471525D01*
X1356780Y473230D01*
X1356830Y475136D01*
X1366830D01*
X1366880Y473230D01*
D02*
G37*
G36*
X799793Y453749D02*
X799844Y453110D01*
X799929Y452513D01*
X800047Y451959D01*
X800200Y451447D01*
X800387Y450978D01*
X800607Y450551D01*
X800862Y450167D01*
X801150Y449825D01*
X801472Y449526D01*
X792408Y448722D01*
X792668Y449061D01*
X792900Y449439D01*
X793106Y449854D01*
X793283Y450308D01*
X793434Y450800D01*
X793557Y451329D01*
X793653Y451897D01*
X793721Y452503D01*
X793776Y453829D01*
X799776Y454430D01*
X799793Y453749D01*
D02*
G37*
G36*
X1414379Y463907D02*
X1414619Y463227D01*
X1415020Y462627D01*
X1415580Y462107D01*
X1416299Y461667D01*
X1417180Y461307D01*
X1418219Y461027D01*
X1419420Y460827D01*
X1420780Y460707D01*
X1422299Y460667D01*
Y452667D01*
X1420780Y452627D01*
X1419420Y452507D01*
X1418219Y452307D01*
X1417180Y452027D01*
X1416299Y451667D01*
X1415580Y451227D01*
X1415020Y450707D01*
X1414619Y450107D01*
X1414379Y449427D01*
X1414299Y448667D01*
Y464667D01*
X1414379Y463907D01*
D02*
G37*
G36*
X851507Y453238D02*
X851678Y450958D01*
X851757Y450551D01*
X851849Y450209D01*
X851956Y449932D01*
X852077Y449720D01*
X852213Y449574D01*
X843159Y448664D01*
X843223Y448780D01*
X843281Y448966D01*
X843333Y449221D01*
X843377Y449545D01*
X843445Y450400D01*
X843500Y452942D01*
X851500Y453970D01*
X851507Y453238D01*
D02*
G37*
G36*
X1222020Y447455D02*
X1222080Y446771D01*
X1222180Y446167D01*
X1222320Y445644D01*
X1222500Y445201D01*
X1222720Y444838D01*
X1222980Y444555D01*
X1223280Y444353D01*
X1223620Y444231D01*
X1224000Y444189D01*
X1216780Y444220D01*
X1217012Y444259D01*
X1217219Y444380D01*
X1217402Y444580D01*
X1217561Y444860D01*
X1217695Y445219D01*
X1217805Y445659D01*
X1217890Y446180D01*
X1217951Y446780D01*
X1218000Y448219D01*
X1222000D01*
X1222020Y447455D01*
D02*
G37*
G36*
X1027256Y447214D02*
X1026786Y446721D01*
X1025994Y445755D01*
X1025674Y445280D01*
X1025403Y444812D01*
X1025182Y444351D01*
X1025012Y443895D01*
X1024891Y443446D01*
X1024820Y443002D01*
X1024800Y442565D01*
X1018365Y449000D01*
X1018802Y449020D01*
X1019246Y449091D01*
X1019695Y449212D01*
X1020151Y449382D01*
X1020612Y449603D01*
X1021080Y449874D01*
X1021554Y450194D01*
X1022035Y450565D01*
X1022521Y450986D01*
X1023014Y451456D01*
X1027256Y447214D01*
D02*
G37*
G36*
X988679Y450986D02*
X989645Y450194D01*
X990120Y449874D01*
X990588Y449603D01*
X991049Y449382D01*
X991505Y449212D01*
X991954Y449091D01*
X992398Y449020D01*
X992835Y449000D01*
X986400Y442565D01*
X986380Y443002D01*
X986309Y443446D01*
X986188Y443895D01*
X986018Y444351D01*
X985797Y444812D01*
X985526Y445280D01*
X985206Y445755D01*
X984835Y446235D01*
X984414Y446721D01*
X983944Y447214D01*
X988186Y451456D01*
X988679Y450986D01*
D02*
G37*
G36*
X1287020Y444704D02*
X1287080Y444019D01*
X1287180Y443414D01*
X1287320Y442890D01*
X1287500Y442447D01*
X1287720Y442084D01*
X1287980Y441802D01*
X1288280Y441600D01*
X1288620Y441479D01*
X1289000Y441439D01*
X1281000D01*
X1281380Y441479D01*
X1281720Y441600D01*
X1282020Y441802D01*
X1282280Y442084D01*
X1282500Y442447D01*
X1282680Y442890D01*
X1282820Y443414D01*
X1282920Y444019D01*
X1282980Y444704D01*
X1283000Y445470D01*
X1287000D01*
X1287020Y444704D01*
D02*
G37*
G36*
X1409740Y448147D02*
X1409060Y447906D01*
X1408460Y447505D01*
X1407940Y446943D01*
X1407500Y446220D01*
X1407140Y445337D01*
X1406860Y444293D01*
X1406660Y443088D01*
X1406540Y441723D01*
X1406500Y440197D01*
X1398500D01*
X1398460Y441723D01*
X1398340Y443088D01*
X1398140Y444293D01*
X1397860Y445337D01*
X1397500Y446220D01*
X1397060Y446943D01*
X1396540Y447505D01*
X1395940Y447906D01*
X1395260Y448147D01*
X1394500Y448228D01*
X1410500D01*
X1409740Y448147D01*
D02*
G37*
G36*
X962858Y437950D02*
X962534Y438245D01*
X962171Y438508D01*
X961768Y438741D01*
X961325Y438942D01*
X960842Y439113D01*
X960320Y439252D01*
X959758Y439361D01*
X959156Y439438D01*
X958515Y439484D01*
X957834Y439500D01*
Y445500D01*
X958515Y445516D01*
X959758Y445639D01*
X960320Y445748D01*
X960842Y445887D01*
X961325Y446058D01*
X961768Y446259D01*
X962171Y446492D01*
X962534Y446755D01*
X962858Y447050D01*
Y437950D01*
D02*
G37*
G36*
X915749Y442680D02*
X915930Y442170D01*
X916232Y441720D01*
X916654Y441330D01*
X917197Y441000D01*
X917860Y440730D01*
X918644Y440520D01*
X919548Y440370D01*
X920574Y440280D01*
X921720Y440250D01*
Y434250D01*
X920574Y434220D01*
X919548Y434130D01*
X918644Y433980D01*
X917860Y433770D01*
X917197Y433500D01*
X916654Y433170D01*
X916232Y432780D01*
X915930Y432330D01*
X915749Y431820D01*
X915689Y431250D01*
Y443250D01*
X915749Y442680D01*
D02*
G37*
G36*
X1243620Y430771D02*
X1243280Y430650D01*
X1242980Y430448D01*
X1242720Y430166D01*
X1242500Y429803D01*
X1242320Y429360D01*
X1242180Y428836D01*
X1242080Y428232D01*
X1242020Y427546D01*
X1242000Y426781D01*
X1238000D01*
X1237980Y427546D01*
X1237920Y428232D01*
X1237820Y428836D01*
X1237680Y429360D01*
X1237500Y429803D01*
X1237280Y430166D01*
X1237020Y430448D01*
X1236720Y430650D01*
X1236380Y430771D01*
X1236000Y430811D01*
X1244000D01*
X1243620Y430771D01*
D02*
G37*
G36*
X1226120D02*
X1225780Y430650D01*
X1225480Y430448D01*
X1225220Y430166D01*
X1225000Y429803D01*
X1224820Y429360D01*
X1224680Y428836D01*
X1224580Y428232D01*
X1224520Y427546D01*
X1224500Y426781D01*
X1220500D01*
X1220480Y427546D01*
X1220420Y428232D01*
X1220320Y428836D01*
X1220180Y429360D01*
X1220000Y429803D01*
X1219780Y430166D01*
X1219520Y430448D01*
X1219220Y430650D01*
X1218880Y430771D01*
X1218500Y430811D01*
X1226500D01*
X1226120Y430771D01*
D02*
G37*
G36*
X1064061Y426500D02*
X1064001Y427070D01*
X1063820Y427580D01*
X1063518Y428030D01*
X1063096Y428420D01*
X1062553Y428750D01*
X1061890Y429020D01*
X1061106Y429230D01*
X1060201Y429380D01*
X1059176Y429470D01*
X1058030Y429500D01*
Y435500D01*
X1059176Y435530D01*
X1060201Y435620D01*
X1061106Y435770D01*
X1061890Y435980D01*
X1062553Y436250D01*
X1063096Y436580D01*
X1063518Y436970D01*
X1063820Y437420D01*
X1064001Y437930D01*
X1064061Y438500D01*
Y426500D01*
D02*
G37*
G36*
X1406540Y432444D02*
X1406660Y431078D01*
X1406860Y429874D01*
X1407140Y428830D01*
X1407500Y427947D01*
X1407940Y427224D01*
X1408460Y426662D01*
X1409060Y426260D01*
X1409740Y426019D01*
X1410500Y425939D01*
X1394500D01*
X1395260Y426019D01*
X1395940Y426260D01*
X1396540Y426662D01*
X1397060Y427224D01*
X1397500Y427947D01*
X1397860Y428830D01*
X1398140Y429874D01*
X1398340Y431078D01*
X1398460Y432444D01*
X1398500Y433969D01*
X1406500D01*
X1406540Y432444D01*
D02*
G37*
G36*
X1350031Y414618D02*
X1349967Y414867D01*
X1349778Y415090D01*
X1349462Y415287D01*
X1349020Y415458D01*
X1348452Y415602D01*
X1347758Y415720D01*
X1346937Y415812D01*
X1344917Y415917D01*
X1343717Y415930D01*
Y425931D01*
X1350031Y425970D01*
Y414618D01*
D02*
G37*
G36*
X1242020Y414954D02*
X1242080Y414268D01*
X1242180Y413664D01*
X1242320Y413140D01*
X1242500Y412697D01*
X1242720Y412334D01*
X1242980Y412052D01*
X1243280Y411850D01*
X1243620Y411729D01*
X1244000Y411689D01*
X1236000D01*
X1236380Y411729D01*
X1236720Y411850D01*
X1237020Y412052D01*
X1237280Y412334D01*
X1237500Y412697D01*
X1237680Y413140D01*
X1237820Y413664D01*
X1237920Y414268D01*
X1237980Y414954D01*
X1238000Y415719D01*
X1242000D01*
X1242020Y414954D01*
D02*
G37*
G36*
X1224520D02*
X1224580Y414268D01*
X1224680Y413664D01*
X1224820Y413140D01*
X1225000Y412697D01*
X1225220Y412334D01*
X1225480Y412052D01*
X1225780Y411850D01*
X1226120Y411729D01*
X1226500Y411689D01*
X1218500D01*
X1218880Y411729D01*
X1219220Y411850D01*
X1219520Y412052D01*
X1219780Y412334D01*
X1220000Y412697D01*
X1220180Y413140D01*
X1220320Y413664D01*
X1220420Y414268D01*
X1220480Y414954D01*
X1220500Y415719D01*
X1224500D01*
X1224520Y414954D01*
D02*
G37*
G36*
X1085212Y404969D02*
X1084024Y403739D01*
X1082157Y401533D01*
X1081479Y400557D01*
X1080969Y399666D01*
X1080630Y398860D01*
X1080460Y398139D01*
Y397503D01*
X1080630Y396951D01*
X1080969Y396484D01*
X1072484Y404969D01*
X1072951Y404630D01*
X1073503Y404460D01*
X1074139D01*
X1074860Y404630D01*
X1075666Y404969D01*
X1076557Y405479D01*
X1077533Y406157D01*
X1078594Y407006D01*
X1080969Y409212D01*
X1085212Y404969D01*
D02*
G37*
G36*
X1272561Y400250D02*
X1272521Y400630D01*
X1272400Y400970D01*
X1272198Y401270D01*
X1271916Y401530D01*
X1271553Y401750D01*
X1271110Y401930D01*
X1270586Y402070D01*
X1269982Y402170D01*
X1269296Y402230D01*
X1268531Y402250D01*
Y406250D01*
X1269296Y406270D01*
X1269982Y406330D01*
X1270586Y406430D01*
X1271110Y406570D01*
X1271553Y406750D01*
X1271916Y406970D01*
X1272198Y407230D01*
X1272400Y407530D01*
X1272521Y407870D01*
X1272561Y408250D01*
Y400250D01*
D02*
G37*
G36*
X1245760Y407870D02*
X1245880Y407530D01*
X1246079Y407230D01*
X1246359Y406970D01*
X1246720Y406750D01*
X1247160Y406570D01*
X1247680Y406430D01*
X1248279Y406330D01*
X1248960Y406270D01*
X1249719Y406250D01*
Y402250D01*
X1248960Y402230D01*
X1248279Y402170D01*
X1247680Y402070D01*
X1247160Y401930D01*
X1246720Y401750D01*
X1246359Y401530D01*
X1246079Y401270D01*
X1245880Y400970D01*
X1245760Y400630D01*
X1245720Y400250D01*
Y408250D01*
X1245760Y407870D01*
D02*
G37*
G36*
X915749Y405430D02*
X915930Y404920D01*
X916232Y404470D01*
X916654Y404080D01*
X917197Y403750D01*
X917860Y403480D01*
X918644Y403270D01*
X919548Y403120D01*
X920574Y403030D01*
X921720Y403000D01*
Y397000D01*
X920574Y396970D01*
X919548Y396880D01*
X918644Y396730D01*
X917860Y396520D01*
X917197Y396250D01*
X916654Y395920D01*
X916232Y395530D01*
X915930Y395080D01*
X915749Y394570D01*
X915689Y394000D01*
Y406000D01*
X915749Y405430D01*
D02*
G37*
G36*
X898811Y391250D02*
X898751Y391820D01*
X898570Y392330D01*
X898268Y392780D01*
X897846Y393170D01*
X897303Y393500D01*
X896640Y393770D01*
X895856Y393980D01*
X894951Y394130D01*
X893926Y394220D01*
X892781Y394250D01*
Y400250D01*
X893926Y400280D01*
X894951Y400370D01*
X895856Y400520D01*
X896640Y400730D01*
X897303Y401000D01*
X897846Y401330D01*
X898268Y401720D01*
X898570Y402170D01*
X898751Y402680D01*
X898811Y403250D01*
Y391250D01*
D02*
G37*
%LPC*%
G36*
X791998Y502040D02*
X791361D01*
X790640Y501870D01*
X789906Y501561D01*
X792974D01*
X792549Y501870D01*
X791998Y502040D01*
D02*
G37*
%LPD*%
D11*
X670750Y872500D02*
X677500Y879250D01*
X655000Y872500D02*
X670750D01*
X657500Y880000D02*
X665000D01*
Y879250D02*
Y880000D01*
D16*
X1242500Y1075000D02*
D03*
X1260000D02*
D03*
X1242500Y1040000D02*
D03*
X1260000D02*
D03*
X732500Y835000D02*
D03*
X715000D02*
D03*
X1240000Y405000D02*
D03*
X1222500D02*
D03*
X1240000Y437500D02*
D03*
X1222500D02*
D03*
D17*
X675282Y574600D02*
D03*
Y625400D02*
D03*
X1170282Y555400D02*
D03*
X925282Y639600D02*
D03*
Y690400D02*
D03*
X1170282D02*
D03*
Y975400D02*
D03*
X925282Y555400D02*
D03*
Y504600D02*
D03*
X915282Y835400D02*
D03*
Y784600D02*
D03*
X1170282Y840400D02*
D03*
X925282Y975400D02*
D03*
Y924600D02*
D03*
D18*
X780000Y600000D02*
D03*
X1275000Y530000D02*
D03*
X1030000Y665000D02*
D03*
X1275000D02*
D03*
Y950000D02*
D03*
X1030000Y530000D02*
D03*
X1020000Y810000D02*
D03*
X1275000Y815000D02*
D03*
X1030000Y950000D02*
D03*
D19*
X737500Y875000D02*
D03*
X670000Y865000D02*
D03*
D20*
X796000Y695000D02*
D03*
X824000D02*
D03*
X791000Y515000D02*
D03*
X819000D02*
D03*
X824000Y732500D02*
D03*
X796000D02*
D03*
X824000Y770000D02*
D03*
X796000D02*
D03*
D21*
X738250Y699250D02*
D03*
X681250D02*
D03*
X678000Y503000D02*
D03*
X735000D02*
D03*
D22*
X1403250Y925167D02*
D03*
X1363250D02*
D03*
X1363250Y963500D02*
D03*
X1403250D02*
D03*
X1363250Y1004000D02*
D03*
X1403250D02*
D03*
X1362500Y1042500D02*
D03*
X1402500D02*
D03*
X1361830Y495833D02*
D03*
X1401830D02*
D03*
X1362500Y417500D02*
D03*
X1402500D02*
D03*
X1401830Y456667D02*
D03*
X1361830D02*
D03*
X1362500Y535000D02*
D03*
X1402500D02*
D03*
X720000Y755000D02*
D03*
X680000D02*
D03*
D23*
X1285000Y435750D02*
D03*
Y404250D02*
D03*
X1302500Y1075750D02*
D03*
Y1044250D02*
D03*
D24*
X729250Y874000D02*
D03*
X694750D02*
D03*
D25*
X737500Y797250D02*
D03*
X706000D02*
D03*
D26*
X1072500Y392500D02*
D03*
Y432500D02*
D03*
X907250Y397250D02*
D03*
Y437250D02*
D03*
D27*
X1401830Y495833D02*
G03*
X1402500Y496503I0J670D01*
G01*
X706000Y797250D02*
Y804000D01*
X707150Y804750D02*
X731750Y829351D01*
X706750Y804750D02*
X707150D01*
X706000Y804000D02*
X706750Y804750D01*
X1361830Y456667D02*
Y495833D01*
X731750Y829351D02*
Y834250D01*
X732500Y835000D01*
X1337500Y934525D02*
Y1033142D01*
X1359750Y928667D02*
X1363250Y925167D01*
X1337500Y934525D02*
X1343358Y928667D01*
Y1039000D02*
X1359000D01*
X1343358Y928667D02*
X1359750D01*
X1359000Y1039000D02*
X1362500Y1042500D01*
X1337500Y1033142D02*
X1343358Y1039000D01*
X1370000Y550000D02*
X1372500Y552500D01*
X1362500Y535000D02*
X1366500D01*
X1370000Y538500D01*
Y550000D01*
X1363250Y963500D02*
Y1004000D01*
X1337859Y426788D02*
Y525712D01*
X1343717Y420931D02*
X1359069D01*
Y531569D02*
X1362500Y535000D01*
X1337859Y426788D02*
X1343717Y420931D01*
X1359069D02*
X1362500Y417500D01*
X1337859Y525712D02*
X1343717Y531569D01*
X1359069D01*
X1396697Y585803D02*
X1402500Y580000D01*
X1390000Y609050D02*
X1396697Y602353D01*
Y585803D02*
Y602353D01*
X1402500Y535000D02*
Y580000D01*
Y496503D02*
Y535000D01*
D43*
X847050Y1026250D02*
Y1041735D01*
X775000Y1045250D02*
X843535D01*
X847050Y1041735D01*
X756100Y1026350D02*
X775000Y1045250D01*
X756100Y906111D02*
Y1026350D01*
X750525Y911686D02*
X756100Y906111D01*
X726686Y911686D02*
X750525D01*
X716008Y836008D02*
Y847463D01*
X716500Y847955D02*
Y901500D01*
X726686Y911686D01*
X715000Y835000D02*
X716008Y836008D01*
Y847463D02*
X716500Y847955D01*
X713250Y832250D02*
X715000Y834000D01*
X680000Y505000D02*
Y571100D01*
X678000Y484500D02*
X690000Y472500D01*
X791000Y466500D02*
X796776Y460724D01*
X621550Y609050D02*
X630000Y617500D01*
X690000Y472500D02*
X755500D01*
X630000Y617500D02*
Y740000D01*
X791000Y508000D02*
Y515000D01*
X796776Y445074D02*
X797350Y444500D01*
X645000Y755000D02*
X680000D01*
X755500Y472500D02*
X791000Y508000D01*
Y466500D02*
Y508000D01*
X796776Y445074D02*
Y460724D01*
X707250Y832250D02*
X713250D01*
X678000Y503000D02*
X680000Y505000D01*
X680000Y755000D02*
Y805000D01*
X630000Y740000D02*
X645000Y755000D01*
X614950Y574600D02*
X675282D01*
X680000Y805000D02*
X707250Y832250D01*
X580500Y609050D02*
X614950Y574600D01*
X676500D02*
X680000Y571100D01*
X580500Y609050D02*
X621550D01*
X675282Y574600D02*
X676500D01*
X678000Y484500D02*
Y503000D01*
X793000Y1008000D02*
X934500D01*
X960500Y982000D01*
X782500Y997500D02*
X793000Y1008000D01*
X1033300Y457500D02*
X1082485D01*
X1086000Y410000D02*
Y453985D01*
X1082485Y457500D02*
X1086000Y453985D01*
X1072500Y396500D02*
X1086000Y410000D01*
X948985Y477500D02*
X960500Y489015D01*
Y982000D01*
X969000Y466400D02*
X992900Y442500D01*
X969000Y1004678D02*
X991961Y1027639D01*
X969000Y466400D02*
Y1004678D01*
X766800Y890000D02*
Y896050D01*
X782500Y911750D01*
Y997500D01*
X902500Y477500D02*
X948985D01*
X882500Y457500D02*
X902500Y477500D01*
X882500Y405000D02*
Y457500D01*
Y405000D02*
X890250Y397250D01*
X907250D01*
X1362500Y1042500D02*
Y1062500D01*
X1402500Y860703D02*
Y924417D01*
X1403250Y925167D01*
X1390000Y837650D02*
Y848203D01*
X1402500Y860703D01*
X1403250Y925167D02*
Y963500D01*
Y925167D02*
X1403250Y925167D01*
X907250Y397250D02*
X910000Y400000D01*
X1020000D02*
X1027500Y407500D01*
X910000Y400000D02*
X1020000D01*
X1027500Y407500D02*
Y420000D01*
X1040000Y432500D01*
X1072500D01*
X1018300Y442500D02*
X1033300Y457500D01*
X1072500Y392500D02*
Y396500D01*
X945000Y442500D02*
X967500D01*
X907250Y437250D02*
X939750D01*
X945000Y442500D01*
D44*
X771980Y608020D02*
Y702801D01*
Y608020D02*
X780000Y600000D01*
X758500Y797250D02*
X765000Y790750D01*
X737500Y797250D02*
X758500D01*
X765000Y775000D02*
Y790750D01*
X796000Y695000D02*
Y697579D01*
X738250Y699250D02*
X768429D01*
X793500Y700079D02*
X796000Y697579D01*
X774701Y700079D02*
X793500D01*
X768429Y699250D02*
X771980Y702801D01*
X739250Y814250D02*
X745000Y820000D01*
X739250Y799000D02*
Y814250D01*
X819000Y515000D02*
X821000Y517000D01*
X831000D01*
X796000Y697578D02*
Y732500D01*
X735000Y503000D02*
Y545000D01*
Y487500D02*
Y503000D01*
Y545000D02*
X780000Y590000D01*
Y600000D01*
X819000Y561000D01*
Y515000D02*
Y561000D01*
Y476000D02*
Y515000D01*
X737500Y797250D02*
X739250Y799000D01*
X765000Y775000D02*
X770000Y770000D01*
X796000D01*
Y732500D02*
Y770000D01*
X674250Y699250D02*
X681250D01*
X659686D02*
X674250D01*
X655000Y703936D02*
X659686Y699250D01*
X655000Y703936D02*
Y720000D01*
X715314Y735000D02*
X720000Y739686D01*
X705000Y735000D02*
X715314D01*
X720000Y739686D02*
Y755000D01*
X690000Y720000D02*
X705000Y735000D01*
X681250Y699250D02*
X686000D01*
X690000Y703250D01*
Y720000D01*
X1402500Y1004750D02*
Y1042500D01*
Y1004750D02*
X1403250Y1004000D01*
X1423500D01*
X1430000Y997500D01*
Y767500D02*
Y997500D01*
X1423950Y761450D02*
X1430000Y767500D01*
X1390000Y761450D02*
X1423950D01*
X1424750Y685250D02*
X1437500Y672500D01*
X1390000Y685250D02*
X1424750D01*
X1437500Y467500D02*
Y672500D01*
X1426667Y456667D02*
X1437500Y467500D01*
X1401830Y456667D02*
X1426667D01*
X1402500Y417500D02*
Y455997D01*
X1401830Y456667D02*
X1402500Y455997D01*
X667750Y688822D02*
X670250Y691322D01*
Y695250D01*
X667750Y659227D02*
Y688822D01*
X670250Y695250D02*
X674250Y699250D01*
X667750Y659227D02*
X675282Y651695D01*
Y625400D02*
Y651695D01*
X819000Y476000D02*
X830000Y465000D01*
X842500D02*
X847500Y460000D01*
X830000Y465000D02*
X842500D01*
X847500Y445150D02*
Y460000D01*
Y445150D02*
X848150Y444500D01*
D45*
X1285000Y435750D02*
Y477000D01*
X1288000Y480000D02*
X1315000D01*
X1285000Y477000D02*
X1288000Y480000D01*
X1170282Y866282D02*
X1182000Y878000D01*
X1170282Y840400D02*
Y866282D01*
X1184782Y981900D02*
Y1003000D01*
X1188617Y1013617D02*
X1189000Y1014000D01*
X1188617Y1006836D02*
Y1013617D01*
X1184782Y1003000D02*
X1188617Y1006836D01*
X1176472Y587472D02*
X1183000Y594000D01*
X1176472Y583972D02*
Y587472D01*
X1170282Y577782D02*
X1176472Y583972D01*
X915682Y835000D02*
X944000D01*
X1280000Y980000D02*
Y1010000D01*
X1270000Y1020000D02*
X1280000Y1010000D01*
X1250000Y1020000D02*
X1270000D01*
X1242500Y1027500D02*
Y1040000D01*
Y1027500D02*
X1250000Y1020000D01*
X1257500Y622500D02*
X1315000D01*
X1301750Y1045000D02*
X1302500Y1044250D01*
X1280000Y1045000D02*
X1301750D01*
X1275000Y1040000D02*
X1280000Y1045000D01*
X1260000Y1040000D02*
X1275000D01*
X1260000D02*
Y1075000D01*
X1260000Y1075000D01*
X1242500Y1075000D02*
X1242500Y1075000D01*
X1242500Y1040000D02*
Y1075000D01*
X1285601Y825601D02*
X1323101D01*
X1325000Y827500D01*
X1275000Y815000D02*
X1285601Y825601D01*
X1325000Y827500D02*
Y1067500D01*
X1306250Y1072000D02*
X1320500D01*
X1325000Y1067500D01*
X1302500Y1075750D02*
X1306250Y1072000D01*
X1258843Y648843D02*
X1275000Y665000D01*
X1220000Y585000D02*
Y642500D01*
X1226343Y648843D01*
X1258843D01*
X1220000Y440000D02*
Y585000D01*
Y440000D02*
X1222500Y437500D01*
X1240750Y404250D02*
X1285000D01*
X1240000Y405000D02*
X1240750Y404250D01*
X1240000Y405000D02*
Y437500D01*
X1240000Y437500D01*
X1222500Y405000D02*
Y437500D01*
X1222500Y437500D01*
X1170282Y555400D02*
Y577782D01*
X1175000Y712500D02*
X1192500Y730000D01*
X1170282Y690400D02*
X1175000Y695118D01*
Y712500D01*
X1170282Y975400D02*
X1178282D01*
X1184782Y981900D01*
X915282Y835400D02*
X915682Y835000D01*
X925000Y500000D02*
Y504318D01*
X925282Y504600D01*
D46*
X1390000Y609050D02*
D03*
Y685250D02*
D03*
Y761450D02*
D03*
Y837650D02*
D03*
X580500Y609050D02*
D03*
Y685250D02*
D03*
Y761450D02*
D03*
Y837650D02*
D03*
D47*
X582500Y455250D02*
D03*
X532500D02*
D03*
X632500D02*
D03*
X632000Y525000D02*
D03*
X532000D02*
D03*
X582000D02*
D03*
Y922500D02*
D03*
X532000D02*
D03*
X632000D02*
D03*
X582750Y992750D02*
D03*
X532750D02*
D03*
X632750D02*
D03*
X733000Y416000D02*
D03*
X683000D02*
D03*
X729500Y1055000D02*
D03*
X679500D02*
D03*
D48*
X816000Y962500D02*
D03*
X866000D02*
D03*
X816500Y855750D02*
D03*
X866500D02*
D03*
D49*
X797350Y444500D02*
D03*
X848150D02*
D03*
X822750D02*
D03*
X821650Y1026250D02*
D03*
X796250D02*
D03*
X847050D02*
D03*
X967500Y442500D02*
D03*
X1018300D02*
D03*
X992900D02*
D03*
D50*
X832500Y618250D02*
D03*
X756100Y906111D02*
D03*
X908500Y759250D02*
D03*
X771980Y702801D02*
D03*
X745000Y820000D02*
D03*
X742500Y857500D02*
D03*
Y870000D02*
D03*
Y885000D02*
D03*
Y895000D02*
D03*
X807964Y733000D02*
D03*
X1120000Y887000D02*
D03*
X1182000Y878000D02*
D03*
X807500Y700000D02*
D03*
X693000Y607000D02*
D03*
X718000Y590000D02*
D03*
X726765Y599886D02*
D03*
X898000Y617000D02*
D03*
X906000Y608000D02*
D03*
X831000Y517000D02*
D03*
X832000Y834000D02*
D03*
X831000Y670750D02*
D03*
X822290Y669000D02*
D03*
X919000Y808000D02*
D03*
X898000Y762000D02*
D03*
Y747180D02*
D03*
Y713000D02*
D03*
Y697000D02*
D03*
X1189000Y1014000D02*
D03*
X1123000Y602000D02*
D03*
X1183000Y594000D02*
D03*
X918500Y737309D02*
D03*
X937500Y975000D02*
D03*
X910000Y1030000D02*
D03*
X677500Y859250D02*
D03*
X665000Y879250D02*
D03*
Y869250D02*
D03*
X665000Y850000D02*
D03*
X677500Y869250D02*
D03*
X665000Y859250D02*
D03*
X677500Y879250D02*
D03*
X677500Y850000D02*
D03*
X585000Y896505D02*
D03*
X943576Y888728D02*
D03*
X945750Y877633D02*
D03*
X785933Y661215D02*
D03*
X1316038Y765346D02*
D03*
X732500Y895000D02*
D03*
Y857500D02*
D03*
Y885000D02*
D03*
Y870000D02*
D03*
X1315000Y480000D02*
D03*
X947500Y787500D02*
D03*
X944000Y835000D02*
D03*
X900000Y730000D02*
D03*
X920991Y723550D02*
D03*
X927832Y703900D02*
D03*
X784500Y689078D02*
D03*
X777500Y720000D02*
D03*
X735000Y487500D02*
D03*
X782783Y890250D02*
D03*
X765571Y921191D02*
D03*
X766800Y890000D02*
D03*
X655000Y720000D02*
D03*
X1305000Y880000D02*
D03*
X1315000Y900000D02*
D03*
Y907500D02*
D03*
X1310000Y735000D02*
D03*
Y595000D02*
D03*
X1315000Y615000D02*
D03*
Y622500D02*
D03*
Y630000D02*
D03*
Y637500D02*
D03*
Y645000D02*
D03*
Y455000D02*
D03*
X1120000Y460000D02*
D03*
Y745000D02*
D03*
X1362500Y1062500D02*
D03*
Y985000D02*
D03*
Y477500D02*
D03*
X1372500Y552500D02*
D03*
X813500Y795250D02*
D03*
X750000Y767500D02*
D03*
X910500Y863500D02*
D03*
X1315000Y487500D02*
D03*
Y532500D02*
D03*
Y525000D02*
D03*
Y495000D02*
D03*
Y577500D02*
D03*
Y517500D02*
D03*
Y570000D02*
D03*
Y510000D02*
D03*
Y562500D02*
D03*
Y555000D02*
D03*
Y547500D02*
D03*
Y502500D02*
D03*
X1192500Y730000D02*
D03*
X1315000Y997500D02*
D03*
Y990000D02*
D03*
Y982500D02*
D03*
Y975000D02*
D03*
X940000Y922500D02*
D03*
X925000Y500000D02*
D03*
X925282Y555400D02*
D03*
X929500Y639600D02*
D03*
X925000Y687500D02*
D03*
X991961Y1027639D02*
D03*
X986250Y1042750D02*
D03*
X850000Y505000D02*
D03*
X870000D02*
D03*
X860000D02*
D03*
X880000D02*
D03*
Y495000D02*
D03*
X860000D02*
D03*
X870000D02*
D03*
X850000D02*
D03*
X880000Y485000D02*
D03*
X860000D02*
D03*
X870000D02*
D03*
X850000D02*
D03*
X675500Y918000D02*
D03*
X990000Y900000D02*
D03*
Y930000D02*
D03*
Y920000D02*
D03*
Y910000D02*
D03*
Y940000D02*
D03*
Y950000D02*
D03*
Y960000D02*
D03*
Y970000D02*
D03*
X1000000D02*
D03*
Y960000D02*
D03*
Y950000D02*
D03*
Y940000D02*
D03*
X990000Y615000D02*
D03*
Y625000D02*
D03*
Y655000D02*
D03*
Y675000D02*
D03*
Y685000D02*
D03*
X1000000D02*
D03*
Y675000D02*
D03*
Y665000D02*
D03*
Y655000D02*
D03*
X990000Y645000D02*
D03*
Y665000D02*
D03*
Y635000D02*
D03*
X1000000Y805000D02*
D03*
Y815000D02*
D03*
Y835000D02*
D03*
X990000D02*
D03*
X1000000Y825000D02*
D03*
X990000Y775000D02*
D03*
Y805000D02*
D03*
Y815000D02*
D03*
Y825000D02*
D03*
Y795000D02*
D03*
Y785000D02*
D03*
Y765000D02*
D03*
Y480000D02*
D03*
Y490000D02*
D03*
Y500000D02*
D03*
X1000000Y510000D02*
D03*
Y520000D02*
D03*
Y530000D02*
D03*
Y540000D02*
D03*
X990000D02*
D03*
Y530000D02*
D03*
Y520000D02*
D03*
Y510000D02*
D03*
X1000000Y500000D02*
D03*
X1315000Y915000D02*
D03*
Y922500D02*
D03*
Y930000D02*
D03*
Y937500D02*
D03*
Y945000D02*
D03*
Y952500D02*
D03*
Y960000D02*
D03*
Y967500D02*
D03*
Y652500D02*
D03*
Y660000D02*
D03*
Y667500D02*
D03*
Y675000D02*
D03*
Y682500D02*
D03*
Y690000D02*
D03*
Y697500D02*
D03*
Y705000D02*
D03*
Y712500D02*
D03*
Y862500D02*
D03*
Y855000D02*
D03*
Y847500D02*
D03*
Y840000D02*
D03*
Y832500D02*
D03*
Y825000D02*
D03*
Y817500D02*
D03*
Y810000D02*
D03*
Y802500D02*
D03*
Y795000D02*
D03*
Y787500D02*
D03*
Y780000D02*
D03*
Y772500D02*
D03*
X1104750Y432250D02*
D03*
Y422250D02*
D03*
Y412250D02*
D03*
X1114750Y432250D02*
D03*
Y422250D02*
D03*
Y412250D02*
D03*
X1124750Y432250D02*
D03*
Y422250D02*
D03*
Y412250D02*
D03*
X1135000Y412000D02*
D03*
Y422000D02*
D03*
Y432000D02*
D03*
M02*
