G04*
G04 #@! TF.GenerationSoftware,Altium Limited,Altium Designer,22.6.1 (34)*
G04*
G04 Layer_Physical_Order=3*
G04 Layer_Color=16440176*
%FSLAX44Y44*%
%MOMM*%
G71*
G04*
G04 #@! TF.SameCoordinates,44C52635-D950-46A4-BE53-1BE2AF9ACA8F*
G04*
G04*
G04 #@! TF.FilePolarity,Positive*
G04*
G01*
G75*
%ADD45C,0.4000*%
%ADD46C,4.5000*%
%ADD47C,2.0000*%
%ADD48C,1.8000*%
%ADD50C,0.6000*%
%ADD51R,34.0000X11.0000*%
G36*
X1408912Y1096311D02*
X1409592Y1094307D01*
Y1083710D01*
X1409715Y1081221D01*
X1410686Y1076337D01*
X1412591Y1071737D01*
X1415358Y1067597D01*
X1418878Y1064076D01*
X1423019Y1061310D01*
X1427619Y1059404D01*
X1432502Y1058433D01*
X1434992Y1058310D01*
X1449336D01*
X1453096Y1057562D01*
X1457435Y1057278D01*
Y421312D01*
X1456311Y421088D01*
X1449760Y418864D01*
X1443555Y415804D01*
X1442694Y415229D01*
X1440119Y414717D01*
X1435519Y412811D01*
X1431378Y410045D01*
X1427858Y406524D01*
X1425091Y402384D01*
X1423186Y397784D01*
X1422215Y392900D01*
X1422189Y392375D01*
X1421136Y390240D01*
X1418912Y383689D01*
X1417562Y376903D01*
X1417278Y372565D01*
X561312D01*
X561088Y373689D01*
X558864Y380240D01*
X556576Y384880D01*
X555998Y387784D01*
X554093Y392384D01*
X551327Y396524D01*
X547806Y400045D01*
X543666Y402811D01*
X539065Y404717D01*
X537652Y404998D01*
X536445Y405804D01*
X530240Y408864D01*
X523689Y411088D01*
X516904Y412438D01*
X512565Y412722D01*
Y1033688D01*
X513689Y1033912D01*
X519282Y1035810D01*
X524192D01*
X526682Y1035933D01*
X531565Y1036904D01*
X536166Y1038810D01*
X540306Y1041576D01*
X543827Y1045097D01*
X546593Y1049237D01*
X548498Y1053837D01*
X549470Y1058721D01*
X549592Y1061210D01*
Y1066904D01*
X551088Y1071311D01*
X552438Y1078096D01*
X552890Y1085000D01*
X552563Y1089988D01*
X552565Y1090000D01*
Y1097435D01*
X1408688D01*
X1408912Y1096311D01*
D02*
G37*
%LPC*%
G36*
X1363694Y1068500D02*
X1361306D01*
X1359101Y1067587D01*
X1357413Y1065899D01*
X1356500Y1063693D01*
Y1061307D01*
X1357413Y1059101D01*
X1359101Y1057413D01*
X1361306Y1056500D01*
X1363694D01*
X1365899Y1057413D01*
X1367587Y1059101D01*
X1368500Y1061307D01*
Y1063693D01*
X1367587Y1065899D01*
X1365899Y1067587D01*
X1363694Y1068500D01*
D02*
G37*
G36*
X984108Y1052919D02*
X983895Y1052891D01*
X983682Y1052908D01*
X981788Y1052808D01*
X980960Y1052654D01*
X980126Y1052544D01*
X979928Y1052462D01*
X979717Y1052423D01*
X978958Y1052060D01*
X978179Y1051738D01*
X978010Y1051608D01*
X977816Y1051516D01*
X977176Y1050968D01*
X976508Y1050456D01*
X976378Y1050286D01*
X976215Y1050147D01*
X975984Y1049810D01*
X960250D01*
X958423Y1049570D01*
X956720Y1048865D01*
X955258Y1047742D01*
X937825Y1030310D01*
X922109D01*
X922068Y1030626D01*
X922064Y1030637D01*
X922062Y1030649D01*
X921663Y1031613D01*
X921268Y1032574D01*
X921261Y1032584D01*
X921256Y1032595D01*
X920619Y1033425D01*
X919991Y1034249D01*
X919807Y1034434D01*
X919303Y1034961D01*
X919241Y1035034D01*
X919192Y1035078D01*
X919153Y1035119D01*
X919100Y1035162D01*
X918706Y1035676D01*
X918572Y1035778D01*
X918571Y1035780D01*
X918562Y1035786D01*
X918447Y1035923D01*
X918046Y1036204D01*
X918038Y1036212D01*
X918012Y1036227D01*
X917729Y1036425D01*
X917034Y1036958D01*
X916868Y1037027D01*
X916721Y1037130D01*
X915897Y1037429D01*
X915088Y1037764D01*
X914910Y1037788D01*
X914741Y1037849D01*
X913868Y1037925D01*
X913000Y1038039D01*
X912821Y1038016D01*
X912642Y1038031D01*
X911780Y1037878D01*
X910911Y1037764D01*
X910745Y1037695D01*
X910568Y1037664D01*
X909774Y1037293D01*
X908965Y1036958D01*
X908912Y1036917D01*
X908173Y1036820D01*
X906470Y1036115D01*
X905008Y1034992D01*
X903885Y1033530D01*
X903180Y1031827D01*
X903083Y1031088D01*
X903042Y1031035D01*
X902960Y1030837D01*
X902839Y1030660D01*
X902558Y1029867D01*
X902236Y1029089D01*
X902208Y1028876D01*
X902137Y1028675D01*
X902071Y1027835D01*
X901961Y1027000D01*
X901989Y1026788D01*
X901972Y1026575D01*
X902126Y1025747D01*
X902236Y1024912D01*
X902318Y1024714D01*
X902357Y1024504D01*
X902720Y1023744D01*
X903042Y1022966D01*
X903172Y1022796D01*
X903264Y1022603D01*
X903812Y1021963D01*
X904324Y1021294D01*
X904494Y1021164D01*
X904633Y1021002D01*
X906043Y1019733D01*
X906737Y1019257D01*
X907405Y1018744D01*
X907603Y1018662D01*
X907779Y1018541D01*
X908573Y1018260D01*
X909351Y1017938D01*
X909563Y1017910D01*
X909765Y1017839D01*
X910605Y1017773D01*
X911440Y1017663D01*
X911652Y1017691D01*
X911865Y1017674D01*
X912391Y1017772D01*
X913220Y1017135D01*
X914923Y1016430D01*
X916750Y1016190D01*
X940750D01*
X942577Y1016430D01*
X944280Y1017135D01*
X945742Y1018258D01*
X963175Y1035690D01*
X976012D01*
X976492Y1035061D01*
X976501Y1035054D01*
X976508Y1035044D01*
X977334Y1034410D01*
X978159Y1033774D01*
X978170Y1033769D01*
X978179Y1033762D01*
X979140Y1033364D01*
X980103Y1032962D01*
X980115Y1032960D01*
X980126Y1032956D01*
X981155Y1032820D01*
X982191Y1032681D01*
X982450Y1032680D01*
X983180Y1032663D01*
X983275Y1032656D01*
X983341Y1032660D01*
X983397Y1032658D01*
X983465Y1032665D01*
X984108Y1032581D01*
X984273Y1032603D01*
X984275Y1032603D01*
X984288Y1032605D01*
X984469Y1032589D01*
X984949Y1032674D01*
X984959Y1032674D01*
X984985Y1032681D01*
X985330Y1032742D01*
X986196Y1032856D01*
X986364Y1032925D01*
X986543Y1032957D01*
X987335Y1033328D01*
X987393Y1033352D01*
X988112Y1032275D01*
X986875Y1031038D01*
X985961Y1028832D01*
Y1026445D01*
X986875Y1024240D01*
X988562Y1022552D01*
X990768Y1021639D01*
X993155D01*
X995360Y1022552D01*
X997048Y1024240D01*
X997961Y1026445D01*
Y1028832D01*
X997048Y1031038D01*
X995360Y1032725D01*
X993155Y1033639D01*
X990768D01*
X989597Y1033154D01*
X988929Y1034252D01*
X989120Y1034412D01*
X989813Y1034944D01*
X989924Y1035089D01*
X990063Y1035206D01*
X990564Y1035922D01*
X991096Y1036616D01*
X991165Y1036783D01*
X991269Y1036933D01*
X991567Y1037754D01*
X991902Y1038562D01*
X991910Y1038628D01*
X992365Y1039220D01*
X993070Y1040923D01*
X993310Y1042750D01*
X993070Y1044577D01*
X992365Y1046280D01*
X991910Y1046872D01*
X991902Y1046938D01*
X991820Y1047136D01*
X991781Y1047346D01*
X991418Y1048107D01*
X991096Y1048885D01*
X990965Y1049054D01*
X990873Y1049247D01*
X990326Y1049888D01*
X989813Y1050556D01*
X989643Y1050686D01*
X989504Y1050849D01*
X988810Y1051325D01*
X988142Y1051838D01*
X987944Y1051920D01*
X987768Y1052041D01*
X986974Y1052322D01*
X986196Y1052644D01*
X985984Y1052672D01*
X985782Y1052743D01*
X984942Y1052809D01*
X984108Y1052919D01*
D02*
G37*
G36*
X730977Y1070000D02*
X728023D01*
X725125Y1069424D01*
X722395Y1068293D01*
X719938Y1066651D01*
X717849Y1064562D01*
X716207Y1062105D01*
X715077Y1059375D01*
X714500Y1056477D01*
Y1053523D01*
X715077Y1050625D01*
X716207Y1047895D01*
X717849Y1045438D01*
X719938Y1043349D01*
X722395Y1041707D01*
X725125Y1040576D01*
X728023Y1040000D01*
X730977D01*
X733875Y1040576D01*
X736605Y1041707D01*
X739062Y1043349D01*
X741151Y1045438D01*
X742793Y1047895D01*
X743924Y1050625D01*
X744500Y1053523D01*
Y1056477D01*
X743924Y1059375D01*
X742793Y1062105D01*
X741151Y1064562D01*
X739062Y1066651D01*
X736605Y1068293D01*
X733875Y1069424D01*
X730977Y1070000D01*
D02*
G37*
G36*
X680977D02*
X678023D01*
X675125Y1069424D01*
X672395Y1068293D01*
X669938Y1066651D01*
X667849Y1064562D01*
X666207Y1062105D01*
X665077Y1059375D01*
X664500Y1056477D01*
Y1053523D01*
X665077Y1050625D01*
X666207Y1047895D01*
X667849Y1045438D01*
X669938Y1043349D01*
X672395Y1041707D01*
X675125Y1040576D01*
X678023Y1040000D01*
X680977D01*
X683875Y1040576D01*
X686605Y1041707D01*
X689062Y1043349D01*
X691151Y1045438D01*
X692793Y1047895D01*
X693924Y1050625D01*
X694500Y1053523D01*
Y1056477D01*
X693924Y1059375D01*
X692793Y1062105D01*
X691151Y1064562D01*
X689062Y1066651D01*
X686605Y1068293D01*
X683875Y1069424D01*
X680977Y1070000D01*
D02*
G37*
G36*
X848564Y1037750D02*
X845536D01*
X842611Y1036966D01*
X839989Y1035452D01*
X837848Y1033311D01*
X836334Y1030689D01*
X835550Y1027764D01*
Y1024736D01*
X836334Y1021811D01*
X837848Y1019189D01*
X839989Y1017048D01*
X842611Y1015534D01*
X845536Y1014750D01*
X848564D01*
X851489Y1015534D01*
X854111Y1017048D01*
X856252Y1019189D01*
X857766Y1021811D01*
X858550Y1024736D01*
Y1027764D01*
X857766Y1030689D01*
X856252Y1033311D01*
X854111Y1035452D01*
X851489Y1036966D01*
X848564Y1037750D01*
D02*
G37*
G36*
X823164D02*
X820136D01*
X817211Y1036966D01*
X814589Y1035452D01*
X812448Y1033311D01*
X810934Y1030689D01*
X810150Y1027764D01*
Y1024736D01*
X810934Y1021811D01*
X812448Y1019189D01*
X814589Y1017048D01*
X817211Y1015534D01*
X820136Y1014750D01*
X823164D01*
X826089Y1015534D01*
X828711Y1017048D01*
X830852Y1019189D01*
X832366Y1021811D01*
X833150Y1024736D01*
Y1027764D01*
X832366Y1030689D01*
X830852Y1033311D01*
X828711Y1035452D01*
X826089Y1036966D01*
X823164Y1037750D01*
D02*
G37*
G36*
X797764D02*
X794736D01*
X791811Y1036966D01*
X789189Y1035452D01*
X787048Y1033311D01*
X785534Y1030689D01*
X784750Y1027764D01*
Y1024736D01*
X785534Y1021811D01*
X787048Y1019189D01*
X789189Y1017048D01*
X791811Y1015534D01*
X794736Y1014750D01*
X797764D01*
X800689Y1015534D01*
X803311Y1017048D01*
X805452Y1019189D01*
X806966Y1021811D01*
X807750Y1024736D01*
Y1027764D01*
X806966Y1030689D01*
X805452Y1033311D01*
X803311Y1035452D01*
X800689Y1036966D01*
X797764Y1037750D01*
D02*
G37*
G36*
X634227Y1007750D02*
X631273D01*
X628375Y1007174D01*
X625645Y1006043D01*
X623188Y1004401D01*
X621099Y1002312D01*
X619457Y999855D01*
X618326Y997125D01*
X617750Y994227D01*
Y991273D01*
X618326Y988375D01*
X619457Y985645D01*
X621099Y983188D01*
X623188Y981099D01*
X625645Y979457D01*
X628375Y978326D01*
X631273Y977750D01*
X634227D01*
X637125Y978326D01*
X639855Y979457D01*
X642312Y981099D01*
X644401Y983188D01*
X646043Y985645D01*
X647173Y988375D01*
X647750Y991273D01*
Y994227D01*
X647173Y997125D01*
X646043Y999855D01*
X644401Y1002312D01*
X642312Y1004401D01*
X639855Y1006043D01*
X637125Y1007174D01*
X634227Y1007750D01*
D02*
G37*
G36*
X584227D02*
X581273D01*
X578375Y1007174D01*
X575645Y1006043D01*
X573188Y1004401D01*
X571099Y1002312D01*
X569457Y999855D01*
X568326Y997125D01*
X567750Y994227D01*
Y991273D01*
X568326Y988375D01*
X569457Y985645D01*
X571099Y983188D01*
X573188Y981099D01*
X575645Y979457D01*
X578375Y978326D01*
X581273Y977750D01*
X584227D01*
X587125Y978326D01*
X589855Y979457D01*
X592312Y981099D01*
X594401Y983188D01*
X596043Y985645D01*
X597174Y988375D01*
X597750Y991273D01*
Y994227D01*
X597174Y997125D01*
X596043Y999855D01*
X594401Y1002312D01*
X592312Y1004401D01*
X589855Y1006043D01*
X587125Y1007174D01*
X584227Y1007750D01*
D02*
G37*
G36*
X534227D02*
X531273D01*
X528375Y1007174D01*
X525645Y1006043D01*
X523188Y1004401D01*
X521099Y1002312D01*
X519457Y999855D01*
X518326Y997125D01*
X517750Y994227D01*
Y991273D01*
X518326Y988375D01*
X519457Y985645D01*
X521099Y983188D01*
X523188Y981099D01*
X525645Y979457D01*
X528375Y978326D01*
X531273Y977750D01*
X534227D01*
X537125Y978326D01*
X539855Y979457D01*
X542312Y981099D01*
X544401Y983188D01*
X546043Y985645D01*
X547174Y988375D01*
X547750Y991273D01*
Y994227D01*
X547174Y997125D01*
X546043Y999855D01*
X544401Y1002312D01*
X542312Y1004401D01*
X539855Y1006043D01*
X537125Y1007174D01*
X534227Y1007750D01*
D02*
G37*
G36*
X938693Y981000D02*
X936307D01*
X934101Y980087D01*
X932413Y978399D01*
X931500Y976193D01*
Y973807D01*
X932413Y971601D01*
X934101Y969913D01*
X936307Y969000D01*
X938693D01*
X940899Y969913D01*
X942587Y971601D01*
X943500Y973807D01*
Y976193D01*
X942587Y978399D01*
X940899Y980087D01*
X938693Y981000D01*
D02*
G37*
G36*
X817843Y976500D02*
X814157D01*
X810596Y975546D01*
X807404Y973703D01*
X804797Y971096D01*
X802954Y967904D01*
X802000Y964343D01*
Y960657D01*
X802954Y957096D01*
X804797Y953904D01*
X807404Y951297D01*
X810596Y949454D01*
X814157Y948500D01*
X817843D01*
X821404Y949454D01*
X824596Y951297D01*
X827203Y953904D01*
X829046Y957096D01*
X830000Y960657D01*
Y964343D01*
X829046Y967904D01*
X827203Y971096D01*
X824596Y973703D01*
X821404Y975546D01*
X817843Y976500D01*
D02*
G37*
G36*
X767714Y931360D02*
X767548Y931338D01*
X767546Y931338D01*
X767533Y931336D01*
X767352Y931352D01*
X766872Y931267D01*
X766862Y931267D01*
X766836Y931260D01*
X766492Y931199D01*
X765625Y931085D01*
X765457Y931015D01*
X765278Y930984D01*
X764486Y930613D01*
X763679Y930279D01*
X763535Y930168D01*
X763370Y930091D01*
X762701Y929529D01*
X762008Y928997D01*
X761897Y928852D01*
X761758Y928735D01*
X761258Y928019D01*
X760726Y927325D01*
X760656Y927158D01*
X760552Y927008D01*
X760254Y926187D01*
X759920Y925379D01*
X759911Y925313D01*
X759457Y924721D01*
X758751Y923018D01*
X758511Y921191D01*
X758751Y919363D01*
X759457Y917661D01*
X759911Y917069D01*
X759920Y917002D01*
X760001Y916805D01*
X760041Y916594D01*
X760403Y915835D01*
X760726Y915056D01*
X760856Y914887D01*
X760948Y914694D01*
X761495Y914053D01*
X762008Y913385D01*
X762178Y913255D01*
X762317Y913092D01*
X763011Y912615D01*
X763679Y912103D01*
X763877Y912021D01*
X764053Y911900D01*
X764847Y911619D01*
X765625Y911297D01*
X765837Y911269D01*
X766039Y911198D01*
X766879Y911132D01*
X767714Y911022D01*
X767926Y911050D01*
X768139Y911033D01*
X770033Y911133D01*
X770121Y911150D01*
X771391Y910232D01*
Y895690D01*
X770584Y895187D01*
X770199Y895087D01*
X767993Y896000D01*
X765607D01*
X763401Y895087D01*
X761713Y893399D01*
X760800Y891193D01*
Y888807D01*
X761713Y886601D01*
X763401Y884913D01*
X765607Y884000D01*
X767993D01*
X770199Y884913D01*
X771235Y885949D01*
X772683Y885997D01*
X772874Y885919D01*
X772976Y885817D01*
X773480Y885288D01*
X773542Y885216D01*
X773591Y885172D01*
X773630Y885131D01*
X773683Y885088D01*
X774078Y884574D01*
X774211Y884472D01*
X774212Y884470D01*
X774221Y884464D01*
X774336Y884327D01*
X774737Y884047D01*
X774745Y884038D01*
X774771Y884023D01*
X775054Y883825D01*
X775749Y883292D01*
X775915Y883223D01*
X776062Y883120D01*
X776886Y882821D01*
X777695Y882486D01*
X777873Y882462D01*
X778042Y882401D01*
X778914Y882325D01*
X779783Y882211D01*
X779962Y882234D01*
X780141Y882219D01*
X781003Y882372D01*
X781872Y882486D01*
X782038Y882555D01*
X782215Y882586D01*
X783008Y882957D01*
X783818Y883292D01*
X783871Y883333D01*
X784610Y883430D01*
X786313Y884136D01*
X787775Y885258D01*
X788897Y886720D01*
X789603Y888423D01*
X789700Y889162D01*
X789741Y889215D01*
X789823Y889413D01*
X789944Y889589D01*
X790225Y890383D01*
X790547Y891161D01*
X790575Y891374D01*
X790646Y891575D01*
X790712Y892415D01*
X790822Y893250D01*
X790794Y893462D01*
X790811Y893675D01*
X790657Y894503D01*
X790547Y895338D01*
X790465Y895536D01*
X790426Y895746D01*
X790063Y896506D01*
X789741Y897284D01*
X789611Y897454D01*
X789519Y897647D01*
X788971Y898287D01*
X788459Y898956D01*
X788289Y899086D01*
X788150Y899249D01*
X786740Y900517D01*
X786046Y900993D01*
X785512Y901403D01*
Y918848D01*
X785271Y920675D01*
X784566Y922378D01*
X783444Y923840D01*
X781101Y926183D01*
X779639Y927305D01*
X777936Y928011D01*
X776108Y928251D01*
X775809D01*
X775329Y928880D01*
X775320Y928887D01*
X775313Y928897D01*
X774485Y929532D01*
X773662Y930167D01*
X773651Y930172D01*
X773642Y930179D01*
X772679Y930577D01*
X771718Y930979D01*
X771706Y930981D01*
X771696Y930985D01*
X770666Y931121D01*
X769631Y931260D01*
X769371Y931261D01*
X768641Y931278D01*
X768547Y931285D01*
X768481Y931281D01*
X768424Y931283D01*
X768356Y931275D01*
X767714Y931360D01*
D02*
G37*
G36*
X633477Y937500D02*
X630523D01*
X627625Y936924D01*
X624895Y935793D01*
X622438Y934151D01*
X620349Y932062D01*
X618707Y929605D01*
X617576Y926875D01*
X617000Y923977D01*
Y921023D01*
X617576Y918125D01*
X618707Y915395D01*
X620349Y912938D01*
X622438Y910849D01*
X624895Y909207D01*
X627625Y908076D01*
X630523Y907500D01*
X633477D01*
X636375Y908076D01*
X639105Y909207D01*
X641562Y910849D01*
X643651Y912938D01*
X645293Y915395D01*
X646423Y918125D01*
X647000Y921023D01*
Y923977D01*
X646423Y926875D01*
X645293Y929605D01*
X643651Y932062D01*
X641562Y934151D01*
X639105Y935793D01*
X636375Y936924D01*
X633477Y937500D01*
D02*
G37*
G36*
X533477D02*
X530523D01*
X527625Y936924D01*
X524895Y935793D01*
X522438Y934151D01*
X520349Y932062D01*
X518707Y929605D01*
X517576Y926875D01*
X517000Y923977D01*
Y921023D01*
X517576Y918125D01*
X518707Y915395D01*
X520349Y912938D01*
X522438Y910849D01*
X524895Y909207D01*
X527625Y908076D01*
X530523Y907500D01*
X533477D01*
X536375Y908076D01*
X539105Y909207D01*
X541562Y910849D01*
X543651Y912938D01*
X545293Y915395D01*
X546423Y918125D01*
X547000Y921023D01*
Y923977D01*
X546423Y926875D01*
X545293Y929605D01*
X543651Y932062D01*
X541562Y934151D01*
X539105Y935793D01*
X536375Y936924D01*
X533477Y937500D01*
D02*
G37*
G36*
X583477D02*
X580523D01*
X577625Y936924D01*
X574895Y935793D01*
X572438Y934151D01*
X570349Y932062D01*
X568707Y929605D01*
X567576Y926875D01*
X567000Y923977D01*
Y921023D01*
X567576Y918125D01*
X568382Y916180D01*
X568008Y915806D01*
X566886Y914344D01*
X566180Y912641D01*
X565940Y910814D01*
Y882765D01*
X566180Y880937D01*
X566886Y879234D01*
X568008Y877772D01*
X575022Y870758D01*
X576484Y869635D01*
X578187Y868930D01*
X580015Y868690D01*
X611325D01*
X617940Y862076D01*
Y730000D01*
X618180Y728173D01*
X618885Y726470D01*
X620008Y725008D01*
X665008Y680008D01*
X666470Y678885D01*
X668173Y678180D01*
X670000Y677940D01*
X732307D01*
X732738Y676670D01*
X732508Y676492D01*
X721772Y665757D01*
X720650Y664295D01*
X719945Y662592D01*
X719704Y660765D01*
Y599886D01*
X719945Y598059D01*
X720443Y596857D01*
X719471Y595885D01*
X719193Y596000D01*
X716806D01*
X714601Y595087D01*
X712914Y593399D01*
X712000Y591194D01*
Y588806D01*
X712914Y586601D01*
X714601Y584913D01*
X716806Y584000D01*
X719193D01*
X721399Y584913D01*
X723087Y586601D01*
X724000Y588806D01*
Y591194D01*
X723557Y592263D01*
X724529Y593236D01*
X724937Y593066D01*
X726765Y592826D01*
X728592Y593066D01*
X730295Y593772D01*
X731757Y594894D01*
X732879Y596356D01*
X733585Y598059D01*
X733825Y599886D01*
Y657840D01*
X740424Y664440D01*
X767549D01*
X768175Y663170D01*
X767542Y662344D01*
X766836Y660642D01*
X766596Y658814D01*
Y613094D01*
X766836Y611266D01*
X767542Y609563D01*
X768664Y608101D01*
X781758Y595008D01*
X783220Y593885D01*
X784923Y593180D01*
X786750Y592940D01*
X898000D01*
X899827Y593180D01*
X901530Y593885D01*
X902992Y595008D01*
X910992Y603008D01*
X912114Y604470D01*
X912820Y606173D01*
X913060Y608000D01*
X912820Y609827D01*
X912114Y611530D01*
X910992Y612992D01*
X909530Y614114D01*
X907827Y614820D01*
X906000Y615060D01*
X904956Y616204D01*
X905060Y617000D01*
X904820Y618827D01*
X904115Y620530D01*
X902992Y621992D01*
X901530Y623115D01*
X901178Y623260D01*
X899739Y624365D01*
X898036Y625070D01*
X896209Y625310D01*
X835424D01*
X828801Y631934D01*
X827339Y633056D01*
X826639Y633345D01*
X821810Y638175D01*
Y657731D01*
X823080Y658067D01*
X824347Y657096D01*
X826049Y656390D01*
X827877Y656150D01*
X874873D01*
X876701Y656390D01*
X878403Y657096D01*
X879866Y658218D01*
X921170Y699522D01*
X921587D01*
X921818Y699290D01*
X923281Y698168D01*
X924984Y697463D01*
X925126Y697444D01*
X926005Y697080D01*
X927832Y696840D01*
X929660Y697080D01*
X931363Y697785D01*
X932825Y698907D01*
X933947Y700370D01*
X934652Y702073D01*
X934893Y703900D01*
X934791Y704670D01*
X935884Y705940D01*
X936148D01*
X937976Y706180D01*
X939678Y706886D01*
X941141Y708008D01*
X944992Y711859D01*
X946115Y713322D01*
X946820Y715024D01*
X947060Y716852D01*
Y743300D01*
X946820Y745128D01*
X946115Y746831D01*
X944992Y748293D01*
X942060Y751225D01*
Y828502D01*
X942806Y829000D01*
X945193D01*
X947399Y829913D01*
X949087Y831601D01*
X950000Y833807D01*
Y836193D01*
X949087Y838399D01*
X947399Y840087D01*
X945193Y841000D01*
X942806D01*
X942060Y841498D01*
Y869902D01*
X942348Y870190D01*
X945367D01*
X947195Y870430D01*
X948897Y871135D01*
X950360Y872258D01*
X950742Y872640D01*
X951864Y874102D01*
X952570Y875805D01*
X952810Y877633D01*
X952570Y879460D01*
X951864Y881163D01*
X950742Y882625D01*
X949280Y883747D01*
X949098Y884426D01*
X949690Y885198D01*
X950396Y886900D01*
X950636Y888728D01*
X950396Y890555D01*
X949690Y892258D01*
X948568Y893720D01*
X947106Y894842D01*
X945403Y895547D01*
X943576Y895788D01*
X931080D01*
X929253Y895547D01*
X927550Y894842D01*
X926088Y893720D01*
X915007Y882640D01*
X913885Y881177D01*
X913180Y879474D01*
X912940Y877647D01*
Y871321D01*
X911670Y870406D01*
X911588Y870417D01*
X911535Y870458D01*
X911337Y870540D01*
X911161Y870661D01*
X910367Y870942D01*
X909589Y871264D01*
X909376Y871292D01*
X909175Y871363D01*
X908335Y871429D01*
X907500Y871539D01*
X907288Y871511D01*
X907075Y871528D01*
X906247Y871374D01*
X905412Y871264D01*
X905214Y871182D01*
X905004Y871143D01*
X904244Y870780D01*
X903466Y870458D01*
X903296Y870328D01*
X903103Y870236D01*
X902463Y869688D01*
X901795Y869176D01*
X901664Y869006D01*
X901501Y868867D01*
X900233Y867457D01*
X899757Y866763D01*
X899244Y866095D01*
X899162Y865897D01*
X899041Y865721D01*
X898760Y864927D01*
X898438Y864149D01*
X898410Y863936D01*
X898338Y863735D01*
X898273Y862895D01*
X898163Y862060D01*
X898191Y861848D01*
X898174Y861635D01*
X898249Y861234D01*
X897508Y860492D01*
X896385Y859030D01*
X895680Y857327D01*
X895440Y855500D01*
Y835424D01*
X889576Y829560D01*
X838864D01*
X838264Y830830D01*
X838820Y832173D01*
X839060Y834000D01*
X838820Y835827D01*
X838114Y837530D01*
X836992Y838992D01*
X836610Y839375D01*
X835148Y840497D01*
X833445Y841202D01*
X831617Y841443D01*
X825196D01*
X824286Y841820D01*
X823167Y841967D01*
X822906Y843282D01*
X825096Y844547D01*
X827703Y847154D01*
X829546Y850346D01*
X830500Y853907D01*
Y857593D01*
X829546Y861154D01*
X827703Y864346D01*
X825096Y866953D01*
X821904Y868796D01*
X818343Y869750D01*
X814657D01*
X811096Y868796D01*
X807904Y866953D01*
X805297Y864346D01*
X803454Y861154D01*
X802500Y857593D01*
Y853907D01*
X803454Y850346D01*
X805297Y847154D01*
X807904Y844547D01*
X810011Y843330D01*
X809671Y842060D01*
X775750D01*
X773923Y841820D01*
X772220Y841115D01*
X770758Y839993D01*
X752173Y821408D01*
X750755Y821786D01*
X750087Y823399D01*
X748399Y825087D01*
X746193Y826000D01*
X743807D01*
X741601Y825087D01*
X739913Y823399D01*
X739000Y821193D01*
Y818807D01*
X739913Y816601D01*
X741601Y814913D01*
X743362Y814184D01*
X743921Y812827D01*
X743885Y812780D01*
X743180Y811077D01*
X742940Y809250D01*
Y767500D01*
X743180Y765673D01*
X743885Y763970D01*
X745008Y762507D01*
X746470Y761385D01*
X748173Y760680D01*
X750000Y760440D01*
X751827Y760680D01*
X753530Y761385D01*
X754992Y762507D01*
X756115Y763970D01*
X756820Y765673D01*
X757060Y767500D01*
Y806326D01*
X778674Y827940D01*
X807144D01*
X807670Y826670D01*
X784508Y803507D01*
X783385Y802045D01*
X782680Y800342D01*
X782440Y798515D01*
Y730500D01*
X782680Y728673D01*
X783385Y726970D01*
X784508Y725508D01*
X801690Y708326D01*
Y703926D01*
X801385Y703530D01*
X800680Y701827D01*
X800440Y700000D01*
Y693924D01*
X791937Y685422D01*
X790860Y686141D01*
X791320Y687251D01*
X791560Y689078D01*
X791320Y690906D01*
X790614Y692608D01*
X789538Y694012D01*
X789521Y694042D01*
X789492Y694139D01*
X788997Y694955D01*
X788523Y695781D01*
X788452Y695853D01*
X788399Y695940D01*
X787710Y696599D01*
X787038Y697275D01*
X786951Y697326D01*
X786877Y697396D01*
X786042Y697854D01*
X785217Y698334D01*
X785119Y698360D01*
X785030Y698409D01*
X784104Y698635D01*
X783184Y698885D01*
X783083Y698885D01*
X782984Y698909D01*
X782030Y698888D01*
X781078Y698891D01*
X780980Y698865D01*
X780878Y698863D01*
X780642Y698794D01*
X780218Y698765D01*
X780128Y698765D01*
X780047Y698754D01*
X779967Y698748D01*
X779882Y698731D01*
X779454Y698672D01*
X778775Y698643D01*
X778415Y698529D01*
X778041Y698478D01*
X777864Y698404D01*
X777180Y699259D01*
X777089Y699455D01*
X777980Y701607D01*
Y703994D01*
X777066Y706199D01*
X775379Y707887D01*
X773174Y708801D01*
X770787D01*
X768581Y707887D01*
X766893Y706199D01*
X765980Y703994D01*
Y701607D01*
X766893Y699402D01*
X768581Y697714D01*
X770787Y696801D01*
X773173D01*
X774025Y695827D01*
X773565Y695326D01*
X773391Y694991D01*
X773163Y694691D01*
X773005Y694303D01*
X772203Y693688D01*
X770575Y692060D01*
X672924D01*
X632060Y732924D01*
Y865000D01*
X631820Y866827D01*
X631115Y868530D01*
X629992Y869992D01*
X626469Y873516D01*
X626955Y874690D01*
X639250D01*
X641077Y874930D01*
X642780Y875636D01*
X644242Y876758D01*
X673253Y905768D01*
X674036Y905663D01*
X674048Y905664D01*
X674060Y905663D01*
X675097Y905799D01*
X676126Y905932D01*
X676137Y905936D01*
X676149Y905938D01*
X677115Y906338D01*
X678074Y906732D01*
X678084Y906739D01*
X678095Y906744D01*
X678925Y907381D01*
X679749Y908009D01*
X679933Y908193D01*
X680462Y908697D01*
X680534Y908759D01*
X680578Y908808D01*
X680619Y908847D01*
X680662Y908900D01*
X681176Y909295D01*
X681278Y909428D01*
X681280Y909429D01*
X681286Y909438D01*
X681423Y909553D01*
X681703Y909954D01*
X681712Y909962D01*
X681727Y909988D01*
X681925Y910271D01*
X682458Y910966D01*
X682527Y911132D01*
X682630Y911280D01*
X682929Y912103D01*
X683264Y912912D01*
X683288Y913090D01*
X683349Y913259D01*
X683425Y914132D01*
X683539Y915000D01*
X683515Y915179D01*
X683531Y915358D01*
X683379Y916220D01*
X683264Y917089D01*
X683195Y917255D01*
X683164Y917432D01*
X682793Y918225D01*
X682458Y919035D01*
X682417Y919088D01*
X682320Y919827D01*
X681615Y921530D01*
X680492Y922992D01*
X679030Y924115D01*
X677327Y924820D01*
X676588Y924917D01*
X676535Y924958D01*
X676337Y925040D01*
X676161Y925161D01*
X675367Y925442D01*
X674589Y925764D01*
X674376Y925792D01*
X674175Y925863D01*
X673335Y925929D01*
X672500Y926039D01*
X672288Y926011D01*
X672075Y926028D01*
X671246Y925874D01*
X670412Y925764D01*
X670214Y925682D01*
X670004Y925643D01*
X669244Y925280D01*
X668466Y924958D01*
X668296Y924828D01*
X668103Y924735D01*
X667463Y924188D01*
X666795Y923676D01*
X666664Y923506D01*
X666501Y923367D01*
X665233Y921957D01*
X664757Y921263D01*
X664244Y920595D01*
X664162Y920397D01*
X664041Y920221D01*
X663760Y919427D01*
X663438Y918649D01*
X663410Y918437D01*
X663338Y918235D01*
X663273Y917395D01*
X663163Y916560D01*
X663191Y916348D01*
X663174Y916135D01*
X663249Y915733D01*
X636325Y888810D01*
X592060D01*
Y896505D01*
X591820Y898333D01*
X591115Y900036D01*
X589992Y901498D01*
X588530Y902620D01*
X586827Y903325D01*
X585000Y903566D01*
X583173Y903325D01*
X581470Y902620D01*
X581199Y902412D01*
X580060Y902974D01*
Y907121D01*
X580523Y907500D01*
X583477D01*
X586375Y908076D01*
X589105Y909207D01*
X591562Y910849D01*
X593651Y912938D01*
X595293Y915395D01*
X596423Y918125D01*
X597000Y921023D01*
Y923977D01*
X596423Y926875D01*
X595293Y929605D01*
X593651Y932062D01*
X591562Y934151D01*
X589105Y935793D01*
X586375Y936924D01*
X583477Y937500D01*
D02*
G37*
G36*
X757293Y912111D02*
X754907D01*
X752701Y911198D01*
X751013Y909510D01*
X750100Y907304D01*
Y904917D01*
X751013Y902712D01*
X752701Y901024D01*
X754907Y900111D01*
X757293D01*
X759499Y901024D01*
X761187Y902712D01*
X762100Y904917D01*
Y907304D01*
X761187Y909510D01*
X759499Y911198D01*
X757293Y912111D01*
D02*
G37*
G36*
X678693Y885250D02*
X676307D01*
X674101Y884336D01*
X672413Y882649D01*
X671937Y881499D01*
X670563D01*
X670087Y882649D01*
X668399Y884336D01*
X666193Y885250D01*
X663807D01*
X661601Y884336D01*
X659913Y882649D01*
X659000Y880443D01*
Y878056D01*
X659913Y875851D01*
X661515Y874250D01*
X659913Y872649D01*
X659000Y870443D01*
Y868056D01*
X659913Y865851D01*
X661515Y864250D01*
X659913Y862649D01*
X659000Y860443D01*
Y858056D01*
X659913Y855851D01*
X661140Y854625D01*
X659913Y853399D01*
X659000Y851193D01*
Y848807D01*
X659913Y846601D01*
X661601Y844913D01*
X663807Y844000D01*
X666193D01*
X668399Y844913D01*
X670087Y846601D01*
X670563Y847751D01*
X671937D01*
X672413Y846601D01*
X674101Y844913D01*
X676307Y844000D01*
X678693D01*
X680899Y844913D01*
X682587Y846601D01*
X683500Y848807D01*
Y851193D01*
X682587Y853399D01*
X681360Y854625D01*
X682587Y855851D01*
X683500Y858056D01*
Y860443D01*
X682587Y862649D01*
X680985Y864250D01*
X682587Y865851D01*
X683500Y868056D01*
Y870443D01*
X682587Y872649D01*
X680985Y874250D01*
X682587Y875851D01*
X683500Y878056D01*
Y880443D01*
X682587Y882649D01*
X680899Y884336D01*
X678693Y885250D01*
D02*
G37*
G36*
X1190193Y1020000D02*
X1187806D01*
X1185601Y1019087D01*
X1183913Y1017399D01*
X1183000Y1015193D01*
Y1013069D01*
X985000D01*
X982912Y1012794D01*
X980965Y1011988D01*
X979294Y1010706D01*
X978012Y1009035D01*
X977206Y1007088D01*
X976931Y1005000D01*
Y895000D01*
X977206Y892912D01*
X978012Y890965D01*
X979294Y889294D01*
X980965Y888012D01*
X982912Y887206D01*
X985000Y886931D01*
X1114000D01*
Y885807D01*
X1114913Y883601D01*
X1116601Y881914D01*
X1118807Y881000D01*
X1121193D01*
X1123399Y881914D01*
X1125087Y883601D01*
X1126000Y885807D01*
Y886931D01*
X1319802D01*
X1320970Y886874D01*
X1323452Y886380D01*
X1325606Y885488D01*
X1327544Y884193D01*
X1329193Y882544D01*
X1330488Y880606D01*
X1331380Y878452D01*
X1331874Y875970D01*
X1331931Y874802D01*
Y869369D01*
X1331496Y869074D01*
X1330661Y868872D01*
X1328092Y871441D01*
X1327855Y871622D01*
X1327794Y872088D01*
X1326988Y874035D01*
X1325706Y875706D01*
X1324034Y876988D01*
X1322088Y877794D01*
X1320000Y878069D01*
X1313407D01*
X1313181Y878114D01*
X1312392Y878166D01*
X1311607Y878269D01*
X1309637D01*
X1309455Y878245D01*
X1309271Y878261D01*
X1308413Y878108D01*
X1308119Y878069D01*
X1188000D01*
Y879193D01*
X1187087Y881399D01*
X1185399Y883086D01*
X1183194Y884000D01*
X1180807D01*
X1178601Y883086D01*
X1176913Y881399D01*
X1176000Y879193D01*
Y878069D01*
X980000D01*
X977912Y877794D01*
X975965Y876988D01*
X974294Y875706D01*
X973012Y874035D01*
X972206Y872088D01*
X971931Y870000D01*
Y760000D01*
X972206Y757912D01*
X973012Y755965D01*
X974294Y754294D01*
X975965Y753012D01*
X977912Y752206D01*
X980000Y751931D01*
X1117735D01*
X1117988Y750661D01*
X1116601Y750087D01*
X1114913Y748399D01*
X1114000Y746193D01*
Y743807D01*
X1114913Y741601D01*
X1116601Y739913D01*
X1118807Y739000D01*
X1121193D01*
X1123399Y739913D01*
X1125087Y741601D01*
X1126000Y743807D01*
Y746193D01*
X1125087Y748399D01*
X1123399Y750087D01*
X1122012Y750661D01*
X1122265Y751931D01*
X1320000D01*
X1321519Y752131D01*
X1329440D01*
X1330117Y752098D01*
X1331638Y751795D01*
X1332886Y751278D01*
X1334010Y750527D01*
X1334965Y749572D01*
X1335715Y748449D01*
X1336233Y747200D01*
X1336535Y745680D01*
X1336568Y745002D01*
Y743723D01*
X1336672Y742938D01*
X1336723Y742148D01*
X1337300Y739250D01*
X1337554Y738501D01*
X1337759Y737737D01*
X1338890Y735007D01*
X1339285Y734322D01*
X1339635Y733612D01*
X1341277Y731155D01*
X1341799Y730560D01*
X1342280Y729932D01*
X1344370Y727843D01*
X1344998Y727361D01*
X1345593Y726840D01*
X1348049Y725198D01*
X1348759Y724848D01*
X1349444Y724452D01*
X1352174Y723322D01*
X1352939Y723117D01*
X1353688Y722862D01*
X1356586Y722286D01*
X1357375Y722234D01*
X1358160Y722131D01*
X1397100D01*
X1397884Y722234D01*
X1398674Y722286D01*
X1403504Y723247D01*
X1404253Y723501D01*
X1405018Y723706D01*
X1409567Y725590D01*
X1410253Y725986D01*
X1410962Y726336D01*
X1415057Y729072D01*
X1415652Y729594D01*
X1416280Y730076D01*
X1419762Y733558D01*
X1420244Y734185D01*
X1420765Y734780D01*
X1423501Y738875D01*
X1423851Y739585D01*
X1424247Y740270D01*
X1426131Y744820D01*
X1426336Y745584D01*
X1426591Y746333D01*
X1427552Y751163D01*
X1427603Y751953D01*
X1427706Y752738D01*
Y755200D01*
Y772170D01*
X1427603Y772954D01*
X1427552Y773744D01*
X1426783Y777608D01*
X1426528Y778357D01*
X1426324Y779122D01*
X1424816Y782761D01*
X1424420Y783447D01*
X1424070Y784156D01*
X1421882Y787432D01*
X1421360Y788027D01*
X1420878Y788655D01*
X1418092Y791441D01*
X1417464Y791923D01*
X1416870Y792444D01*
X1413594Y794633D01*
X1412884Y794983D01*
X1412199Y795378D01*
X1408559Y796886D01*
X1407795Y797091D01*
X1407045Y797345D01*
X1403181Y798114D01*
X1402392Y798166D01*
X1401607Y798269D01*
X1355235D01*
X1353538Y798352D01*
X1350018Y799053D01*
X1346886Y800350D01*
X1344068Y802233D01*
X1341671Y804630D01*
X1339787Y807449D01*
X1338490Y810580D01*
X1337838Y813860D01*
X1338390Y814245D01*
X1339048Y814380D01*
X1339394Y813985D01*
X1339876Y813358D01*
X1343358Y809876D01*
X1343986Y809394D01*
X1344581Y808872D01*
X1348675Y806136D01*
X1349385Y805786D01*
X1350070Y805390D01*
X1354620Y803506D01*
X1355384Y803301D01*
X1356134Y803047D01*
X1360963Y802086D01*
X1361753Y802034D01*
X1362538Y801931D01*
X1404999D01*
X1406477Y801931D01*
X1407262Y802034D01*
X1408051Y802086D01*
X1410949Y802662D01*
X1411699Y802917D01*
X1412463Y803121D01*
X1415193Y804252D01*
X1415878Y804648D01*
X1416588Y804998D01*
X1419045Y806639D01*
X1419640Y807161D01*
X1420268Y807643D01*
X1422357Y809732D01*
X1422839Y810360D01*
X1423361Y810955D01*
X1425002Y813412D01*
X1425352Y814121D01*
X1425748Y814807D01*
X1426879Y817537D01*
X1427083Y818301D01*
X1427338Y819051D01*
X1427914Y821949D01*
X1427966Y822738D01*
X1428069Y823523D01*
X1428069Y825001D01*
X1428069Y869600D01*
X1428069Y869600D01*
X1428069Y872102D01*
X1427966Y872886D01*
X1427914Y873676D01*
X1426938Y878583D01*
X1426684Y879333D01*
X1426479Y880097D01*
X1424564Y884719D01*
X1424169Y885405D01*
X1423819Y886114D01*
X1421039Y890275D01*
X1420517Y890870D01*
X1420035Y891497D01*
X1416497Y895035D01*
X1415869Y895517D01*
X1415275Y896039D01*
X1411114Y898819D01*
X1410405Y899169D01*
X1409719Y899564D01*
X1405097Y901479D01*
X1404332Y901684D01*
X1403583Y901938D01*
X1398676Y902914D01*
X1397886Y902966D01*
X1397101Y903069D01*
X1394600Y903069D01*
X1384064D01*
X1381391Y903157D01*
X1375963Y903871D01*
X1370802Y905254D01*
X1365866Y907299D01*
X1361239Y909970D01*
X1357000Y913223D01*
X1353222Y917001D01*
X1349970Y921239D01*
X1347298Y925866D01*
X1345254Y930802D01*
X1343871Y935963D01*
X1343156Y941391D01*
X1343069Y944063D01*
X1343069Y990000D01*
X1343069Y990003D01*
X1343069Y991477D01*
X1342965Y992262D01*
X1342914Y993051D01*
X1342337Y995949D01*
X1342083Y996698D01*
X1341878Y997463D01*
X1340748Y1000193D01*
X1340352Y1000878D01*
X1340002Y1001588D01*
X1338360Y1004045D01*
X1337839Y1004640D01*
X1337357Y1005267D01*
X1335268Y1007357D01*
X1334640Y1007839D01*
X1334045Y1008360D01*
X1331588Y1010002D01*
X1331037Y1010274D01*
X1330706Y1010706D01*
X1329034Y1011988D01*
X1327088Y1012794D01*
X1325000Y1013069D01*
X1321477D01*
X1321477Y1013069D01*
X1320000Y1013069D01*
X1310000Y1013069D01*
X1310000Y1013069D01*
X1195000D01*
Y1015193D01*
X1194087Y1017399D01*
X1192399Y1019087D01*
X1190193Y1020000D01*
D02*
G37*
G36*
X582664Y865150D02*
X578336D01*
X574060Y864473D01*
X569944Y863135D01*
X566087Y861170D01*
X562585Y858626D01*
X559524Y855565D01*
X556980Y852063D01*
X555015Y848206D01*
X553677Y844090D01*
X553000Y839814D01*
Y835486D01*
X553677Y831210D01*
X555015Y827094D01*
X556980Y823237D01*
X559524Y819735D01*
X562585Y816674D01*
X566087Y814130D01*
X569944Y812165D01*
X574060Y810827D01*
X578336Y810150D01*
X582664D01*
X586940Y810827D01*
X591056Y812165D01*
X594913Y814130D01*
X598415Y816674D01*
X601476Y819735D01*
X604020Y823237D01*
X605985Y827094D01*
X607323Y831210D01*
X608000Y835486D01*
Y839814D01*
X607323Y844090D01*
X605985Y848206D01*
X604020Y852063D01*
X601476Y855565D01*
X598415Y858626D01*
X594913Y861170D01*
X591056Y863135D01*
X586940Y864473D01*
X582664Y865150D01*
D02*
G37*
G36*
Y788950D02*
X578336D01*
X574060Y788273D01*
X569944Y786935D01*
X566087Y784970D01*
X562585Y782426D01*
X559524Y779365D01*
X556980Y775863D01*
X555015Y772006D01*
X553677Y767890D01*
X553000Y763614D01*
Y759286D01*
X553677Y755010D01*
X555015Y750894D01*
X556980Y747037D01*
X559524Y743535D01*
X562585Y740474D01*
X566087Y737930D01*
X569944Y735965D01*
X574060Y734627D01*
X578336Y733950D01*
X582664D01*
X586940Y734627D01*
X591056Y735965D01*
X594913Y737930D01*
X598415Y740474D01*
X601476Y743535D01*
X604020Y747037D01*
X605985Y750894D01*
X607323Y755010D01*
X608000Y759286D01*
Y763614D01*
X607323Y767890D01*
X605985Y772006D01*
X604020Y775863D01*
X601476Y779365D01*
X598415Y782426D01*
X594913Y784970D01*
X591056Y786935D01*
X586940Y788273D01*
X582664Y788950D01*
D02*
G37*
G36*
X778693Y726000D02*
X776307D01*
X774101Y725087D01*
X772413Y723399D01*
X771500Y721193D01*
Y718807D01*
X772413Y716601D01*
X774101Y714913D01*
X776307Y714000D01*
X778693D01*
X780899Y714913D01*
X782587Y716601D01*
X783500Y718807D01*
Y721193D01*
X782587Y723399D01*
X780899Y725087D01*
X778693Y726000D01*
D02*
G37*
G36*
X926193Y693500D02*
X923807D01*
X921601Y692587D01*
X919913Y690899D01*
X919000Y688693D01*
Y686307D01*
X919913Y684101D01*
X921601Y682413D01*
X923807Y681500D01*
X926193D01*
X928399Y682413D01*
X930087Y684101D01*
X931000Y686307D01*
Y688693D01*
X930087Y690899D01*
X928399Y692587D01*
X926193Y693500D01*
D02*
G37*
G36*
X582664Y712750D02*
X578336D01*
X574060Y712073D01*
X569944Y710735D01*
X566087Y708770D01*
X562585Y706226D01*
X559524Y703165D01*
X556980Y699663D01*
X555015Y695806D01*
X553677Y691690D01*
X553000Y687414D01*
Y683086D01*
X553677Y678810D01*
X555015Y674694D01*
X556980Y670837D01*
X559524Y667335D01*
X562585Y664274D01*
X566087Y661730D01*
X569944Y659765D01*
X574060Y658427D01*
X578336Y657750D01*
X582664D01*
X586940Y658427D01*
X591056Y659765D01*
X594913Y661730D01*
X598415Y664274D01*
X601476Y667335D01*
X604020Y670837D01*
X605985Y674694D01*
X607323Y678810D01*
X608000Y683086D01*
Y687414D01*
X607323Y691690D01*
X605985Y695806D01*
X604020Y699663D01*
X601476Y703165D01*
X598415Y706226D01*
X594913Y708770D01*
X591056Y710735D01*
X586940Y712073D01*
X582664Y712750D01*
D02*
G37*
G36*
X694193Y613000D02*
X691806D01*
X689601Y612087D01*
X687914Y610399D01*
X687000Y608194D01*
Y605807D01*
X687914Y603601D01*
X689601Y601913D01*
X691806Y601000D01*
X694193D01*
X696399Y601913D01*
X698087Y603601D01*
X699000Y605807D01*
Y608194D01*
X698087Y610399D01*
X696399Y612087D01*
X694193Y613000D01*
D02*
G37*
G36*
X1193693Y736000D02*
X1191307D01*
X1189101Y735087D01*
X1187413Y733399D01*
X1186500Y731193D01*
Y728807D01*
X1186007Y728069D01*
X985000D01*
X982912Y727794D01*
X980965Y726988D01*
X979294Y725706D01*
X978012Y724035D01*
X977206Y722088D01*
X976931Y720000D01*
Y610000D01*
X977206Y607912D01*
X978012Y605965D01*
X979294Y604294D01*
X980965Y603012D01*
X982912Y602206D01*
X985000Y601931D01*
X1117000D01*
Y600807D01*
X1117913Y598601D01*
X1119601Y596913D01*
X1121806Y596000D01*
X1124193D01*
X1126399Y596913D01*
X1128086Y598601D01*
X1129000Y600807D01*
Y601931D01*
X1325000D01*
X1327088Y602206D01*
X1329034Y603012D01*
X1330706Y604294D01*
X1331988Y605965D01*
X1332794Y607912D01*
X1333069Y610000D01*
Y641931D01*
X1357676D01*
X1357929Y640661D01*
X1355281Y639564D01*
X1354595Y639168D01*
X1353886Y638818D01*
X1349725Y636039D01*
X1349131Y635517D01*
X1348503Y635035D01*
X1344965Y631497D01*
X1344483Y630869D01*
X1343961Y630275D01*
X1341182Y626114D01*
X1340832Y625405D01*
X1340436Y624719D01*
X1338521Y620097D01*
X1338316Y619332D01*
X1338062Y618583D01*
X1337086Y613676D01*
X1337034Y612886D01*
X1336931Y612102D01*
X1336931Y609600D01*
Y605198D01*
X1336874Y604030D01*
X1336380Y601548D01*
X1335488Y599394D01*
X1334193Y597456D01*
X1332544Y595807D01*
X1330606Y594512D01*
X1328452Y593620D01*
X1325970Y593126D01*
X1324802Y593069D01*
X1189000D01*
Y595193D01*
X1188086Y597399D01*
X1186399Y599087D01*
X1184193Y600000D01*
X1181806D01*
X1179601Y599087D01*
X1177913Y597399D01*
X1177000Y595193D01*
Y593069D01*
X985000D01*
X982912Y592794D01*
X980965Y591988D01*
X979294Y590706D01*
X978012Y589035D01*
X977206Y587088D01*
X976931Y585000D01*
Y475000D01*
X977206Y472912D01*
X978012Y470965D01*
X979294Y469294D01*
X980965Y468012D01*
X982912Y467206D01*
X985000Y466931D01*
X1117735D01*
X1117988Y465661D01*
X1116601Y465087D01*
X1114913Y463399D01*
X1114000Y461194D01*
Y458806D01*
X1114913Y456601D01*
X1116601Y454913D01*
X1118807Y454000D01*
X1121193D01*
X1123399Y454913D01*
X1125087Y456601D01*
X1126000Y458806D01*
Y461194D01*
X1125087Y463399D01*
X1123399Y465087D01*
X1122012Y465661D01*
X1122265Y466931D01*
X1320000D01*
X1321970Y466931D01*
X1321970Y466931D01*
X1325000D01*
X1327088Y467206D01*
X1329034Y468012D01*
X1330021Y468769D01*
X1332561Y469821D01*
X1333247Y470217D01*
X1333956Y470567D01*
X1337232Y472756D01*
X1337827Y473278D01*
X1338455Y473759D01*
X1341241Y476545D01*
X1341723Y477173D01*
X1342244Y477768D01*
X1344433Y481043D01*
X1344783Y481753D01*
X1345179Y482439D01*
X1346686Y486078D01*
X1346891Y486843D01*
X1347146Y487592D01*
X1347914Y491456D01*
X1347966Y492246D01*
X1348069Y493030D01*
X1348069Y495000D01*
X1348069Y514900D01*
X1348132Y517449D01*
X1348641Y522618D01*
X1349635Y527616D01*
X1351114Y532492D01*
X1353064Y537199D01*
X1355466Y541693D01*
X1358296Y545929D01*
X1361529Y549868D01*
X1365132Y553471D01*
X1369070Y556704D01*
X1373307Y559534D01*
X1377800Y561936D01*
X1382508Y563886D01*
X1387384Y565365D01*
X1392381Y566359D01*
X1397551Y566868D01*
X1400098Y566931D01*
X1405000Y566931D01*
X1405984Y566931D01*
X1406769Y567034D01*
X1407559Y567086D01*
X1409491Y567470D01*
X1410241Y567725D01*
X1411005Y567929D01*
X1412825Y568683D01*
X1413510Y569079D01*
X1414220Y569429D01*
X1415858Y570523D01*
X1416453Y571045D01*
X1417080Y571527D01*
X1418473Y572920D01*
X1418955Y573547D01*
X1419477Y574142D01*
X1420571Y575780D01*
X1420921Y576490D01*
X1421317Y577175D01*
X1422071Y578995D01*
X1422275Y579760D01*
X1422530Y580509D01*
X1422914Y582441D01*
X1422966Y583231D01*
X1423069Y584015D01*
X1423069Y585000D01*
X1423069Y625000D01*
X1423069Y625001D01*
X1423069Y625985D01*
X1422966Y626769D01*
X1422914Y627559D01*
X1422530Y629491D01*
X1422275Y630240D01*
X1422071Y631005D01*
X1421317Y632825D01*
X1420921Y633510D01*
X1420571Y634220D01*
X1419477Y635858D01*
X1418955Y636453D01*
X1418473Y637080D01*
X1417080Y638473D01*
X1416453Y638955D01*
X1415858Y639477D01*
X1414220Y640571D01*
X1413510Y640921D01*
X1412825Y641317D01*
X1412293Y641537D01*
X1412406Y642829D01*
X1412420Y642859D01*
X1413157Y643109D01*
X1413922Y643314D01*
X1417561Y644821D01*
X1418247Y645217D01*
X1418956Y645567D01*
X1422232Y647756D01*
X1422827Y648278D01*
X1423455Y648759D01*
X1426241Y651545D01*
X1426723Y652173D01*
X1427244Y652768D01*
X1429433Y656043D01*
X1429783Y656753D01*
X1430179Y657439D01*
X1431686Y661078D01*
X1431891Y661843D01*
X1432145Y662592D01*
X1432914Y666456D01*
X1432966Y667246D01*
X1433069Y668030D01*
Y670000D01*
Y696477D01*
X1432966Y697262D01*
X1432914Y698052D01*
X1432338Y700950D01*
X1432083Y701699D01*
X1431878Y702463D01*
X1430748Y705193D01*
X1430352Y705879D01*
X1430002Y706588D01*
X1428360Y709045D01*
X1427839Y709640D01*
X1427357Y710268D01*
X1425268Y712357D01*
X1424640Y712839D01*
X1424045Y713360D01*
X1421588Y715002D01*
X1420878Y715352D01*
X1420193Y715748D01*
X1417463Y716878D01*
X1416699Y717083D01*
X1415950Y717338D01*
X1413052Y717914D01*
X1412262Y717966D01*
X1411477Y718069D01*
X1333069D01*
Y720000D01*
X1332794Y722088D01*
X1331988Y724035D01*
X1330706Y725706D01*
X1329034Y726988D01*
X1327088Y727794D01*
X1325000Y728069D01*
X1198993D01*
X1198500Y728807D01*
Y731193D01*
X1197587Y733399D01*
X1195899Y735087D01*
X1193693Y736000D01*
D02*
G37*
G36*
X582664Y636550D02*
X578336D01*
X574060Y635873D01*
X569944Y634535D01*
X566087Y632570D01*
X562585Y630026D01*
X559524Y626965D01*
X556980Y623463D01*
X555015Y619606D01*
X553677Y615490D01*
X553000Y611214D01*
Y606886D01*
X553677Y602610D01*
X555015Y598494D01*
X556980Y594637D01*
X559524Y591135D01*
X562585Y588074D01*
X566087Y585530D01*
X569944Y583565D01*
X574060Y582227D01*
X578336Y581550D01*
X582664D01*
X586940Y582227D01*
X591056Y583565D01*
X594913Y585530D01*
X598415Y588074D01*
X601476Y591135D01*
X604020Y594637D01*
X605985Y598494D01*
X607323Y602610D01*
X608000Y606886D01*
Y611214D01*
X607323Y615490D01*
X605985Y619606D01*
X604020Y623463D01*
X601476Y626965D01*
X598415Y630026D01*
X594913Y632570D01*
X591056Y634535D01*
X586940Y635873D01*
X582664Y636550D01*
D02*
G37*
G36*
X926475Y561400D02*
X924088D01*
X921883Y560487D01*
X920195Y558799D01*
X919282Y556594D01*
Y554207D01*
X920195Y552001D01*
X921883Y550313D01*
X924088Y549400D01*
X926475D01*
X928680Y550313D01*
X930368Y552001D01*
X931282Y554207D01*
Y556594D01*
X930368Y558799D01*
X928680Y560487D01*
X926475Y561400D01*
D02*
G37*
G36*
X832194Y523000D02*
X829807D01*
X827601Y522087D01*
X825913Y520399D01*
X825000Y518194D01*
Y515807D01*
X825913Y513601D01*
X827601Y511913D01*
X829807Y511000D01*
X832194D01*
X834399Y511913D01*
X836087Y513601D01*
X837000Y515807D01*
Y518194D01*
X836087Y520399D01*
X834399Y522087D01*
X832194Y523000D01*
D02*
G37*
G36*
X633477Y540000D02*
X630523D01*
X627625Y539423D01*
X624895Y538293D01*
X622438Y536651D01*
X620349Y534562D01*
X618707Y532105D01*
X617576Y529375D01*
X617000Y526477D01*
Y523523D01*
X617576Y520625D01*
X618707Y517895D01*
X620349Y515438D01*
X622438Y513349D01*
X624895Y511707D01*
X627625Y510576D01*
X630523Y510000D01*
X633477D01*
X636375Y510576D01*
X639105Y511707D01*
X641562Y513349D01*
X643651Y515438D01*
X645293Y517895D01*
X646423Y520625D01*
X647000Y523523D01*
Y526477D01*
X646423Y529375D01*
X645293Y532105D01*
X643651Y534562D01*
X641562Y536651D01*
X639105Y538293D01*
X636375Y539423D01*
X633477Y540000D01*
D02*
G37*
G36*
X583477D02*
X580523D01*
X577625Y539423D01*
X574895Y538293D01*
X572438Y536651D01*
X570349Y534562D01*
X568707Y532105D01*
X567576Y529375D01*
X567000Y526477D01*
Y523523D01*
X567576Y520625D01*
X568707Y517895D01*
X570349Y515438D01*
X572438Y513349D01*
X574895Y511707D01*
X577625Y510576D01*
X580523Y510000D01*
X583477D01*
X586375Y510576D01*
X589105Y511707D01*
X591562Y513349D01*
X593651Y515438D01*
X595293Y517895D01*
X596423Y520625D01*
X597000Y523523D01*
Y526477D01*
X596423Y529375D01*
X595293Y532105D01*
X593651Y534562D01*
X591562Y536651D01*
X589105Y538293D01*
X586375Y539423D01*
X583477Y540000D01*
D02*
G37*
G36*
X533477D02*
X530523D01*
X527625Y539423D01*
X524895Y538293D01*
X522438Y536651D01*
X520349Y534562D01*
X518707Y532105D01*
X517576Y529375D01*
X517000Y526477D01*
Y523523D01*
X517576Y520625D01*
X518707Y517895D01*
X520349Y515438D01*
X522438Y513349D01*
X524895Y511707D01*
X527625Y510576D01*
X530523Y510000D01*
X533477D01*
X536375Y510576D01*
X539105Y511707D01*
X541562Y513349D01*
X543651Y515438D01*
X545293Y517895D01*
X546423Y520625D01*
X547000Y523523D01*
Y526477D01*
X546423Y529375D01*
X545293Y532105D01*
X543651Y534562D01*
X541562Y536651D01*
X539105Y538293D01*
X536375Y539423D01*
X533477Y540000D01*
D02*
G37*
G36*
X736193Y493500D02*
X733807D01*
X731601Y492587D01*
X729913Y490899D01*
X729000Y488694D01*
Y486306D01*
X729913Y484101D01*
X731601Y482413D01*
X733807Y481500D01*
X736193D01*
X738399Y482413D01*
X740087Y484101D01*
X741000Y486306D01*
Y488694D01*
X740087Y490899D01*
X738399Y492587D01*
X736193Y493500D01*
D02*
G37*
G36*
X1363694Y483500D02*
X1361306D01*
X1359101Y482587D01*
X1357413Y480899D01*
X1356500Y478694D01*
Y476306D01*
X1357413Y474101D01*
X1359101Y472413D01*
X1361306Y471500D01*
X1363694D01*
X1365899Y472413D01*
X1367587Y474101D01*
X1368500Y476306D01*
Y478694D01*
X1367587Y480899D01*
X1365899Y482587D01*
X1363694Y483500D01*
D02*
G37*
G36*
X633977Y470250D02*
X631023D01*
X628125Y469674D01*
X625395Y468543D01*
X622938Y466901D01*
X620849Y464812D01*
X619207Y462355D01*
X618077Y459625D01*
X617500Y456727D01*
Y453773D01*
X618077Y450875D01*
X619207Y448145D01*
X620849Y445688D01*
X622938Y443599D01*
X625395Y441957D01*
X628125Y440826D01*
X631023Y440250D01*
X633977D01*
X636875Y440826D01*
X639605Y441957D01*
X642062Y443599D01*
X644151Y445688D01*
X645793Y448145D01*
X646924Y450875D01*
X647500Y453773D01*
Y456727D01*
X646924Y459625D01*
X645793Y462355D01*
X644151Y464812D01*
X642062Y466901D01*
X639605Y468543D01*
X636875Y469674D01*
X633977Y470250D01*
D02*
G37*
G36*
X583977D02*
X581023D01*
X578125Y469674D01*
X575395Y468543D01*
X572938Y466901D01*
X570849Y464812D01*
X569207Y462355D01*
X568077Y459625D01*
X567500Y456727D01*
Y453773D01*
X568077Y450875D01*
X569207Y448145D01*
X570849Y445688D01*
X572938Y443599D01*
X575395Y441957D01*
X578125Y440826D01*
X581023Y440250D01*
X583977D01*
X586875Y440826D01*
X589605Y441957D01*
X592062Y443599D01*
X594151Y445688D01*
X595793Y448145D01*
X596923Y450875D01*
X597500Y453773D01*
Y456727D01*
X596923Y459625D01*
X595793Y462355D01*
X594151Y464812D01*
X592062Y466901D01*
X589605Y468543D01*
X586875Y469674D01*
X583977Y470250D01*
D02*
G37*
G36*
X533977D02*
X531023D01*
X528125Y469674D01*
X525395Y468543D01*
X522938Y466901D01*
X520849Y464812D01*
X519207Y462355D01*
X518077Y459625D01*
X517500Y456727D01*
Y453773D01*
X518077Y450875D01*
X519207Y448145D01*
X520849Y445688D01*
X522938Y443599D01*
X525395Y441957D01*
X528125Y440826D01*
X531023Y440250D01*
X533977D01*
X536875Y440826D01*
X539605Y441957D01*
X542062Y443599D01*
X544151Y445688D01*
X545793Y448145D01*
X546923Y450875D01*
X547500Y453773D01*
Y456727D01*
X546923Y459625D01*
X545793Y462355D01*
X544151Y464812D01*
X542062Y466901D01*
X539605Y468543D01*
X536875Y469674D01*
X533977Y470250D01*
D02*
G37*
G36*
X1125944Y438250D02*
X1123557D01*
X1121351Y437337D01*
X1119750Y435735D01*
X1118149Y437337D01*
X1115944Y438250D01*
X1113557D01*
X1111351Y437337D01*
X1109750Y435735D01*
X1108149Y437337D01*
X1105944Y438250D01*
X1103557D01*
X1101351Y437337D01*
X1099663Y435649D01*
X1098750Y433443D01*
Y431057D01*
X1099663Y428851D01*
X1101265Y427250D01*
X1099663Y425649D01*
X1098750Y423443D01*
Y421057D01*
X1099663Y418851D01*
X1101265Y417250D01*
X1099663Y415649D01*
X1098750Y413443D01*
Y411057D01*
X1099663Y408851D01*
X1101351Y407164D01*
X1103557Y406250D01*
X1105944D01*
X1108149Y407164D01*
X1109750Y408765D01*
X1111351Y407164D01*
X1113557Y406250D01*
X1115944D01*
X1118149Y407164D01*
X1119750Y408765D01*
X1121351Y407164D01*
X1123557Y406250D01*
X1125944D01*
X1128149Y407164D01*
X1128920Y407934D01*
X1130648Y407867D01*
X1131601Y406913D01*
X1133807Y406000D01*
X1136193D01*
X1138399Y406913D01*
X1140087Y408601D01*
X1141000Y410807D01*
Y413194D01*
X1140087Y415399D01*
X1138485Y417000D01*
X1140087Y418601D01*
X1141000Y420807D01*
Y423194D01*
X1140087Y425399D01*
X1138485Y427000D01*
X1140087Y428601D01*
X1141000Y430807D01*
Y433194D01*
X1140087Y435399D01*
X1138399Y437087D01*
X1136193Y438000D01*
X1133807D01*
X1131601Y437087D01*
X1130109Y435594D01*
X1129837Y435649D01*
X1128149Y437337D01*
X1125944Y438250D01*
D02*
G37*
G36*
X849664Y456000D02*
X846636D01*
X843711Y455216D01*
X841089Y453702D01*
X838948Y451561D01*
X837434Y448939D01*
X836650Y446014D01*
Y442986D01*
X837434Y440061D01*
X838948Y437439D01*
X841089Y435298D01*
X843711Y433784D01*
X846636Y433000D01*
X849664D01*
X852589Y433784D01*
X855211Y435298D01*
X857352Y437439D01*
X858866Y440061D01*
X859650Y442986D01*
Y446014D01*
X858866Y448939D01*
X857352Y451561D01*
X855211Y453702D01*
X852589Y455216D01*
X849664Y456000D01*
D02*
G37*
G36*
X824264D02*
X821236D01*
X818311Y455216D01*
X815689Y453702D01*
X813548Y451561D01*
X812034Y448939D01*
X811250Y446014D01*
Y442986D01*
X812034Y440061D01*
X813548Y437439D01*
X815689Y435298D01*
X818311Y433784D01*
X821236Y433000D01*
X824264D01*
X827189Y433784D01*
X829811Y435298D01*
X831952Y437439D01*
X833466Y440061D01*
X834250Y442986D01*
Y446014D01*
X833466Y448939D01*
X831952Y451561D01*
X829811Y453702D01*
X827189Y455216D01*
X824264Y456000D01*
D02*
G37*
G36*
X798864D02*
X795836D01*
X792911Y455216D01*
X790289Y453702D01*
X788148Y451561D01*
X786634Y448939D01*
X785850Y446014D01*
Y442986D01*
X786634Y440061D01*
X788148Y437439D01*
X790289Y435298D01*
X792911Y433784D01*
X795836Y433000D01*
X798864D01*
X801789Y433784D01*
X804411Y435298D01*
X806552Y437439D01*
X808066Y440061D01*
X808850Y442986D01*
Y446014D01*
X808066Y448939D01*
X806552Y451561D01*
X804411Y453702D01*
X801789Y455216D01*
X798864Y456000D01*
D02*
G37*
G36*
X1019814Y454000D02*
X1016786D01*
X1013861Y453216D01*
X1011239Y451702D01*
X1009098Y449561D01*
X1007584Y446939D01*
X1006800Y444014D01*
Y440986D01*
X1007584Y438061D01*
X1009098Y435439D01*
X1011239Y433298D01*
X1013861Y431784D01*
X1016786Y431000D01*
X1019814D01*
X1022739Y431784D01*
X1025361Y433298D01*
X1027502Y435439D01*
X1029016Y438061D01*
X1029800Y440986D01*
Y444014D01*
X1029016Y446939D01*
X1027502Y449561D01*
X1025361Y451702D01*
X1022739Y453216D01*
X1019814Y454000D01*
D02*
G37*
G36*
X994414D02*
X991386D01*
X988461Y453216D01*
X985839Y451702D01*
X983698Y449561D01*
X982184Y446939D01*
X981400Y444014D01*
Y440986D01*
X982184Y438061D01*
X983698Y435439D01*
X985839Y433298D01*
X988461Y431784D01*
X991386Y431000D01*
X994414D01*
X997339Y431784D01*
X999961Y433298D01*
X1002102Y435439D01*
X1003616Y438061D01*
X1004400Y440986D01*
Y444014D01*
X1003616Y446939D01*
X1002102Y449561D01*
X999961Y451702D01*
X997339Y453216D01*
X994414Y454000D01*
D02*
G37*
G36*
X969014D02*
X965986D01*
X963061Y453216D01*
X960439Y451702D01*
X958298Y449561D01*
X956784Y446939D01*
X956000Y444014D01*
Y440986D01*
X956784Y438061D01*
X958298Y435439D01*
X960439Y433298D01*
X963061Y431784D01*
X965986Y431000D01*
X969014D01*
X971939Y431784D01*
X974561Y433298D01*
X976702Y435439D01*
X978216Y438061D01*
X979000Y440986D01*
Y444014D01*
X978216Y446939D01*
X976702Y449561D01*
X974561Y451702D01*
X971939Y453216D01*
X969014Y454000D01*
D02*
G37*
G36*
X734477Y431000D02*
X731523D01*
X728625Y430424D01*
X725895Y429293D01*
X723438Y427651D01*
X721349Y425562D01*
X719707Y423105D01*
X718577Y420375D01*
X718000Y417477D01*
Y414523D01*
X718577Y411625D01*
X719707Y408895D01*
X721349Y406438D01*
X723438Y404349D01*
X725895Y402707D01*
X728625Y401576D01*
X731523Y401000D01*
X734477D01*
X737375Y401576D01*
X740105Y402707D01*
X742562Y404349D01*
X744651Y406438D01*
X746293Y408895D01*
X747423Y411625D01*
X748000Y414523D01*
Y417477D01*
X747423Y420375D01*
X746293Y423105D01*
X744651Y425562D01*
X742562Y427651D01*
X740105Y429293D01*
X737375Y430424D01*
X734477Y431000D01*
D02*
G37*
G36*
X684477D02*
X681523D01*
X678625Y430424D01*
X675895Y429293D01*
X673438Y427651D01*
X671349Y425562D01*
X669707Y423105D01*
X668577Y420375D01*
X668000Y417477D01*
Y414523D01*
X668577Y411625D01*
X669707Y408895D01*
X671349Y406438D01*
X673438Y404349D01*
X675895Y402707D01*
X678625Y401576D01*
X681523Y401000D01*
X684477D01*
X687375Y401576D01*
X690105Y402707D01*
X692562Y404349D01*
X694651Y406438D01*
X696293Y408895D01*
X697423Y411625D01*
X698000Y414523D01*
Y417477D01*
X697423Y420375D01*
X696293Y423105D01*
X694651Y425562D01*
X692562Y427651D01*
X690105Y429293D01*
X687375Y430424D01*
X684477Y431000D01*
D02*
G37*
%LPD*%
G36*
X984108Y1040650D02*
X984071Y1040669D01*
X984000Y1040686D01*
X983896Y1040701D01*
X983585Y1040725D01*
X982556Y1040749D01*
X982214Y1040750D01*
Y1044750D01*
X984108Y1044850D01*
Y1040650D01*
D02*
G37*
G36*
X913012Y1029931D02*
X913050Y1029869D01*
X913113Y1029784D01*
X913316Y1029548D01*
X914027Y1028803D01*
X914268Y1028560D01*
X911440Y1025732D01*
X910030Y1027000D01*
X913000Y1029970D01*
X913012Y1029931D01*
D02*
G37*
G36*
X767750Y923272D02*
X767821Y923255D01*
X767925Y923240D01*
X768236Y923216D01*
X769265Y923192D01*
X769607Y923191D01*
Y919191D01*
X767714Y919091D01*
Y923291D01*
X767750Y923272D01*
D02*
G37*
G36*
X782753Y893250D02*
X779783Y890280D01*
X779771Y890319D01*
X779733Y890381D01*
X779670Y890466D01*
X779467Y890703D01*
X778756Y891447D01*
X778515Y891690D01*
X781343Y894518D01*
X782753Y893250D01*
D02*
G37*
G36*
X675470Y915000D02*
X675431Y914988D01*
X675369Y914950D01*
X675284Y914887D01*
X675048Y914684D01*
X674303Y913973D01*
X674060Y913732D01*
X671232Y916560D01*
X672500Y917970D01*
X675470Y915000D01*
D02*
G37*
G36*
X910470Y860500D02*
X910431Y860488D01*
X910369Y860450D01*
X910284Y860387D01*
X910048Y860184D01*
X909303Y859473D01*
X909060Y859232D01*
X906232Y862060D01*
X907500Y863470D01*
X910470Y860500D01*
D02*
G37*
G36*
X911283Y805002D02*
Y776861D01*
X910109Y776376D01*
X886219Y800266D01*
X886705Y801440D01*
X903000D01*
X904827Y801680D01*
X906530Y802385D01*
X907992Y803508D01*
X910143Y805658D01*
X911283Y805002D01*
D02*
G37*
G36*
X910252Y763145D02*
X910331Y761790D01*
X910355Y761681D01*
X910383Y761604D01*
X910414Y761560D01*
X906229Y761210D01*
X906233Y761233D01*
X906236Y761291D01*
X906250Y762692D01*
X906250Y763034D01*
X910250Y763487D01*
X910252Y763145D01*
D02*
G37*
G36*
X808508Y790258D02*
X809970Y789136D01*
X811673Y788430D01*
X813500Y788190D01*
X813843D01*
X815670Y788430D01*
X817373Y789136D01*
X818836Y790258D01*
X819768Y791190D01*
X875325D01*
X896281Y770234D01*
X895795Y769060D01*
X887000D01*
X885173Y768820D01*
X883470Y768114D01*
X882008Y766992D01*
X817080Y702065D01*
X815810Y702591D01*
Y711250D01*
X815570Y713077D01*
X814865Y714780D01*
X813743Y716242D01*
X804502Y725483D01*
X805221Y726560D01*
X806137Y726180D01*
X807964Y725940D01*
X809792Y726180D01*
X811495Y726886D01*
X812957Y728008D01*
X814079Y729470D01*
X814784Y731173D01*
X815025Y733000D01*
X814784Y734827D01*
X814497Y735521D01*
X814402Y736245D01*
X813696Y737948D01*
X812574Y739411D01*
X806310Y745675D01*
Y791136D01*
X806500Y791239D01*
X807580Y791466D01*
X808508Y790258D01*
D02*
G37*
G36*
X903012Y729931D02*
X903050Y729869D01*
X903113Y729784D01*
X903316Y729548D01*
X904027Y728803D01*
X904268Y728560D01*
X901440Y725732D01*
X900030Y727000D01*
X903000Y729970D01*
X903012Y729931D01*
D02*
G37*
G36*
X927940Y823057D02*
Y748300D01*
X928180Y746473D01*
X928885Y744770D01*
X930008Y743308D01*
X932940Y740376D01*
Y720060D01*
X928266D01*
X927560Y721116D01*
X927811Y721723D01*
X928052Y723550D01*
X927811Y725378D01*
X927106Y727080D01*
X925984Y728543D01*
X924522Y729665D01*
X922964Y730310D01*
X922760Y730836D01*
X922654Y731673D01*
X923493Y732316D01*
X924614Y733779D01*
X925320Y735481D01*
X925560Y737309D01*
X925320Y739136D01*
X924614Y740839D01*
X923493Y742301D01*
X922957Y742712D01*
X922846Y744398D01*
X923336Y744887D01*
X924458Y746350D01*
X925163Y748053D01*
X925404Y749880D01*
Y803709D01*
X925437Y803790D01*
X925678Y805617D01*
Y805829D01*
X925820Y806173D01*
X926060Y808000D01*
X925820Y809827D01*
X925115Y811530D01*
X923992Y812992D01*
X922530Y814114D01*
X921021Y814740D01*
X920478Y815993D01*
X924992Y820508D01*
X926115Y821970D01*
X926670Y823310D01*
X927940Y823057D01*
D02*
G37*
G36*
X900179Y715081D02*
X900249Y715064D01*
X900354Y715049D01*
X900665Y715025D01*
X901694Y715001D01*
X902036Y715000D01*
Y711000D01*
X900142Y710900D01*
Y715100D01*
X900179Y715081D01*
D02*
G37*
G36*
X782643Y686722D02*
X780877Y686696D01*
X780173Y690696D01*
X780515Y690698D01*
X781872Y690790D01*
X781983Y690819D01*
X782062Y690851D01*
X782107Y690888D01*
X782643Y686722D01*
D02*
G37*
G36*
X875846Y725602D02*
Y712093D01*
X876087Y710266D01*
X876792Y708563D01*
X877914Y707101D01*
X893008Y692008D01*
X893049Y691371D01*
X871949Y670270D01*
X838481D01*
X838060Y670750D01*
Y689475D01*
X874673Y726088D01*
X875846Y725602D01*
D02*
G37*
G36*
X807690Y679545D02*
Y635250D01*
X807930Y633423D01*
X808635Y631720D01*
X809758Y630258D01*
X818066Y621949D01*
X819529Y620827D01*
X820228Y620537D01*
X827508Y613257D01*
X828970Y612136D01*
X830673Y611430D01*
X832500Y611190D01*
X893532D01*
X893929Y610886D01*
X895631Y610180D01*
X896310Y610091D01*
X896765Y608750D01*
X895076Y607060D01*
X789675D01*
X780717Y616018D01*
Y654154D01*
X785933D01*
X787760Y654395D01*
X789463Y655100D01*
X790925Y656222D01*
X792047Y657684D01*
X792753Y659387D01*
X792993Y661215D01*
X792753Y663042D01*
X792047Y664745D01*
X791546Y665398D01*
X792992Y666508D01*
X806516Y680031D01*
X807690Y679545D01*
D02*
G37*
G36*
X1320000Y1005000D02*
X1321477Y1005000D01*
X1324375Y1004424D01*
X1327105Y1003293D01*
X1329562Y1001651D01*
X1331651Y999562D01*
X1333293Y997105D01*
X1334423Y994375D01*
X1335000Y991477D01*
X1335000Y990000D01*
X1335000Y990000D01*
X1335000Y943932D01*
X1335105Y940731D01*
X1335940Y934386D01*
X1337597Y928203D01*
X1340046Y922290D01*
X1343246Y916747D01*
X1347143Y911669D01*
X1351669Y907143D01*
X1356746Y903246D01*
X1362289Y900046D01*
X1368203Y897597D01*
X1374385Y895940D01*
X1380731Y895105D01*
X1383931Y895000D01*
X1383931Y895000D01*
X1394600D01*
X1397102Y895000D01*
X1402009Y894024D01*
X1406631Y892109D01*
X1410792Y889330D01*
X1414330Y885792D01*
X1417109Y881631D01*
X1419024Y877009D01*
X1420000Y872102D01*
X1420000Y869600D01*
X1420000Y869600D01*
X1420000Y825000D01*
X1420000Y823523D01*
X1419424Y820625D01*
X1418293Y817895D01*
X1416651Y815438D01*
X1414562Y813348D01*
X1412105Y811707D01*
X1409375Y810576D01*
X1406477Y810000D01*
X1405000Y810000D01*
X1362538D01*
X1357708Y810961D01*
X1353158Y812845D01*
X1349063Y815581D01*
X1345581Y819063D01*
X1342845Y823158D01*
X1340961Y827708D01*
X1340000Y832538D01*
Y835000D01*
X1340000Y875000D01*
X1339904Y876960D01*
X1339139Y880806D01*
X1337639Y884428D01*
X1335460Y887688D01*
X1332688Y890460D01*
X1329428Y892639D01*
X1325806Y894139D01*
X1321960Y894904D01*
X1320000Y895000D01*
X1320000Y895000D01*
X1310000Y1005000D01*
X1320000Y1005000D01*
D02*
G37*
G36*
X1315471Y869431D02*
X1319111Y867924D01*
X1322387Y865735D01*
X1325172Y862949D01*
X1327361Y859673D01*
X1328869Y856034D01*
X1329637Y852170D01*
Y850200D01*
Y815600D01*
X1329760Y813110D01*
X1330731Y808227D01*
X1332637Y803626D01*
X1335403Y799486D01*
X1338924Y795965D01*
X1343064Y793199D01*
X1347664Y791294D01*
X1352548Y790322D01*
X1355038Y790200D01*
X1401607D01*
X1405471Y789431D01*
X1409111Y787924D01*
X1412387Y785735D01*
X1415172Y782949D01*
X1417361Y779673D01*
X1418869Y776034D01*
X1419637Y772170D01*
Y770200D01*
Y755200D01*
Y752738D01*
X1418677Y747908D01*
X1416792Y743358D01*
X1414056Y739263D01*
X1410574Y735781D01*
X1406479Y733045D01*
X1401930Y731161D01*
X1397100Y730200D01*
X1358160D01*
X1355262Y730776D01*
X1352532Y731907D01*
X1350076Y733549D01*
X1347986Y735638D01*
X1346345Y738095D01*
X1345214Y740825D01*
X1344637Y743723D01*
Y745200D01*
X1344565Y746670D01*
X1343992Y749554D01*
X1342866Y752271D01*
X1341233Y754716D01*
X1339153Y756795D01*
X1336708Y758429D01*
X1333992Y759554D01*
X1331108Y760128D01*
X1329637Y760200D01*
X1314637D01*
X1309637Y870200D01*
X1311607D01*
X1315471Y869431D01*
D02*
G37*
G36*
X1405000Y635000D02*
X1405985Y635000D01*
X1407917Y634616D01*
X1409737Y633862D01*
X1411375Y632767D01*
X1412767Y631375D01*
X1413862Y629737D01*
X1414616Y627917D01*
X1415000Y625985D01*
X1415000Y625000D01*
X1415000Y625000D01*
X1415000Y585000D01*
X1415000Y584015D01*
X1414616Y582083D01*
X1413862Y580263D01*
X1412768Y578625D01*
X1411375Y577232D01*
X1409737Y576138D01*
X1407917Y575384D01*
X1405985Y575000D01*
X1405000Y575000D01*
X1405000D01*
X1405000D01*
D01*
X1400000Y575000D01*
X1397056Y574928D01*
X1391196Y574351D01*
X1385421Y573202D01*
X1379786Y571493D01*
X1374346Y569239D01*
X1369154Y566464D01*
X1364258Y563192D01*
X1359706Y559457D01*
X1355543Y555294D01*
X1351807Y550742D01*
X1348536Y545846D01*
X1345760Y540653D01*
X1343507Y535213D01*
X1341798Y529579D01*
X1340649Y523804D01*
X1340072Y517944D01*
X1340000Y515000D01*
X1340000Y515000D01*
X1340000Y495000D01*
X1340000Y493030D01*
X1339232Y489166D01*
X1337724Y485526D01*
X1335535Y482251D01*
X1332749Y479465D01*
X1329474Y477276D01*
X1325834Y475769D01*
X1321970Y475000D01*
X1320000Y475000D01*
X1320000D01*
Y585000D01*
X1325000D01*
X1326960Y585096D01*
X1330806Y585861D01*
X1334428Y587362D01*
X1337688Y589540D01*
X1340460Y592312D01*
X1342638Y595572D01*
X1344139Y599194D01*
X1344904Y603040D01*
X1345000Y605000D01*
Y609600D01*
X1345000Y612102D01*
X1345976Y617009D01*
X1347891Y621631D01*
X1350670Y625792D01*
X1354208Y629329D01*
X1358369Y632109D01*
X1362991Y634024D01*
X1367898Y635000D01*
X1370400Y635000D01*
X1370400Y635000D01*
X1405000Y635000D01*
D02*
G37*
G36*
X1315048Y719020D02*
X1315431Y717097D01*
X1316181Y715286D01*
X1317270Y713656D01*
X1318656Y712270D01*
X1320286Y711181D01*
X1322097Y710431D01*
X1324020Y710048D01*
X1325000Y710000D01*
X1411477D01*
X1414375Y709424D01*
X1417105Y708293D01*
X1419562Y706651D01*
X1421651Y704562D01*
X1423293Y702105D01*
X1424424Y699375D01*
X1425000Y696477D01*
Y695000D01*
Y670000D01*
Y668030D01*
X1424231Y664166D01*
X1422724Y660526D01*
X1420535Y657251D01*
X1417749Y654465D01*
X1414474Y652276D01*
X1410834Y650769D01*
X1406970Y650000D01*
X1330000D01*
X1329025Y649904D01*
X1327222Y649157D01*
X1325843Y647778D01*
X1325096Y645975D01*
X1325000Y645000D01*
Y610000D01*
X1315000D01*
Y720000D01*
X1315048Y719020D01*
D02*
G37*
D45*
X579843Y917657D02*
Y921264D01*
X573000Y910814D02*
X579843Y917657D01*
X573000Y882765D02*
Y910814D01*
Y882765D02*
X580015Y875750D01*
X832500Y618250D02*
X896209D01*
X823809Y626941D02*
X832500Y618250D01*
X823059Y626941D02*
X823809D01*
X814750Y635250D02*
X823059Y626941D01*
X897459Y617000D02*
X898000D01*
X896209Y618250D02*
X897459Y617000D01*
X831000Y670750D02*
Y692400D01*
X886163Y747563D01*
X773656Y613094D02*
Y658814D01*
X776057Y661215D01*
X785933D01*
X920000Y877647D02*
X931080Y888728D01*
X920000Y825500D02*
Y877647D01*
X931080Y888728D02*
X943576D01*
X908250Y759500D02*
X908500Y759250D01*
X908250Y759500D02*
Y768250D01*
X878250Y798250D02*
X908250Y768250D01*
X898383Y746797D02*
X915261D01*
X918343Y749880D01*
X886163Y747563D02*
X897617D01*
X816843Y798250D02*
X878250D01*
X813500Y795250D02*
X813843D01*
X816843Y798250D01*
X789500Y730500D02*
X808750Y711250D01*
Y701750D02*
Y711250D01*
X750000Y767500D02*
Y809250D01*
X775750Y835000D02*
X822459D01*
X750000Y809250D02*
X775750Y835000D01*
X737500Y671500D02*
X788000D01*
X807500Y691000D01*
Y700000D01*
X726765Y599886D02*
Y660765D01*
X737500Y671500D01*
X773656Y613094D02*
X786750Y600000D01*
X898000D01*
X587343Y881750D02*
X639250D01*
X585000Y884093D02*
Y896505D01*
Y884093D02*
X587343Y881750D01*
X639250D02*
X675500Y918000D01*
X580015Y875750D02*
X614250D01*
X799250Y742750D02*
Y798500D01*
Y742750D02*
X807582Y734418D01*
Y733383D02*
Y734418D01*
Y733383D02*
X807964Y733000D01*
X1146000Y879000D02*
X1152540Y885540D01*
X1227689D02*
X1233229Y880000D01*
X1152540Y885540D02*
X1227689D01*
X1094000Y879000D02*
X1146000D01*
X1090000Y883000D02*
X1094000Y879000D01*
X1233229Y880000D02*
X1305000D01*
X1346000Y719000D02*
X1439000D01*
X1444000Y724000D01*
X1310000Y735000D02*
X1330000D01*
X1346000Y719000D01*
X1346000Y642000D02*
X1427640D01*
X1334570Y630570D02*
X1346000Y642000D01*
X1334570Y603958D02*
Y630570D01*
X1325611Y595000D02*
X1334570Y603958D01*
X1310000Y595000D02*
X1325611D01*
X898000Y600000D02*
X906000Y608000D01*
X822459Y835000D02*
X823076Y834383D01*
X831617D01*
X832000Y834000D01*
X874873Y663210D02*
X918245Y706582D01*
X827877Y663210D02*
X874873D01*
X822290Y668797D02*
X827877Y663210D01*
X822290Y668797D02*
Y669000D01*
X814750Y635250D02*
Y689750D01*
X918343Y805343D02*
X918617Y805617D01*
Y807617D02*
X919000Y808000D01*
X918343Y749880D02*
Y805343D01*
X918617Y805617D02*
Y807617D01*
X887000Y762000D02*
X898000D01*
X814750Y689750D02*
X887000Y762000D01*
X898000D02*
X898000Y762000D01*
X897617Y747563D02*
X898383Y746797D01*
X936148Y713000D02*
X940000Y716852D01*
X898000Y713000D02*
X936148D01*
X882907Y712093D02*
Y730635D01*
X918245Y706582D02*
X924511D01*
X882907Y712093D02*
X898000Y697000D01*
X926811Y704283D02*
X927450D01*
X924511Y706582D02*
X926811Y704283D01*
X927450D02*
X927832Y703900D01*
X906750Y737309D02*
X918500D01*
X910000Y1030000D02*
X916750Y1023250D01*
X940750D01*
X935000Y872826D02*
X939424Y877250D01*
X945367D01*
X945750Y877633D01*
X935000Y748300D02*
Y872826D01*
Y748300D02*
X940000Y743300D01*
Y716852D02*
Y743300D01*
X900000Y730000D02*
X906450Y723550D01*
X920991D01*
X882907Y730635D02*
X891272Y739000D01*
X905059D01*
X906750Y737309D01*
X670000Y685000D02*
X773500D01*
X777196Y688696D01*
X784117D01*
X784500Y689078D01*
X765571Y921191D02*
X776108D01*
X778452Y894582D02*
Y918848D01*
X776108Y921191D02*
X778452Y918848D01*
Y894582D02*
X782783Y890250D01*
X625000Y730000D02*
X670000Y685000D01*
X809250Y808500D02*
X903000D01*
X799250Y798500D02*
X809250Y808500D01*
X903000D02*
X920000Y825500D01*
X892500Y822500D02*
X902500Y832500D01*
X813485Y822500D02*
X892500D01*
X789500Y798515D02*
X813485Y822500D01*
X625000Y730000D02*
Y865000D01*
X614250Y875750D02*
X625000Y865000D01*
X789500Y730500D02*
Y798515D01*
X902500Y832500D02*
Y855500D01*
X910500Y863500D01*
X960250Y1042750D02*
X986250D01*
X940750Y1023250D02*
X960250Y1042750D01*
D46*
X1390000Y609050D02*
D03*
Y685250D02*
D03*
Y761450D02*
D03*
Y837650D02*
D03*
D47*
X582000Y922500D02*
D03*
D48*
X866000Y962500D02*
D03*
X866500Y855750D02*
D03*
D50*
X832500Y618250D02*
D03*
X908500Y759250D02*
D03*
X742500Y857500D02*
D03*
Y870000D02*
D03*
Y885000D02*
D03*
Y895000D02*
D03*
X807964Y733000D02*
D03*
X807500Y700000D02*
D03*
X726765Y599886D02*
D03*
X898000Y617000D02*
D03*
X906000Y608000D02*
D03*
X832000Y834000D02*
D03*
X831000Y670750D02*
D03*
X822290Y669000D02*
D03*
X919000Y808000D02*
D03*
X898000Y762000D02*
D03*
Y747180D02*
D03*
Y713000D02*
D03*
Y697000D02*
D03*
X918500Y737309D02*
D03*
X910000Y1030000D02*
D03*
X585000Y896505D02*
D03*
X943576Y888728D02*
D03*
X945750Y877633D02*
D03*
X785933Y661215D02*
D03*
X1316038Y765346D02*
D03*
X732500Y895000D02*
D03*
Y857500D02*
D03*
Y885000D02*
D03*
Y870000D02*
D03*
X1315000Y480000D02*
D03*
X947500Y787500D02*
D03*
X900000Y730000D02*
D03*
X920991Y723550D02*
D03*
X927832Y703900D02*
D03*
X784500Y689078D02*
D03*
X782783Y890250D02*
D03*
X765571Y921191D02*
D03*
X655000Y720000D02*
D03*
X1305000Y880000D02*
D03*
X1315000Y900000D02*
D03*
Y907500D02*
D03*
X1310000Y735000D02*
D03*
Y595000D02*
D03*
X1315000Y615000D02*
D03*
Y622500D02*
D03*
Y630000D02*
D03*
Y637500D02*
D03*
Y645000D02*
D03*
Y455000D02*
D03*
X1362500Y985000D02*
D03*
X1372500Y552500D02*
D03*
X813500Y795250D02*
D03*
X750000Y767500D02*
D03*
X910500Y863500D02*
D03*
X1315000Y487500D02*
D03*
Y532500D02*
D03*
Y525000D02*
D03*
Y495000D02*
D03*
Y577500D02*
D03*
Y517500D02*
D03*
Y570000D02*
D03*
Y510000D02*
D03*
Y562500D02*
D03*
Y555000D02*
D03*
Y547500D02*
D03*
Y502500D02*
D03*
Y997500D02*
D03*
Y990000D02*
D03*
Y982500D02*
D03*
Y975000D02*
D03*
X940000Y922500D02*
D03*
X925000Y500000D02*
D03*
X929500Y639600D02*
D03*
X986250Y1042750D02*
D03*
X850000Y505000D02*
D03*
X870000D02*
D03*
X860000D02*
D03*
X880000D02*
D03*
Y495000D02*
D03*
X860000D02*
D03*
X870000D02*
D03*
X850000D02*
D03*
X880000Y485000D02*
D03*
X860000D02*
D03*
X870000D02*
D03*
X850000D02*
D03*
X675500Y918000D02*
D03*
X990000Y900000D02*
D03*
Y930000D02*
D03*
Y920000D02*
D03*
Y910000D02*
D03*
Y940000D02*
D03*
Y950000D02*
D03*
Y960000D02*
D03*
Y970000D02*
D03*
X1000000D02*
D03*
Y960000D02*
D03*
Y950000D02*
D03*
Y940000D02*
D03*
X990000Y615000D02*
D03*
Y625000D02*
D03*
Y655000D02*
D03*
Y675000D02*
D03*
Y685000D02*
D03*
X1000000D02*
D03*
Y675000D02*
D03*
Y665000D02*
D03*
Y655000D02*
D03*
X990000Y645000D02*
D03*
Y665000D02*
D03*
Y635000D02*
D03*
X1000000Y805000D02*
D03*
Y815000D02*
D03*
Y835000D02*
D03*
X990000D02*
D03*
X1000000Y825000D02*
D03*
X990000Y775000D02*
D03*
Y805000D02*
D03*
Y815000D02*
D03*
Y825000D02*
D03*
Y795000D02*
D03*
Y785000D02*
D03*
Y765000D02*
D03*
Y480000D02*
D03*
Y490000D02*
D03*
Y500000D02*
D03*
X1000000Y510000D02*
D03*
Y520000D02*
D03*
Y530000D02*
D03*
Y540000D02*
D03*
X990000D02*
D03*
Y530000D02*
D03*
Y520000D02*
D03*
Y510000D02*
D03*
X1000000Y500000D02*
D03*
X1315000Y915000D02*
D03*
Y922500D02*
D03*
Y930000D02*
D03*
Y937500D02*
D03*
Y945000D02*
D03*
Y952500D02*
D03*
Y960000D02*
D03*
Y967500D02*
D03*
Y652500D02*
D03*
Y660000D02*
D03*
Y667500D02*
D03*
Y675000D02*
D03*
Y682500D02*
D03*
Y690000D02*
D03*
Y697500D02*
D03*
Y705000D02*
D03*
Y712500D02*
D03*
Y862500D02*
D03*
Y855000D02*
D03*
Y847500D02*
D03*
Y840000D02*
D03*
Y832500D02*
D03*
Y825000D02*
D03*
Y817500D02*
D03*
Y810000D02*
D03*
Y802500D02*
D03*
Y795000D02*
D03*
Y787500D02*
D03*
Y780000D02*
D03*
Y772500D02*
D03*
D51*
X1155000Y950000D02*
D03*
X1150000Y815000D02*
D03*
X1155000Y665000D02*
D03*
Y530000D02*
D03*
M02*
