M48
;Layer_Color=9474304
;FILE_FORMAT=4:4
METRIC,LZ
;TYPE=PLATED
T1F00S00C0.4000
T2F00S00C1.0000
T3F00S00C1.3000
T4F00S00C1.4000
T5F00S00C3.0000
%
T01
X01315Y00455
Y0048
Y004875
Y00495
Y005025
Y0051
Y005175
Y00525
Y005325
Y005475
Y00555
Y005625
Y0057
Y005775
X0131Y00595
X01315Y00615
Y006225
Y0063
Y006375
Y00645
Y006525
Y0066
Y006675
Y00675
Y006825
Y0069
Y006975
Y00705
Y007125
X0131Y00735
X01316038Y00765346
X01315Y007725
Y0078
Y007875
X011925Y0073
X013725Y005525
X013625Y004775
X0112Y0046
X0112475Y0043225
X0111475
X0110475
Y0042225
X0111475
Y0041225
X0110475
X0112475
Y0042225
X01135Y00422
Y00412
Y00432
X01123Y00602
X01183Y00594
X0099Y00615
Y00625
Y00635
Y00645
Y00655
X01
Y00665
Y00675
X0099
Y00665
Y00685
X01
X00925Y006875
X00927832Y007039
X00920991Y0072355
X009185Y00737309
X009Y0073
X00898Y00713
Y00697
Y0074718
Y00762
X009085Y0075925
X009475Y007875
X0099Y00785
Y00775
Y00765
X0112Y00745
X009295Y006396
X00898Y00617
X00906Y00608
X00925282Y005554
X00925Y005
X0088Y00495
Y00505
X0087
X0086
X0085
Y00495
X0086
X0087
Y00485
X0088
X0086
X0085
X00831Y00517
X008325Y0061825
X00831Y0067075
X0082229Y00669
X008075Y007
X00807964Y00733
X0099Y0054
X01
Y0053
Y0052
Y0051
Y005
X0099Y005
Y0049
Y0048
Y0051
Y0052
Y0053
X00735Y004875
X00718Y0059
X00726765Y00599886
X00693Y00607
X00785933Y00661215
X007845Y00689078
X0077198Y00702801
X007775Y0072
X0075Y007675
X00655Y0072
X00665Y0085
X00665Y0085925
Y0086925
Y0087925
X006775
Y0086925
Y0085925
X006775Y0085
X007325Y008575
X007425Y008575
Y0087
X007325Y0087
Y00885
Y00895
X007425Y00895
Y00885
X007668Y0089
X00782783Y0089025
X007561Y00906111
X00765571Y00921191
X006755Y00918
X00585Y00896505
X00745Y0082
X008135Y0079525
X00832Y00834
X009105Y008635
X0094575Y00877633
X00943576Y00888728
X0094Y009225
X0099Y0092
Y0093
Y0094
Y0095
Y0096
Y0097
X01
Y0096
Y0095
Y0094
X0099Y0091
Y009
Y00835
X01
Y00825
Y00815
Y00805
X0099
Y00815
Y00825
Y00795
X00919Y00808
X00944Y00835
X009375Y00975
X0091Y0103
X00991961Y01027639
X0098625Y0104275
X01189Y01014
X01182Y00878
X0112Y00887
X01305Y0088
X01315Y008625
Y00855
Y008475
Y0084
Y008325
Y00825
Y008175
Y0081
Y008025
Y00795
Y009
Y009075
Y00915
Y009225
Y0093
Y009375
Y00945
Y009525
Y0096
Y009675
Y00975
Y009825
Y0099
Y009975
X013625Y00985
Y010625
T02
X0079735Y004445
X0082275
X0084815
X009675Y004425
X009929
X010183
X008665Y0085575
X008165
X00816Y009625
X00866
X0084705Y0102625
X0082165
X0079625
T03
X00683Y00416
X00733
X007295Y01055
X006795
T04
X005325Y0045525
X005825
X006325
X00632Y00525
X00582
X00532
Y009225
X00582
X00632
X0063275Y0099275
X0058275
X0053275
T05
X0139Y0060905
Y0068525
Y0076145
X005805
Y0068525
Y0060905
Y0083765
X0139
M30
