G04*
G04 #@! TF.GenerationSoftware,Altium Limited,Altium Designer,22.6.1 (34)*
G04*
G04 Layer_Color=8388736*
%FSLAX44Y44*%
%MOMM*%
G71*
G04*
G04 #@! TF.SameCoordinates,44C52635-D950-46A4-BE53-1BE2AF9ACA8F*
G04*
G04*
G04 #@! TF.FilePolarity,Negative*
G04*
G01*
G75*
%ADD17R,3.3000X1.7000*%
%ADD27C,1.0000*%
%ADD28R,1.3532X1.5532*%
%ADD29R,3.4016X1.8016*%
%ADD30R,9.1016X11.1016*%
%ADD31R,1.5032X2.9032*%
%ADD32R,3.2032X1.8032*%
%ADD33R,2.7032X1.9032*%
%ADD34R,2.7032X1.3532*%
%ADD35R,1.4532X1.8532*%
%ADD36R,1.3532X2.7032*%
%ADD37R,1.9032X2.7032*%
%ADD38C,4.7032*%
%ADD39C,2.2032*%
%ADD40C,2.0032*%
%ADD41C,1.5032*%
%ADD42C,0.8032*%
G36*
X877042Y999072D02*
X881436Y997252D01*
X885390Y994610D01*
X887071Y992929D01*
X890000Y990000D01*
Y943333D01*
X900000Y940000D01*
X935000Y940000D01*
X935985Y940000D01*
X937917Y939616D01*
X939737Y938862D01*
X941375Y937767D01*
X942767Y936375D01*
X943862Y934737D01*
X944616Y932917D01*
X945000Y930985D01*
X945000Y930000D01*
X945000Y930000D01*
X945000Y915000D01*
X945000Y914005D01*
X944239Y912168D01*
X942832Y910761D01*
X940994Y910000D01*
X940000Y910000D01*
X940000Y910000D01*
X890000D01*
Y801667D01*
X895000Y800000D01*
X930000Y800000D01*
X930985Y800000D01*
X932917Y799616D01*
X934737Y798862D01*
X936375Y797767D01*
X937767Y796375D01*
X938862Y794737D01*
X939616Y792917D01*
X940000Y790985D01*
X940000Y790000D01*
X940000Y790000D01*
X940000Y775000D01*
X940000Y774005D01*
X939239Y772168D01*
X937832Y770761D01*
X935994Y770000D01*
X935000Y770000D01*
X935000Y770000D01*
X895000D01*
X890000Y768333D01*
Y661667D01*
X902500Y657500D01*
X937500Y657500D01*
X938485Y657500D01*
X940417Y657116D01*
X942237Y656362D01*
X943875Y655267D01*
X945267Y653875D01*
X946362Y652237D01*
X947116Y650417D01*
X947500Y648485D01*
X947500Y647500D01*
X947500Y647500D01*
X947500Y632500D01*
X947500Y631505D01*
X946739Y629668D01*
X945332Y628261D01*
X943494Y627500D01*
X942500Y627500D01*
X942500Y627500D01*
X902500D01*
X890000Y623333D01*
Y523333D01*
X900000Y520000D01*
X935000Y520000D01*
X935985Y520000D01*
X937917Y519616D01*
X939737Y518862D01*
X941375Y517767D01*
X942767Y516375D01*
X943862Y514737D01*
X944616Y512917D01*
X945000Y510985D01*
X945000Y510000D01*
X945000Y510000D01*
X945000Y495000D01*
X945000Y494005D01*
X944239Y492168D01*
X942832Y490761D01*
X940994Y490000D01*
X940000Y490000D01*
X940000Y490000D01*
X890000D01*
Y480000D01*
X887439Y477439D01*
X887439D01*
X885670Y475671D01*
X881510Y472891D01*
X876888Y470976D01*
X871981Y470000D01*
X858019D01*
X853112Y470976D01*
X848490Y472891D01*
X844330Y475671D01*
X842561Y477439D01*
X840000Y480000D01*
Y676250D01*
X837500Y678750D01*
X819406D01*
X818240Y678982D01*
X817141Y679437D01*
X816153Y680097D01*
X815732Y680518D01*
X815000Y681250D01*
Y708750D01*
X815000Y708750D01*
X815000Y708750D01*
Y708750D01*
X815594Y709344D01*
X816992Y710279D01*
X818546Y710922D01*
X820195Y711250D01*
X821036Y711250D01*
X837500Y711250D01*
X840000Y713750D01*
Y713965D01*
X836464Y717500D01*
X818370D01*
X817204Y717732D01*
X816106Y718187D01*
X815117Y718848D01*
X814697Y719268D01*
X813964Y720000D01*
X813964Y747500D01*
D01*
Y747500D01*
Y747500D01*
X814559Y748094D01*
X815957Y749029D01*
X817510Y749672D01*
X819159Y750000D01*
X820000Y750000D01*
X836464Y750000D01*
X838857Y752393D01*
X837500Y753750D01*
X819406D01*
X818240Y753982D01*
X817141Y754437D01*
X816152Y755097D01*
X815732Y755518D01*
X815000Y756250D01*
Y783750D01*
X815000Y783750D01*
X815000Y783750D01*
Y783750D01*
X815594Y784344D01*
X816992Y785279D01*
X818546Y785922D01*
X820195Y786250D01*
X821036Y786250D01*
X837500Y786250D01*
X840000Y788750D01*
Y990000D01*
X842561Y992561D01*
Y992560D01*
X844330Y994329D01*
X848490Y997109D01*
X853112Y999024D01*
X858019Y1000000D01*
X872378D01*
X877042Y999072D01*
D02*
G37*
G36*
X1105000Y1075000D02*
X1135000Y1075000D01*
X1135000Y1075000D01*
X1135985Y1075000D01*
X1137917Y1074616D01*
X1139737Y1073862D01*
X1141375Y1072768D01*
X1142767Y1071375D01*
X1143862Y1069737D01*
X1144616Y1067917D01*
X1145000Y1065985D01*
X1145000Y1065000D01*
X1145000Y943333D01*
X1155000Y940000D01*
X1190000Y940000D01*
X1190985Y940000D01*
X1192917Y939616D01*
X1194737Y938862D01*
X1196375Y937767D01*
X1197767Y936375D01*
X1198862Y934737D01*
X1199616Y932917D01*
X1200000Y930985D01*
X1200000Y930000D01*
X1200000Y930000D01*
X1200000Y915000D01*
X1200000Y914005D01*
X1199239Y912168D01*
X1197832Y910761D01*
X1195994Y910000D01*
X1195000Y910000D01*
X1195000Y910000D01*
X1155000D01*
X1145000Y906667D01*
Y803333D01*
X1155000Y800000D01*
X1190000Y800000D01*
X1190985Y800000D01*
X1192917Y799616D01*
X1194737Y798862D01*
X1196375Y797767D01*
X1197767Y796375D01*
X1198862Y794737D01*
X1199616Y792917D01*
X1200000Y790985D01*
X1200000Y790000D01*
X1200000Y790000D01*
X1200000Y775000D01*
X1200000Y774005D01*
X1199239Y772168D01*
X1197832Y770761D01*
X1195994Y770000D01*
X1195000Y770000D01*
X1195000Y770000D01*
X1155000D01*
X1145000Y766667D01*
X1145000Y658333D01*
X1155000Y655000D01*
X1190000Y655000D01*
X1190985Y655000D01*
X1192917Y654616D01*
X1194737Y653862D01*
X1196375Y652767D01*
X1197767Y651375D01*
X1198862Y649737D01*
X1199616Y647917D01*
X1200000Y645985D01*
X1200000Y645000D01*
X1200000Y645000D01*
X1200000Y630000D01*
X1200000Y629005D01*
X1199239Y627168D01*
X1197832Y625761D01*
X1195994Y625000D01*
X1195000Y625000D01*
X1195000Y625000D01*
X1155000D01*
X1145000Y621667D01*
Y523333D01*
X1155000Y520000D01*
X1190000Y520000D01*
X1190985Y520000D01*
X1192917Y519616D01*
X1194737Y518862D01*
X1196375Y517767D01*
X1197767Y516375D01*
X1198862Y514737D01*
X1199616Y512917D01*
X1200000Y510985D01*
X1200000Y510000D01*
X1200000Y510000D01*
X1200000Y495000D01*
X1200000Y494005D01*
X1199239Y492168D01*
X1197832Y490761D01*
X1195994Y490000D01*
X1195000Y490000D01*
X1195000Y490000D01*
X1155000D01*
X1145000Y486667D01*
Y405000D01*
X1145000Y405000D01*
X1145000Y404104D01*
X1144314Y402449D01*
X1143048Y401183D01*
X1141393Y400497D01*
X1140497D01*
Y399404D01*
X1139660Y397383D01*
X1138114Y395837D01*
X1136094Y395000D01*
X1135000D01*
X1105000Y395000D01*
X1104015D01*
X1102083Y395384D01*
X1100263Y396138D01*
X1098625Y397233D01*
X1097233Y398625D01*
X1096138Y400263D01*
X1095384Y402083D01*
X1095000Y404015D01*
Y405000D01*
Y940000D01*
Y1065000D01*
X1095000Y1065985D01*
X1095384Y1067917D01*
X1096138Y1069737D01*
X1097232Y1071375D01*
X1098625Y1072768D01*
X1100263Y1073862D01*
X1102083Y1074616D01*
X1104015Y1075000D01*
X1105000Y1075000D01*
D02*
G37*
D17*
X1170282Y504600D02*
D03*
Y639600D02*
D03*
Y924600D02*
D03*
Y789600D02*
D03*
D27*
X558250Y366250D02*
G03*
X508500Y406500I-45000J-4750D01*
G01*
X1413750Y1101250D02*
G03*
X1463500Y1061000I45000J4750D01*
G01*
X508500Y1035500D02*
G03*
X549500Y1101250I-12375J53375D01*
G01*
X1463500Y416000D02*
G03*
X1423250Y366250I4750J-45000D01*
G01*
X1412750Y1102500D02*
G03*
X1462500Y1062250I45000J4750D01*
G01*
X557250Y367500D02*
G03*
X507500Y407750I-45000J-4750D01*
G01*
Y1036750D02*
G03*
X548500Y1102500I-12375J53375D01*
G01*
X1462500Y417250D02*
G03*
X1422250Y367500I4750J-45000D01*
G01*
X508500Y406500D02*
Y1035500D01*
X559000Y366250D02*
X1423250D01*
X1463500Y416000D02*
Y1061000D01*
X549500Y1101250D02*
X1413750D01*
X507500Y407750D02*
Y1036750D01*
X548500Y1102500D02*
X1412750D01*
X1462500Y417250D02*
Y1062250D01*
X558000Y367500D02*
X1422250D01*
D28*
X1242500Y1075000D02*
D03*
X1260000D02*
D03*
X1242500Y1040000D02*
D03*
X1260000D02*
D03*
X732500Y835000D02*
D03*
X715000D02*
D03*
X1240000Y405000D02*
D03*
X1222500D02*
D03*
X1240000Y437500D02*
D03*
X1222500D02*
D03*
D29*
X675282Y574600D02*
D03*
Y625400D02*
D03*
X1170282Y555400D02*
D03*
X925282Y639600D02*
D03*
Y690400D02*
D03*
X1170282D02*
D03*
Y975400D02*
D03*
X925282Y555400D02*
D03*
Y504600D02*
D03*
X915282Y835400D02*
D03*
Y784600D02*
D03*
X1170282Y840400D02*
D03*
X925282Y975400D02*
D03*
Y924600D02*
D03*
D30*
X780000Y600000D02*
D03*
X1275000Y530000D02*
D03*
X1030000Y665000D02*
D03*
X1275000D02*
D03*
Y950000D02*
D03*
X1030000Y530000D02*
D03*
X1020000Y810000D02*
D03*
X1275000Y815000D02*
D03*
X1030000Y950000D02*
D03*
D31*
X796000Y695000D02*
D03*
X824000D02*
D03*
X791000Y515000D02*
D03*
X819000D02*
D03*
X824000Y732500D02*
D03*
X796000D02*
D03*
X824000Y770000D02*
D03*
X796000D02*
D03*
D32*
X738250Y699250D02*
D03*
X681250D02*
D03*
X678000Y503000D02*
D03*
X735000D02*
D03*
D33*
X1403250Y925167D02*
D03*
X1363250D02*
D03*
X1363250Y963500D02*
D03*
X1403250D02*
D03*
X1363250Y1004000D02*
D03*
X1403250D02*
D03*
X1362500Y1042500D02*
D03*
X1402500D02*
D03*
X1361830Y495833D02*
D03*
X1401830D02*
D03*
X1362500Y417500D02*
D03*
X1402500D02*
D03*
X1401830Y456667D02*
D03*
X1361830D02*
D03*
X1362500Y535000D02*
D03*
X1402500D02*
D03*
X720000Y755000D02*
D03*
X680000D02*
D03*
D34*
X1285000Y435750D02*
D03*
Y404250D02*
D03*
X1302500Y1075750D02*
D03*
Y1044250D02*
D03*
D35*
X729250Y874000D02*
D03*
X694750D02*
D03*
D36*
X737500Y797250D02*
D03*
X706000D02*
D03*
D37*
X1072500Y392500D02*
D03*
Y432500D02*
D03*
X907250Y397250D02*
D03*
Y437250D02*
D03*
D38*
X1390000Y609050D02*
D03*
Y685250D02*
D03*
Y761450D02*
D03*
Y837650D02*
D03*
X580500Y609050D02*
D03*
Y685250D02*
D03*
Y761450D02*
D03*
Y837650D02*
D03*
D39*
X582500Y455250D02*
D03*
X532500D02*
D03*
X632500D02*
D03*
X632000Y525000D02*
D03*
X532000D02*
D03*
X582000D02*
D03*
Y922500D02*
D03*
X532000D02*
D03*
X632000D02*
D03*
X582750Y992750D02*
D03*
X532750D02*
D03*
X632750D02*
D03*
X733000Y416000D02*
D03*
X683000D02*
D03*
X729500Y1055000D02*
D03*
X679500D02*
D03*
D40*
X816000Y962500D02*
D03*
X866000D02*
D03*
X816500Y855750D02*
D03*
X866500D02*
D03*
D41*
X797350Y444500D02*
D03*
X848150D02*
D03*
X822750D02*
D03*
X821650Y1026250D02*
D03*
X796250D02*
D03*
X847050D02*
D03*
X967500Y442500D02*
D03*
X1018300D02*
D03*
X992900D02*
D03*
D42*
X1316038Y765346D02*
D03*
X1315000Y480000D02*
D03*
Y900000D02*
D03*
Y907500D02*
D03*
Y615000D02*
D03*
Y622500D02*
D03*
Y630000D02*
D03*
Y637500D02*
D03*
Y645000D02*
D03*
Y487500D02*
D03*
Y532500D02*
D03*
Y525000D02*
D03*
Y495000D02*
D03*
Y577500D02*
D03*
Y517500D02*
D03*
Y570000D02*
D03*
Y510000D02*
D03*
Y562500D02*
D03*
Y555000D02*
D03*
Y547500D02*
D03*
Y502500D02*
D03*
Y997500D02*
D03*
Y990000D02*
D03*
Y982500D02*
D03*
Y975000D02*
D03*
X850000Y505000D02*
D03*
X870000D02*
D03*
X860000D02*
D03*
X880000D02*
D03*
Y495000D02*
D03*
X860000D02*
D03*
X870000D02*
D03*
X850000D02*
D03*
X880000Y485000D02*
D03*
X860000D02*
D03*
X870000D02*
D03*
X850000D02*
D03*
X990000Y900000D02*
D03*
Y930000D02*
D03*
Y920000D02*
D03*
Y910000D02*
D03*
Y940000D02*
D03*
Y950000D02*
D03*
Y960000D02*
D03*
Y970000D02*
D03*
X1000000D02*
D03*
Y960000D02*
D03*
Y950000D02*
D03*
Y940000D02*
D03*
X990000Y615000D02*
D03*
Y625000D02*
D03*
Y655000D02*
D03*
Y675000D02*
D03*
Y685000D02*
D03*
X1000000D02*
D03*
Y675000D02*
D03*
Y665000D02*
D03*
Y655000D02*
D03*
X990000Y645000D02*
D03*
Y665000D02*
D03*
Y635000D02*
D03*
X1000000Y805000D02*
D03*
Y815000D02*
D03*
Y835000D02*
D03*
X990000D02*
D03*
X1000000Y825000D02*
D03*
X990000Y775000D02*
D03*
Y805000D02*
D03*
Y815000D02*
D03*
Y825000D02*
D03*
Y795000D02*
D03*
Y785000D02*
D03*
Y765000D02*
D03*
Y480000D02*
D03*
Y490000D02*
D03*
Y500000D02*
D03*
X1000000Y510000D02*
D03*
Y520000D02*
D03*
Y530000D02*
D03*
Y540000D02*
D03*
X990000D02*
D03*
Y530000D02*
D03*
Y520000D02*
D03*
Y510000D02*
D03*
X1000000Y500000D02*
D03*
X1315000Y915000D02*
D03*
Y922500D02*
D03*
Y930000D02*
D03*
Y937500D02*
D03*
Y945000D02*
D03*
Y952500D02*
D03*
Y960000D02*
D03*
Y967500D02*
D03*
Y652500D02*
D03*
Y660000D02*
D03*
Y667500D02*
D03*
Y675000D02*
D03*
Y682500D02*
D03*
Y690000D02*
D03*
Y697500D02*
D03*
Y705000D02*
D03*
Y712500D02*
D03*
Y862500D02*
D03*
Y855000D02*
D03*
Y847500D02*
D03*
Y840000D02*
D03*
Y832500D02*
D03*
Y825000D02*
D03*
Y817500D02*
D03*
Y810000D02*
D03*
Y802500D02*
D03*
Y795000D02*
D03*
Y787500D02*
D03*
Y780000D02*
D03*
Y772500D02*
D03*
X1104750Y432250D02*
D03*
Y422250D02*
D03*
Y412250D02*
D03*
X1114750Y432250D02*
D03*
Y422250D02*
D03*
Y412250D02*
D03*
X1124750Y432250D02*
D03*
Y422250D02*
D03*
Y412250D02*
D03*
X1135000Y412000D02*
D03*
Y422000D02*
D03*
Y432000D02*
D03*
M02*
