G04*
G04 #@! TF.GenerationSoftware,Altium Limited,Altium Designer,22.6.1 (34)*
G04*
G04 Layer_Color=255*
%FSLAX44Y44*%
%MOMM*%
G71*
G04*
G04 #@! TF.SameCoordinates,44C52635-D950-46A4-BE53-1BE2AF9ACA8F*
G04*
G04*
G04 #@! TF.FilePolarity,Positive*
G04*
G01*
G75*
%ADD23R,2.5000X1.1500*%
%ADD25R,1.1500X2.5000*%
%ADD46C,4.5000*%
%ADD47C,2.0000*%
%ADD48C,1.8000*%
%ADD49C,1.3000*%
%ADD52R,1.6500X1.2000*%
%ADD53O,0.6000X1.8000*%
%ADD54R,0.6000X1.8000*%
%ADD55R,0.9000X0.8000*%
%ADD56R,2.7000X1.3000*%
%ADD57O,0.6500X1.7500*%
D23*
X1285000Y536750D02*
D03*
Y568250D02*
D03*
X1283000Y603250D02*
D03*
Y634750D02*
D03*
X1285000Y785750D02*
D03*
Y754250D02*
D03*
X958750Y470000D02*
D03*
Y501500D02*
D03*
X955000Y964250D02*
D03*
Y995750D02*
D03*
X958750Y899000D02*
D03*
Y930500D02*
D03*
X958750Y755000D02*
D03*
Y786500D02*
D03*
Y679000D02*
D03*
Y710500D02*
D03*
Y645500D02*
D03*
Y614000D02*
D03*
X1282500Y670000D02*
D03*
Y701500D02*
D03*
X1285000Y930750D02*
D03*
Y899250D02*
D03*
Y1000750D02*
D03*
Y969250D02*
D03*
Y466000D02*
D03*
Y497500D02*
D03*
Y850750D02*
D03*
Y819250D02*
D03*
X958750Y820750D02*
D03*
Y852250D02*
D03*
Y535429D02*
D03*
Y566929D02*
D03*
D25*
X728250Y746250D02*
D03*
X696750D02*
D03*
Y708417D02*
D03*
X728250D02*
D03*
X696750Y670583D02*
D03*
X728250D02*
D03*
Y632750D02*
D03*
X696750D02*
D03*
D46*
X1390000Y609050D02*
D03*
Y685250D02*
D03*
Y761450D02*
D03*
Y837650D02*
D03*
X580500Y609050D02*
D03*
Y685250D02*
D03*
Y761450D02*
D03*
Y837650D02*
D03*
D47*
X582500Y455250D02*
D03*
X532500D02*
D03*
X632500D02*
D03*
X632000Y525000D02*
D03*
X532000D02*
D03*
X582000D02*
D03*
Y922500D02*
D03*
X532000D02*
D03*
X632000D02*
D03*
X582750Y992750D02*
D03*
X532750D02*
D03*
X632750D02*
D03*
X733000Y416000D02*
D03*
X683000D02*
D03*
X729500Y1055000D02*
D03*
X679500D02*
D03*
D48*
X816000Y962500D02*
D03*
X866000D02*
D03*
X816500Y855750D02*
D03*
X866500D02*
D03*
D49*
X797350Y444500D02*
D03*
X848150D02*
D03*
X822750D02*
D03*
X821650Y1026250D02*
D03*
X796250D02*
D03*
X847050D02*
D03*
X967500Y442500D02*
D03*
X1018300D02*
D03*
X992900D02*
D03*
D52*
X1154750Y476000D02*
D03*
Y504000D02*
D03*
Y644000D02*
D03*
Y616000D02*
D03*
Y757750D02*
D03*
Y785750D02*
D03*
X1093750Y929750D02*
D03*
Y901750D02*
D03*
Y785750D02*
D03*
Y757750D02*
D03*
Y644000D02*
D03*
Y616000D02*
D03*
Y504000D02*
D03*
Y476000D02*
D03*
X829750Y919750D02*
D03*
Y891750D02*
D03*
X1154750Y929750D02*
D03*
Y901750D02*
D03*
Y566179D02*
D03*
Y538179D02*
D03*
Y965000D02*
D03*
Y993000D02*
D03*
X1155000Y706500D02*
D03*
Y678500D02*
D03*
X1154750Y850500D02*
D03*
Y822500D02*
D03*
X1093750Y993000D02*
D03*
Y965000D02*
D03*
Y822500D02*
D03*
Y850500D02*
D03*
Y709750D02*
D03*
Y681750D02*
D03*
Y538179D02*
D03*
Y566179D02*
D03*
D53*
X865350Y774000D02*
D03*
X852650D02*
D03*
X839950D02*
D03*
X827250D02*
D03*
X814550D02*
D03*
X801850D02*
D03*
X789150D02*
D03*
Y720000D02*
D03*
X801850D02*
D03*
X814550D02*
D03*
X827250D02*
D03*
X839950D02*
D03*
X852650D02*
D03*
X789150Y656250D02*
D03*
X801850D02*
D03*
X814550D02*
D03*
X827250D02*
D03*
X839950D02*
D03*
X852650D02*
D03*
X865350D02*
D03*
X789150Y602250D02*
D03*
X801850D02*
D03*
X814550D02*
D03*
X827250D02*
D03*
X839950D02*
D03*
X852650D02*
D03*
D54*
X865350Y720000D02*
D03*
Y602250D02*
D03*
D55*
X1030000Y985250D02*
D03*
Y966250D02*
D03*
X1010000Y975750D02*
D03*
X1038750Y935000D02*
D03*
X1058750Y925500D02*
D03*
Y944500D02*
D03*
X1010000Y692500D02*
D03*
X1030000Y683000D02*
D03*
Y702000D02*
D03*
X1058750Y670250D02*
D03*
Y651250D02*
D03*
X1038750Y660750D02*
D03*
X1240000Y692500D02*
D03*
X1220000Y702000D02*
D03*
Y683000D02*
D03*
Y769500D02*
D03*
X1240000Y760000D02*
D03*
Y779000D02*
D03*
Y835000D02*
D03*
X1220000Y844500D02*
D03*
Y825500D02*
D03*
X1030000Y915410D02*
D03*
X1010000Y924910D02*
D03*
Y905910D02*
D03*
Y620910D02*
D03*
Y639910D02*
D03*
X1030000Y630410D02*
D03*
Y772500D02*
D03*
X1010000Y782000D02*
D03*
Y763000D02*
D03*
X1182500Y793000D02*
D03*
Y812000D02*
D03*
X1202500Y802500D02*
D03*
Y657500D02*
D03*
X1182500Y667000D02*
D03*
Y648000D02*
D03*
X1207500Y515000D02*
D03*
X1187500Y524500D02*
D03*
Y505500D02*
D03*
X1030000Y480750D02*
D03*
X1010000Y490250D02*
D03*
Y471250D02*
D03*
X1030000Y847000D02*
D03*
Y828000D02*
D03*
X1010000Y837500D02*
D03*
X1030000Y560250D02*
D03*
Y541250D02*
D03*
X1010000Y550750D02*
D03*
X1240000Y639000D02*
D03*
Y620000D02*
D03*
X1220000Y629500D02*
D03*
X1202500Y947500D02*
D03*
X1182500Y957000D02*
D03*
Y938000D02*
D03*
X1240000Y985000D02*
D03*
X1220000Y994500D02*
D03*
Y975500D02*
D03*
X1217500Y917500D02*
D03*
X1237500Y908000D02*
D03*
Y927000D02*
D03*
X1220000Y543000D02*
D03*
Y562000D02*
D03*
X1240000Y552500D02*
D03*
Y492500D02*
D03*
Y473500D02*
D03*
X1220000Y483000D02*
D03*
X1058750Y815250D02*
D03*
Y796250D02*
D03*
X1038750Y805750D02*
D03*
Y510750D02*
D03*
X1058750Y501250D02*
D03*
Y520250D02*
D03*
D56*
X772000Y1004250D02*
D03*
Y976250D02*
D03*
X772500Y849750D02*
D03*
Y821750D02*
D03*
D57*
X754100Y933500D02*
D03*
X766800D02*
D03*
X779500D02*
D03*
X792200D02*
D03*
Y877500D02*
D03*
X779500D02*
D03*
X766800D02*
D03*
X754100D02*
D03*
M02*
