G04*
G04 #@! TF.GenerationSoftware,Altium Limited,Altium Designer,22.6.1 (34)*
G04*
G04 Layer_Physical_Order=2*
G04 Layer_Color=37055*
%FSLAX44Y44*%
%MOMM*%
G71*
G04*
G04 #@! TF.SameCoordinates,44C52635-D950-46A4-BE53-1BE2AF9ACA8F*
G04*
G04*
G04 #@! TF.FilePolarity,Positive*
G04*
G01*
G75*
%ADD46C,4.5000*%
%ADD48C,1.8000*%
%ADD49C,1.3000*%
%ADD50C,0.6000*%
G36*
X554512Y1095048D02*
X555000Y1095000D01*
X1409357D01*
X1410000Y1093106D01*
Y1082900D01*
X1410122Y1080410D01*
X1411094Y1075527D01*
X1412999Y1070927D01*
X1415766Y1066786D01*
X1419286Y1063266D01*
X1423427Y1060499D01*
X1428027Y1058594D01*
X1432910Y1057622D01*
X1435400Y1057500D01*
X1454048D01*
X1457435Y1057278D01*
Y421312D01*
X1456311Y421088D01*
X1453106Y420000D01*
X1442900D01*
X1440410Y419878D01*
X1435527Y418906D01*
X1430927Y417001D01*
X1426786Y414235D01*
X1423266Y410714D01*
X1420499Y406573D01*
X1418594Y401973D01*
X1417622Y397090D01*
X1417500Y394600D01*
Y375953D01*
X1417278Y372565D01*
X561312D01*
X561088Y373689D01*
X558864Y380240D01*
X557500Y383006D01*
Y384600D01*
X557378Y387090D01*
X556406Y391973D01*
X554501Y396573D01*
X551735Y400714D01*
X548214Y404234D01*
X544073Y407001D01*
X539473Y408906D01*
X534590Y409878D01*
X532100Y410000D01*
X526894D01*
X523689Y411088D01*
X516904Y412438D01*
X512565Y412722D01*
Y1032500D01*
X527100D01*
X529590Y1032622D01*
X534473Y1033594D01*
X539073Y1035499D01*
X543214Y1038266D01*
X546735Y1041786D01*
X549501Y1045927D01*
X551406Y1050527D01*
X552378Y1055410D01*
X552500Y1057900D01*
Y1079047D01*
X552890Y1085000D01*
X552563Y1089988D01*
X552565Y1090000D01*
Y1094672D01*
X553010Y1094991D01*
X553835Y1095329D01*
X554512Y1095048D01*
D02*
G37*
%LPC*%
G36*
X731475Y1070000D02*
X727525D01*
X723710Y1068978D01*
X720290Y1067003D01*
X717497Y1064210D01*
X715522Y1060790D01*
X714500Y1056975D01*
Y1053025D01*
X715522Y1049210D01*
X717497Y1045790D01*
X720290Y1042997D01*
X723710Y1041022D01*
X727525Y1040000D01*
X731475D01*
X735290Y1041022D01*
X738710Y1042997D01*
X741503Y1045790D01*
X743478Y1049210D01*
X744500Y1053025D01*
Y1056975D01*
X743478Y1060790D01*
X741503Y1064210D01*
X738710Y1067003D01*
X735290Y1068978D01*
X731475Y1070000D01*
D02*
G37*
G36*
X681475D02*
X677525D01*
X673710Y1068978D01*
X670290Y1067003D01*
X667497Y1064210D01*
X665522Y1060790D01*
X664500Y1056975D01*
Y1053025D01*
X665522Y1049210D01*
X667497Y1045790D01*
X670290Y1042997D01*
X673710Y1041022D01*
X677525Y1040000D01*
X681475D01*
X685290Y1041022D01*
X688710Y1042997D01*
X691503Y1045790D01*
X693478Y1049210D01*
X694500Y1053025D01*
Y1056975D01*
X693478Y1060790D01*
X691503Y1064210D01*
X688710Y1067003D01*
X685290Y1068978D01*
X681475Y1070000D01*
D02*
G37*
G36*
X987443Y1048750D02*
X985057D01*
X982851Y1047837D01*
X981163Y1046149D01*
X980250Y1043943D01*
Y1041556D01*
X981163Y1039351D01*
X982851Y1037663D01*
X985057Y1036750D01*
X987443D01*
X989649Y1037663D01*
X991337Y1039351D01*
X992250Y1041556D01*
Y1043943D01*
X991337Y1046149D01*
X989649Y1047837D01*
X987443Y1048750D01*
D02*
G37*
G36*
X911193Y1036000D02*
X908807D01*
X906601Y1035087D01*
X904913Y1033399D01*
X904000Y1031193D01*
Y1028807D01*
X904913Y1026601D01*
X906601Y1024913D01*
X908807Y1024000D01*
X911193D01*
X913399Y1024913D01*
X915087Y1026601D01*
X916000Y1028807D01*
Y1031193D01*
X915087Y1033399D01*
X913399Y1035087D01*
X911193Y1036000D01*
D02*
G37*
G36*
X993155Y1033639D02*
X990768D01*
X988562Y1032725D01*
X986875Y1031038D01*
X985961Y1028832D01*
Y1026445D01*
X986875Y1024240D01*
X988562Y1022552D01*
X990768Y1021639D01*
X993155D01*
X995360Y1022552D01*
X997048Y1024240D01*
X997961Y1026445D01*
Y1028832D01*
X997048Y1031038D01*
X995360Y1032725D01*
X993155Y1033639D01*
D02*
G37*
G36*
X848564Y1037750D02*
X845536D01*
X842611Y1036966D01*
X839989Y1035452D01*
X837848Y1033311D01*
X836334Y1030689D01*
X835550Y1027764D01*
Y1024736D01*
X836334Y1021811D01*
X837848Y1019189D01*
X839989Y1017048D01*
X842611Y1015534D01*
X845536Y1014750D01*
X848564D01*
X851489Y1015534D01*
X854111Y1017048D01*
X856252Y1019189D01*
X857766Y1021811D01*
X858550Y1024736D01*
Y1027764D01*
X857766Y1030689D01*
X856252Y1033311D01*
X854111Y1035452D01*
X851489Y1036966D01*
X848564Y1037750D01*
D02*
G37*
G36*
X823164D02*
X820136D01*
X817211Y1036966D01*
X814589Y1035452D01*
X812448Y1033311D01*
X810934Y1030689D01*
X810150Y1027764D01*
Y1024736D01*
X810934Y1021811D01*
X812448Y1019189D01*
X814589Y1017048D01*
X817211Y1015534D01*
X820136Y1014750D01*
X823164D01*
X826089Y1015534D01*
X828711Y1017048D01*
X830852Y1019189D01*
X832366Y1021811D01*
X833150Y1024736D01*
Y1027764D01*
X832366Y1030689D01*
X830852Y1033311D01*
X828711Y1035452D01*
X826089Y1036966D01*
X823164Y1037750D01*
D02*
G37*
G36*
X1190193Y1020000D02*
X1187806D01*
X1185601Y1019087D01*
X1183913Y1017399D01*
X1183000Y1015193D01*
Y1012806D01*
X1183913Y1010601D01*
X1185601Y1008913D01*
X1187806Y1008000D01*
X1190193D01*
X1192399Y1008913D01*
X1194087Y1010601D01*
X1195000Y1012806D01*
Y1015193D01*
X1194087Y1017399D01*
X1192399Y1019087D01*
X1190193Y1020000D01*
D02*
G37*
G36*
X1363694Y991000D02*
X1361306D01*
X1359101Y990087D01*
X1357413Y988399D01*
X1356500Y986193D01*
Y983807D01*
X1357413Y981601D01*
X1359101Y979913D01*
X1361306Y979000D01*
X1363694D01*
X1365899Y979913D01*
X1367587Y981601D01*
X1368500Y983807D01*
Y986193D01*
X1367587Y988399D01*
X1365899Y990087D01*
X1363694Y991000D01*
D02*
G37*
G36*
X634725Y1007750D02*
X630775D01*
X626960Y1006728D01*
X623540Y1004753D01*
X620747Y1001960D01*
X618772Y998540D01*
X617750Y994725D01*
Y990775D01*
X618772Y986960D01*
X620747Y983540D01*
X623540Y980747D01*
X626960Y978772D01*
X630775Y977750D01*
X634725D01*
X638540Y978772D01*
X641960Y980747D01*
X644753Y983540D01*
X646728Y986960D01*
X647750Y990775D01*
Y994725D01*
X646728Y998540D01*
X644753Y1001960D01*
X641960Y1004753D01*
X638540Y1006728D01*
X634725Y1007750D01*
D02*
G37*
G36*
X584725D02*
X580775D01*
X576960Y1006728D01*
X573540Y1004753D01*
X570747Y1001960D01*
X568772Y998540D01*
X567750Y994725D01*
Y990775D01*
X568772Y986960D01*
X570747Y983540D01*
X573540Y980747D01*
X576960Y978772D01*
X580775Y977750D01*
X584725D01*
X588540Y978772D01*
X591960Y980747D01*
X594753Y983540D01*
X596728Y986960D01*
X597750Y990775D01*
Y994725D01*
X596728Y998540D01*
X594753Y1001960D01*
X591960Y1004753D01*
X588540Y1006728D01*
X584725Y1007750D01*
D02*
G37*
G36*
X534725D02*
X530775D01*
X526960Y1006728D01*
X523540Y1004753D01*
X520747Y1001960D01*
X518772Y998540D01*
X517750Y994725D01*
Y990775D01*
X518772Y986960D01*
X520747Y983540D01*
X523540Y980747D01*
X526960Y978772D01*
X530775Y977750D01*
X534725D01*
X538540Y978772D01*
X541960Y980747D01*
X544753Y983540D01*
X546728Y986960D01*
X547750Y990775D01*
Y994725D01*
X546728Y998540D01*
X544753Y1001960D01*
X541960Y1004753D01*
X538540Y1006728D01*
X534725Y1007750D01*
D02*
G37*
G36*
X1001193Y976000D02*
X998807D01*
X996601Y975087D01*
X995000Y973485D01*
X993399Y975087D01*
X991193Y976000D01*
X988807D01*
X986601Y975087D01*
X984913Y973399D01*
X984000Y971193D01*
Y968807D01*
X984913Y966601D01*
X986515Y965000D01*
X984913Y963399D01*
X984000Y961193D01*
Y958807D01*
X984913Y956601D01*
X986515Y955000D01*
X984913Y953399D01*
X984000Y951193D01*
Y948807D01*
X984913Y946601D01*
X986515Y945000D01*
X984913Y943399D01*
X984000Y941193D01*
Y938807D01*
X984913Y936601D01*
X986515Y935000D01*
X984913Y933399D01*
X984000Y931193D01*
Y928807D01*
X984913Y926601D01*
X986515Y925000D01*
X984913Y923399D01*
X984000Y921193D01*
Y918807D01*
X984913Y916601D01*
X986515Y915000D01*
X984913Y913399D01*
X984000Y911193D01*
Y908807D01*
X984913Y906601D01*
X986515Y905000D01*
X984913Y903399D01*
X984000Y901193D01*
Y898807D01*
X984913Y896601D01*
X986601Y894913D01*
X988807Y894000D01*
X991193D01*
X993399Y894913D01*
X995087Y896601D01*
X996000Y898807D01*
Y901193D01*
X995087Y903399D01*
X993485Y905000D01*
X995087Y906601D01*
X996000Y908807D01*
Y911193D01*
X995087Y913399D01*
X993485Y915000D01*
X995087Y916601D01*
X996000Y918807D01*
Y921193D01*
X995087Y923399D01*
X993485Y925000D01*
X995087Y926601D01*
X996000Y928807D01*
Y931193D01*
X995087Y933399D01*
X993485Y935000D01*
X995000Y936515D01*
X996601Y934913D01*
X998807Y934000D01*
X1001193D01*
X1003399Y934913D01*
X1005087Y936601D01*
X1006000Y938807D01*
Y941193D01*
X1005087Y943399D01*
X1003485Y945000D01*
X1005087Y946601D01*
X1006000Y948807D01*
Y951193D01*
X1005087Y953399D01*
X1003485Y955000D01*
X1005087Y956601D01*
X1006000Y958807D01*
Y961193D01*
X1005087Y963399D01*
X1003485Y965000D01*
X1005087Y966601D01*
X1006000Y968807D01*
Y971193D01*
X1005087Y973399D01*
X1003399Y975087D01*
X1001193Y976000D01*
D02*
G37*
G36*
X938693Y981000D02*
X936307D01*
X934101Y980087D01*
X932413Y978399D01*
X931500Y976193D01*
Y973807D01*
X932413Y971601D01*
X934101Y969913D01*
X936307Y969000D01*
X938693D01*
X940899Y969913D01*
X942587Y971601D01*
X943500Y973807D01*
Y976193D01*
X942587Y978399D01*
X940899Y980087D01*
X938693Y981000D01*
D02*
G37*
G36*
X867843Y976500D02*
X864157D01*
X860596Y975546D01*
X857404Y973703D01*
X854797Y971096D01*
X852954Y967904D01*
X852000Y964343D01*
Y960657D01*
X852954Y957096D01*
X854797Y953904D01*
X857404Y951297D01*
X860596Y949454D01*
X864157Y948500D01*
X867843D01*
X871404Y949454D01*
X874596Y951297D01*
X877203Y953904D01*
X879046Y957096D01*
X880000Y960657D01*
Y964343D01*
X879046Y967904D01*
X877203Y971096D01*
X874596Y973703D01*
X871404Y975546D01*
X867843Y976500D01*
D02*
G37*
G36*
X941193Y928500D02*
X938807D01*
X936601Y927587D01*
X934913Y925899D01*
X934000Y923693D01*
Y921307D01*
X934913Y919101D01*
X936601Y917413D01*
X938807Y916500D01*
X941193D01*
X943399Y917413D01*
X945087Y919101D01*
X946000Y921307D01*
Y923693D01*
X945087Y925899D01*
X943399Y927587D01*
X941193Y928500D01*
D02*
G37*
G36*
X766765Y927191D02*
X764378D01*
X762172Y926277D01*
X760485Y924590D01*
X759571Y922384D01*
Y919997D01*
X760485Y917792D01*
X762172Y916104D01*
X764378Y915191D01*
X766765D01*
X768970Y916104D01*
X770658Y917792D01*
X771571Y919997D01*
Y922384D01*
X770658Y924590D01*
X768970Y926277D01*
X766765Y927191D01*
D02*
G37*
G36*
X676693Y924000D02*
X674306D01*
X672101Y923086D01*
X670413Y921399D01*
X669500Y919193D01*
Y916806D01*
X670413Y914601D01*
X672101Y912913D01*
X674306Y912000D01*
X676693D01*
X678899Y912913D01*
X680586Y914601D01*
X681500Y916806D01*
Y919193D01*
X680586Y921399D01*
X678899Y923086D01*
X676693Y924000D01*
D02*
G37*
G36*
X633975Y937500D02*
X630025D01*
X626210Y936478D01*
X622790Y934503D01*
X619997Y931710D01*
X618022Y928290D01*
X617000Y924475D01*
Y920525D01*
X618022Y916710D01*
X619997Y913290D01*
X622790Y910497D01*
X626210Y908522D01*
X630025Y907500D01*
X633975D01*
X637790Y908522D01*
X641210Y910497D01*
X644003Y913290D01*
X645978Y916710D01*
X647000Y920525D01*
Y924475D01*
X645978Y928290D01*
X644003Y931710D01*
X641210Y934503D01*
X637790Y936478D01*
X633975Y937500D01*
D02*
G37*
G36*
X583975D02*
X580025D01*
X576210Y936478D01*
X572790Y934503D01*
X569997Y931710D01*
X568022Y928290D01*
X567000Y924475D01*
Y920525D01*
X568022Y916710D01*
X569997Y913290D01*
X572790Y910497D01*
X576210Y908522D01*
X580025Y907500D01*
X583975D01*
X587790Y908522D01*
X591210Y910497D01*
X594003Y913290D01*
X595978Y916710D01*
X597000Y920525D01*
Y924475D01*
X595978Y928290D01*
X594003Y931710D01*
X591210Y934503D01*
X587790Y936478D01*
X583975Y937500D01*
D02*
G37*
G36*
X533975D02*
X530025D01*
X526210Y936478D01*
X522790Y934503D01*
X519997Y931710D01*
X518022Y928290D01*
X517000Y924475D01*
Y920525D01*
X518022Y916710D01*
X519997Y913290D01*
X522790Y910497D01*
X526210Y908522D01*
X530025Y907500D01*
X533975D01*
X537790Y908522D01*
X541210Y910497D01*
X544003Y913290D01*
X545978Y916710D01*
X547000Y920525D01*
Y924475D01*
X545978Y928290D01*
X544003Y931710D01*
X541210Y934503D01*
X537790Y936478D01*
X533975Y937500D01*
D02*
G37*
G36*
X757293Y912111D02*
X754907D01*
X752701Y911198D01*
X751013Y909510D01*
X750100Y907304D01*
Y904917D01*
X751013Y902712D01*
X752701Y901024D01*
X754907Y900111D01*
X757293D01*
X759499Y901024D01*
X761187Y902712D01*
X762100Y904917D01*
Y907304D01*
X761187Y909510D01*
X759499Y911198D01*
X757293Y912111D01*
D02*
G37*
G36*
X1316194Y1003500D02*
X1313806D01*
X1311601Y1002587D01*
X1309913Y1000899D01*
X1309000Y998693D01*
Y996307D01*
X1309913Y994101D01*
X1310265Y993750D01*
X1309913Y993399D01*
X1309000Y991193D01*
Y988807D01*
X1309913Y986601D01*
X1310265Y986250D01*
X1309913Y985899D01*
X1309000Y983693D01*
Y981307D01*
X1309913Y979101D01*
X1310265Y978750D01*
X1309913Y978399D01*
X1309000Y976193D01*
Y973807D01*
X1309913Y971601D01*
X1310265Y971250D01*
X1309913Y970899D01*
X1309000Y968693D01*
Y966307D01*
X1309913Y964101D01*
X1310265Y963750D01*
X1309913Y963399D01*
X1309000Y961193D01*
Y958807D01*
X1309913Y956601D01*
X1310265Y956250D01*
X1309913Y955899D01*
X1309000Y953693D01*
Y951307D01*
X1309913Y949101D01*
X1310265Y948750D01*
X1309913Y948399D01*
X1309000Y946193D01*
Y943807D01*
X1309913Y941601D01*
X1310265Y941250D01*
X1309913Y940899D01*
X1309000Y938693D01*
Y936307D01*
X1309913Y934101D01*
X1310265Y933750D01*
X1309913Y933399D01*
X1309000Y931193D01*
Y928807D01*
X1309913Y926601D01*
X1310265Y926250D01*
X1309913Y925899D01*
X1309000Y923693D01*
Y921307D01*
X1309913Y919101D01*
X1310265Y918750D01*
X1309913Y918399D01*
X1309000Y916193D01*
Y913807D01*
X1309913Y911601D01*
X1310265Y911250D01*
X1309913Y910899D01*
X1309000Y908693D01*
Y906307D01*
X1309913Y904101D01*
X1310265Y903750D01*
X1309913Y903399D01*
X1309000Y901193D01*
Y898807D01*
X1309913Y896601D01*
X1311601Y894913D01*
X1313806Y894000D01*
X1316194D01*
X1318399Y894913D01*
X1320087Y896601D01*
X1321000Y898807D01*
Y901193D01*
X1320087Y903399D01*
X1319735Y903750D01*
X1320087Y904101D01*
X1321000Y906307D01*
Y908693D01*
X1320087Y910899D01*
X1319735Y911250D01*
X1320087Y911601D01*
X1321000Y913807D01*
Y916193D01*
X1320087Y918399D01*
X1319735Y918750D01*
X1320087Y919101D01*
X1321000Y921307D01*
Y923693D01*
X1320087Y925899D01*
X1319735Y926250D01*
X1320087Y926601D01*
X1321000Y928807D01*
Y931193D01*
X1320087Y933399D01*
X1319735Y933750D01*
X1320087Y934101D01*
X1321000Y936307D01*
Y938693D01*
X1320087Y940899D01*
X1319735Y941250D01*
X1320087Y941601D01*
X1321000Y943807D01*
Y946193D01*
X1320087Y948399D01*
X1319735Y948750D01*
X1320087Y949101D01*
X1321000Y951307D01*
Y953693D01*
X1320087Y955899D01*
X1319735Y956250D01*
X1320087Y956601D01*
X1321000Y958807D01*
Y961193D01*
X1320087Y963399D01*
X1319735Y963750D01*
X1320087Y964101D01*
X1321000Y966307D01*
Y968693D01*
X1320087Y970899D01*
X1319735Y971250D01*
X1320087Y971601D01*
X1321000Y973807D01*
Y976193D01*
X1320087Y978399D01*
X1319735Y978750D01*
X1320087Y979101D01*
X1321000Y981307D01*
Y983693D01*
X1320087Y985899D01*
X1319735Y986250D01*
X1320087Y986601D01*
X1321000Y988807D01*
Y991193D01*
X1320087Y993399D01*
X1319735Y993750D01*
X1320087Y994101D01*
X1321000Y996307D01*
Y998693D01*
X1320087Y1000899D01*
X1318399Y1002587D01*
X1316194Y1003500D01*
D02*
G37*
G36*
X586194Y902505D02*
X583806D01*
X581601Y901592D01*
X579913Y899904D01*
X579000Y897699D01*
Y895312D01*
X579913Y893107D01*
X581601Y891419D01*
X583806Y890506D01*
X586194D01*
X588399Y891419D01*
X590087Y893107D01*
X591000Y895312D01*
Y897699D01*
X590087Y899904D01*
X588399Y901592D01*
X586194Y902505D01*
D02*
G37*
G36*
X783977Y896250D02*
X781590D01*
X779384Y895337D01*
X777697Y893649D01*
X776783Y891443D01*
Y889057D01*
X777697Y886851D01*
X779384Y885163D01*
X781590Y884250D01*
X783977D01*
X786182Y885163D01*
X787870Y886851D01*
X788783Y889057D01*
Y891443D01*
X787870Y893649D01*
X786182Y895337D01*
X783977Y896250D01*
D02*
G37*
G36*
X767993Y896000D02*
X765607D01*
X763401Y895087D01*
X761713Y893399D01*
X760800Y891193D01*
Y888807D01*
X761713Y886601D01*
X763401Y884913D01*
X765607Y884000D01*
X767993D01*
X770199Y884913D01*
X771887Y886601D01*
X772800Y888807D01*
Y891193D01*
X771887Y893399D01*
X770199Y895087D01*
X767993Y896000D01*
D02*
G37*
G36*
X678693Y885250D02*
X676307D01*
X674101Y884336D01*
X672413Y882649D01*
X671937Y881499D01*
X670563D01*
X670087Y882649D01*
X668399Y884336D01*
X666193Y885250D01*
X663807D01*
X661601Y884336D01*
X659913Y882649D01*
X659000Y880443D01*
Y878056D01*
X659913Y875851D01*
X661515Y874250D01*
X659913Y872649D01*
X659000Y870443D01*
Y868056D01*
X659913Y865851D01*
X661515Y864250D01*
X659913Y862649D01*
X659000Y860443D01*
Y858056D01*
X659913Y855851D01*
X661140Y854625D01*
X659913Y853399D01*
X659000Y851193D01*
Y848807D01*
X659913Y846601D01*
X661601Y844913D01*
X663807Y844000D01*
X666193D01*
X668399Y844913D01*
X670087Y846601D01*
X670563Y847751D01*
X671937D01*
X672413Y846601D01*
X674101Y844913D01*
X676307Y844000D01*
X678693D01*
X680899Y844913D01*
X682587Y846601D01*
X683500Y848807D01*
Y851193D01*
X682587Y853399D01*
X681360Y854625D01*
X682587Y855851D01*
X683500Y858056D01*
Y860443D01*
X682587Y862649D01*
X680985Y864250D01*
X682587Y865851D01*
X683500Y868056D01*
Y870443D01*
X682587Y872649D01*
X680985Y874250D01*
X682587Y875851D01*
X683500Y878056D01*
Y880443D01*
X682587Y882649D01*
X680899Y884336D01*
X678693Y885250D01*
D02*
G37*
G36*
X733693Y901000D02*
X731307D01*
X729101Y900087D01*
X727413Y898399D01*
X726500Y896193D01*
Y893807D01*
X727413Y891601D01*
X729015Y890000D01*
X727413Y888399D01*
X726500Y886193D01*
Y883807D01*
X727413Y881601D01*
X729101Y879913D01*
X731307Y879000D01*
X733693D01*
X735899Y879913D01*
X737500Y881515D01*
X739101Y879913D01*
X741307Y879000D01*
X743693D01*
X745899Y879913D01*
X747587Y881601D01*
X748500Y883807D01*
Y886193D01*
X747587Y888399D01*
X745985Y890000D01*
X747587Y891601D01*
X748500Y893807D01*
Y896193D01*
X747587Y898399D01*
X745899Y900087D01*
X743693Y901000D01*
X741307D01*
X739101Y900087D01*
X737500Y898485D01*
X735899Y900087D01*
X733693Y901000D01*
D02*
G37*
G36*
X1306194Y886000D02*
X1303806D01*
X1301601Y885087D01*
X1299913Y883399D01*
X1299000Y881193D01*
Y878807D01*
X1299913Y876601D01*
X1301601Y874913D01*
X1303806Y874000D01*
X1306194D01*
X1308399Y874913D01*
X1310087Y876601D01*
X1311000Y878807D01*
Y881193D01*
X1310087Y883399D01*
X1308399Y885087D01*
X1306194Y886000D01*
D02*
G37*
G36*
X1183194Y884000D02*
X1180807D01*
X1178601Y883086D01*
X1176913Y881399D01*
X1176000Y879193D01*
Y876806D01*
X1176913Y874601D01*
X1178601Y872913D01*
X1180807Y872000D01*
X1183194D01*
X1185399Y872913D01*
X1187087Y874601D01*
X1188000Y876806D01*
Y879193D01*
X1187087Y881399D01*
X1185399Y883086D01*
X1183194Y884000D01*
D02*
G37*
G36*
X944769Y894728D02*
X942383D01*
X940177Y893814D01*
X938489Y892126D01*
X937576Y889921D01*
Y887534D01*
X938489Y885329D01*
X940177Y883641D01*
X941096Y883260D01*
X941394Y881762D01*
X940664Y881031D01*
X939750Y878826D01*
Y876439D01*
X940664Y874234D01*
X942351Y872546D01*
X944557Y871633D01*
X946944D01*
X949149Y872546D01*
X950837Y874234D01*
X951750Y876439D01*
Y878826D01*
X950837Y881031D01*
X949149Y882719D01*
X948230Y883100D01*
X947932Y884598D01*
X948662Y885329D01*
X949576Y887534D01*
Y889921D01*
X948662Y892126D01*
X946975Y893814D01*
X944769Y894728D01*
D02*
G37*
G36*
X911693Y869500D02*
X909306D01*
X907101Y868587D01*
X905414Y866899D01*
X904500Y864694D01*
Y862307D01*
X905414Y860101D01*
X907101Y858413D01*
X909306Y857500D01*
X911693D01*
X913899Y858413D01*
X915587Y860101D01*
X916500Y862307D01*
Y864694D01*
X915587Y866899D01*
X913899Y868587D01*
X911693Y869500D01*
D02*
G37*
G36*
X733693Y876000D02*
X731307D01*
X729101Y875087D01*
X727413Y873399D01*
X726500Y871193D01*
Y868807D01*
X727413Y866601D01*
X729101Y864913D01*
X730251Y864437D01*
Y863063D01*
X729101Y862587D01*
X727413Y860899D01*
X726500Y858693D01*
Y856307D01*
X727413Y854101D01*
X729101Y852413D01*
X731307Y851500D01*
X733693D01*
X735899Y852413D01*
X737500Y854015D01*
X739101Y852413D01*
X741307Y851500D01*
X743693D01*
X745899Y852413D01*
X747587Y854101D01*
X748500Y856307D01*
Y858693D01*
X747587Y860899D01*
X745899Y862587D01*
X744749Y863063D01*
Y864437D01*
X745899Y864913D01*
X747587Y866601D01*
X748500Y868807D01*
Y871193D01*
X747587Y873399D01*
X745899Y875087D01*
X743693Y876000D01*
X741307D01*
X739101Y875087D01*
X737500Y873485D01*
X735899Y875087D01*
X733693Y876000D01*
D02*
G37*
G36*
X868343Y869750D02*
X864657D01*
X861096Y868796D01*
X857904Y866953D01*
X855297Y864346D01*
X853454Y861154D01*
X852500Y857593D01*
Y853907D01*
X853454Y850346D01*
X855297Y847154D01*
X857904Y844547D01*
X861096Y842704D01*
X864657Y841750D01*
X868343D01*
X871904Y842704D01*
X875096Y844547D01*
X877703Y847154D01*
X879546Y850346D01*
X880500Y853907D01*
Y857593D01*
X879546Y861154D01*
X877703Y864346D01*
X875096Y866953D01*
X871904Y868796D01*
X868343Y869750D01*
D02*
G37*
G36*
X1001193Y841000D02*
X998807D01*
X996601Y840087D01*
X995000Y838485D01*
X993399Y840087D01*
X991193Y841000D01*
X988807D01*
X986601Y840087D01*
X984913Y838399D01*
X984000Y836193D01*
Y833807D01*
X984913Y831601D01*
X986515Y830000D01*
X984913Y828399D01*
X984000Y826193D01*
Y823807D01*
X984913Y821601D01*
X986515Y820000D01*
X984913Y818399D01*
X984000Y816193D01*
Y813807D01*
X984913Y811601D01*
X986515Y810000D01*
X984913Y808399D01*
X984000Y806193D01*
Y803807D01*
X984913Y801601D01*
X986515Y800000D01*
X984913Y798399D01*
X984000Y796193D01*
Y793807D01*
X984913Y791601D01*
X986515Y790000D01*
X984913Y788399D01*
X984000Y786193D01*
Y783807D01*
X984913Y781601D01*
X986515Y780000D01*
X984913Y778399D01*
X984000Y776193D01*
Y773807D01*
X984913Y771601D01*
X986515Y770000D01*
X984913Y768399D01*
X984000Y766193D01*
Y763807D01*
X984913Y761601D01*
X986601Y759913D01*
X988807Y759000D01*
X991193D01*
X993399Y759913D01*
X995087Y761601D01*
X996000Y763807D01*
Y766193D01*
X995087Y768399D01*
X993485Y770000D01*
X995087Y771601D01*
X996000Y773807D01*
Y776193D01*
X995087Y778399D01*
X993485Y780000D01*
X995087Y781601D01*
X996000Y783807D01*
Y786193D01*
X995087Y788399D01*
X993485Y790000D01*
X995087Y791601D01*
X996000Y793807D01*
Y796193D01*
X995087Y798399D01*
X993485Y800000D01*
X995000Y801515D01*
X996601Y799913D01*
X998807Y799000D01*
X1001193D01*
X1003399Y799913D01*
X1005087Y801601D01*
X1006000Y803807D01*
Y806193D01*
X1005087Y808399D01*
X1003485Y810000D01*
X1005087Y811601D01*
X1006000Y813807D01*
Y816193D01*
X1005087Y818399D01*
X1003485Y820000D01*
X1005087Y821601D01*
X1006000Y823807D01*
Y826193D01*
X1005087Y828399D01*
X1003485Y830000D01*
X1005087Y831601D01*
X1006000Y833807D01*
Y836193D01*
X1005087Y838399D01*
X1003399Y840087D01*
X1001193Y841000D01*
D02*
G37*
G36*
X945193Y841000D02*
X942806D01*
X940601Y840087D01*
X938913Y838399D01*
X938000Y836193D01*
Y833807D01*
X938913Y831601D01*
X940601Y829913D01*
X942806Y829000D01*
X945193D01*
X947399Y829913D01*
X949087Y831601D01*
X950000Y833807D01*
Y836193D01*
X949087Y838399D01*
X947399Y840087D01*
X945193Y841000D01*
D02*
G37*
G36*
X833194Y840000D02*
X830807D01*
X828601Y839087D01*
X826914Y837399D01*
X826000Y835193D01*
Y832806D01*
X826914Y830601D01*
X828601Y828913D01*
X830807Y828000D01*
X833194D01*
X835399Y828913D01*
X837087Y830601D01*
X838000Y832806D01*
Y835193D01*
X837087Y837399D01*
X835399Y839087D01*
X833194Y840000D01*
D02*
G37*
G36*
X1392164Y865150D02*
X1387836D01*
X1383560Y864473D01*
X1379444Y863135D01*
X1375587Y861170D01*
X1372085Y858626D01*
X1369024Y855565D01*
X1366480Y852063D01*
X1364515Y848206D01*
X1363177Y844090D01*
X1362500Y839814D01*
Y835486D01*
X1363177Y831210D01*
X1364515Y827094D01*
X1366480Y823237D01*
X1369024Y819735D01*
X1372085Y816674D01*
X1375587Y814130D01*
X1379444Y812165D01*
X1383560Y810827D01*
X1387836Y810150D01*
X1392164D01*
X1396440Y810827D01*
X1400556Y812165D01*
X1404413Y814130D01*
X1407915Y816674D01*
X1410976Y819735D01*
X1413520Y823237D01*
X1415485Y827094D01*
X1416823Y831210D01*
X1417500Y835486D01*
Y839814D01*
X1416823Y844090D01*
X1415485Y848206D01*
X1413520Y852063D01*
X1410976Y855565D01*
X1407915Y858626D01*
X1404413Y861170D01*
X1400556Y863135D01*
X1396440Y864473D01*
X1392164Y865150D01*
D02*
G37*
G36*
X582664D02*
X578336D01*
X574060Y864473D01*
X569944Y863135D01*
X566087Y861170D01*
X562585Y858626D01*
X559524Y855565D01*
X556980Y852063D01*
X555015Y848206D01*
X553677Y844090D01*
X553000Y839814D01*
Y835486D01*
X553677Y831210D01*
X555015Y827094D01*
X556980Y823237D01*
X559524Y819735D01*
X562585Y816674D01*
X566087Y814130D01*
X569944Y812165D01*
X574060Y810827D01*
X578336Y810150D01*
X582664D01*
X586940Y810827D01*
X591056Y812165D01*
X594913Y814130D01*
X598415Y816674D01*
X601476Y819735D01*
X604020Y823237D01*
X605985Y827094D01*
X607323Y831210D01*
X608000Y835486D01*
Y839814D01*
X607323Y844090D01*
X605985Y848206D01*
X604020Y852063D01*
X601476Y855565D01*
X598415Y858626D01*
X594913Y861170D01*
X591056Y863135D01*
X586940Y864473D01*
X582664Y865150D01*
D02*
G37*
G36*
X920193Y814000D02*
X917806D01*
X915601Y813086D01*
X913913Y811399D01*
X913000Y809193D01*
Y806806D01*
X913913Y804601D01*
X915601Y802913D01*
X917806Y802000D01*
X920193D01*
X922399Y802913D01*
X924087Y804601D01*
X925000Y806806D01*
Y809193D01*
X924087Y811399D01*
X922399Y813086D01*
X920193Y814000D01*
D02*
G37*
G36*
X814694Y801250D02*
X812307D01*
X810101Y800337D01*
X808413Y798649D01*
X807500Y796443D01*
Y794056D01*
X808413Y791851D01*
X810101Y790163D01*
X812307Y789250D01*
X814694D01*
X816899Y790163D01*
X818587Y791851D01*
X819500Y794056D01*
Y796443D01*
X818587Y798649D01*
X816899Y800337D01*
X814694Y801250D01*
D02*
G37*
G36*
X948693Y793500D02*
X946307D01*
X944101Y792587D01*
X942413Y790899D01*
X941500Y788693D01*
Y786307D01*
X942413Y784101D01*
X944101Y782413D01*
X946307Y781500D01*
X948693D01*
X950899Y782413D01*
X952587Y784101D01*
X953500Y786307D01*
Y788693D01*
X952587Y790899D01*
X950899Y792587D01*
X948693Y793500D01*
D02*
G37*
G36*
X751193Y773500D02*
X748807D01*
X746601Y772587D01*
X744913Y770899D01*
X744000Y768693D01*
Y766307D01*
X744913Y764101D01*
X746601Y762413D01*
X748807Y761500D01*
X751193D01*
X753399Y762413D01*
X755087Y764101D01*
X756000Y766307D01*
Y768693D01*
X755087Y770899D01*
X753399Y772587D01*
X751193Y773500D01*
D02*
G37*
G36*
X1316194Y868500D02*
X1313806D01*
X1311601Y867587D01*
X1309913Y865899D01*
X1309000Y863693D01*
Y861307D01*
X1309913Y859101D01*
X1310265Y858750D01*
X1309913Y858399D01*
X1309000Y856193D01*
Y853807D01*
X1309913Y851601D01*
X1310265Y851250D01*
X1309913Y850899D01*
X1309000Y848693D01*
Y846307D01*
X1309913Y844101D01*
X1310265Y843750D01*
X1309913Y843399D01*
X1309000Y841193D01*
Y838807D01*
X1309913Y836601D01*
X1310265Y836250D01*
X1309913Y835899D01*
X1309000Y833693D01*
Y831307D01*
X1309913Y829101D01*
X1310265Y828750D01*
X1309913Y828399D01*
X1309000Y826193D01*
Y823807D01*
X1309913Y821601D01*
X1310265Y821250D01*
X1309913Y820899D01*
X1309000Y818693D01*
Y816307D01*
X1309913Y814101D01*
X1310265Y813750D01*
X1309913Y813399D01*
X1309000Y811193D01*
Y808807D01*
X1309913Y806601D01*
X1310265Y806250D01*
X1309913Y805899D01*
X1309000Y803693D01*
Y801307D01*
X1309913Y799101D01*
X1310265Y798750D01*
X1309913Y798399D01*
X1309000Y796193D01*
Y793807D01*
X1309913Y791601D01*
X1310265Y791250D01*
X1309913Y790899D01*
X1309000Y788693D01*
Y786307D01*
X1309913Y784101D01*
X1310265Y783750D01*
X1309913Y783399D01*
X1309000Y781193D01*
Y778807D01*
X1309913Y776601D01*
X1310265Y776250D01*
X1309913Y775899D01*
X1309000Y773693D01*
Y771307D01*
X1309913Y769101D01*
X1310752Y768263D01*
X1310038Y766540D01*
Y764153D01*
X1310952Y761947D01*
X1312639Y760259D01*
X1314845Y759346D01*
X1317232D01*
X1319437Y760259D01*
X1321125Y761947D01*
X1322038Y764153D01*
Y766540D01*
X1321125Y768745D01*
X1320286Y769583D01*
X1321000Y771307D01*
Y773693D01*
X1320087Y775899D01*
X1319735Y776250D01*
X1320087Y776601D01*
X1321000Y778807D01*
Y781193D01*
X1320087Y783399D01*
X1319735Y783750D01*
X1320087Y784101D01*
X1321000Y786307D01*
Y788693D01*
X1320087Y790899D01*
X1319735Y791250D01*
X1320087Y791601D01*
X1321000Y793807D01*
Y796193D01*
X1320087Y798399D01*
X1319735Y798750D01*
X1320087Y799101D01*
X1321000Y801307D01*
Y803693D01*
X1320087Y805899D01*
X1319735Y806250D01*
X1320087Y806601D01*
X1321000Y808807D01*
Y811193D01*
X1320087Y813399D01*
X1319735Y813750D01*
X1320087Y814101D01*
X1321000Y816307D01*
Y818693D01*
X1320087Y820899D01*
X1319735Y821250D01*
X1320087Y821601D01*
X1321000Y823807D01*
Y826193D01*
X1320087Y828399D01*
X1319735Y828750D01*
X1320087Y829101D01*
X1321000Y831307D01*
Y833693D01*
X1320087Y835899D01*
X1319735Y836250D01*
X1320087Y836601D01*
X1321000Y838807D01*
Y841193D01*
X1320087Y843399D01*
X1319735Y843750D01*
X1320087Y844101D01*
X1321000Y846307D01*
Y848693D01*
X1320087Y850899D01*
X1319735Y851250D01*
X1320087Y851601D01*
X1321000Y853807D01*
Y856193D01*
X1320087Y858399D01*
X1319735Y858750D01*
X1320087Y859101D01*
X1321000Y861307D01*
Y863693D01*
X1320087Y865899D01*
X1318399Y867587D01*
X1316194Y868500D01*
D02*
G37*
G36*
X899193Y768000D02*
X896806D01*
X894601Y767087D01*
X892914Y765399D01*
X892000Y763194D01*
Y760807D01*
X892914Y758601D01*
X894601Y756914D01*
X896806Y756000D01*
X899193D01*
X901399Y756914D01*
X901704Y757219D01*
X902950Y756971D01*
X903413Y755851D01*
X905101Y754163D01*
X907307Y753250D01*
X909694D01*
X911899Y754163D01*
X913587Y755851D01*
X914500Y758056D01*
Y760443D01*
X913587Y762649D01*
X911899Y764336D01*
X909694Y765250D01*
X907307D01*
X905101Y764336D01*
X904796Y764031D01*
X903550Y764279D01*
X903087Y765399D01*
X901399Y767087D01*
X899193Y768000D01*
D02*
G37*
G36*
Y753180D02*
X896806D01*
X894601Y752267D01*
X892914Y750579D01*
X892000Y748373D01*
Y745987D01*
X892914Y743781D01*
X894601Y742094D01*
X896806Y741180D01*
X899193D01*
X901399Y742094D01*
X903087Y743781D01*
X904000Y745987D01*
Y748373D01*
X903087Y750579D01*
X901399Y752267D01*
X899193Y753180D01*
D02*
G37*
G36*
X1392164Y788950D02*
X1387836D01*
X1383560Y788273D01*
X1379444Y786935D01*
X1375587Y784970D01*
X1372085Y782426D01*
X1369024Y779365D01*
X1366480Y775863D01*
X1364515Y772006D01*
X1363177Y767890D01*
X1362500Y763614D01*
Y759286D01*
X1363177Y755010D01*
X1364515Y750894D01*
X1366480Y747037D01*
X1369024Y743535D01*
X1372085Y740474D01*
X1375587Y737930D01*
X1379444Y735965D01*
X1383560Y734627D01*
X1387836Y733950D01*
X1392164D01*
X1396440Y734627D01*
X1400556Y735965D01*
X1404413Y737930D01*
X1407915Y740474D01*
X1410976Y743535D01*
X1413520Y747037D01*
X1415485Y750894D01*
X1416823Y755010D01*
X1417500Y759286D01*
Y763614D01*
X1416823Y767890D01*
X1415485Y772006D01*
X1413520Y775863D01*
X1410976Y779365D01*
X1407915Y782426D01*
X1404413Y784970D01*
X1400556Y786935D01*
X1396440Y788273D01*
X1392164Y788950D01*
D02*
G37*
G36*
X919694Y743309D02*
X917307D01*
X915101Y742395D01*
X913413Y740707D01*
X912500Y738502D01*
Y736115D01*
X913413Y733910D01*
X915101Y732222D01*
X917307Y731309D01*
X919694D01*
X921899Y732222D01*
X923587Y733910D01*
X924500Y736115D01*
Y738502D01*
X923587Y740707D01*
X921899Y742395D01*
X919694Y743309D01*
D02*
G37*
G36*
X1311194Y741000D02*
X1308806D01*
X1306601Y740087D01*
X1304913Y738399D01*
X1304000Y736193D01*
Y733807D01*
X1304913Y731601D01*
X1306601Y729913D01*
X1308806Y729000D01*
X1311194D01*
X1313399Y729913D01*
X1315087Y731601D01*
X1316000Y733807D01*
Y736193D01*
X1315087Y738399D01*
X1313399Y740087D01*
X1311194Y741000D01*
D02*
G37*
G36*
X809158Y739000D02*
X806771D01*
X804566Y738087D01*
X802878Y736399D01*
X801964Y734193D01*
Y731806D01*
X802878Y729601D01*
X804566Y727914D01*
X806771Y727000D01*
X809158D01*
X811363Y727914D01*
X813051Y729601D01*
X813964Y731806D01*
Y734193D01*
X813051Y736399D01*
X811363Y738087D01*
X809158Y739000D01*
D02*
G37*
G36*
X1193693Y736000D02*
X1191307D01*
X1189101Y735087D01*
X1187413Y733399D01*
X1186500Y731193D01*
Y728807D01*
X1187413Y726601D01*
X1189101Y724913D01*
X1191307Y724000D01*
X1193693D01*
X1195899Y724913D01*
X1197587Y726601D01*
X1198500Y728807D01*
Y731193D01*
X1197587Y733399D01*
X1195899Y735087D01*
X1193693Y736000D01*
D02*
G37*
G36*
X901193D02*
X898807D01*
X896601Y735087D01*
X894913Y733399D01*
X894000Y731193D01*
Y728807D01*
X894913Y726601D01*
X896601Y724913D01*
X898807Y724000D01*
X901193D01*
X903399Y724913D01*
X905087Y726601D01*
X906000Y728807D01*
Y731193D01*
X905087Y733399D01*
X903399Y735087D01*
X901193Y736000D01*
D02*
G37*
G36*
X922185Y729550D02*
X919798D01*
X917593Y728637D01*
X915905Y726949D01*
X914991Y724744D01*
Y722357D01*
X915905Y720152D01*
X917593Y718464D01*
X919798Y717550D01*
X922185D01*
X924390Y718464D01*
X926078Y720152D01*
X926991Y722357D01*
Y724744D01*
X926078Y726949D01*
X924390Y728637D01*
X922185Y729550D01*
D02*
G37*
G36*
X656193Y726000D02*
X653807D01*
X651601Y725087D01*
X649913Y723399D01*
X649000Y721193D01*
Y718807D01*
X649913Y716601D01*
X651601Y714913D01*
X653807Y714000D01*
X656193D01*
X658399Y714913D01*
X660087Y716601D01*
X661000Y718807D01*
Y721193D01*
X660087Y723399D01*
X658399Y725087D01*
X656193Y726000D01*
D02*
G37*
G36*
X899193Y719000D02*
X896806D01*
X894601Y718086D01*
X892914Y716399D01*
X892000Y714193D01*
Y711806D01*
X892914Y709601D01*
X894601Y707913D01*
X896806Y707000D01*
X899193D01*
X901399Y707913D01*
X903087Y709601D01*
X904000Y711806D01*
Y714193D01*
X903087Y716399D01*
X901399Y718086D01*
X899193Y719000D01*
D02*
G37*
G36*
X929026Y709900D02*
X926639D01*
X924434Y708987D01*
X922746Y707299D01*
X921832Y705093D01*
Y702707D01*
X922746Y700501D01*
X924434Y698813D01*
X926639Y697900D01*
X929026D01*
X931231Y698813D01*
X932919Y700501D01*
X933832Y702707D01*
Y705093D01*
X932919Y707299D01*
X931231Y708987D01*
X929026Y709900D01*
D02*
G37*
G36*
X808693Y706000D02*
X806307D01*
X804101Y705087D01*
X802413Y703399D01*
X801500Y701193D01*
Y698807D01*
X802413Y696601D01*
X804101Y694913D01*
X806307Y694000D01*
X808693D01*
X810899Y694913D01*
X812587Y696601D01*
X813500Y698807D01*
Y701193D01*
X812587Y703399D01*
X810899Y705087D01*
X808693Y706000D01*
D02*
G37*
G36*
X899193Y703000D02*
X896806D01*
X894601Y702087D01*
X892914Y700399D01*
X892000Y698194D01*
Y695807D01*
X892914Y693601D01*
X894601Y691913D01*
X896806Y691000D01*
X899193D01*
X901399Y691913D01*
X903087Y693601D01*
X904000Y695807D01*
Y698194D01*
X903087Y700399D01*
X901399Y702087D01*
X899193Y703000D01*
D02*
G37*
G36*
X1001193Y691000D02*
X998807D01*
X996601Y690087D01*
X995000Y688485D01*
X993399Y690087D01*
X991193Y691000D01*
X988807D01*
X986601Y690087D01*
X984913Y688399D01*
X984000Y686193D01*
Y683807D01*
X984913Y681601D01*
X986515Y680000D01*
X984913Y678399D01*
X984000Y676193D01*
Y673807D01*
X984913Y671601D01*
X986515Y670000D01*
X984913Y668399D01*
X984000Y666193D01*
Y663807D01*
X984913Y661601D01*
X986515Y660000D01*
X984913Y658399D01*
X984000Y656193D01*
Y653807D01*
X984913Y651601D01*
X986515Y650000D01*
X984913Y648399D01*
X984000Y646193D01*
Y643807D01*
X984913Y641601D01*
X986515Y640000D01*
X984913Y638399D01*
X984000Y636193D01*
Y633806D01*
X984913Y631601D01*
X986515Y630000D01*
X984913Y628399D01*
X984000Y626193D01*
Y623806D01*
X984913Y621601D01*
X986515Y620000D01*
X984913Y618399D01*
X984000Y616194D01*
Y613806D01*
X984913Y611601D01*
X986601Y609913D01*
X988807Y609000D01*
X991193D01*
X993399Y609913D01*
X995087Y611601D01*
X996000Y613806D01*
Y616194D01*
X995087Y618399D01*
X993485Y620000D01*
X995087Y621601D01*
X996000Y623806D01*
Y626193D01*
X995087Y628399D01*
X993485Y630000D01*
X995087Y631601D01*
X996000Y633806D01*
Y636193D01*
X995087Y638399D01*
X993485Y640000D01*
X995087Y641601D01*
X996000Y643807D01*
Y646193D01*
X995087Y648399D01*
X993485Y650000D01*
X995000Y651515D01*
X996601Y649913D01*
X998807Y649000D01*
X1001193D01*
X1003399Y649913D01*
X1005087Y651601D01*
X1006000Y653807D01*
Y656193D01*
X1005087Y658399D01*
X1003485Y660000D01*
X1005087Y661601D01*
X1006000Y663807D01*
Y666193D01*
X1005087Y668399D01*
X1003485Y670000D01*
X1005087Y671601D01*
X1006000Y673807D01*
Y676193D01*
X1005087Y678399D01*
X1003485Y680000D01*
X1005087Y681601D01*
X1006000Y683807D01*
Y686193D01*
X1005087Y688399D01*
X1003399Y690087D01*
X1001193Y691000D01*
D02*
G37*
G36*
X785694Y695078D02*
X783307D01*
X781101Y694165D01*
X779414Y692477D01*
X778500Y690272D01*
Y687885D01*
X779414Y685680D01*
X781101Y683992D01*
X783307Y683078D01*
X785694D01*
X787899Y683992D01*
X789587Y685680D01*
X790500Y687885D01*
Y690272D01*
X789587Y692477D01*
X787899Y694165D01*
X785694Y695078D01*
D02*
G37*
G36*
X926193Y693500D02*
X923807D01*
X921601Y692587D01*
X919913Y690899D01*
X919000Y688693D01*
Y686307D01*
X919913Y684101D01*
X921601Y682413D01*
X923807Y681500D01*
X926193D01*
X928399Y682413D01*
X930087Y684101D01*
X931000Y686307D01*
Y688693D01*
X930087Y690899D01*
X928399Y692587D01*
X926193Y693500D01*
D02*
G37*
G36*
X832194Y676750D02*
X829807D01*
X827601Y675837D01*
X825913Y674149D01*
X825906Y674130D01*
X825689Y674087D01*
X823484Y675000D01*
X821096D01*
X818891Y674087D01*
X817203Y672399D01*
X816290Y670193D01*
Y667806D01*
X817203Y665601D01*
X818891Y663913D01*
X821096Y663000D01*
X823484D01*
X825689Y663913D01*
X827377Y665601D01*
X827384Y665620D01*
X827601Y665664D01*
X829807Y664750D01*
X832194D01*
X834399Y665664D01*
X836087Y667351D01*
X837000Y669557D01*
Y671944D01*
X836087Y674149D01*
X834399Y675837D01*
X832194Y676750D01*
D02*
G37*
G36*
X1392164Y712750D02*
X1387836D01*
X1383560Y712073D01*
X1379444Y710735D01*
X1375587Y708770D01*
X1372085Y706226D01*
X1369024Y703165D01*
X1366480Y699663D01*
X1364515Y695806D01*
X1363177Y691690D01*
X1362500Y687414D01*
Y683086D01*
X1363177Y678810D01*
X1364515Y674694D01*
X1366480Y670837D01*
X1369024Y667335D01*
X1372085Y664274D01*
X1375587Y661730D01*
X1379444Y659765D01*
X1383560Y658427D01*
X1387836Y657750D01*
X1392164D01*
X1396440Y658427D01*
X1400556Y659765D01*
X1404413Y661730D01*
X1407915Y664274D01*
X1410976Y667335D01*
X1413520Y670837D01*
X1415485Y674694D01*
X1416823Y678810D01*
X1417500Y683086D01*
Y687414D01*
X1416823Y691690D01*
X1415485Y695806D01*
X1413520Y699663D01*
X1410976Y703165D01*
X1407915Y706226D01*
X1404413Y708770D01*
X1400556Y710735D01*
X1396440Y712073D01*
X1392164Y712750D01*
D02*
G37*
G36*
X787126Y667215D02*
X784739D01*
X782534Y666301D01*
X780846Y664613D01*
X779933Y662408D01*
Y660021D01*
X780846Y657816D01*
X782534Y656128D01*
X784739Y655215D01*
X787126D01*
X789331Y656128D01*
X791019Y657816D01*
X791933Y660021D01*
Y662408D01*
X791019Y664613D01*
X789331Y666301D01*
X787126Y667215D01*
D02*
G37*
G36*
X930694Y645600D02*
X928307D01*
X926101Y644687D01*
X924413Y642999D01*
X923500Y640794D01*
Y638406D01*
X924413Y636201D01*
X926101Y634513D01*
X928307Y633600D01*
X930694D01*
X932899Y634513D01*
X934586Y636201D01*
X935500Y638406D01*
Y640794D01*
X934586Y642999D01*
X932899Y644687D01*
X930694Y645600D01*
D02*
G37*
G36*
X833693Y624250D02*
X831307D01*
X829101Y623336D01*
X827413Y621649D01*
X826500Y619444D01*
Y617057D01*
X827413Y614851D01*
X829101Y613163D01*
X831307Y612250D01*
X833693D01*
X835899Y613163D01*
X837587Y614851D01*
X838500Y617057D01*
Y619444D01*
X837587Y621649D01*
X835899Y623336D01*
X833693Y624250D01*
D02*
G37*
G36*
X1316194Y718500D02*
X1313806D01*
X1311601Y717587D01*
X1309913Y715899D01*
X1309000Y713693D01*
Y711307D01*
X1309913Y709101D01*
X1310265Y708750D01*
X1309913Y708399D01*
X1309000Y706193D01*
Y703807D01*
X1309913Y701601D01*
X1310265Y701250D01*
X1309913Y700899D01*
X1309000Y698693D01*
Y696307D01*
X1309913Y694101D01*
X1310265Y693750D01*
X1309913Y693399D01*
X1309000Y691193D01*
Y688807D01*
X1309913Y686601D01*
X1310265Y686250D01*
X1309913Y685899D01*
X1309000Y683693D01*
Y681307D01*
X1309913Y679101D01*
X1310265Y678750D01*
X1309913Y678399D01*
X1309000Y676193D01*
Y673807D01*
X1309913Y671601D01*
X1310265Y671250D01*
X1309913Y670899D01*
X1309000Y668693D01*
Y666307D01*
X1309913Y664101D01*
X1310265Y663750D01*
X1309913Y663399D01*
X1309000Y661193D01*
Y658807D01*
X1309913Y656601D01*
X1310265Y656250D01*
X1309913Y655899D01*
X1309000Y653693D01*
Y651307D01*
X1309913Y649101D01*
X1310265Y648750D01*
X1309913Y648399D01*
X1309000Y646193D01*
Y643807D01*
X1309913Y641601D01*
X1310265Y641250D01*
X1309913Y640899D01*
X1309000Y638694D01*
Y636306D01*
X1309913Y634101D01*
X1310265Y633750D01*
X1309913Y633399D01*
X1309000Y631194D01*
Y628806D01*
X1309913Y626601D01*
X1310265Y626250D01*
X1309913Y625899D01*
X1309000Y623694D01*
Y621306D01*
X1309913Y619101D01*
X1310265Y618750D01*
X1309913Y618399D01*
X1309000Y616194D01*
Y613806D01*
X1309913Y611601D01*
X1311601Y609913D01*
X1313806Y609000D01*
X1316194D01*
X1318399Y609913D01*
X1320087Y611601D01*
X1321000Y613806D01*
Y616194D01*
X1320087Y618399D01*
X1319735Y618750D01*
X1320087Y619101D01*
X1321000Y621306D01*
Y623694D01*
X1320087Y625899D01*
X1319735Y626250D01*
X1320087Y626601D01*
X1321000Y628806D01*
Y631194D01*
X1320087Y633399D01*
X1319735Y633750D01*
X1320087Y634101D01*
X1321000Y636306D01*
Y638694D01*
X1320087Y640899D01*
X1319735Y641250D01*
X1320087Y641601D01*
X1321000Y643807D01*
Y646193D01*
X1320087Y648399D01*
X1319735Y648750D01*
X1320087Y649101D01*
X1321000Y651307D01*
Y653693D01*
X1320087Y655899D01*
X1319735Y656250D01*
X1320087Y656601D01*
X1321000Y658807D01*
Y661193D01*
X1320087Y663399D01*
X1319735Y663750D01*
X1320087Y664101D01*
X1321000Y666307D01*
Y668693D01*
X1320087Y670899D01*
X1319735Y671250D01*
X1320087Y671601D01*
X1321000Y673807D01*
Y676193D01*
X1320087Y678399D01*
X1319735Y678750D01*
X1320087Y679101D01*
X1321000Y681307D01*
Y683693D01*
X1320087Y685899D01*
X1319735Y686250D01*
X1320087Y686601D01*
X1321000Y688807D01*
Y691193D01*
X1320087Y693399D01*
X1319735Y693750D01*
X1320087Y694101D01*
X1321000Y696307D01*
Y698693D01*
X1320087Y700899D01*
X1319735Y701250D01*
X1320087Y701601D01*
X1321000Y703807D01*
Y706193D01*
X1320087Y708399D01*
X1319735Y708750D01*
X1320087Y709101D01*
X1321000Y711307D01*
Y713693D01*
X1320087Y715899D01*
X1318399Y717587D01*
X1316194Y718500D01*
D02*
G37*
G36*
X899193Y623000D02*
X896806D01*
X894601Y622087D01*
X892914Y620399D01*
X892000Y618194D01*
Y615807D01*
X892914Y613601D01*
X894601Y611913D01*
X896806Y611000D01*
X899193D01*
X899411Y611090D01*
X900383Y610118D01*
X900000Y609193D01*
Y606806D01*
X900913Y604601D01*
X902601Y602913D01*
X904807Y602000D01*
X907194D01*
X909399Y602913D01*
X911087Y604601D01*
X912000Y606806D01*
Y609193D01*
X911087Y611399D01*
X909399Y613087D01*
X907194Y614000D01*
X904807D01*
X904589Y613910D01*
X903617Y614882D01*
X904000Y615807D01*
Y618194D01*
X903087Y620399D01*
X901399Y622087D01*
X899193Y623000D01*
D02*
G37*
G36*
X727958Y605886D02*
X725571D01*
X723366Y604973D01*
X721678Y603285D01*
X720765Y601079D01*
Y598693D01*
X721678Y596487D01*
X723366Y594799D01*
X725571Y593886D01*
X727958D01*
X730163Y594799D01*
X731851Y596487D01*
X732765Y598693D01*
Y601079D01*
X731851Y603285D01*
X730163Y604973D01*
X727958Y605886D01*
D02*
G37*
G36*
X1311194Y601000D02*
X1308806D01*
X1306601Y600087D01*
X1304913Y598399D01*
X1304000Y596194D01*
Y593806D01*
X1304913Y591601D01*
X1306601Y589913D01*
X1308806Y589000D01*
X1311194D01*
X1313399Y589913D01*
X1315087Y591601D01*
X1316000Y593806D01*
Y596194D01*
X1315087Y598399D01*
X1313399Y600087D01*
X1311194Y601000D01*
D02*
G37*
G36*
X1184193Y600000D02*
X1181806D01*
X1179601Y599087D01*
X1177913Y597399D01*
X1177000Y595193D01*
Y592807D01*
X1177913Y590601D01*
X1179601Y588913D01*
X1181806Y588000D01*
X1184193D01*
X1186399Y588913D01*
X1188086Y590601D01*
X1189000Y592807D01*
Y595193D01*
X1188086Y597399D01*
X1186399Y599087D01*
X1184193Y600000D01*
D02*
G37*
G36*
X1392164Y636550D02*
X1387836D01*
X1383560Y635873D01*
X1379444Y634535D01*
X1375587Y632570D01*
X1372085Y630026D01*
X1369024Y626965D01*
X1366480Y623463D01*
X1364515Y619606D01*
X1363177Y615490D01*
X1362500Y611214D01*
Y606886D01*
X1363177Y602610D01*
X1364515Y598494D01*
X1366480Y594637D01*
X1369024Y591135D01*
X1372085Y588074D01*
X1375587Y585530D01*
X1379444Y583565D01*
X1383560Y582227D01*
X1387836Y581550D01*
X1392164D01*
X1396440Y582227D01*
X1400556Y583565D01*
X1404413Y585530D01*
X1407915Y588074D01*
X1410976Y591135D01*
X1413520Y594637D01*
X1415485Y598494D01*
X1416823Y602610D01*
X1417500Y606886D01*
Y611214D01*
X1416823Y615490D01*
X1415485Y619606D01*
X1413520Y623463D01*
X1410976Y626965D01*
X1407915Y630026D01*
X1404413Y632570D01*
X1400556Y634535D01*
X1396440Y635873D01*
X1392164Y636550D01*
D02*
G37*
G36*
X582664D02*
X578336D01*
X574060Y635873D01*
X569944Y634535D01*
X566087Y632570D01*
X562585Y630026D01*
X559524Y626965D01*
X556980Y623463D01*
X555015Y619606D01*
X553677Y615490D01*
X553000Y611214D01*
Y606886D01*
X553677Y602610D01*
X555015Y598494D01*
X556980Y594637D01*
X559524Y591135D01*
X562585Y588074D01*
X566087Y585530D01*
X569944Y583565D01*
X574060Y582227D01*
X578336Y581550D01*
X582664D01*
X586940Y582227D01*
X591056Y583565D01*
X594913Y585530D01*
X598415Y588074D01*
X601476Y591135D01*
X604020Y594637D01*
X605985Y598494D01*
X607323Y602610D01*
X608000Y606886D01*
Y611214D01*
X607323Y615490D01*
X605985Y619606D01*
X604020Y623463D01*
X601476Y626965D01*
X598415Y630026D01*
X594913Y632570D01*
X591056Y634535D01*
X586940Y635873D01*
X582664Y636550D01*
D02*
G37*
G36*
X926475Y561400D02*
X924088D01*
X921883Y560487D01*
X920195Y558799D01*
X919282Y556594D01*
Y554207D01*
X920195Y552001D01*
X921883Y550313D01*
X924088Y549400D01*
X926475D01*
X928680Y550313D01*
X930368Y552001D01*
X931282Y554207D01*
Y556594D01*
X930368Y558799D01*
X928680Y560487D01*
X926475Y561400D01*
D02*
G37*
G36*
X1373694Y558500D02*
X1371306D01*
X1369101Y557587D01*
X1367413Y555899D01*
X1366500Y553694D01*
Y551306D01*
X1367413Y549101D01*
X1369101Y547413D01*
X1371306Y546500D01*
X1373694D01*
X1375899Y547413D01*
X1377587Y549101D01*
X1378500Y551306D01*
Y553694D01*
X1377587Y555899D01*
X1375899Y557587D01*
X1373694Y558500D01*
D02*
G37*
G36*
X1001193Y546000D02*
X998807D01*
X996601Y545087D01*
X995000Y543485D01*
X993399Y545087D01*
X991193Y546000D01*
X988807D01*
X986601Y545087D01*
X984913Y543399D01*
X984000Y541194D01*
Y538806D01*
X984913Y536601D01*
X986515Y535000D01*
X984913Y533399D01*
X984000Y531194D01*
Y528806D01*
X984913Y526601D01*
X986515Y525000D01*
X984913Y523399D01*
X984000Y521194D01*
Y518807D01*
X984913Y516601D01*
X986515Y515000D01*
X984913Y513399D01*
X984000Y511194D01*
Y508807D01*
X984913Y506601D01*
X986515Y505000D01*
X984913Y503399D01*
X984000Y501194D01*
Y498806D01*
X984913Y496601D01*
X986515Y495000D01*
X984913Y493399D01*
X984000Y491194D01*
Y488806D01*
X984913Y486601D01*
X986515Y485000D01*
X984913Y483399D01*
X984000Y481194D01*
Y478806D01*
X984913Y476601D01*
X986601Y474913D01*
X988807Y474000D01*
X991193D01*
X993399Y474913D01*
X995087Y476601D01*
X996000Y478806D01*
Y481194D01*
X995087Y483399D01*
X993485Y485000D01*
X995087Y486601D01*
X996000Y488806D01*
Y491194D01*
X995087Y493399D01*
X993485Y495000D01*
X995000Y496515D01*
X996601Y494913D01*
X998807Y494000D01*
X1001193D01*
X1003399Y494913D01*
X1005087Y496601D01*
X1006000Y498807D01*
Y501194D01*
X1005087Y503399D01*
X1003485Y505000D01*
X1005087Y506601D01*
X1006000Y508807D01*
Y511194D01*
X1005087Y513399D01*
X1003485Y515000D01*
X1005087Y516601D01*
X1006000Y518807D01*
Y521194D01*
X1005087Y523399D01*
X1003485Y525000D01*
X1005087Y526601D01*
X1006000Y528806D01*
Y531194D01*
X1005087Y533399D01*
X1003485Y535000D01*
X1005087Y536601D01*
X1006000Y538806D01*
Y541194D01*
X1005087Y543399D01*
X1003399Y545087D01*
X1001193Y546000D01*
D02*
G37*
G36*
X1316194Y583500D02*
X1313806D01*
X1311601Y582587D01*
X1309913Y580899D01*
X1309000Y578694D01*
Y576306D01*
X1309913Y574101D01*
X1310265Y573750D01*
X1309913Y573399D01*
X1309000Y571194D01*
Y568806D01*
X1309913Y566601D01*
X1310265Y566250D01*
X1309913Y565899D01*
X1309000Y563694D01*
Y561306D01*
X1309913Y559101D01*
X1310265Y558750D01*
X1309913Y558399D01*
X1309000Y556194D01*
Y553806D01*
X1309913Y551601D01*
X1310265Y551250D01*
X1309913Y550899D01*
X1309000Y548694D01*
Y546307D01*
X1309913Y544101D01*
X1311601Y542413D01*
X1313806Y541500D01*
X1316194D01*
X1318399Y542413D01*
X1320087Y544101D01*
X1321000Y546307D01*
Y548694D01*
X1320087Y550899D01*
X1319735Y551250D01*
X1320087Y551601D01*
X1321000Y553806D01*
Y556194D01*
X1320087Y558399D01*
X1319735Y558750D01*
X1320087Y559101D01*
X1321000Y561306D01*
Y563694D01*
X1320087Y565899D01*
X1319735Y566250D01*
X1320087Y566601D01*
X1321000Y568806D01*
Y571194D01*
X1320087Y573399D01*
X1319735Y573750D01*
X1320087Y574101D01*
X1321000Y576306D01*
Y578694D01*
X1320087Y580899D01*
X1318399Y582587D01*
X1316194Y583500D01*
D02*
G37*
G36*
X633975Y540000D02*
X630025D01*
X626210Y538978D01*
X622790Y537003D01*
X619997Y534210D01*
X618022Y530790D01*
X617000Y526975D01*
Y523025D01*
X618022Y519210D01*
X619997Y515790D01*
X622790Y512997D01*
X626210Y511022D01*
X630025Y510000D01*
X633975D01*
X637790Y511022D01*
X641210Y512997D01*
X644003Y515790D01*
X645978Y519210D01*
X647000Y523025D01*
Y526975D01*
X645978Y530790D01*
X644003Y534210D01*
X641210Y537003D01*
X637790Y538978D01*
X633975Y540000D01*
D02*
G37*
G36*
X583975D02*
X580025D01*
X576210Y538978D01*
X572790Y537003D01*
X569997Y534210D01*
X568022Y530790D01*
X567000Y526975D01*
Y523025D01*
X568022Y519210D01*
X569997Y515790D01*
X572790Y512997D01*
X576210Y511022D01*
X580025Y510000D01*
X583975D01*
X587790Y511022D01*
X591210Y512997D01*
X594003Y515790D01*
X595978Y519210D01*
X597000Y523025D01*
Y526975D01*
X595978Y530790D01*
X594003Y534210D01*
X591210Y537003D01*
X587790Y538978D01*
X583975Y540000D01*
D02*
G37*
G36*
X533975D02*
X530025D01*
X526210Y538978D01*
X522790Y537003D01*
X519997Y534210D01*
X518022Y530790D01*
X517000Y526975D01*
Y523025D01*
X518022Y519210D01*
X519997Y515790D01*
X522790Y512997D01*
X526210Y511022D01*
X530025Y510000D01*
X533975D01*
X537790Y511022D01*
X541210Y512997D01*
X544003Y515790D01*
X545978Y519210D01*
X547000Y523025D01*
Y526975D01*
X545978Y530790D01*
X544003Y534210D01*
X541210Y537003D01*
X537790Y538978D01*
X533975Y540000D01*
D02*
G37*
G36*
X881193Y511000D02*
X878807D01*
X876601Y510087D01*
X875000Y508485D01*
X873399Y510087D01*
X871193Y511000D01*
X868807D01*
X866601Y510087D01*
X865000Y508485D01*
X863399Y510087D01*
X861193Y511000D01*
X858807D01*
X856601Y510087D01*
X855000Y508485D01*
X853399Y510087D01*
X851193Y511000D01*
X848807D01*
X846601Y510087D01*
X844913Y508399D01*
X844000Y506194D01*
Y503806D01*
X844913Y501601D01*
X846515Y500000D01*
X844913Y498399D01*
X844000Y496194D01*
Y493806D01*
X844913Y491601D01*
X846515Y490000D01*
X844913Y488399D01*
X844000Y486194D01*
Y483806D01*
X844913Y481601D01*
X846601Y479913D01*
X848807Y479000D01*
X851193D01*
X853399Y479913D01*
X855000Y481515D01*
X856601Y479913D01*
X858807Y479000D01*
X861193D01*
X863399Y479913D01*
X865000Y481515D01*
X866601Y479913D01*
X868807Y479000D01*
X871193D01*
X873399Y479913D01*
X875000Y481515D01*
X876601Y479913D01*
X878807Y479000D01*
X881193D01*
X883399Y479913D01*
X885087Y481601D01*
X886000Y483806D01*
Y486194D01*
X885087Y488399D01*
X883485Y490000D01*
X885087Y491601D01*
X886000Y493806D01*
Y496194D01*
X885087Y498399D01*
X883485Y500000D01*
X885087Y501601D01*
X886000Y503806D01*
Y506194D01*
X885087Y508399D01*
X883399Y510087D01*
X881193Y511000D01*
D02*
G37*
G36*
X926193Y506000D02*
X923807D01*
X921601Y505087D01*
X919913Y503399D01*
X919000Y501194D01*
Y498806D01*
X919913Y496601D01*
X921601Y494913D01*
X923807Y494000D01*
X926193D01*
X928399Y494913D01*
X930087Y496601D01*
X931000Y498806D01*
Y501194D01*
X930087Y503399D01*
X928399Y505087D01*
X926193Y506000D01*
D02*
G37*
G36*
X1316194Y538500D02*
X1313806D01*
X1311601Y537587D01*
X1309913Y535899D01*
X1309000Y533694D01*
Y531306D01*
X1309913Y529101D01*
X1310265Y528750D01*
X1309913Y528399D01*
X1309000Y526194D01*
Y523806D01*
X1309913Y521601D01*
X1310265Y521250D01*
X1309913Y520899D01*
X1309000Y518694D01*
Y516306D01*
X1309913Y514101D01*
X1310265Y513750D01*
X1309913Y513399D01*
X1309000Y511194D01*
Y508807D01*
X1309913Y506601D01*
X1310265Y506250D01*
X1309913Y505899D01*
X1309000Y503694D01*
Y501306D01*
X1309913Y499101D01*
X1310265Y498750D01*
X1309913Y498399D01*
X1309000Y496194D01*
Y493806D01*
X1309913Y491601D01*
X1310265Y491250D01*
X1309913Y490899D01*
X1309000Y488694D01*
Y486306D01*
X1309913Y484101D01*
X1310265Y483750D01*
X1309913Y483399D01*
X1309000Y481194D01*
Y478806D01*
X1309913Y476601D01*
X1311601Y474913D01*
X1313806Y474000D01*
X1316194D01*
X1318399Y474913D01*
X1320087Y476601D01*
X1321000Y478806D01*
Y481194D01*
X1320087Y483399D01*
X1319735Y483750D01*
X1320087Y484101D01*
X1321000Y486306D01*
Y488694D01*
X1320087Y490899D01*
X1319735Y491250D01*
X1320087Y491601D01*
X1321000Y493806D01*
Y496194D01*
X1320087Y498399D01*
X1319735Y498750D01*
X1320087Y499101D01*
X1321000Y501306D01*
Y503694D01*
X1320087Y505899D01*
X1319735Y506250D01*
X1320087Y506601D01*
X1321000Y508807D01*
Y511194D01*
X1320087Y513399D01*
X1319735Y513750D01*
X1320087Y514101D01*
X1321000Y516306D01*
Y518694D01*
X1320087Y520899D01*
X1319735Y521250D01*
X1320087Y521601D01*
X1321000Y523806D01*
Y526194D01*
X1320087Y528399D01*
X1319735Y528750D01*
X1320087Y529101D01*
X1321000Y531306D01*
Y533694D01*
X1320087Y535899D01*
X1318399Y537587D01*
X1316194Y538500D01*
D02*
G37*
G36*
Y461000D02*
X1313806D01*
X1311601Y460087D01*
X1309913Y458399D01*
X1309000Y456194D01*
Y453806D01*
X1309913Y451601D01*
X1311601Y449913D01*
X1313806Y449000D01*
X1316194D01*
X1318399Y449913D01*
X1320087Y451601D01*
X1321000Y453806D01*
Y456194D01*
X1320087Y458399D01*
X1318399Y460087D01*
X1316194Y461000D01*
D02*
G37*
G36*
X634475Y470250D02*
X630525D01*
X626710Y469228D01*
X623290Y467253D01*
X620497Y464460D01*
X618522Y461040D01*
X617500Y457225D01*
Y453275D01*
X618522Y449460D01*
X620497Y446040D01*
X623290Y443247D01*
X626710Y441272D01*
X630525Y440250D01*
X634475D01*
X638290Y441272D01*
X641710Y443247D01*
X644503Y446040D01*
X646478Y449460D01*
X647500Y453275D01*
Y457225D01*
X646478Y461040D01*
X644503Y464460D01*
X641710Y467253D01*
X638290Y469228D01*
X634475Y470250D01*
D02*
G37*
G36*
X584475D02*
X580525D01*
X576710Y469228D01*
X573290Y467253D01*
X570497Y464460D01*
X568522Y461040D01*
X567500Y457225D01*
Y453275D01*
X568522Y449460D01*
X570497Y446040D01*
X573290Y443247D01*
X576710Y441272D01*
X580525Y440250D01*
X584475D01*
X588290Y441272D01*
X591710Y443247D01*
X594503Y446040D01*
X596478Y449460D01*
X597500Y453275D01*
Y457225D01*
X596478Y461040D01*
X594503Y464460D01*
X591710Y467253D01*
X588290Y469228D01*
X584475Y470250D01*
D02*
G37*
G36*
X534475D02*
X530525D01*
X526710Y469228D01*
X523290Y467253D01*
X520497Y464460D01*
X518522Y461040D01*
X517500Y457225D01*
Y453275D01*
X518522Y449460D01*
X520497Y446040D01*
X523290Y443247D01*
X526710Y441272D01*
X530525Y440250D01*
X534475D01*
X538290Y441272D01*
X541710Y443247D01*
X544503Y446040D01*
X546478Y449460D01*
X547500Y453275D01*
Y457225D01*
X546478Y461040D01*
X544503Y464460D01*
X541710Y467253D01*
X538290Y469228D01*
X534475Y470250D01*
D02*
G37*
G36*
X824264Y456000D02*
X821236D01*
X818311Y455216D01*
X815689Y453702D01*
X813548Y451561D01*
X812034Y448939D01*
X811250Y446014D01*
Y442986D01*
X812034Y440061D01*
X813548Y437439D01*
X815689Y435298D01*
X818311Y433784D01*
X821236Y433000D01*
X824264D01*
X827189Y433784D01*
X829811Y435298D01*
X831952Y437439D01*
X833466Y440061D01*
X834250Y442986D01*
Y446014D01*
X833466Y448939D01*
X831952Y451561D01*
X829811Y453702D01*
X827189Y455216D01*
X824264Y456000D01*
D02*
G37*
G36*
X798864D02*
X795836D01*
X792911Y455216D01*
X790289Y453702D01*
X788148Y451561D01*
X786634Y448939D01*
X785850Y446014D01*
Y442986D01*
X786634Y440061D01*
X788148Y437439D01*
X790289Y435298D01*
X792911Y433784D01*
X795836Y433000D01*
X798864D01*
X801789Y433784D01*
X804411Y435298D01*
X806552Y437439D01*
X808066Y440061D01*
X808850Y442986D01*
Y446014D01*
X808066Y448939D01*
X806552Y451561D01*
X804411Y453702D01*
X801789Y455216D01*
X798864Y456000D01*
D02*
G37*
G36*
X1019814Y454000D02*
X1016786D01*
X1013861Y453216D01*
X1011239Y451702D01*
X1009098Y449561D01*
X1007584Y446939D01*
X1006800Y444014D01*
Y440986D01*
X1007584Y438061D01*
X1009098Y435439D01*
X1011239Y433298D01*
X1013861Y431784D01*
X1016786Y431000D01*
X1019814D01*
X1022739Y431784D01*
X1025361Y433298D01*
X1027502Y435439D01*
X1029016Y438061D01*
X1029800Y440986D01*
Y444014D01*
X1029016Y446939D01*
X1027502Y449561D01*
X1025361Y451702D01*
X1022739Y453216D01*
X1019814Y454000D01*
D02*
G37*
G36*
X994414D02*
X991386D01*
X988461Y453216D01*
X985839Y451702D01*
X983698Y449561D01*
X982184Y446939D01*
X981400Y444014D01*
Y440986D01*
X982184Y438061D01*
X983698Y435439D01*
X985839Y433298D01*
X988461Y431784D01*
X991386Y431000D01*
X994414D01*
X997339Y431784D01*
X999961Y433298D01*
X1002102Y435439D01*
X1003616Y438061D01*
X1004400Y440986D01*
Y444014D01*
X1003616Y446939D01*
X1002102Y449561D01*
X999961Y451702D01*
X997339Y453216D01*
X994414Y454000D01*
D02*
G37*
G36*
X969014D02*
X965986D01*
X963061Y453216D01*
X960439Y451702D01*
X958298Y449561D01*
X956784Y446939D01*
X956000Y444014D01*
Y440986D01*
X956784Y438061D01*
X958298Y435439D01*
X960439Y433298D01*
X963061Y431784D01*
X965986Y431000D01*
X969014D01*
X971939Y431784D01*
X974561Y433298D01*
X976702Y435439D01*
X978216Y438061D01*
X979000Y440986D01*
Y444014D01*
X978216Y446939D01*
X976702Y449561D01*
X974561Y451702D01*
X971939Y453216D01*
X969014Y454000D01*
D02*
G37*
G36*
X734975Y431000D02*
X731025D01*
X727210Y429978D01*
X723790Y428003D01*
X720997Y425210D01*
X719022Y421790D01*
X718000Y417975D01*
Y414025D01*
X719022Y410210D01*
X720997Y406790D01*
X723790Y403997D01*
X727210Y402022D01*
X731025Y401000D01*
X734975D01*
X738790Y402022D01*
X742210Y403997D01*
X745003Y406790D01*
X746978Y410210D01*
X748000Y414025D01*
Y417975D01*
X746978Y421790D01*
X745003Y425210D01*
X742210Y428003D01*
X738790Y429978D01*
X734975Y431000D01*
D02*
G37*
G36*
X684975D02*
X681025D01*
X677210Y429978D01*
X673790Y428003D01*
X670997Y425210D01*
X669022Y421790D01*
X668000Y417975D01*
Y414025D01*
X669022Y410210D01*
X670997Y406790D01*
X673790Y403997D01*
X677210Y402022D01*
X681025Y401000D01*
X684975D01*
X688790Y402022D01*
X692210Y403997D01*
X695003Y406790D01*
X696978Y410210D01*
X698000Y414025D01*
Y417975D01*
X696978Y421790D01*
X695003Y425210D01*
X692210Y428003D01*
X688790Y429978D01*
X684975Y431000D01*
D02*
G37*
%LPD*%
D46*
X580500Y685250D02*
D03*
Y761450D02*
D03*
D48*
X816000Y962500D02*
D03*
X816500Y855750D02*
D03*
D49*
X848150Y444500D02*
D03*
X796250Y1026250D02*
D03*
D50*
X771980Y702801D02*
D03*
X745000Y820000D02*
D03*
X1120000Y887000D02*
D03*
X693000Y607000D02*
D03*
X718000Y590000D02*
D03*
X831000Y517000D02*
D03*
X1123000Y602000D02*
D03*
X777500Y720000D02*
D03*
X735000Y487500D02*
D03*
X1120000Y460000D02*
D03*
Y745000D02*
D03*
X1362500Y1062500D02*
D03*
Y477500D02*
D03*
X1104750Y432250D02*
D03*
Y422250D02*
D03*
Y412250D02*
D03*
X1114750Y432250D02*
D03*
Y422250D02*
D03*
Y412250D02*
D03*
X1124750Y432250D02*
D03*
Y422250D02*
D03*
Y412250D02*
D03*
X1135000Y412000D02*
D03*
Y422000D02*
D03*
Y432000D02*
D03*
M02*
